<?xml version="1.0" encoding="UTF-8"?>
<svg id="Layer_1" xmlns="http://www.w3.org/2000/svg" viewBox="0 0 262.59 220.12">
  <defs>
    <style>
      .cls-1 {
        fill: #6cc5e7;
      }
    </style>
  </defs>
  <g id="megaphone">
    <path class="cls-1" d="M117.28,13.68c-1.5-1.5-3.62-2.22-5.73-1.89-2.1.31-3.92,1.61-4.92,3.49l-42.11,79.55-22.95,22.95c-7.06,7.07-9.22,17.1-6.72,26.1-8.26,10.5-7.68,25.73,2,35.42,5.22,5.21,12.08,7.82,18.93,7.82,5.86,0,11.65-2.02,16.48-5.83,2.35.65,4.75,1.1,7.17,1.1,4.7,0,9.35-1.32,13.52-3.77l17.24,17.23c3.26,3.26,7.54,4.89,11.83,4.89s8.57-1.63,11.83-4.89c6.52-6.52,6.52-17.13,0-23.66l-16.56-16.56,4.02-4.02,79.55-42.12c1.88-.99,3.17-2.82,3.49-4.92.31-2.1-.39-4.22-1.89-5.72L117.28,13.68ZM46.3,169.84c-3.49-3.49-4.59-8.43-3.42-12.88l16.3,16.3c-4.45,1.17-9.39.07-12.88-3.41ZM69.96,165.11l-18.93-18.93c-5.21-5.21-5.21-13.71,0-18.93l18.93-18.93,37.86,37.86-18.93,18.93c-5.21,5.22-13.7,5.22-18.93,0ZM124.38,181.67c.84.84.97,1.84.97,2.37s-.13,1.53-.96,2.36c-1.28,1.27-3.45,1.29-4.73,0l-16.57-16.56,4.73-4.73,16.56,16.56ZM118.52,137.95l-40.33-40.33L114.22,29.55l72.37,72.36-68.07,36.04ZM142.76,20.08V6.69c0-3.7,2.99-6.69,6.69-6.69s6.69,3,6.69,6.69v13.38c0,3.7-2.99,6.69-6.69,6.69s-6.69-3-6.69-6.69ZM216.37,66.92c0,3.7-2.99,6.69-6.69,6.69h-13.38c-3.7,0-6.69-3-6.69-6.69s2.99-6.69,6.69-6.69h13.38c3.7,0,6.69,3,6.69,6.69ZM171.49,44.88c-2.61-2.61-2.61-6.85,0-9.46l13.38-13.38c2.61-2.61,6.85-2.61,9.46,0,2.61,2.61,2.61,6.85,0,9.46l-13.38,13.38c-1.31,1.31-3.02,1.96-4.73,1.96s-3.42-.65-4.73-1.96Z"/>
  </g>
</svg>