<?xml version="1.0" encoding="UTF-8"?>
<svg id="Layer_1" xmlns="http://www.w3.org/2000/svg" viewBox="0 0 287.33 446.12">
  <defs>
    <style>
      .cls-1 {
        fill: #fff;
      }
    </style>
  </defs>
  <path class="cls-1" d="M232.02,60.53c-2.47-3.45-5.64-6.2-9.41-8.17-1.49-.77-3.02-1.35-4.61-1.85l1.54-8.26c.38-2.03-.11-4.14-1.34-5.79-1.23-1.65-3.12-2.73-5.17-2.94l-122.39-12.9c-2.05-.22-4.12.44-5.67,1.8-1.55,1.36-2.47,3.32-2.52,5.38l-.21,8.4c-1.65.15-3.28.41-4.9.85-4.1,1.14-7.76,3.17-10.91,6.04-3.08,2.82-5.29,6.06-6.76,9.91-1.51,3.96-1.99,8.09-1.42,12.3.35,2.49,1,4.7,2.05,6.95,1.16,2.46,2.58,4.5,4.44,6.42,2.89,2.98,6.53,5.08,10.47,6.11-.78,1.35-1.29,2.87-1.47,4.52-.67,6.32,3.93,12,10.25,12.66l7.17.76-2.04,19.33c-.17,1.64,0,3.23.47,4.7l-3.17-.33c-6.32-.67-12,3.93-12.66,10.25-.67,6.32,3.93,12,10.25,12.66l2.21.23-33.6,318.86,7,.74,33.6-318.86,90.23,9.51-33.6,318.86,7,.74,33.6-318.86,2.21.23c6.32.67,12-3.93,12.66-10.25.67-6.32-3.93-12-10.25-12.66l-3.16-.33c.76-1.35,1.27-2.87,1.44-4.5l2.04-19.33,7.17.76c6.32.67,12-3.93,12.66-10.25.17-1.64-.02-3.23-.49-4.71,4.09-.17,8.05-1.48,11.5-3.8,2.23-1.49,4.04-3.19,5.7-5.36,1.49-1.97,2.59-3.99,3.45-6.37,1.43-3.98,1.83-8.12,1.17-12.31-.63-4.07-2.12-7.7-4.55-11.11ZM89.62,27.71c.08-.07.18-.1.29-.09l122.39,12.9c.11.01.2.06.26.15.06.09.09.19.07.29l-1.55,8.28c-5.64-.56-12.4.31-20.22,1.32-11.25,1.45-25.25,3.26-41.65,1.53-16.41-1.73-29.72-6.42-40.42-10.18-7.44-2.62-13.87-4.87-19.5-5.51l.21-8.43c0-.11.05-.2.13-.27ZM98.88,74.88c1.33-2.51,2.08-5.17,2.23-7.91.08-1.53-.03-3.02-.31-4.45.46.26.9.51,1.37.78,2.25,1.28,4.61,2.63,7.1,3.97l-1.48,14.03-12.82-1.35c1.56-1.46,2.88-3.14,3.91-5.06ZM193.67,84.88c.61,2.08,1.55,4,2.77,5.75l-12.82-1.35,1.48-14.03c2.71-.8,5.3-1.62,7.77-2.41.51-.16,1-.32,1.5-.48-.57,1.35-.99,2.78-1.23,4.3-.43,2.71-.26,5.47.53,8.22ZM176.62,88.54l-10.21-1.08.86-8.2c3.68-.52,7.19-1.22,10.53-2.04l-1.19,11.31ZM159.41,86.73l-10.21-1.08.6-5.65c3.57.22,7,.2,10.32,0l-.71,6.73ZM142.2,84.92l-10.21-1.08.71-6.73c3.2.89,6.56,1.63,10.09,2.16l-.6,5.65ZM125,83.1l-10.21-1.08,1.19-11.31c3.1,1.49,6.39,2.92,9.88,4.19l-.86,8.2ZM170.16,130.58c-.27,2.54-2.55,4.39-5.09,4.12-2.54-.27-4.39-2.55-4.12-5.09l1.95-18.48c3.05.51,6.09,1.07,9.13,1.68l-1.87,17.77ZM112.34,124.48l1.87-17.77c3.1.04,6.19.13,9.28.26l-1.95,18.48c-.27,2.54-2.55,4.39-5.09,4.12-2.54-.27-4.39-2.55-4.12-5.09ZM128.55,126.19l1.99-18.84c3.08.2,6.16.45,9.23.74l-2.01,19.07c-.27,2.54-2.55,4.39-5.09,4.12s-4.38-2.55-4.12-5.09ZM144.75,127.9l2.01-19.07c3.06.36,6.12.75,9.18,1.2l-1.99,18.84c-.27,2.54-2.55,4.39-5.09,4.12-2.54-.27-4.38-2.55-4.12-5.09ZM96.14,122.78l1.67-15.87c3.11-.11,6.22-.19,9.33-.22l-1.8,17.06c-.27,2.54-2.55,4.39-5.09,4.12-2.54-.27-4.38-2.55-4.12-5.09ZM194.35,144.86c2.46.26,4.24,2.47,3.99,4.92s-2.47,4.24-4.92,3.98l-108.64-11.45c-2.46-.26-4.24-2.47-3.99-4.92s2.47-4.24,4.92-3.98l13.81,1.46,16.21,1.71,16.2,1.71,16.21,1.71,16.21,1.71,16.2,1.71,13.81,1.46ZM177.16,131.31l1.8-17.06c3.03.67,6.06,1.4,9.08,2.16l-1.67,15.87c-.27,2.54-2.55,4.39-5.09,4.12s-4.38-2.55-4.12-5.09ZM203.31,107.44l-10.67-1.12-16.21-1.71-16.21-1.71-16.2-1.71-16.21-1.71-16.21-1.71-16.2-1.71-10.67-1.12c-2.46-.26-4.24-2.47-3.98-4.92.26-2.46,2.47-4.24,4.92-3.99l24.87,2.62,17.21,1.81,17.21,1.81,17.21,1.81,17.21,1.81,24.87,2.62c2.46.26,4.24,2.47,3.98,4.92-.26,2.46-2.47,4.24-4.92,3.98ZM228.78,81.56c-.61,1.68-1.39,3.12-2.43,4.5-1.16,1.52-2.44,2.72-4.01,3.77-3.1,2.08-6.62,2.89-10.3,2.54-1.76-.2-3.45-.71-5.03-1.53-1.63-.86-3.01-1.98-4.21-3.43-1.11-1.34-1.88-2.82-2.37-4.49-.5-1.73-.61-3.47-.34-5.14.31-1.94,1.02-3.59,2.16-5.05,1.28-1.64,2.9-2.78,4.83-3.38.81-.25,1.61-.37,2.41-.39.25,0,.49,0,.73.03.68.04,1.36.15,2.03.36,1.71.55,2.99,1.51,3.89,2.9l.27.46c.79,1.46.97,2.88.54,4.31-.24.78-.58,1.37-1.07,1.87-.37.37-.76.64-1.16.8.72-1.08.8-2.49.17-3.64l-.12-.23c-.32-.58-.75-1.09-1.35-1.54-1.22-.88-2.78-1.12-4.38-.63-1.12.39-2.07,1.12-2.73,2.09-1.14,1.66-1.4,3.78-.71,5.82.76,2.2,2.51,3.96,4.8,4.82,1.66.64,3.45.76,5.33.35,1.93-.42,3.65-1.38,5.15-2.88,1.32-1.34,2.23-2.9,2.81-4.8.97-3.28.57-6.67-1.15-9.78l-.49-.81c-1.81-2.8-4.39-4.75-7.67-5.8-.94-.3-1.89-.48-2.84-.6-.08-.01-.15-.04-.24-.05-.3-.03-.61-.03-.92-.04-.29-.02-.58-.04-.88-.04-5.29-.06-11.34,1.85-18.81,4.22-11.76,3.74-26.39,8.4-43.7,6.57s-30.66-9.43-41.37-15.54c-6.8-3.87-12.31-7-17.49-8.05-.32-.07-.64-.11-.96-.16-.28-.04-.56-.11-.83-.14-.08,0-.15,0-.22,0-.96-.08-1.93-.11-2.92,0-3.42.35-6.35,1.72-8.75,4.12l-.6.65c-2.33,2.68-3.42,5.91-3.16,9.36.17,1.95.74,3.67,1.77,5.27,1.14,1.76,2.62,3.06,4.44,3.88,1.75.77,3.52,1.03,5.25.76,2.43-.37,4.52-1.72,5.73-3.73,1.09-1.83,1.28-3.95.52-5.81-.45-1.11-1.23-2.02-2.34-2.68-1.37-.77-2.95-.85-4.37-.22-.61.28-1.14.68-1.57,1.18l-.19.23c-.85,1-1.07,2.39-.59,3.59-.36-.25-.67-.58-.95-1-.4-.62-.61-1.27-.67-2.04-.12-1.53.35-2.88,1.43-4.14l.34-.36c1.2-1.2,2.65-1.87,4.44-2.05.64-.07,1.26-.04,1.87.04.34.04.67.09,1,.18.74.19,1.47.46,2.19.87,1.76.99,3.12,2.44,4.03,4.32.81,1.66,1.15,3.42,1.06,5.38-.09,1.7-.56,3.37-1.4,4.95-.84,1.55-1.91,2.83-3.27,3.91-1.47,1.17-3.05,1.98-4.82,2.48-1.72.47-3.48.63-5.25.45-3.68-.36-6.94-1.95-9.54-4.63-1.31-1.35-2.31-2.79-3.12-4.51-.74-1.58-1.2-3.15-1.45-4.91-.42-3.05-.08-5.94,1.02-8.82,1.07-2.8,2.69-5.17,4.94-7.23,2.31-2.11,5.02-3.6,8.03-4.44,1.56-.43,3.11-.67,4.73-.75,1.27-.05,2.57.09,3.95.24l.43.05c4.86.51,11,2.67,18.11,5.17,11.05,3.89,24.79,8.73,42.02,10.54,17.23,1.82,31.68-.05,43.29-1.55,7.47-.96,13.93-1.8,18.79-1.29l.43.05c1.37.15,2.68.28,3.9.59,1.58.41,3.05.97,4.48,1.71,2.78,1.45,5.12,3.48,6.94,6.02,1.77,2.49,2.86,5.15,3.32,8.11.48,3.05.2,5.94-.84,8.83Z"/>
  <path class="cls-1" d="M105.73,164.36c-3.8-.4-7.21,2.36-7.61,6.16l-31.55,299.37,13.76,1.45,31.55-299.37c.4-3.8-2.36-7.21-6.16-7.61Z"/>
  <path class="cls-1" d="M126.59,166.56c-3.8-.4-7.21,2.36-7.61,6.16l-31.55,299.37,13.76,1.45,31.55-299.37c.4-3.8-2.36-7.21-6.16-7.61Z"/>
  <path class="cls-1" d="M147.45,168.76c-3.8-.4-7.21,2.36-7.61,6.16l-31.55,299.37,13.76,1.45,31.55-299.37c.4-3.8-2.36-7.21-6.16-7.61Z"/>
  <path class="cls-1" d="M168.31,170.96c-3.8-.4-7.21,2.36-7.61,6.16l-31.55,299.37,13.76,1.45,31.55-299.37c.4-3.8-2.36-7.21-6.16-7.61Z"/>
</svg>