<?xml version="1.0" encoding="UTF-8"?>
<svg id="Layer_1" xmlns="http://www.w3.org/2000/svg" viewBox="0 0 540 782.08">
  <defs>
    <style>
      .cls-1 {
        fill: #6cc5e7;
      }

      .cls-2, .cls-3, .cls-4 {
        fill: #fff;
      }

      .cls-3, .cls-4, .cls-5 {
        stroke: #0088ce;
        stroke-linecap: round;
        stroke-linejoin: round;
      }

      .cls-3, .cls-5 {
        stroke-width: 1.5px;
      }

      .cls-4 {
        stroke-width: 1.8px;
      }

      .cls-6 {
        fill: #0088ce;
      }

      .cls-7 {
        fill: #efcb78;
      }

      .cls-5 {
        fill: none;
      }
    </style>
  </defs>
  <circle class="cls-1" cx="163.34" cy="617.08" r="128.79"/>
  <g>
    <path class="cls-7" d="M472.24,180.03c-.74-.27-1.12-1.15-.85-1.96.28-.81,1.11-1.28,1.86-1.03.75.24,1.13,1.12.85,1.96-.28.84-1.12,1.3-1.86,1.03Z"/>
    <path class="cls-7" d="M478.24,148.18c-.79-.03-1.41-.74-1.39-1.6.02-.86.68-1.55,1.47-1.55.79,0,1.42.71,1.4,1.6-.02.88-.68,1.58-1.47,1.55Z"/>
    <path class="cls-7" d="M456.62,208.43c-.62-.49-.7-1.43-.17-2.1.51-.69,1.43-.88,2.07-.42.64.46.75,1.43.22,2.14-.55.7-1.49.87-2.12.38Z"/>
    <path class="cls-7" d="M433.04,230.64c-.44-.65-.24-1.59.46-2.08.7-.5,1.64-.38,2.11.26.47.64.26,1.57-.46,2.09-.72.51-1.67.4-2.11-.26Z"/>
    <path class="cls-7" d="M403.72,244.47c-.22-.76.27-1.57,1.1-1.8.82-.25,1.67.12,1.92.88.24.75-.23,1.6-1.08,1.86-.85.24-1.72-.18-1.94-.94Z"/>
    <path class="cls-7" d="M371.58,248.53c.03-.79.74-1.41,1.6-1.39s1.55.68,1.55,1.47c0,.79-.71,1.42-1.6,1.4-.88-.02-1.58-.68-1.55-1.47Z"/>
    <path class="cls-7" d="M339.73,242.53c.27-.74,1.15-1.12,1.96-.85.81.28,1.28,1.11,1.03,1.86-.24.75-1.12,1.13-1.96.85-.84-.28-1.3-1.12-1.03-1.86Z"/>
    <path class="cls-7" d="M311.33,226.91c.49-.62,1.43-.7,2.1-.17.69.51.88,1.43.42,2.07-.46.64-1.43.75-2.14.22-.7-.55-.87-1.49-.38-2.12Z"/>
    <path class="cls-7" d="M289.12,203.34c.65-.44,1.59-.24,2.08.46s.38,1.64-.26,2.11c-.64.47-1.57.26-2.09-.46-.51-.72-.4-1.67.26-2.11Z"/>
    <path class="cls-7" d="M275.29,174.01c.76-.22,1.57.27,1.8,1.1.25.82-.12,1.67-.88,1.92-.75.24-1.6-.23-1.86-1.08-.24-.85.17-1.72.93-1.94Z"/>
    <path class="cls-7" d="M464.8,145.03h-10.94s-.03-.97-.07-2.8c-.02-.46,0-.97-.05-1.53-.04-.56-.09-1.17-.14-1.83-.05-.66-.09-1.37-.17-2.12-.1-.75-.2-1.55-.31-2.39-.85-6.72-3.12-16.32-8.59-26.63-2.72-5.15-6.35-10.37-10.77-15.38-2.25-2.47-4.65-4.93-7.33-7.2-1.3-1.18-2.73-2.24-4.12-3.35-.71-.54-1.46-1.04-2.19-1.57l-1.1-.79-1.15-.74c-6.09-4-12.96-7.22-20.27-9.44-3.65-1.13-7.43-1.9-11.25-2.51-3.83-.57-7.72-.8-11.61-.86-3.9.06-7.79.29-11.61.86-3.82.61-7.6,1.38-11.25,2.51-7.31,2.22-14.18,5.44-20.27,9.44l-1.15.74-1.1.79c-.73.53-1.48,1.03-2.19,1.57-1.4,1.12-2.83,2.17-4.12,3.35-2.68,2.26-5.09,4.73-7.33,7.2-4.42,5.01-8.05,10.23-10.77,15.38-5.48,10.31-7.75,19.91-8.59,26.63-.11.84-.21,1.64-.31,2.39-.07.75-.11,1.46-.17,2.12-.05.66-.1,1.27-.14,1.83-.04.56-.03,1.07-.05,1.53-.05,1.83-.07,2.8-.07,2.8,0,0,.03.97.07,2.8.02.46,0,.97.05,1.53.04.56.09,1.17.14,1.83.05.66.09,1.37.17,2.12.1.75.2,1.55.31,2.39.85,6.72,3.12,16.32,8.59,26.63,2.72,5.15,6.35,10.37,10.77,15.38,2.25,2.47,4.65,4.93,7.33,7.2,1.3,1.18,2.73,2.24,4.12,3.35.71.54,1.46,1.04,2.19,1.57l1.1.79,1.15.74c6.09,4,12.96,7.22,20.27,9.44,3.65,1.13,7.43,1.9,11.25,2.51,3.83.56,7.72.8,11.61.86,3.9-.06,7.79-.29,11.61-.86,3.82-.61,7.6-1.38,11.25-2.51,7.31-2.22,14.18-5.44,20.27-9.44l1.15-.74,1.1-.79c.73-.53,1.48-1.03,2.19-1.57,1.4-1.12,2.83-2.17,4.12-3.35,2.68-2.27,5.09-4.73,7.33-7.2,4.42-5.01,8.05-10.23,10.77-15.38,5.48-10.31,7.75-19.91,8.59-26.63.11-.84.21-1.64.31-2.39.07-.75.11-1.46.17-2.12.05-.66.1-1.27.14-1.83.04-.56.03-1.07.05-1.53.05-1.83.07-2.8.07-2.8h10.94c3.02,2.08,7.23,3.38,10.51,5.88,1.62,1.25,3.02,2.82,3.94,4.96.8,2.13,1.23,4.87.56,8.3-.14.8-.33,1.57-.55,2.3-.25.73-.54,1.42-.87,2.06-.66,1.29-1.4,2.4-2.34,3.23-1.87,1.67-4.12,2.31-6.59,1.56-2.39-.72-3.77-2.15-4.49-3.63-.69-1.48-.84-3.05-.59-4.15.53-2.02,1.99-4.84,5.26-4.31,2.82.46,2.12,3.74,1.48,3.6-.47-.46-2.64-1.37-3.19.97-.38,1.66,1.01,2.45,2.38,2.79.52.13,1.39.23,2.27-.3.44-.26.88-.69,1.29-1.35.41-.66.77-1.55.97-2.76.21-1.16.19-2.27-.03-3.26-.22-1-.72-1.9-1.33-2.65-1.26-1.52-3.18-2.46-5.51-2.72-2.73-.3-4.88.5-6.43,2-.75.76-1.46,1.68-1.98,2.76-.27.54-.5,1.12-.69,1.74-.2.62-.41,1.26-.56,1.94-.22.95-.3,1.83-.28,2.65-.01.81.09,1.57.28,2.29.4,1.44,1.17,2.72,2.09,3.92,2.26,2.92,5.87,5.46,8.18,8.84,1.16,1.69,2.06,3.65,2.19,5.94.07,1.15,0,2.41-.31,3.76-.34,1.34-.89,2.78-1.7,4.33-.78,1.42-1.72,2.66-2.71,3.7-.98,1.04-2.13,1.8-3.25,2.32-2.24,1.05-4.61.92-6.74-.55-4.03-2.86-3.55-7.05-2.39-8.96.52-.91,1.38-1.89,2.48-2.46,1.1-.57,2.38-.78,3.85,0,1.26.66,1.51,1.72,1.32,2.57-.2.84-.78,1.46-1.06,1.3-.28-.57-2.11-2.13-3.3-.06-.84,1.49.18,2.63,1.39,3.39.9.56,3.25,1.51,5.68-2.77,1.14-2.08,1.24-4.23.55-6.04-.74-1.84-2.29-3.34-4.42-4.31-2.52-1.14-4.74-1.01-6.72-.09-.99.46-1.91,1.14-2.73,2.02-.84.87-1.65,1.89-2.34,3.11-1,1.68-1.49,3.18-1.52,4.7-.1,1.47.21,2.91.75,4.36.66,1.77,1.6,3.5,2.55,5.3.95,1.8,1.9,3.66,2.51,5.65.58,1.97.77,4.05.24,6.32-.26,1.14-.77,2.26-1.48,3.45-.36.59-.77,1.2-1.25,1.81-.5.59-1.06,1.18-1.69,1.79-.58.56-1.19,1.07-1.8,1.53-.62.45-1.27.83-1.9,1.16-1.29.65-2.54,1.11-3.79,1.23-2.49.26-4.68-.55-6.25-2.61-1.51-1.98-1.78-3.95-1.5-5.57.31-1.6,1.11-2.97,1.97-3.7.4-.34.88-.68,1.42-.95.53-.28,1.1-.52,1.7-.63,1.2-.22,2.52.01,3.67,1.19,2.01,2.03-.49,4.26-.93,3.77-.05-.32-.39-.99-.93-1.38-.54-.38-1.29-.49-2.21.29-1.29,1.12-.63,2.58.28,3.66.34.41.99,1,2.01,1.09.51.05,1.12-.04,1.83-.33.36-.15.74-.35,1.15-.61.4-.28.81-.63,1.26-1.05.86-.81,1.49-1.71,1.9-2.65.38-.96.54-1.96.48-2.93-.12-1.96-1.11-3.85-2.84-5.44-2.03-1.85-4.24-2.47-6.39-2.17-1.06.16-2.15.52-3.23,1.07-1.07.56-2.1,1.35-3.18,2.24-.74.64-1.32,1.3-1.79,1.97-.49.65-.85,1.32-1.11,2.02-.52,1.4-.66,2.89-.62,4.4.12,3.71,1.54,7.87,1.43,11.96-.05,2.06-.47,4.16-1.71,6.09-.62.97-1.4,1.96-2.46,2.86-1.06.88-2.35,1.73-3.91,2.52-1.47.67-2.95,1.15-4.37,1.41-1.41.25-2.79.21-4-.03-2.43-.46-4.28-1.97-5.13-4.41-.83-2.37-.45-4.26.3-5.76.76-1.49,1.98-2.45,3.02-2.9.95-.43,2.22-.72,3.45-.54,1.23.2,2.39.77,3.13,2.26.63,1.27.22,2.29-.44,2.85-.65.57-1.49.73-1.62.43.11-.63-.46-2.97-2.64-1.98-1.56.71-1.4,2.23-.86,3.56.39.97,1.75,3.14,6.22,1.08,2.15-1,3.48-2.71,3.99-4.56.49-1.91.11-4.05-1.05-6.08-1.37-2.4-3.24-3.59-5.39-4.02-1.08-.21-2.21-.19-3.39.04-1.2.19-2.45.56-3.72,1.14-1.8.75-3.07,1.71-3.99,2.9-.94,1.13-1.54,2.48-1.95,3.97-.5,1.82-.76,3.77-1.05,5.78-.29,2.02-.61,4.08-1.3,6.05-.69,1.94-1.76,3.73-3.53,5.25-.88.78-1.95,1.37-3.23,1.92-1.28.54-2.76.98-4.5,1.17-3.21.47-6.22-.06-8.36-1.24-2.16-1.24-3.46-3.23-3.51-5.8-.05-2.49.88-4.24,2.07-5.36,1.19-1.15,2.64-1.76,3.77-1.84,1.05-.05,2.34.02,3.45.56,1.1.53,2.03,1.51,2.27,3.13.43,2.83-2.91,3.14-2.98,2.48.3-.58.49-2.94-1.9-2.71-1.7.13-2.02,1.7-1.93,3.11.04.53.21,1.39.98,2.07.77.68,2.16,1.22,4.59.88,1.17-.16,2.22-.48,3.09-1.02.87-.55,1.59-1.26,2.12-2.09,1.06-1.65,1.37-3.76.9-6.06-.55-2.69-1.98-4.5-3.88-5.53-.48-.26-.99-.46-1.53-.62-.54-.17-1.11-.32-1.71-.41-.6-.09-1.22-.14-1.87-.14-.65,0-1.32.04-2.02.08-3.88.36-6.06,2.1-7.79,4.73-2.08,3.02-3.38,7.23-5.88,10.51-1.25,1.62-2.82,3.02-4.96,3.94-2.13.8-4.87,1.23-8.3.56-.8-.14-1.57-.33-2.3-.55-.73-.25-1.42-.54-2.06-.87-1.29-.66-2.4-1.4-3.23-2.34-1.67-1.87-2.31-4.12-1.56-6.59.72-2.39,2.15-3.77,3.63-4.49,1.48-.69,3.05-.84,4.15-.59,2.02.53,4.84,1.99,4.31,5.26-.46,2.82-3.74,2.12-3.6,1.48.46-.47,1.37-2.64-.97-3.19-1.67-.38-2.45,1.01-2.79,2.38-.13.52-.23,1.39.3,2.27.26.44.69.88,1.35,1.29.66.41,1.55.77,2.76.97,1.16.21,2.27.19,3.26-.03,1-.22,1.9-.72,2.65-1.33,1.52-1.26,2.46-3.18,2.72-5.51.3-2.73-.5-4.88-2-6.43-.76-.75-1.68-1.46-2.76-1.98-.54-.27-1.12-.5-1.74-.69-.62-.2-1.26-.41-1.94-.56-.95-.22-1.83-.3-2.65-.29-.81-.01-1.57.09-2.29.28-1.44.4-2.72,1.17-3.92,2.09-2.92,2.26-5.46,5.87-8.84,8.18-1.7,1.16-3.65,2.06-5.94,2.19-1.15.07-2.41,0-3.76-.31-1.34-.34-2.78-.89-4.33-1.7-1.42-.78-2.66-1.72-3.7-2.71-1.04-.98-1.8-2.13-2.32-3.25-1.05-2.24-.92-4.61.55-6.74,2.86-4.03,7.05-3.55,8.96-2.39.91.52,1.89,1.38,2.46,2.48.57,1.1.78,2.38,0,3.85-.66,1.26-1.72,1.51-2.57,1.32-.84-.2-1.46-.78-1.3-1.06.57-.28,2.13-2.11.06-3.3-1.49-.84-2.63.18-3.39,1.39-.56.9-1.51,3.25,2.77,5.68,2.08,1.14,4.23,1.24,6.04.55,1.84-.74,3.34-2.29,4.31-4.42,1.14-2.52,1.01-4.74.09-6.72-.46-.99-1.14-1.91-2.02-2.73-.86-.84-1.89-1.65-3.11-2.34-1.68-1-3.18-1.49-4.7-1.52-1.47-.1-2.91.21-4.36.75-1.77.66-3.5,1.6-5.3,2.55-1.8.95-3.66,1.9-5.65,2.51-1.97.58-4.05.77-6.32.24-1.14-.26-2.26-.77-3.45-1.48-.59-.36-1.2-.77-1.81-1.25-.59-.5-1.18-1.06-1.79-1.69-.56-.58-1.07-1.19-1.53-1.8-.45-.62-.83-1.27-1.16-1.9-.65-1.29-1.11-2.54-1.23-3.79-.26-2.49.55-4.68,2.61-6.25,1.98-1.51,3.95-1.78,5.57-1.5,1.6.31,2.97,1.11,3.7,1.97.34.4.68.88.95,1.42.28.53.52,1.1.63,1.7.22,1.2-.01,2.52-1.19,3.67-2.03,2.01-4.26-.49-3.77-.93.32-.05.99-.39,1.38-.93.38-.54.49-1.29-.29-2.21-1.12-1.29-2.58-.63-3.66.28-.41.34-1,.99-1.09,2.01-.05.51.04,1.12.33,1.83.15.36.35.74.61,1.15.28.4.63.81,1.05,1.26.81.86,1.71,1.49,2.65,1.9.96.38,1.96.54,2.93.48,1.96-.12,3.85-1.11,5.44-2.84,1.85-2.03,2.47-4.24,2.17-6.39-.16-1.06-.52-2.15-1.07-3.23-.56-1.07-1.35-2.1-2.24-3.18-.64-.74-1.3-1.32-1.97-1.79-.65-.49-1.32-.85-2.02-1.11-1.4-.52-2.89-.66-4.4-.62-3.71.12-7.87,1.54-11.96,1.43-2.06-.05-4.16-.47-6.09-1.71-.97-.62-1.96-1.4-2.86-2.46-.88-1.06-1.73-2.35-2.52-3.91-.67-1.47-1.15-2.95-1.41-4.37-.25-1.41-.21-2.79.03-4,.46-2.43,1.97-4.28,4.41-5.13,2.37-.83,4.26-.45,5.76.3,1.49.76,2.45,1.98,2.9,3.02.43.95.72,2.22.54,3.45-.2,1.23-.77,2.39-2.26,3.13-1.27.63-2.29.22-2.85-.44-.57-.65-.73-1.49-.43-1.62.63.11,2.97-.46,1.98-2.64-.71-1.56-2.23-1.4-3.56-.86-.97.39-3.14,1.75-1.08,6.22,1,2.15,2.71,3.48,4.56,3.99,1.91.49,4.05.11,6.08-1.05,2.4-1.37,3.59-3.24,4.02-5.39.21-1.08.19-2.21-.04-3.39-.19-1.2-.56-2.45-1.14-3.72-.75-1.8-1.71-3.07-2.9-3.99-1.13-.94-2.48-1.54-3.97-1.95-1.82-.5-3.77-.76-5.78-1.05-2.02-.29-4.08-.61-6.05-1.3-1.94-.69-3.73-1.76-5.25-3.53-.78-.88-1.37-1.95-1.92-3.23-.54-1.28-.98-2.76-1.17-4.5-.47-3.21.06-6.22,1.24-8.37,1.24-2.16,3.23-3.46,5.8-3.51,2.49-.05,4.24.88,5.36,2.07,1.15,1.19,1.77,2.64,1.84,3.77.05,1.05-.02,2.34-.56,3.45-.53,1.1-1.51,2.03-3.13,2.27-2.83.43-3.14-2.91-2.48-2.98.58.3,2.94.49,2.71-1.9-.13-1.7-1.7-2.02-3.11-1.93-.53.04-1.39.21-2.07.98-.68.77-1.22,2.16-.88,4.59.16,1.17.48,2.22,1.02,3.09.55.87,1.26,1.59,2.09,2.12,1.65,1.06,3.76,1.37,6.06.9,2.69-.55,4.5-1.98,5.53-3.88.26-.48.46-.99.62-1.53.17-.54.32-1.11.41-1.71.09-.6.14-1.22.14-1.87,0-.65-.04-1.32-.08-2.02-.36-3.88-2.1-6.06-4.73-7.79-3.02-2.08-7.23-3.38-10.51-5.88-1.62-1.25-3.02-2.82-3.94-4.96-.8-2.13-1.23-4.87-.56-8.3.14-.8.33-1.57.55-2.3.25-.73.54-1.42.87-2.06.66-1.29,1.4-2.4,2.34-3.23,1.87-1.67,4.12-2.31,6.59-1.56,2.39.72,3.77,2.15,4.49,3.63.69,1.48.84,3.05.59,4.15-.53,2.02-1.99,4.84-5.26,4.31-2.82-.46-2.12-3.74-1.48-3.6.47.46,2.64,1.37,3.19-.97.38-1.67-1.01-2.45-2.38-2.79-.52-.13-1.39-.23-2.27.3-.44.26-.88.69-1.29,1.35-.41.66-.77,1.55-.97,2.76-.21,1.16-.19,2.27.03,3.26.22,1,.72,1.9,1.33,2.65,1.26,1.52,3.18,2.46,5.51,2.72,2.73.3,4.88-.5,6.43-2,.75-.76,1.46-1.68,1.98-2.76.27-.54.5-1.12.69-1.74.2-.62.41-1.26.56-1.94.22-.95.3-1.83.29-2.65.01-.81-.09-1.57-.28-2.29-.4-1.44-1.17-2.72-2.09-3.92-2.26-2.92-5.87-5.46-8.18-8.84-1.16-1.69-2.06-3.65-2.19-5.94-.07-1.15,0-2.41.31-3.76.34-1.34.89-2.78,1.7-4.33.78-1.42,1.72-2.66,2.71-3.7.98-1.04,2.13-1.8,3.25-2.32,2.24-1.05,4.61-.92,6.74.55,4.03,2.86,3.55,7.05,2.39,8.96-.52.91-1.38,1.89-2.48,2.46-1.1.57-2.38.78-3.85,0-1.26-.66-1.51-1.72-1.32-2.57.2-.84.78-1.46,1.06-1.3.28.57,2.11,2.13,3.3.06.84-1.49-.18-2.63-1.39-3.39-.9-.56-3.25-1.51-5.68,2.77-1.14,2.08-1.24,4.23-.55,6.04.74,1.84,2.29,3.34,4.42,4.31,2.52,1.14,4.74,1.01,6.72.09.99-.46,1.91-1.14,2.73-2.02.84-.86,1.65-1.89,2.34-3.11,1-1.68,1.49-3.18,1.52-4.7.1-1.47-.21-2.91-.75-4.36-.66-1.77-1.6-3.5-2.55-5.3-.95-1.8-1.9-3.66-2.51-5.65-.58-1.97-.77-4.05-.24-6.32.26-1.14.77-2.26,1.48-3.45.36-.59.77-1.2,1.25-1.81.5-.59,1.06-1.18,1.69-1.79.58-.56,1.19-1.07,1.8-1.53.62-.45,1.27-.83,1.9-1.16,1.29-.65,2.54-1.11,3.79-1.23,2.49-.26,4.68.55,6.25,2.61,1.51,1.98,1.78,3.95,1.5,5.57-.31,1.6-1.11,2.97-1.97,3.7-.4.34-.88.68-1.42.95-.53.28-1.1.52-1.7.63-1.2.22-2.52-.01-3.67-1.19-2.01-2.03.49-4.26.93-3.77.05.32.39.99.93,1.38.54.38,1.29.49,2.21-.29,1.29-1.12.63-2.58-.28-3.66-.34-.41-.99-1-2.01-1.09-.51-.05-1.12.04-1.83.33-.36.15-.74.35-1.15.61-.4.28-.81.63-1.26,1.05-.86.81-1.49,1.71-1.9,2.65-.38.96-.54,1.96-.48,2.93.12,1.96,1.11,3.85,2.84,5.44,2.03,1.85,4.24,2.47,6.39,2.17,1.06-.16,2.15-.52,3.23-1.07,1.07-.56,2.1-1.35,3.18-2.24.74-.64,1.32-1.3,1.79-1.97.49-.65.85-1.32,1.11-2.02.52-1.4.66-2.89.62-4.4-.12-3.71-1.54-7.87-1.43-11.96.05-2.06.47-4.16,1.71-6.09.62-.97,1.4-1.96,2.46-2.86,1.06-.88,2.35-1.73,3.91-2.52,1.47-.67,2.95-1.15,4.36-1.41,1.41-.25,2.79-.21,4,.03,2.43.46,4.28,1.97,5.13,4.41.83,2.37.45,4.26-.3,5.76-.76,1.49-1.98,2.45-3.02,2.9-.95.43-2.22.72-3.45.54-1.23-.2-2.39-.77-3.13-2.26-.63-1.27-.22-2.29.44-2.85.65-.57,1.49-.73,1.62-.43-.11.63.46,2.97,2.64,1.98,1.56-.71,1.4-2.23.86-3.56-.39-.97-1.75-3.14-6.22-1.08-2.15,1-3.48,2.71-3.99,4.56-.49,1.91-.11,4.05,1.05,6.08,1.37,2.4,3.24,3.59,5.39,4.02,1.08.21,2.21.19,3.39-.04,1.2-.19,2.45-.56,3.72-1.14,1.8-.75,3.07-1.71,3.99-2.9.94-1.13,1.54-2.48,1.95-3.97.5-1.82.76-3.77,1.05-5.78.29-2.02.61-4.08,1.3-6.05.69-1.94,1.76-3.73,3.53-5.25.88-.78,1.95-1.37,3.23-1.92,1.28-.54,2.76-.98,4.5-1.17,3.21-.47,6.22.06,8.37,1.24,2.16,1.24,3.46,3.23,3.51,5.8.05,2.49-.88,4.24-2.07,5.36-1.19,1.15-2.64,1.77-3.77,1.84-1.05.05-2.34-.02-3.45-.56-1.1-.53-2.03-1.51-2.27-3.13-.43-2.83,2.91-3.14,2.98-2.48-.3.58-.49,2.94,1.9,2.71,1.7-.13,2.02-1.7,1.93-3.11-.04-.53-.21-1.39-.98-2.07-.77-.68-2.16-1.22-4.59-.88-1.17.16-2.22.48-3.09,1.02-.87.55-1.59,1.26-2.12,2.09-1.06,1.65-1.37,3.76-.9,6.06.55,2.69,1.98,4.5,3.88,5.53.48.26.99.46,1.53.62.54.17,1.11.32,1.71.41.6.09,1.22.14,1.87.14.65,0,1.32-.04,2.02-.08,3.88-.36,6.06-2.1,7.79-4.73,2.08-3.02,3.38-7.23,5.88-10.51,1.25-1.62,2.82-3.02,4.96-3.94,2.13-.8,4.87-1.23,8.3-.56.8.14,1.57.33,2.3.55.73.25,1.42.54,2.06.87,1.29.66,2.4,1.4,3.23,2.34,1.67,1.87,2.31,4.12,1.56,6.59-.72,2.39-2.15,3.77-3.63,4.49-1.48.69-3.05.84-4.15.59-2.02-.53-4.84-1.99-4.31-5.26.46-2.82,3.74-2.12,3.6-1.48-.46.47-1.37,2.64.97,3.19,1.66.38,2.45-1.01,2.79-2.38.13-.52.23-1.39-.3-2.27-.26-.44-.69-.88-1.35-1.29-.66-.41-1.55-.77-2.76-.97-1.16-.21-2.27-.19-3.26.03-1,.22-1.9.72-2.65,1.33-1.52,1.26-2.46,3.18-2.72,5.51-.3,2.73.5,4.88,2,6.43.76.75,1.68,1.46,2.76,1.98.54.27,1.12.5,1.74.69.62.2,1.26.41,1.94.56.95.22,1.83.3,2.65.29.81.01,1.57-.09,2.29-.28,1.44-.4,2.72-1.17,3.92-2.09,2.92-2.26,5.46-5.87,8.84-8.18,1.7-1.16,3.65-2.06,5.94-2.19,1.15-.07,2.41,0,3.76.31,1.34.34,2.78.89,4.33,1.7,1.42.78,2.66,1.72,3.7,2.71,1.04.98,1.8,2.13,2.32,3.25,1.05,2.24.92,4.61-.55,6.74-2.86,4.03-7.05,3.55-8.96,2.39-.91-.52-1.89-1.38-2.46-2.48-.57-1.1-.78-2.38,0-3.85.66-1.26,1.72-1.51,2.57-1.32.84.2,1.46.78,1.3,1.06-.57.28-2.13,2.11-.06,3.3,1.49.84,2.63-.18,3.39-1.39.56-.9,1.51-3.25-2.77-5.68-2.08-1.14-4.23-1.24-6.04-.55-1.84.74-3.34,2.29-4.31,4.42-1.14,2.52-1.01,4.74-.09,6.72.46.99,1.14,1.91,2.02,2.73.86.84,1.89,1.65,3.11,2.34,1.68,1,3.18,1.49,4.7,1.52,1.47.1,2.91-.21,4.36-.75,1.77-.66,3.5-1.6,5.3-2.55,1.8-.95,3.66-1.9,5.65-2.51,1.97-.58,4.05-.77,6.32-.24,1.14.26,2.26.77,3.45,1.48.59.36,1.2.77,1.81,1.25.59.5,1.18,1.06,1.79,1.69.56.58,1.07,1.19,1.53,1.8.45.62.83,1.27,1.16,1.9.65,1.29,1.11,2.54,1.23,3.79.26,2.49-.55,4.68-2.61,6.25-1.98,1.51-3.95,1.78-5.57,1.5-1.6-.31-2.97-1.11-3.7-1.97-.34-.4-.68-.88-.95-1.42-.28-.53-.52-1.1-.63-1.7-.22-1.2.01-2.52,1.19-3.67,2.03-2.01,4.26.49,3.77.93-.32.05-.99.39-1.38.93-.38.54-.49,1.29.29,2.21,1.12,1.29,2.58.63,3.66-.28.41-.34,1-.99,1.09-2.01.05-.51-.04-1.12-.33-1.83-.15-.36-.35-.74-.61-1.15-.28-.4-.63-.81-1.05-1.26-.81-.86-1.71-1.49-2.65-1.9-.96-.38-1.96-.54-2.93-.48-1.96.12-3.85,1.11-5.44,2.84-1.85,2.03-2.47,4.24-2.17,6.39.16,1.06.52,2.15,1.07,3.23.56,1.07,1.35,2.1,2.24,3.18.64.74,1.3,1.32,1.97,1.79.65.49,1.32.85,2.02,1.11,1.4.52,2.89.66,4.4.62,3.71-.12,7.87-1.54,11.96-1.43,2.06.05,4.16.47,6.09,1.71.97.62,1.96,1.4,2.86,2.46.88,1.06,1.73,2.35,2.52,3.91.67,1.47,1.15,2.95,1.41,4.37.25,1.41.21,2.79-.03,4-.46,2.43-1.97,4.28-4.41,5.13-2.37.83-4.26.45-5.76-.3-1.49-.76-2.45-1.98-2.9-3.02-.43-.95-.72-2.22-.54-3.45.2-1.23.77-2.39,2.26-3.13,1.27-.63,2.29-.22,2.85.44.57.65.73,1.49.43,1.62-.63-.11-2.97.46-1.98,2.64.71,1.56,2.23,1.4,3.56.86.97-.39,3.14-1.75,1.08-6.22-1-2.15-2.71-3.48-4.56-3.99-1.91-.49-4.05-.11-6.08,1.05-2.4,1.37-3.59,3.24-4.02,5.39-.21,1.08-.19,2.21.04,3.39.19,1.2.56,2.45,1.14,3.72.75,1.8,1.71,3.07,2.9,3.99,1.13.94,2.48,1.54,3.97,1.95,1.82.5,3.77.76,5.78,1.05,2.02.29,4.08.61,6.05,1.3,1.94.69,3.73,1.76,5.25,3.53.78.88,1.37,1.95,1.92,3.23.54,1.28.98,2.76,1.17,4.5.47,3.21-.06,6.22-1.24,8.37-1.24,2.16-3.23,3.46-5.8,3.51-2.49.05-4.24-.88-5.36-2.07-1.15-1.19-1.77-2.64-1.84-3.77-.05-1.05.02-2.34.56-3.45.53-1.1,1.51-2.03,3.13-2.27,2.83-.43,3.14,2.91,2.48,2.98-.58-.3-2.94-.49-2.71,1.9.13,1.7,1.7,2.02,3.11,1.93.53-.04,1.39-.21,2.07-.98.68-.77,1.22-2.16.88-4.59-.16-1.17-.48-2.22-1.02-3.09-.55-.87-1.26-1.59-2.09-2.12-1.65-1.06-3.76-1.37-6.06-.9-2.69.55-4.5,1.98-5.53,3.88-.26.48-.46.99-.62,1.53-.17.54-.32,1.11-.41,1.71-.09.6-.14,1.22-.14,1.87,0,.65.04,1.32.08,2.02.36,3.88,2.1,6.06,4.73,7.79ZM457.53,152.35c.79.07,1.47-.45,1.52-1.16.05-.71-.54-1.32-1.33-1.37-.79-.04-1.47.48-1.53,1.16s.55,1.3,1.33,1.37ZM451.29,177.52c.74.32,1.53.03,1.8-.64.26-.66-.12-1.43-.86-1.72-.74-.28-1.54,0-1.79.64-.25.64.14,1.41.86,1.72ZM437.51,199.5c.6.52,1.46.5,1.93-.04.48-.53.34-1.39-.28-1.89-.61-.5-1.45-.46-1.91.05-.45.52-.33,1.36.26,1.88ZM417.67,216.24c.41.69,1.23.93,1.83.54.6-.39.74-1.24.31-1.9-.43-.66-1.25-.9-1.83-.53-.58.37-.71,1.22-.31,1.89ZM393.64,225.99c.18.77.88,1.27,1.58,1.11.7-.15,1.08-.94.88-1.7-.21-.77-.9-1.22-1.57-1.08-.67.15-1.07.9-.89,1.67ZM367.75,227.86c-.07.79.46,1.47,1.17,1.53.71.05,1.32-.54,1.36-1.33.04-.79-.48-1.47-1.17-1.53-.68-.05-1.29.54-1.36,1.33ZM342.56,221.71c-.31.73-.02,1.53.64,1.79s1.43-.13,1.71-.86c.28-.74,0-1.54-.64-1.79-.64-.25-1.4.14-1.71.87ZM320.51,208.03c-.52.6-.5,1.46.04,1.93.53.48,1.41.31,1.9-.3.5-.62.44-1.44-.06-1.9-.52-.45-1.36-.33-1.88.27ZM303.7,188.25c-.68.41-.91,1.23-.53,1.83.39.6,1.23.74,1.9.3.66-.43.9-1.25.53-1.83-.37-.58-1.22-.71-1.9-.3ZM293.85,164.27c-.77.18-1.26.89-1.11,1.59.16.7.96,1.08,1.72.87.77-.21,1.21-.91,1.06-1.57-.15-.67-.9-1.06-1.67-.88ZM291.93,137.7c-.79-.07-1.47.45-1.52,1.16-.05.71.54,1.32,1.33,1.37.79.04,1.47-.48,1.53-1.16.05-.68-.55-1.3-1.33-1.37ZM298.18,112.54c-.74-.32-1.53-.03-1.8.64-.26.66.12,1.43.86,1.72.74.28,1.54,0,1.79-.64.25-.64-.14-1.41-.86-1.72ZM311.95,90.55c-.6-.52-1.46-.5-1.93.04-.48.53-.34,1.39.28,1.89.61.5,1.45.46,1.91-.05.45-.52.33-1.36-.26-1.88ZM331.8,73.82c-.41-.69-1.23-.93-1.83-.54-.6.39-.74,1.24-.31,1.9.43.66,1.25.9,1.83.53.58-.37.71-1.22.31-1.89ZM355.82,64.07c-.18-.77-.88-1.27-1.58-1.11-.7.15-1.08.94-.88,1.7.21.77.9,1.22,1.57,1.08.67-.15,1.07-.9.89-1.67ZM381.72,62.2c.07-.79-.46-1.47-1.17-1.53-.71-.05-1.32.54-1.36,1.33-.04.79.48,1.47,1.17,1.53.68.05,1.29-.54,1.36-1.33ZM406.91,68.34c.31-.73.02-1.53-.64-1.79-.66-.26-1.43.13-1.71.86s0,1.54.64,1.79c.64.25,1.4-.14,1.71-.87ZM428.95,82.03c.52-.6.5-1.46-.04-1.93-.53-.48-1.41-.31-1.9.3-.5.62-.44,1.44.06,1.9.52.45,1.36.33,1.88-.27ZM445.77,101.8c.68-.41.91-1.23.53-1.83-.39-.6-1.23-.74-1.9-.3-.66.43-.9,1.25-.53,1.83.37.58,1.22.71,1.9.3ZM455.61,125.79c.77-.18,1.26-.89,1.11-1.59-.16-.7-.96-1.08-1.72-.87-.77.21-1.21.91-1.06,1.57.15.67.9,1.06,1.67.88Z"/>
    <path class="cls-7" d="M277.23,110.03c.74.27,1.12,1.15.85,1.96-.28.81-1.11,1.28-1.86,1.03-.75-.24-1.13-1.12-.85-1.96.28-.84,1.12-1.3,1.86-1.03Z"/>
    <path class="cls-7" d="M271.23,141.88c.79.03,1.41.74,1.39,1.6-.02.86-.68,1.55-1.47,1.55s-1.42-.71-1.4-1.6c.02-.88.68-1.58,1.47-1.55Z"/>
    <path class="cls-7" d="M292.85,81.63c.62.49.7,1.43.17,2.1-.51.69-1.43.88-2.07.42-.64-.46-.75-1.43-.22-2.14.55-.7,1.49-.87,2.12-.38Z"/>
    <path class="cls-7" d="M316.42,59.42c.44.65.24,1.59-.46,2.08-.7.5-1.64.38-2.11-.26s-.26-1.57.46-2.09c.72-.51,1.67-.4,2.11.26Z"/>
    <path class="cls-7" d="M345.75,45.59c.22.76-.27,1.57-1.1,1.8-.82.25-1.67-.12-1.92-.88-.24-.75.23-1.6,1.08-1.86.85-.24,1.72.18,1.94.94Z"/>
    <path class="cls-7" d="M377.88,41.52c-.03.79-.74,1.41-1.6,1.39-.86-.02-1.55-.68-1.55-1.47,0-.79.71-1.42,1.6-1.4.88.02,1.58.68,1.55,1.47Z"/>
    <path class="cls-7" d="M409.73,47.52c-.27.74-1.15,1.12-1.96.85-.81-.28-1.28-1.11-1.03-1.86.24-.75,1.12-1.13,1.96-.85.84.28,1.3,1.12,1.03,1.86Z"/>
    <path class="cls-7" d="M438.13,63.14c-.49.62-1.43.7-2.1.17-.69-.51-.88-1.43-.42-2.07.46-.64,1.43-.75,2.14-.22.7.55.87,1.49.38,2.12Z"/>
    <path class="cls-7" d="M460.35,86.72c-.65.44-1.59.24-2.08-.46-.5-.7-.38-1.64.26-2.11.64-.47,1.57-.26,2.09.46.51.72.4,1.67-.26,2.11Z"/>
    <path class="cls-7" d="M474.17,116.04c-.76.22-1.57-.27-1.8-1.1-.25-.82.12-1.67.88-1.92.75-.24,1.6.23,1.86,1.08.24.85-.17,1.72-.93,1.94Z"/>
  </g>
  <g>
    <g>
      <path class="cls-2" d="M283.16,711.31c-23.32,0-49.3-4.59-59.08-6.32l-1.63-.29c-56.71-9.91-93.01-26.88-91.33-36.51,1.02-5.81,5.51-13.8,10.59-16.42,1.31-.67,2.81-1.13,4.26-1.57,2.47-.75,5.03-1.53,6.98-3.43.54-.53,1-1.11,1.44-1.67.52-.67,1.02-1.3,1.62-1.79,1.61-1.33,3.69-1.51,5.52-1.51.81,0,1.63.04,2.46.08.87.04,1.73.08,2.59.08,2.19,0,3.79-.27,5.22-.88,2.3-.99,3.96-2.86,5.15-4.38,2.69-3.45,4.75-7.49,5.95-11.7.32-1.12.58-2.31.36-3.53-.25-1.38-1.07-2.51-1.8-3.5l-.21-.3c-3.87-5.36-6.14-13.68-1.96-19.3.79-1.06,1.77-1.98,2.92-2.74l1.09-.72-1.03-.81c-1-.78-1.31-1.17-1.4-1.32.67-6.11,2.22-12.08,4.58-17.75l.37-.89-.9-.35c-1.77-.68-3.65-.77-5.41-.77-.37,0-1.83.02-2.19.02-.53,0-1.07,0-1.6-.04-6.99-.41-12.25-5.52-17.34-10.47-1.01-.98-2-1.94-2.99-2.86-7.4-6.82-13.05-12.85-17.79-18.98-4.72-6.11-10.42-14.35-12.64-23.82-2.97-12.68.48-25.92,3.82-38.72l.39-1.49c3.27-12.59,6.78-27.48,7.98-42.49.3-3.78.46-7.63.62-11.35.37-8.71.75-17.72,2.93-26.23,1.35-5.25,3.59-10.2,7.08-15.6.47-.72.9-1.45,1.34-2.17,2.03-3.38,3.78-6.31,7.73-7.41l.38-.1c.57-.15,1.22-.32,1.81-.67,1.45-.87,2.01-2.45,2.51-3.85.41-1.16.8-2.25,1.6-2.83.52-.37,1.25-.55,2.25-.55h.3c1.94.07,3.72.57,5.43,1.06,1.85.53,3.76,1.07,5.86,1.07.96,0,1.88-.11,2.82-.34,2.26-.54,7.84-2.19,10.81-5.75.83-1,1.48-2,2.11-2.97,1-1.55,1.95-3.02,3.57-4.31,3.2-2.55,7.08-4.65,11.86-6.41l.83-.3-.25-.85c-.7-2.37-1.27-4.46-1.76-6.4l-.16-.64-.66-.07c-8.49-.86-14.39-2.69-19.13-5.92-6.75-4.61-11.45-14.31-7.27-21.94.48-.87,1.05-1.73,1.67-2.65,1.9-2.85,4.05-6.07,2.66-9.48-1.41-3.44-5.05-4.11-8.58-4.76-1.58-.29-3.22-.59-4.58-1.14-4.61-1.86-6.72-7.19-6.77-11.65-.05-5.02,1.95-10.03,3.72-14.45l.52-1.3h-1.59c-5.7,0-12.57-.63-15.12-5.54-1.44-2.77-1.18-7.58-.95-11.82.12-2.12.22-4.11.13-5.79-.08-1.39-.19-3.3-1.21-4.83-.51-.76-1.16-1.32-1.8-1.87-.23-.2-.47-.4-.69-.61-2.23-2.1-3.55-5.42-3.61-9.13-.1-5.59,2.02-14.34,8.28-15.56.4-.08.81-.11,1.26-.11,1.27,0,2.57.31,3.94.63,1.42.34,2.89.68,4.38.68.52,0,1.02-.04,1.49-.13l-.33-1.86h.15c.35-.01.56.19.61.26-.97-1.47-4.32-21.61-3.93-23.67,1.06-4.18,4.47-7.38,7.77-10.47.55-.52,1.11-1.04,1.64-1.56,6.6-6.36,11.95-14.2,15.48-22.66,1.15-2.77,2.15-5.67,3.12-8.48,2.37-6.9,4.82-14.04,9.73-19.35,5.75-6.23,14.03-9.1,21.37-11.09l.84-.23-.17-.86c-1.05-5.42-2-12.51-.04-19.24,1.3-4.46,3.81-8.54,6.06-12.02,3.94-6.07,9.45-13.1,17.08-13.56.28-.02.56-.02.83-.02,1.1,0,2.18.11,3.34.23,1.15.12,2.34.24,3.53.24.22,0,.43,0,.65-.01,6.48-.25,11.58-4.38,16.52-8.38,3.64-2.95,7.41-5.99,11.69-7.45,1.86-.63,3.83-.95,5.88-.95,5.3,0,10.57,2.11,14.48,5.79,5.39,5.08,7.01,11.64,7.78,19.94l.14,1.47,1.28-.74c4.15-2.42,9.02-4.88,13.71-4.88,2.18,0,4.13.52,5.94,1.59.9.53,1.82,1.21,2.71,1.87,2.24,1.66,4.55,3.37,7.32,3.37.35,0,.71-.03,1.06-.09,1.27-.21,2.36-.78,3.42-1.34.76-.4,1.47-.77,2.22-1,.51-.16,1.06-.24,1.62-.24,2.17,0,4.32,1.21,5.33,3.01l.51.9.85-.59c4.57-3.18,10.51-3.88,15.74-4.51,2.31-.28,4.93-.59,7.43-.59,1.86,0,3.51.17,5.02.52,4.86,1.11,9.15,4.31,12.7,7.28,2.4,2.01,4.29,3.79,5.74,5.92,3.92,5.78,3.95,14.28.07,21.14-.34.61-.72,1.21-1.09,1.81-1.11,1.79-2.26,3.65-2.73,5.81-.55,2.5-.11,5.01.31,7.43.11.61.21,1.22.31,1.83,1.41,9.51-1.72,16.9-6.84,25.08l-.2.32.14.68c.12.6.25,1.2.38,1.8,2.18,9.62,5.88,19.13,9.46,28.32.54,1.4,1.09,2.79,1.62,4.17,3.14,8.14.57,20.12-5.49,25.63-1.77,1.6-3.93,2.89-6.01,4.13-3.14,1.87-6.38,3.8-8.54,6.9-3.05,4.38-3.11,9.75-3.16,14.95-.04,3.72-.08,7.58-1.24,10.98-2.17,6.41-8.68,11.07-15.47,11.07h-.28c-.21,0-.43-.02-.64-.03l-.93-.05-.16.81c-2.49,12.77-7.76,24.83-12.86,36.5-3.46,7.93-7.39,16.91-13.46,23.89l-.24.28v.37c.17,4.2.08,8.44-.25,12.62l-.06.75.9.28c.23.07.47.14.7.22,6.17,2.15,12.91,3.22,19.43,4.26,2.58.41,5.25.84,7.8,1.32,6.39,1.21,12.6,4.81,17.05,9.88,1.61,1.83,2.67,4.08,3.69,6.25,1.79,3.79,3.64,7.7,8.36,9.29.86.29,1.73.48,2.58.67.77.17,1.49.33,2.2.55,3.14,1,5.67,3.15,8.36,5.42,1.12.95,2.28,1.93,3.47,2.81,8.69,6.41,19.8,8,29.61,9.41l3.46.58c6.81,2.95,12.98,7.47,17.83,13.08,1.58,1.83,3.26,4.05,3.67,6.62.45,2.85-.76,5.79-1.72,7.75-4.87,10-13.42,16.96-22.46,24.34-6.39,5.21-13,10.6-18.12,17.13-5.02,6.4-8.57,13.85-12,21.05-1.68,3.54-3.43,7.19-5.32,10.67-11.08,20.35-28.82,33.07-47.6,46.54l-3.5,2.51c-13.43,9.67-22.69,20.52-27.53,32.27-1.56,3.79-2.83,7.74-4.06,11.55-.99,3.06-2.01,6.23-3.16,9.27-.81,2.13-1.82,4.55-3.57,6.21-.17.16-.35.32-.54.48-.52.46-1.06.93-1.49,1.56-.71,1.06-.92,2.33-1.09,3.35l-1.9,11.35c-.08.48-.19,1.01-.43,1.2-.1.08-.28.13-.55.15l-1.51.12.78,1.3c1.66,2.78,1.94,6.51.72,9.74-1.37,3.65-4.47,6.9-8.72,9.15l-.1.05c-.47.25-1,.52-1.44.98-.55.57-.82,1.26-1.07,1.88l-.12.3c-.43,1.05-1.06,1.9-1.73,2.8-.98,1.32-1.99,2.69-2.29,4.66-.45,2.95.06,6.45,1.35,9.36,2.64,5.97,8.46,9.31,14.09,12.54,1.04.6,2.08,1.2,3.09,1.81,6.42,3.87,14.5,10.47,16.5,19.92,1.37,6.43.09,11.46-3.89,15.39-6.33,6.24-19.43,9.41-38.92,9.41h0Z"/>
      <path class="cls-6" d="M284.73,49.96c5.06,0,10.1,2.02,13.83,5.53,5.17,4.88,6.73,11.26,7.49,19.34l.27,2.94,2.55-1.48c4.04-2.35,8.77-4.76,13.23-4.76,2.01,0,3.8.48,5.47,1.46.86.51,1.72,1.14,2.62,1.81,2.25,1.67,4.8,3.56,7.88,3.56.4,0,.81-.03,1.21-.1,1.42-.23,2.64-.87,3.71-1.43.72-.38,1.4-.73,2.06-.93.42-.13.87-.2,1.34-.2,1.84,0,3.66,1.02,4.52,2.53l1.02,1.8,1.7-1.18c4.38-3.04,10.19-3.74,15.31-4.35,2.28-.27,4.87-.58,7.32-.58,1.79,0,3.37.16,4.81.49,4.67,1.07,8.84,4.18,12.3,7.08,2.34,1.96,4.18,3.68,5.56,5.73,3.72,5.49,3.73,13.59.03,20.15-.33.59-.69,1.17-1.07,1.78-1.15,1.86-2.34,3.79-2.85,6.1-.59,2.69-.14,5.29.3,7.8.11.6.21,1.21.3,1.81,1.37,9.22-1.69,16.44-6.71,24.44l-.4.64.15.74.05.25c.13.63.26,1.25.4,1.88,2.19,9.69,5.91,19.23,9.5,28.45.54,1.4,1.08,2.78,1.62,4.16,3.02,7.82.56,19.31-5.25,24.59-1.7,1.54-3.72,2.75-5.86,4.02-3.22,1.92-6.55,3.91-8.83,7.17-3.22,4.61-3.28,10.14-3.33,15.48-.04,3.82-.08,7.43-1.19,10.69-2.05,6.04-8.18,10.43-14.58,10.43h-.26c-.2,0-.4-.02-.6-.03h-.12s-1.64-.1-1.64-.1l-.31,1.62c-2.47,12.67-7.72,24.69-12.8,36.3-3.44,7.86-7.33,16.78-13.31,23.65l-.49.56.03.74c.15,4.16.06,8.37-.27,12.51l-.12,1.5,1.44.44.17.05c.23.07.45.14.68.22,6.25,2.18,13.03,3.26,19.6,4.3,2.57.41,5.24.83,7.77,1.31,6.19,1.17,12.2,4.66,16.51,9.57,1.52,1.73,2.5,3.82,3.55,6.03,1.87,3.96,3.81,8.06,8.91,9.78.91.3,1.81.5,2.67.7.74.17,1.45.32,2.11.53,2.96.94,5.43,3.03,8.04,5.25,1.13.96,2.3,1.95,3.52,2.85,8.88,6.55,20.12,8.16,29.99,9.58l3.37.57c6.64,2.89,12.65,7.31,17.39,12.79,1.5,1.73,3.08,3.82,3.45,6.15.31,1.97-.21,4.26-1.63,7.19-4.78,9.81-13.25,16.71-22.21,24.02-6.43,5.24-13.08,10.66-18.27,17.28-5.09,6.49-8.66,13.98-12.11,21.22-1.68,3.53-3.42,7.17-5.3,10.63-10.97,20.16-28.63,32.82-47.32,46.23-1.17.84-2.33,1.67-3.5,2.51-13.58,9.77-22.95,20.77-27.85,32.67-1.57,3.82-2.85,7.79-4.09,11.63-.98,3.05-2,6.2-3.15,9.23-.77,2.04-1.73,4.34-3.34,5.86-.16.16-.34.31-.51.46-.54.47-1.16,1.01-1.65,1.75-.82,1.22-1.05,2.61-1.24,3.72l-1.9,11.35c-.02.11-.06.38-.12.56,0,0-.01,0-.02,0l-3.03.24,1.56,2.61c1.52,2.54,1.76,5.95.65,8.92-1.29,3.44-4.23,6.51-8.28,8.64l-.09.05c-.5.26-1.13.59-1.68,1.16-.68.7-1,1.52-1.27,2.18l-.12.29c-.39.94-.98,1.74-1.61,2.59-1,1.35-2.13,2.87-2.46,5.08-.47,3.12.06,6.81,1.41,9.88,2.77,6.26,8.72,9.68,14.49,12.98,1.02.59,2.08,1.19,3.08,1.79,6.26,3.77,14.13,10.19,16.07,19.31,1.29,6.09.11,10.84-3.63,14.52-6.15,6.06-19.02,9.13-38.26,9.13-23.23,0-49.16-4.58-58.92-6.3l-1.63-.29c-25.44-4.45-48.97-10.78-66.24-17.83-18.85-7.7-24.92-14.13-24.32-17.59.98-5.59,5.27-13.25,10.1-15.74,1.23-.63,2.62-1.06,4.1-1.51,2.58-.79,5.25-1.6,7.36-3.65.58-.57,1.06-1.17,1.52-1.76.49-.63.96-1.22,1.48-1.65,1.1-.91,2.57-1.3,4.92-1.3.78,0,1.57.04,2.41.08.86.04,1.75.08,2.64.08,1.56,0,3.61-.11,5.59-.96,2.5-1.07,4.26-3.05,5.52-4.66,2.77-3.54,4.88-7.7,6.11-12.02.35-1.22.64-2.55.39-3.95-.29-1.59-1.18-2.81-1.96-3.89l-.21-.29c-3.68-5.09-5.86-12.95-1.97-18.18.73-.99,1.61-1.81,2.68-2.52l2.17-1.44-2.05-1.61c-.53-.42-.83-.7-1-.87.69-5.88,2.19-11.63,4.47-17.09l.75-1.79-1.81-.7c-1.91-.74-3.89-.84-5.75-.84-.37,0-.74,0-1.12,0-.36,0-.72,0-1.08,0-.61,0-1.1-.01-1.54-.04-6.64-.39-11.78-5.38-16.74-10.2-.99-.96-2-1.95-3.01-2.87-7.36-6.78-12.98-12.77-17.68-18.87-4.66-6.04-10.29-14.16-12.47-23.46-2.92-12.45.5-25.57,3.81-38.26l.39-1.5c3.28-12.63,6.8-27.58,8-42.65.3-3.8.46-7.66.62-11.4.36-8.66.74-17.61,2.9-26.03,1.32-5.15,3.53-10.01,6.96-15.32.48-.74.92-1.48,1.35-2.2,1.92-3.21,3.59-5.98,7.18-6.99.12-.03.24-.06.36-.1.63-.17,1.35-.35,2.06-.78,1.74-1.05,2.39-2.87,2.91-4.34.36-1.02.7-1.98,1.26-2.38.35-.25.92-.37,1.7-.37.09,0,.18,0,.27,0,1.82.06,3.47.53,5.21,1.02,1.91.54,3.88,1.11,6.12,1.11,1.04,0,2.03-.12,3.04-.36,2.35-.57,8.16-2.29,11.31-6.07.87-1.04,1.54-2.07,2.18-3.06,1-1.55,1.87-2.89,3.36-4.08,3.11-2.49,6.91-4.54,11.6-6.27l1.65-.61-.5-1.69c-.69-2.36-1.27-4.44-1.75-6.37l-.32-1.28-1.32-.13c-8.33-.84-14.09-2.62-18.69-5.76-6.44-4.4-10.77-13.77-6.97-20.71.46-.83,1.02-1.68,1.62-2.58,2.03-3.04,4.33-6.49,2.75-10.36-1.6-3.92-5.68-4.67-9.28-5.33-1.61-.3-3.13-.57-4.4-1.09-4.21-1.7-6.14-6.64-6.18-10.78-.05-4.83,1.83-9.54,3.66-14.09l1.04-2.59h-2.79s-.2,0-.2,0c-5.43,0-11.96-.57-14.28-5.03-1.32-2.54-1.07-7.22-.84-11.34.12-2.14.23-4.17.13-5.89-.09-1.5-.2-3.56-1.37-5.3-.58-.87-1.32-1.5-1.97-2.06-.22-.19-.44-.38-.66-.58-2.05-1.92-3.25-5.01-3.32-8.46-.09-5.27,1.83-13.51,7.51-14.62.34-.07.69-.1,1.08-.1,1.16,0,2.41.29,3.72.61,1.47.35,2.99.71,4.6.71.57,0,1.13-.05,1.66-.14l-.34-2v-1.74c.84,0,1.32.55,1.42.74-1.1-2.09-4-20.73-3.82-23.03,1.02-3.89,4.31-6.98,7.49-9.96.56-.52,1.11-1.04,1.65-1.56,6.69-6.45,12.12-14.4,15.69-22.97,1.17-2.8,2.17-5.71,3.14-8.54,2.45-7.12,4.76-13.85,9.53-19.02,5.59-6.05,13.72-8.86,20.93-10.82l1.69-.46-.33-1.72c-1.03-5.32-1.96-12.26-.06-18.8,1.26-4.34,3.73-8.35,5.95-11.77,3.82-5.89,9.13-12.7,16.34-13.13.26-.02.52-.02.78-.02,1.05,0,2.11.11,3.24.22,1.17.12,2.39.24,3.63.24.23,0,.46,0,.68-.01,6.79-.27,12.02-4.5,17.08-8.59,3.58-2.89,7.28-5.89,11.4-7.29,1.76-.6,3.64-.9,5.58-.9M284.73,48.08c-2.1,0-4.19.32-6.18,1-10.27,3.5-17.1,15.35-27.94,15.78-.2,0-.41.01-.61.01-2.29,0-4.58-.47-6.87-.47-.3,0-.59,0-.89.03-7.83.47-13.54,7.4-17.81,13.98-2.5,3.85-4.9,7.85-6.18,12.27-1.85,6.38-1.25,13.08.02,19.68-8.16,2.21-16.16,5.24-21.82,11.36-7.06,7.64-9.02,18.51-13.03,28.11-3.5,8.38-8.73,16.04-15.26,22.34-3.85,3.71-8.36,7.31-9.68,12.49-.47,1.84,3.09,24.56,4.24,24.56,0,0,0,0,.01,0-.44.08-.89.11-1.33.11-2.77,0-5.56-1.31-8.32-1.31-.48,0-.96.04-1.44.13-6.93,1.35-9.14,10.61-9.04,16.5.06,3.61,1.28,7.32,3.91,9.8.8.76,1.74,1.4,2.35,2.32.84,1.26.96,2.85,1.05,4.36.29,5.04-1.37,13.57.92,17.99,2.77,5.32,9.93,6.05,15.95,6.05.07,0,.13,0,.2,0-1.91,4.76-3.85,9.68-3.79,14.81.06,5.13,2.6,10.59,7.36,12.51,4.42,1.79,10.84.97,12.65,5.39,1.59,3.89-2.26,7.63-4.28,11.32-4.28,7.82.2,18.14,7.56,23.17,5.71,3.91,12.61,5.38,19.57,6.08.54,2.16,1.14,4.3,1.77,6.44-4.34,1.6-8.52,3.68-12.13,6.56-2.78,2.22-3.68,4.86-5.81,7.41-2.37,2.84-6.82,4.6-10.31,5.44-.91.22-1.77.31-2.6.31-3.89,0-7.1-1.99-11.27-2.13-.11,0-.22,0-.33,0-.99,0-2,.15-2.79.72-2.15,1.54-1.78,5.27-4.05,6.64-.59.36-1.29.49-1.96.68-5.22,1.46-6.96,5.88-9.61,9.98-3.21,4.97-5.72,10.11-7.2,15.87-3.14,12.26-2.57,25.12-3.57,37.74-1.14,14.33-4.33,28.41-7.95,42.32-3.46,13.33-7.35,27.25-4.21,40.66,2.1,8.95,7.19,16.91,12.81,24.18,5.35,6.93,11.47,13.18,17.9,19.1,6.06,5.58,12.15,13.05,20.92,13.57.55.03,1.1.04,1.65.04.73,0,1.46-.02,2.19-.02,1.74,0,3.46.09,5.07.71-2.42,5.79-4,11.92-4.67,18.16-.05.43.72,1.19,1.77,2.01-1.19.79-2.26,1.76-3.15,2.97-4.37,5.87-2.34,14.48,1.95,20.41.76,1.06,1.62,2.13,1.85,3.41.19,1.03-.06,2.09-.34,3.1-1.17,4.12-3.15,8-5.79,11.38-1.3,1.67-2.83,3.26-4.77,4.09-1.5.65-3.16.81-4.85.81s-3.4-.16-5.05-.16c-2.27,0-4.4.3-6.12,1.73-1.21,1-1.99,2.42-3.11,3.51-2.89,2.82-7.42,2.98-11.01,4.84-5.49,2.83-10.05,11.13-11.09,17.1-2.01,11.53,39.22,28.36,92.09,37.6,8.44,1.48,36.06,6.62,60.87,6.62,16.7,0,32.12-2.33,39.58-9.68,3.94-3.88,5.66-9.17,4.15-16.26-1.9-8.93-9.12-15.82-16.94-20.53-6.35-3.82-13.82-7.15-16.81-13.92-1.16-2.62-1.71-5.98-1.28-8.84.45-2.99,2.82-4.48,3.96-7.24.27-.66.49-1.36.99-1.88.36-.37.84-.61,1.3-.85,4.01-2.12,7.57-5.4,9.16-9.65,1.28-3.42,1.05-7.47-.8-10.55.38-.03.75-.11,1.05-.33.54-.4.68-1.13.8-1.79.63-3.78,1.26-7.57,1.9-11.35.17-1.03.36-2.11.94-2.98.5-.74,1.24-1.27,1.89-1.89,1.85-1.75,2.9-4.17,3.81-6.56,2.61-6.86,4.42-14.02,7.21-20.81,5.42-13.17,15.84-23.68,27.21-31.86,19.64-14.13,39.49-27.53,51.37-49.37,5.74-10.55,9.81-22.13,17.23-31.59,12.05-15.37,32.13-24.08,40.69-41.64,1.26-2.59,2.25-5.46,1.8-8.31-.43-2.7-2.1-5.02-3.88-7.09-4.98-5.76-11.28-10.37-18.27-13.37l-3.6-.6c-10.21-1.47-20.88-3.11-29.19-9.24-3.97-2.93-7.4-6.88-12.11-8.38-1.56-.5-3.21-.7-4.76-1.22-6.94-2.34-7.12-10.11-11.64-15.27-4.52-5.16-10.82-8.91-17.58-10.18-8.9-1.68-18.55-2.56-27.1-5.54-.3-.11-.6-.2-.91-.29.34-4.23.43-8.49.27-12.73,6.01-6.91,9.9-15.65,13.61-24.13,5.2-11.9,10.45-24.01,12.92-36.7.26.02.53.03.79.04.1,0,.2,0,.29,0,7.15,0,14.06-4.93,16.36-11.71,2.82-8.33-.74-18.48,4.28-25.7,3.46-4.97,9.93-6.81,14.41-10.88,6.59-5.98,8.94-18.36,5.74-26.66-4.01-10.41-8.55-21.34-11.04-32.35-.16-.7-.3-1.39-.44-2.09,5-7.98,8.46-15.74,6.98-25.72-.44-2.97-1.27-5.99-.63-8.92.59-2.7,2.36-4.95,3.72-7.36,3.82-6.77,4.25-15.7-.11-22.14-1.6-2.35-3.73-4.29-5.91-6.11-3.89-3.26-8.14-6.34-13.09-7.48-1.72-.39-3.47-.54-5.23-.54-2.51,0-5.04.3-7.54.6-5.63.67-11.51,1.44-16.17,4.67-1.22-2.16-3.69-3.49-6.16-3.49-.64,0-1.28.09-1.89.28-1.91.58-3.54,1.99-5.52,2.31-.31.05-.61.07-.91.07-3.5,0-6.39-3.25-9.54-5.11-2.08-1.22-4.24-1.72-6.42-1.72-4.95,0-9.97,2.56-14.18,5.01-.71-7.68-2.19-14.99-8.07-20.54-4.04-3.81-9.61-6.04-15.12-6.04h0Z"/>
    </g>
    <path class="cls-6" d="M316.14,213.33c-2.78-3.07-6.94-4.33-10.85-5.24-4.83-1.12-9.82-1.64-14.77-1.68-5.79-.05-11.71.38-17.41,1.4-5.68,1.02-9.96,4.17-15.23,6.2-1.26.48-.6,2.47.66,1.99,4.48-1.73,8.35-4.62,13.07-5.76,5.57-1.34,11.5-1.59,17.21-1.73,4.71-.11,9.33.37,13.96,1.2,4.24.76,9,1.88,12,5.2.9,1,2.26-.6,1.37-1.59Z"/>
    <path class="cls-6" d="M304.07,224.99c-1.29-3.03-4.93-5.25-7.89-6.17-9.66-3-19.77-.51-28.99,2.66-1.28.44-.61,2.42.66,1.99,7.12-2.44,14.23-4.38,21.82-3.67,3.78.36,7.59,1.01,10.47,3.65.41.38,2.95,3.02,1.34,2.83-.97-.11-1.76.06-2.54.65-1.07.82.09,2.56,1.17,1.74,1.07-.82,2.47.26,3.53-.69.85-.76.85-2,.43-2.99Z"/>
    <path class="cls-6" d="M296.29,229.75c-6.76,2.89-15.08,1.5-19.4-4.78-.76-1.11-2.5.05-1.74,1.17,4.82,7.01,14.19,8.86,21.8,5.6,1.23-.53.58-2.52-.66-1.99Z"/>
    <path class="cls-6" d="M361.17,237.04c-.09-2.16-1.68-4.24-2.95-5.87-4.69-6-13.29-4.57-19.89-3.46-1.32.22-1.2,2.31.13,2.09,4.93-.83,12.21-2.47,16.53.95,1.08.85,1.9,2.07,2.67,3.2.47.69.88,1.42,1.2,2.19.42,1.01.01.81-.84.56-1.3-.38-1.69,1.68-.41,2.05,1.44.42,3.65.36,3.56-1.71Z"/>
    <path class="cls-6" d="M352.5,241.07c-4.91,2.55-11.2-1.9-13.94-5.86-.77-1.11-2.51.06-1.74,1.17,3.48,5.03,10.81,9.56,16.84,6.43,1.2-.62.02-2.35-1.17-1.74Z"/>
    <path class="cls-6" d="M368.08,220.02c-7.68-6.37-18.97-7.58-27.65-2.56-1.17.68,0,2.41,1.17,1.74,7.87-4.54,18.19-3.33,25.12,2.41,1.04.86,2.41-.72,1.37-1.59Z"/>
    <path class="cls-6" d="M338.22,261.87c-.48-6.18-1.48-12.33-1.91-18.51-.42-6.19.32-12.42.36-18.61,0-1.35-2.08-1.21-2.09.13-.03,5.23-.48,10.44-.46,15.66.02,5.23,1,10.43,1.5,15.63.53,5.51,2.87,18.27-5.58,18.95-1.35.11-1.22,2.2.13,2.09,7.71-.62,8.52-9.2,8.05-15.34Z"/>
    <path class="cls-6" d="M320.47,269.06c-3.7-3.97-9.5-2.1-12.63,1.61-.87,1.03.71,2.4,1.59,1.37,2.44-2.89,6.75-4.54,9.67-1.39.92.99,2.28-.61,1.37-1.59Z"/>
    <path class="cls-6" d="M302.38,275.1c-2.25-2.67-3.86-5.54-3.87-9.11,0-3.44,1.98-6.78,3.82-9.54.74-1.11-.84-2.49-1.59-1.37-2.07,3.11-4.09,6.58-4.29,10.41-.22,4.14,1.57,7.66,4.19,10.77.86,1.02,2.61-.13,1.74-1.17Z"/>
    <path class="cls-6" d="M337.16,299.74c-2.87-.09-5.4-.65-7.95-1.97-1.76-.91-3.13-2.16-5.06-2.77-1.76-.55-3.99-.01-5.75.24-2.62.38-4.74.12-7.08-1.17-1.41-.77-2.7-1.6-4.27-1.97-1.66-.39-3.46.21-5.05.64-5.44,1.48-10.12.55-15.03-2.05-1.19-.63-2.11,1.25-.91,1.88,3.87,2.05,7.74,3.32,12.16,2.98,2.32-.18,4.49-.99,6.77-1.4,2.32-.42,4.27,1.15,6.17,2.19,4.16,2.28,8.25.05,12.6.68,1.31.19,2.61,1.35,3.66,2.05,1.05.7,2.18,1.2,3.35,1.65,2.09.8,4.32,1,6.53,1.07,1.35.04,1.21-2.05-.13-2.09Z"/>
    <path class="cls-6" d="M322.46,280.17c.54-1.23-1.34-2.15-1.88-.91-.66,1.52-.47,2.84.17,4.35.57,1.34,2.26,4.33-.25,4.62-3.09.37-6.39-2.09-9.19-3.09-1.26-.45-2.19,1.43-.91,1.88,3.37,1.21,6.87,3.69,10.6,3.25,1.55-.18,2.46-1.27,2.87-2.69.75-2.64-2.48-4.93-1.4-7.41Z"/>
    <path class="cls-6" d="M320.12,307.62c-5.17-.49-9.88-2.56-15.14-1.55-1.31.25-1.19,2.34.13,2.09,5.07-.97,9.62,1.04,14.6,1.52,1.33.13,1.75-1.93.41-2.05Z"/>
    <path class="cls-6" d="M314.56,335.09c-8.35,5.1-17.5,4.2-26.1.23-1.22-.56-2.14,1.32-.91,1.88,4.32,2,8.78,3.24,13.21,3.45-.69.4-1.39.82-2.12,1.24-5.54,3.2-11.5,5.52-17.93,5.86-1.35.07-1.22,2.16.13,2.09,5.27-.28,10.2-1.81,14.94-4.08,4.55-2.18,8.75-6.34,14.07-5.43.83.14,1.3-.61,1.21-1.24,1.58-.58,3.14-1.33,4.67-2.27,1.15-.7-.02-2.44-1.17-1.74Z"/>
    <path class="cls-6" d="M206.68,216.42c-2.68-4.4-4.48-9.52-9.75-11.38-4.32-1.53-7.94,1.17-8.83,5.4-.28,1.32,1.78,1.73,2.05.41.99-4.69,5.32-4.96,8.74-2.39,2.9,2.19,4.21,6.13,6.04,9.14.7,1.15,2.44-.02,1.74-1.17Z"/>
    <path class="cls-6" d="M210.86,234.91c-.51-2.52-1.88-4.63-3.58-6.52-2.58-2.86-4.58-5.02-3.98-9.15.19-1.33-1.86-1.74-2.05-.4-.67,4.66,1.26,7.44,4.29,10.72,1.49,1.61,2.74,3.43,3.26,5.58.18.76.7,5.48-.5,4.91-2.31-1.1-3.56-4.42-5.72-5.94-2.26-1.6-5.54-.25-7.37-2.46-2.5-3.02-3.26-10.27-.64-13.41.86-1.03-.72-2.41-1.59-1.37-3.08,3.7-2.32,10.37-.42,14.42,1.08,2.3,2.81,3.6,5.35,3.81,2.63.21,4.22.99,5.87,3.09.97,1.23,1.88,2.63,3.22,3.5,4.36,2.85,4.36-4.35,3.87-6.77Z"/>
    <path class="cls-6" d="M238.44,326.69c-8.73-7.09-13.69-17.92-17.19-28.36-3.95-11.78-4.61-24.39-8.86-36.06-.19-.53-.77-.85-1.32-.66-11.77,3.96-20.88-9.72-24.85-18.95-3.95-9.19-5.14-19.44-4.75-29.36.05-1.35-2.04-1.21-2.09.13-.44,11.22,1.17,22.92,6.3,33.02,4.63,9.13,13.67,20.47,25.06,17.44,4.04,11.64,4.85,24.14,8.78,35.85,3.53,10.52,8.78,21.42,17.56,28.54,1.04.85,2.42-.73,1.37-1.59Z"/>
    <path class="cls-6" d="M254.89,190.29c-3.89,2.66-8.63,3.31-12.62,5.76-3.16,1.94-4.93,5.51-6.6,8.67-3.55,6.74-9.42,14.08-17.93,12.51-1.33-.24-1.73,1.81-.4,2.05,3.77.69,7.1-.11,10-1.82-.96,2.66-2.5,5.08-3.42,7.76-.84,2.44-.72,4.88-.17,7.36,1.38,6.18,8.69,14.06,2.27,19.58-1.01.87.14,2.62,1.17,1.74,5.34-4.59,3.46-10.24.89-15.88-1.65-3.62-3.24-7.28-2.41-11.33.72-3.51,3.13-6.52,4.1-9.99.1-.34.02-.62-.15-.83,2.2-1.78,4.11-4.06,5.73-6.5,2.26-3.41,3.68-7.36,6.55-10.34,1.99-2.06,4.97-2.89,7.59-3.81,2.33-.82,4.53-1.79,6.57-3.19,1.11-.76-.05-2.5-1.17-1.74Z"/>
    <path class="cls-6" d="M299.75,167.32c-6.1.31-11.94,2.28-17.99,2.96-4.76.54-8.51,1.69-12.26,4.78-8.26,6.8-17.51,11.63-28.41,8.8-1.31-.34-1.71,1.72-.41,2.05,9.69,2.51,18.42-.59,26.32-6.27,2.09-1.51,3.99-3.27,6.13-4.72,2.15-1.46,4.67-2.03,7.2-2.38,6.51-.89,12.98-2.81,19.54-3.14,1.35-.07,1.22-2.16-.13-2.09Z"/>
    <path class="cls-6" d="M332.15,153.81c-2.78,4.34-4.77,8.49-9.11,11.54-3.86,2.7-8.56,3.95-13.23,3.73-1.35-.06-1.2,2.03.13,2.09,5.13.24,9.99-1.29,14.27-4.09,4.74-3.09,6.89-7.76,9.83-12.36.73-1.13-1.16-2.04-1.88-.91Z"/>
    <path class="cls-6" d="M365.69,197.96c-1.48-3.73-2.62-7.58-4.5-11.14-2.36-4.45-6.35-8.03-9.55-11.87-5.62-6.75-11.23-14.77-11.93-23.77-.11-1.35-2.19-1.22-2.09.13.67,8.63,5.53,16.11,10.68,22.79,3.11,4.03,6.75,7.61,9.78,11.69,2.8,3.77,3.92,8.53,5.63,12.83.5,1.25,2.48.59,1.99-.66Z"/>
    <path class="cls-6" d="M368.6,205.64c-.31-1.32-2.29-.64-1.99.66,1.87,7.98,3.19,17.12.32,25.02-.46,1.25,1.42,2.18,1.88.91,3.08-8.48,1.79-18.01-.22-26.59Z"/>
    <path class="cls-6" d="M361.83,240.53c-1.21,3.81-2.6,7.46-2.51,11.52.03,1.35,2.12,1.22,2.09-.13-.08-3.86,1.33-7.37,2.48-10.98.41-1.29-1.65-1.68-2.05-.4Z"/>
    <path class="cls-6" d="M391.04,195.17c-2.42,5.98-8.36,13.21-15.36,13.3-1.35.02-1.21,2.11.13,2.09,7.75-.11,14.42-7.82,17.11-14.48.5-1.24-1.38-2.17-1.88-.91Z"/>
    <path class="cls-6" d="M391.41,175.94c-.67-1.17-2.4,0-1.74,1.17,2.75,4.81-.4,11.01-4.58,13.84-4.19,2.83-9.98,2.25-14.34.22-1.22-.57-2.14,1.31-.91,1.88,5.64,2.63,12.47,2.71,17.56-1.18,4.62-3.54,7-10.7,4.02-15.92Z"/>
    <path class="cls-6" d="M400.76,187.89c.41-6.11-1.44-12.04-2.99-17.88-1.84-6.89-3.7-13.77-6.36-20.4-.5-1.25-2.49-.59-1.99.66,2.3,5.72,4.01,11.63,5.61,17.58,1.62,6.03,3.65,12.14,3.72,18.43.07,5.95-2.14,12.31-6.21,16.64-3.43,3.64-7.63,6.3-9.81,10.98-.57,1.22,1.31,2.14,1.88.91,2.4-5.13,7.51-7.95,11-12.22,3.25-3.98,4.81-9.65,5.15-14.7Z"/>
    <path class="cls-6" d="M380.44,225.24c.22-1.33-1.83-1.74-2.05-.4-1.2,7.13-1.29,14.35-4.43,21-.57,1.22,1.31,2.14,1.88.91,3.22-6.83,3.36-14.19,4.6-21.51Z"/>
    <path class="cls-6" d="M167.73,207.72c-2.03-4.35-10.69-16.86-1.51-18.11,1.33-.18,1.21-2.27-.13-2.09-11.79,1.61-3.11,14.96-.35,20.86.56,1.21,2.56.56,1.99-.66Z"/>
    <path class="cls-6" d="M161.67,209.86c-2.61-1.24-5.24-2.44-8.17-2.52-3.08-.09-5.56,2.04-7.41,4.26-.86,1.03.72,2.41,1.59,1.37,1.61-1.93,3.36-3.43,5.95-3.54,2.46-.1,4.98,1.29,7.13,2.32,1.22.58,2.13-1.3.91-1.88Z"/>
    <path class="cls-6" d="M150.26,236.27c-.84-3.2-2.99-5.75-4.25-8.78-1.67-4-.41-8.15,1.06-11.97.48-1.25-1.4-2.18-1.88-.91-1.34,3.48-2.58,7.15-1.85,10.93.82,4.22,3.86,7.3,4.94,11.39.34,1.31,2.33.63,1.99-.66Z"/>
    <path class="cls-6" d="M170.04,231.53c-.73-1.13-2.47.03-1.74,1.17,1.42,2.2,2.36,5.58,1.99,8.53-.04-2.8-.92-5.44-3.26-7.72-3.08-3-8.05-2.36-11.86-1.69-1.32.23-1.2,2.32.13,2.09,3.25-.57,6.93-1.19,9.85.77,4.03,2.7,3.34,7.87,2.27,11.86-.23.86.9,1.62,1.61,1.07,4.77-3.7,3.99-11.46,1.02-16.08Z"/>
    <path class="cls-6" d="M177.28,252.94c-5.34,2.92-11.68,4.17-16.8.11-1.05-.84-2.43.74-1.37,1.59,5.89,4.68,13.12,3.44,19.33.05,1.18-.65,0-2.38-1.17-1.74Z"/>
    <path class="cls-6" d="M201.61,300.34c-3.61-2.99-9-5.63-10.72-10.25-1.12-3.02,3.85-4.5,5.8-5.71,2.28-1.42,4.04-3.3,5.45-5.58.71-1.15-1.18-2.05-1.88-.91-2.07,3.35-5.26,5.16-8.63,6.98-2.12,1.15-3.54,2.81-2.85,5.37,1.45,5.39,7.49,8.38,11.48,11.69,1.04.86,2.41-.72,1.37-1.59Z"/>
    <path class="cls-6" d="M210.57,318.76c-.46-7.17-2.18-14.19-2.64-21.36-.47-7.35-.33-14.75.14-22.1.09-1.35-2-1.2-2.09.13-.47,7.36-.53,14.73-.14,22.1.37,7.18,2.18,14.19,2.64,21.36.09,1.35,2.18,1.22,2.09-.13Z"/>
    <path class="cls-6" d="M223.53,393.44c-3.27-12.96-8.09-25.5-11.15-38.5-.31-1.32-2.29-.64-1.99.66,2.83,12.01,7.13,23.66,10.37,35.57,3.08,11.3,6.6,23.25,4.51,35.02-.24,1.33,1.82,1.74,2.05.4,2-11.28-1.06-22.27-3.81-33.16Z"/>
    <path class="cls-6" d="M250.7,425.9c-2.99-7.96-4.84-16.26-5.95-24.68-.17-1.33-2.26-1.21-2.09.13,1.12,8.6,2.99,17.09,6.05,25.22.47,1.26,2.46.6,1.99-.66Z"/>
    <path class="cls-6" d="M286.71,397.09c-3.28,7.6-7.4,14.73-12.62,21.18-.85,1.05.73,2.42,1.59,1.37,5.33-6.58,9.57-13.86,12.92-21.63.53-1.23-1.35-2.16-1.88-.91Z"/>
    <path class="cls-6" d="M332.92,325.28c.05-1.35-2.04-1.21-2.09.13-.28,8.1.49,16.24-.82,24.28-.22,1.33,1.84,1.74,2.05.4,1.34-8.22.57-16.54.86-24.82Z"/>
    <path class="cls-6" d="M360.58,363.17c.37-2.18.48-4.45-.45-6.5-1.19-2.61-4.22-3.82-6.62-5-4.42-2.17-9.17-3.62-13.99-4.54-1.33-.25-1.73,1.8-.4,2.05,4.05.77,7.94,1.95,11.73,3.57,3.34,1.42,7.6,2.93,7.92,7.04.23,2.89-.69,6.15-1.03,9.03-.46,3.88-1.42,6.78-3.98,9.79-2.07,2.44-4.46,4.59-6.51,7.06-2.68,3.23-5.3,6.51-7.95,9.77-5.01,6.17-10.23,12.11-15.74,17.84-2.58,2.68-5.22,5.29-8.19,7.54-3.21,2.42-6.92,4.21-10.44,6.13-6.9,3.78-13.58,7.73-20.99,10.46-3.61,1.33-7.38,2.43-11.21,2.8-3.9.38-7.82.07-11.72.59-5.04.67-11.14,2.26-14.74,6.07-.93.98.66,2.35,1.59,1.37,4.36-4.62,12.73-5.59,18.7-5.74,3.42-.09,6.77-.1,10.14-.78,3.87-.79,7.65-2.15,11.3-3.64,6.91-2.82,13.24-6.75,19.78-10.3,3.25-1.76,6.5-3.51,9.46-5.74,2.88-2.18,5.42-4.81,7.93-7.39,5.52-5.72,10.71-11.67,15.74-17.84,2.45-3.01,4.88-6.03,7.34-9.03,2.24-2.73,4.78-5.16,7.12-7.8,4.36-4.91,4.2-10.64,5.25-16.8Z"/>
    <path class="cls-6" d="M196.17,428.71c-2.74-2.06-3.33-5.92-4.86-8.81-2.16-4.07-4.58-7.88-5.92-12.32-.39-1.3-2.38-.63-1.99.66,1.44,4.76,4.18,8.67,6.3,13.1,1.46,3.04,2.27,6.82,5.11,8.95,1.07.81,2.45-.77,1.37-1.59Z"/>
    <path class="cls-6" d="M234.94,440.94c-9.65.46-18.97-1.6-28.21-4.16-1.3-.36-1.7,1.7-.4,2.05,9.41,2.61,18.93,4.66,28.75,4.2,1.35-.06,1.22-2.15-.13-2.09Z"/>
    <path class="cls-6" d="M154.11,406.49c-6.21-7-2.97-17.85,4.18-22.82,1.11-.77-.06-2.51-1.17-1.74-8.39,5.83-11.5,18.12-4.38,26.14.89,1.01,2.25-.59,1.37-1.59Z"/>
    <path class="cls-6" d="M192.31,380.68c-.66-1.18-2.39,0-1.74,1.17,3.18,5.73,2.78,14.92-2.54,19.3-1.03.85.12,2.6,1.17,1.74,6.27-5.16,6.9-15.4,3.12-22.2Z"/>
    <path class="cls-6" d="M178.05,380c-4.36-4.52-10.78-2.51-15.58.21-1.17.67,0,2.4,1.17,1.74,4.55-2.59,10.24-4.23,13.83.66,2.96,4.03,1.99,9.24,0,13.44-1.93,4.08-5.37,7.1-9.89,7.69-3.93.52-8.66-.34-11.66-3.05-1-.9-2.37.68-1.37,1.59,3.78,3.41,9.63,4.21,14.5,3.34,5.53-.98,9.27-5.76,11.2-10.74,1.91-4.95,1.65-10.89-2.2-14.89Z"/>
    <path class="cls-6" d="M206.12,356.62c-3.44-2.83-7.81-1.69-11.47.12-2.22,1.1-4.4,2.35-6.43,3.77-2.55,1.79-4.89,4.53-8.13,4.94-1.23.16-2.56-.11-3.76.33-1.77.65-3.1,2.14-5.15,1.25-2.17-.95-3.68-2.26-6.19-2.06-3.98.32-4.78,5.31-4.79,8.41,0,1.35,2.09,1.21,2.09-.13,0-1.88.2-3.86,1.41-5.38,1.73-2.18,4.85.06,6.57,1.04,1.33.76,2.81.68,4.19.12,1.14-.47,1.83-1.14,3.15-1.38,1.23-.23,2.53.07,3.75-.28,3.92-1.13,6.83-4.47,10.25-6.55,3.55-2.16,9.25-5.84,13.16-2.62,1.04.86,2.41-.73,1.37-1.59Z"/>
    <path class="cls-6" d="M206.42,370.85c-2.59,3.64-5.85,6.72-8.68,10.17-.85,1.04.73,2.41,1.59,1.37,2.83-3.45,6.09-6.53,8.68-10.17.78-1.09-.8-2.47-1.59-1.37Z"/>
    <path class="cls-6" d="M400.58,368.46c-4.82-2.63-11.75-3.07-15.27-7.66-1.95-2.55-2.72-5.96-4-8.86-1.08-2.46-2.71-4.49-4.78-6.2-4.4-3.63-10.45-5.16-15.77-6.88-3.55-1.14-7.24-2.04-10.97-2.26-4.07-.23-8.12.39-12.18.1-1.33-.09-1.75,1.96-.4,2.05,3.27.23,6.52-.06,9.79-.14,4.23-.11,8.37.81,12.4,2,5.99,1.77,12.83,3.67,17.38,8.17,4.14,4.09,4.02,10.77,8.26,14.85,3.87,3.71,10.03,4.22,14.62,6.72,1.19.65,2.1-1.24.91-1.88Z"/>
    <path class="cls-6" d="M400.4,381.55c-2.44-1.77-4.72-3.74-7.47-5.02-2.79-1.3-5.89-1.26-8.88-1.09-2.47.14-9.44,1.25-8.92-2.69.51-3.89.85-7.82,1.49-11.69.22-1.33-1.83-1.74-2.05-.4-.66,4.05-1.02,8.16-1.56,12.23-.3,2.29.87,3.53,2.96,4.23,3.44,1.16,7.3.37,10.84.3,5.03-.09,8.42,2.93,12.24,5.71,1.08.79,2.46-.79,1.37-1.59Z"/>
    <path class="cls-6" d="M196.27,476.8c-6.87-7.7-12.63-16.27-17.88-25.13-5.24-8.86-9.35-17.92-11.1-28.13-.23-1.32-2.32-1.2-2.09.13,1.76,10.28,5.76,19.39,10.97,28.35,5.44,9.34,11.52,18.3,18.73,26.37.9,1,2.25-.59,1.37-1.59Z"/>
    <path class="cls-6" d="M207.06,515.33c-7.06-5.33-14.86-9.65-21.34-15.72-6.82-6.39-10.12-14.55-13.46-23.06-.83-2.1-1.44-4.24-1.66-6.49-.26-2.75.91-5.5,1.75-8.06,1.14-3.45.92-5.85-.92-8.94-4.81-8.04-6.77-17.09-7.34-26.37-.08-1.35-2.17-1.22-2.09.13.52,8.48,2.17,16.92,6.04,24.54.94,1.86,2.3,3.53,2.93,5.54.71,2.27-.88,5.29-1.57,7.4-1.46,4.5-.76,8.57.87,12.91,3.14,8.39,6.57,16.18,12.83,22.74,6.52,6.84,15.11,11.32,22.59,16.96,1.07.81,2.45-.77,1.37-1.59Z"/>
    <path class="cls-6" d="M294.08,478.59c-12.56,11.15-28.52,21.64-45.77,22.58-1.35.07-1.22,2.16.13,2.09,17.85-.97,34.24-11.78,47.23-23.31,1.01-.89-.59-2.25-1.59-1.37Z"/>
    <path class="cls-6" d="M295.98,510.91c-3.4.12-6.97,2.16-9.86,3.79-3.9,2.2-7.45,5-10.95,7.76-7.37,5.82-14.96,11.39-21.87,17.78-.99.91.6,2.27,1.59,1.37,5.81-5.37,12.16-10.11,18.38-14.98,5.54-4.33,10.97-8.98,17.41-11.93,1.42-.65,2.91-1.14,4.42-1.53,1.57-.4,1.91-.42,1.21.91-.99,1.88-2.73,3.45-4.26,4.89-5.65,5.32-12.18,9.81-18.92,13.63-1.18.67,0,2.4,1.17,1.74,7.51-4.25,14.74-9.35,20.86-15.46,1.8-1.8,6.58-8.17.82-7.96Z"/>
    <path class="cls-6" d="M389.92,405.85c-15.29,14.91-27.09,33.15-42.87,47.55-7.55,6.89-17.01,10.93-25.07,17.11-3.96,3.03-7.24,6.78-10.5,10.53-3.64,4.19-6.98,8.63-9.67,13.5-.65,1.18,1.23,2.09,1.88.91,2.61-4.72,5.87-8.96,9.37-13.04,3.51-4.09,7.11-7.97,11.44-11.19,7.87-5.85,16.75-9.88,24.12-16.45,7.74-6.91,14.4-15.19,21.07-23.11,7.04-8.35,13.97-16.81,21.8-24.44.97-.94-.63-2.3-1.59-1.37Z"/>
    <path class="cls-6" d="M368.98,463.98c-.06-.6-.74-1.23-1.38-.93-4.43,2.13-7.14,6.76-10.17,10.43-4.38,5.31-8.14,11.13-11.64,17.05-.69,1.16,1.2,2.07,1.88.91,3.25-5.5,6.76-10.83,10.73-15.84,2.44-3.07,5-7.36,8.38-9.7-.62,3.24-3.57,6.19-5.89,8.21-1,.87.15,2.62,1.17,1.74,3.3-2.88,7.38-7.11,6.91-11.87Z"/>
    <path class="cls-6" d="M358.4,508.69c-4.23,4.04-7.94,8.59-12.8,11.91-4.82,3.3-10.42,5.42-16.03,6.95-10.42,2.84-21.67,2.01-31.55,6.84-1.2.58-.55,2.58.66,1.99,10.08-4.93,21.74-4.17,32.4-7.08,5.54-1.51,10.86-3.85,15.68-6.96,5.07-3.28,8.89-8.15,13.22-12.28.97-.93-.62-2.29-1.59-1.37Z"/>
    <path class="cls-6" d="M424.06,439.96c-5.4,5.59-11.81,10.04-17.44,15.38-5.46,5.17-10.03,11.22-14.75,17.05-2.16,2.67-4.48,5.2-6.33,8.1-2.32,3.63-4.41,7.34-7.02,10.77-5,6.57-10.21,12.94-16.05,18.79-11.65,11.68-24.06,22.83-36.86,33.25-5.86,4.77-11.69,9.64-17.8,14.09-2.89,2.1-5.91,4.01-9.06,5.7-3.41,1.83-7.04,2.9-10.68,4.14-6.48,2.22-11.21,7.11-16.47,11.28-5.67,4.49-11.77,8.13-18.86,9.85-1.31.32-.64,2.3.66,1.99,6.47-1.57,12.16-4.7,17.47-8.64,5.61-4.16,10.49-9.68,17.11-12.21,3.08-1.18,6.27-1.98,9.29-3.34,3.34-1.5,6.48-3.44,9.51-5.48,6.21-4.18,11.86-9.13,17.71-13.78,12.59-10.01,24.43-20.96,36.06-32.05,5.96-5.68,11.32-11.76,16.44-18.2,2.3-2.9,4.59-5.8,6.58-8.92,2.29-3.58,4.28-7.26,7.05-10.52,5.25-6.19,10.06-12.74,15.69-18.59,6-6.24,13.32-11.03,19.34-17.27.94-.97-.65-2.33-1.59-1.37Z"/>
    <path class="cls-6" d="M410.4,464.93c-7.91,7.73-14.03,16.94-20.05,26.15-6.29,9.63-12.78,18.82-21.04,26.91-8.78,8.6-18.88,16.05-28.49,23.7-9.07,7.21-18.35,14.55-29.29,18.7-1.26.48-.6,2.47.66,1.99,10.82-4.11,20.01-11.21,29-18.32,9.59-7.59,19.47-15.08,28.4-23.45,8.32-7.8,14.93-16.82,21.15-26.32,6.43-9.82,12.8-19.74,21.24-27.99.96-.94-.63-2.3-1.59-1.37Z"/>
    <path class="cls-6" d="M225.56,584.27c-9.65-1.27-19.08-3.56-28.27-6.78-8.53-2.99-17.11-5.09-26.18-5.36-1.35-.04-1.21,2.05.13,2.09,9.85.3,18.78,3.05,28.04,6.15,8.42,2.82,17.08,4.79,25.87,5.95,1.33.18,1.75-1.88.4-2.05Z"/>
    <path class="cls-6" d="M161.79,520.34c-2.91-4.31-6.11-8.41-8.75-12.89-2.76-4.68-4.48-9.9-5.87-15.12-2.83-10.62-3.82-21.64-3.73-32.6.01-1.35-2.08-1.21-2.09.13-.09,11.19,1.04,22.29,3.83,33.13,1.32,5.14,3.13,10.15,5.66,14.82,2.63,4.83,6.14,9.14,9.21,13.69.76,1.12,2.49-.05,1.74-1.17Z"/>
    <path class="cls-6" d="M183.23,577.38c-1.6,4.4-1.92,9.03-2.68,13.61-.22,1.33,1.83,1.74,2.05.41.73-4.39.98-8.89,2.51-13.1.46-1.25-1.42-2.18-1.88-.91Z"/>
    <path class="cls-6" d="M240.98,608.52c-6.02-2.11-12.23-3.55-18.32-5.42-6.85-2.11-13.57-4.39-20.64-5.67-1.33-.24-1.73,1.81-.41,2.05,6.39,1.16,12.6,3.01,18.76,5.06,6.5,2.17,13.22,3.6,19.69,5.86,1.26.44,2.19-1.44.91-1.88Z"/>
    <path class="cls-6" d="M252.57,598.27c-.82,2.5-1.16,5.1-1.61,7.69-.23,1.33,1.82,1.74,2.05.4.45-2.59.79-5.18,1.61-7.69.42-1.28-1.64-1.67-2.05-.4Z"/>
    <path class="cls-6" d="M257.94,597.92c.09-1.33-1.96-1.75-2.05-.4-.23,3.4-.64,6.79-.98,10.19-.13,1.33,1.92,1.75,2.05.41.34-3.39.75-6.78.98-10.19Z"/>
    <path class="cls-6" d="M299.79,610.82c-12.9-.69-25.81.36-38.7-.39-1.35-.08-1.2,2.01.13,2.09,12.89.75,25.81-.29,38.7.39,1.35.07,1.2-2.02-.13-2.09Z"/>
    <path class="cls-6" d="M304.16,591.9c-9.23-1.51-18.6-1.85-27.84-3.27-1.33-.21-1.74,1.85-.4,2.05,9.24,1.42,18.61,1.76,27.84,3.27,1.33.22,1.74-1.83.41-2.05Z"/>
    <path class="cls-6" d="M319.68,564.59c-4.38,4.9-7.03,10.88-9.44,16.93-.5,1.24,1.38,2.17,1.88.91,2.35-5.88,4.88-11.7,9.14-16.47.9-1.01-.69-2.37-1.59-1.37Z"/>
    <path class="cls-6" d="M185.32,595.44c1.32-.31.64-2.29-.66-1.99-7.98,1.86-7.68,10.88-3.67,16.43.79,1.09,2.53-.07,1.74-1.17-3.23-4.47-4.04-11.74,2.59-13.28Z"/>
    <path class="cls-6" d="M263,635.96c-8.33-1.28-16.72-2.17-25.02-3.64-6.21-1.1-12.92-2.17-18.88-4.62,13.93,4.33,29.47,3.22,43.83,5.32,1.33.2,1.74-1.86.4-2.05-18.43-2.7-38.9.02-55.23-10.67-1.13-.74-2.03,1.15-.91,1.88,2.22,1.45,4.52,2.66,6.87,3.67-.5.43-.62,1.37.14,1.81,6.74,3.84,14.84,5.1,22.38,6.53,8.61,1.64,17.35,2.49,26.01,3.82,1.33.2,1.74-1.85.4-2.05Z"/>
    <path class="cls-6" d="M305.15,616.53c.17-1.33-1.88-1.75-2.05-.41-.77,5.92-4.2,10.66-9.69,13.06-1.06.47-.71,2.02.2,2.07-.56.99-1.22,1.92-1.99,2.78-.9,1.01.69,2.38,1.59,1.37,1.27-1.42,2.3-3.02,3.07-4.76.1-.23.12-.45.07-.65,4.88-2.91,8.05-7.64,8.81-13.47Z"/>
    <path class="cls-6" d="M185,671.99c-2.08-.69-4.15-1.4-6.2-2.15.38-.48.4-1.26-.31-1.6-8.99-4.4-19.5-8.02-24.35-17.51-.61-1.2-2.34-.02-1.74,1.17,2.6,5.09,6.76,8.57,11.46,11.38-1.93-1.04-3.83-2.16-5.69-3.37-1.13-.74-2.03,1.16-.91,1.88,8.46,5.52,17.79,9.1,27.34,12.25,1.28.42,1.67-1.64.4-2.05Z"/>
    <path class="cls-6" d="M270.91,684.91c-4.61.75-9.24.03-13.85-.38-5.55-.49-10.97-1.64-16.35-3.07-1.31-.35-1.7,1.71-.41,2.05,5.38,1.43,10.8,2.56,16.35,3.07,4.77.44,9.61,1.19,14.39.42,1.32-.22,1.2-2.31-.13-2.09Z"/>
    <path class="cls-6" d="M270.64,681.91c-7.16-1.22-14.41-1.81-21.67-2.16-1.35-.07-1.2,2.02.13,2.09,7.08.34,14.14.94,21.13,2.13,1.33.23,1.74-1.83.41-2.05Z"/>
    <path class="cls-6" d="M251.16,702.17c-7.5.33-14.81-1.24-22.03-3.08-1.31-.33-1.71,1.72-.4,2.05,7.4,1.89,14.89,3.45,22.56,3.12,1.35-.06,1.22-2.15-.13-2.09Z"/>
    <path class="cls-6" d="M319.79,110.4c-9.66-7.54-11.4-21.59-6.36-32.31.57-1.22-1.31-2.14-1.88-.91-5.42,11.53-3.52,26.69,6.88,34.8,1.06.83,2.43-.75,1.37-1.59Z"/>
    <path class="cls-6" d="M325.4,103.29c-.57-1.75-1.45-3.37-2-5.13-.87-2.78-.01-5.92.56-8.67.27-1.32-1.78-1.73-2.05-.4-.53,2.56-1.01,5.05-.86,7.68.15,2.58,1.58,4.79,2.37,7.18.42,1.29,2.4.62,1.99-.66Z"/>
    <path class="cls-6" d="M338.23,107.39c-2.5-6.17-5.2-12.99-3.08-19.66.41-1.29-1.65-1.68-2.05-.4-2.23,7,.51,14.24,3.14,20.73.51,1.25,2.49.59,1.99-.66Z"/>
    <path class="cls-6" d="M337.44,117.36c-6.22-3.46-13.86-4.22-20.76-2.75-1.32.28-.64,2.26.66,1.99,6.37-1.36,13.47-.54,19.19,2.64,1.18.66,2.09-1.23.91-1.88Z"/>
    <path class="cls-6" d="M336.13,122.99c-.81-1.07-2.55.09-1.74,1.17,3.93,5.21,5.01,11.64,4,18-.21,1.33,1.84,1.74,2.05.4,1.1-6.88-.05-13.93-4.31-19.57Z"/>
    <path class="cls-6" d="M325.54,137.04c-9.74,5.31-20.74-7.03-25.79-14.03-.79-1.09-2.53.07-1.74,1.17,5.86,8.13,17.64,20.62,28.69,14.61,1.19-.65,0-2.38-1.17-1.74Z"/>
    <path class="cls-6" d="M309.11,153.01c-.24-2.61-.71-5.07-1.92-7.42-1.46-2.83-4.23-4.34-6.49-6.41-1.11-1.02-1.95-2.35-2.88-3.52-1.22-1.54-2.97-2.33-3.84-4.18-1.45-3.07-.96-7.77.33-10.8.52-1.24-1.36-2.16-1.88-.91-1.19,2.8-1.43,5.86-1.19,8.86.29,3.65,1.93,5.46,4.51,7.82,1.19,1.09,2.05,2.62,3.12,3.84,1.16,1.31,2.7,2.21,4.02,3.33,2.91,2.46,3.81,5.86,4.14,9.52.12,1.34,2.21,1.22,2.09-.13Z"/>
    <path class="cls-6" d="M271.16,152.12c-.13-3.24-1.99-5.63-3.22-8.5-1.49-3.47,1.92-7.3,2.52-10.75.53-3.05-.48-6.08-1.51-8.9-.46-1.27-2.45-.61-1.99.66,1.17,3.2,1.92,6.11,1.1,9.5-.67,2.78-2.55,4.87-2.64,7.84-.07,2.46,1.91,4.89,2.9,7,1.45,3.08.95,7.39-.6,10.31-.63,1.19,1.25,2.11,1.88.91,1.33-2.51,1.66-5.27,1.55-8.08Z"/>
    <path class="cls-6" d="M258.16,118.85c-2.23,2.61-4.76,4.83-7.63,6.71-2.21,1.44-4.82,1.81-6.66,3.84-3.12,3.47-2.98,10.07-2.52,14.37.26,2.39.85,4.88-.13,7.19-1,2.36-3.93,3.84-5.96,5.15-4.47,2.88-8.05,6.18-9.15,11.57-.27,1.32,1.78,1.73,2.05.4,1.3-6.36,6.54-8.86,11.38-12.33,3.31-2.37,4.52-5.22,4.25-9.25-.32-4.87-2.01-12.76,2.36-16.42,1.96-1.64,4.85-2.28,6.99-3.76,2.47-1.71,4.66-3.83,6.61-6.11.87-1.02-.71-2.39-1.59-1.37Z"/>
    <path class="cls-6" d="M260.09,169.39c-11.8-1.03-10.12-15.02-6.42-22.87.57-1.22-1.31-2.14-1.88-.91-4.25,9.04-5.39,24.68,7.9,25.84,1.33.12,1.75-1.94.4-2.05Z"/>
    <path class="cls-6" d="M270.84,168.91c-2.68,1.92-5.91-.89-6.36-3.62-.39-2.38.79-4.91,1.74-7.02.55-1.23-1.33-2.15-1.88-.91-1.41,3.14-3.12,7.38-1.12,10.66,1.79,2.95,5.71,4.84,8.79,2.63,1.1-.78-.07-2.52-1.17-1.74Z"/>
    <path class="cls-6" d="M383.21,159.62c-.24-7.92-11.55-12.19-9.75-20.58.28-1.32-1.77-1.72-2.05-.4-1.54,7.19,5.4,12.25,8.62,17.81,2.44,4.21-.18,7.57-2.85,10.94-1.71,2.17-3.56,4.18-6.11,5.35-2.69,1.23-5.82,1.2-8.71,1.01-1.35-.09-1.2,2,.13,2.09,5.58.37,10.47-.7,14.39-4.89,2.75-2.93,6.45-7.04,6.32-11.33Z"/>
    <path class="cls-6" d="M360.08,105.12c-1.59-3.86-5.77-6.28-9.38-7.94-2.71-1.24-5.62-2.03-8.57-2.5,2.19-1.12,4.14-2.72,5.85-4.53,2.4-2.54,4.75-6.38,4.2-10.02-.95-6.25-10.43-4.65-14.34-2.98-1.23.53-.58,2.52.66,1.99,2.85-1.22,10.01-3.08,11.54.98,1.1,2.91-1.9,6.7-3.64,8.67-2.41,2.74-5.83,4.98-9.51,5.38-1.37.15-1.2,2.03.13,2.09,6.42.28,12.92,1.99,18.07,5.96,2.82,2.18,4.69,5.71,3.27,9.24-1.13,2.83-5.8,5.02-8.59,3.8-1.23-.54-2.15,1.34-.91,1.88,3.29,1.44,6.96-.14,9.52-2.35,2.87-2.49,3.09-6.33,1.72-9.68Z"/>
    <path class="cls-6" d="M351.91,107.16c-1.93-3.41-4.61-5.47-8.36-6.57-1.3-.38-1.69,1.68-.41,2.05,3.23.94,5.38,2.77,7.03,5.68.67,1.18,2.4,0,1.74-1.17Z"/>
    <path class="cls-6" d="M308.87,73.88c-5.02-9.49-11.88-18.2-22-22.48-4.33-1.83-8.99-2.3-13.47-.7-1.92.69-4.12,2.05-5.22,3.82-1.53,2.45-1.59,5.36-2.66,7.98-.51,1.24,1.37,2.17,1.88.91.72-1.76,1.05-3.63,1.53-5.46.76-2.92,3.1-4.54,5.8-5.5,4.52-1.62,9.28-.17,13.4,1.82,8.69,4.2,14.6,12.47,19,20.78.63,1.19,2.36.02,1.74-1.17Z"/>
    <path class="cls-6" d="M279.54,75.58c-2.77,3.31-10.54-1.24-11.79,4.3-1.21,5.36,4.38,6.27,7.02,9.47-2.67.88-5.56.87-7.79-1.1-.88-.78-1.61-1.55-2.61-2.19-1.77-1.13-4.18-.73-4.65-3.44-.45-2.62,2.37-5.67,4.21-7.13,2.24-1.79,5.15-2.37,7.94-2.58,1.35-.11,1.22-2.19-.13-2.09-3.5.27-7.03,1.14-9.71,3.54-2.43,2.17-4.89,5.56-4.29,9,.21,1.22,1.08,2.46,2.12,3.12.78.49,1.52.75,2.39,1.01,1.72.51,2.7,1.76,3.99,2.9,2.77,2.45,7.37,1.84,10.46.47.67-.3.87-.93.54-1.58-1.62-3.19-8.89-4.91-7.35-9.2.66-1.83,4.61-1.09,6.06-1.09,1.99,0,3.87-.48,5.18-2.05.87-1.03-.72-2.4-1.59-1.37Z"/>
    <path class="cls-6" d="M304.15,110.3c-6.8,1.79-12.24-6.11-19.2-2.68-2.39,1.18-4.3,3.02-6.3,4.74-2.77,2.38-5.78,3.73-9.45,4.06-8.23.75-11.6-6.54-14.67-12.71-2.63-5.29-5.87-9.58-11.81-11.17-1.31-.35-1.7,1.71-.4,2.05,6.83,1.83,9.29,7.98,12.18,13.76,2.94,5.87,7.18,10.12,14.08,10.19,6.74.07,10.52-4.35,15.5-7.98,6.95-5.06,13.3,3.69,20.73,1.74,1.31-.34.63-2.33-.66-1.99Z"/>
    <path class="cls-6" d="M387.57,144.16c-1.13-5.48-1.69-12.38-6.23-16.26-2.58-2.21-5.75-1.21-8.75-.83-4.64.57-8.4-4.84-11.68-7.35-1.06-.82-2.44.76-1.37,1.59,2.81,2.15,5.13,4.84,8.18,6.68,1.3.78,2.72,1.12,4.21,1.21,2.36.15,4.58-1.21,6.93-.35,2.83,1.04,4.04,4.8,4.83,7.38.86,2.81,1.29,5.73,1.89,8.61.27,1.32,2.25.64,1.99-.66Z"/>
    <path class="cls-6" d="M393.88,118.32c-4.02-7.93-15.05-3.55-21.83-4.52-1.33-.19-1.74,1.86-.4,2.05,5.64.8,11.65-1.5,17.14.49,1.39.5,2.39,1.47,3.15,2.72.5.82,1.7,4.29-.23,3.87-1.56-.34-3.01-1.29-4.43-2.24-.82-.84-1.74-1.42-2.99-1.78-1.17-.34-1.69,1.45-.66,1.97.78.39,1.55.88,2.34,1.39.16.19.31.39.44.61.3.41.74.5,1.12.39,1.51.93,3.07,1.73,4.77,1.83,3.59.21,2.49-5,1.59-6.79Z"/>
    <path class="cls-6" d="M398.8,100.22c-1.75-2.66-4.67-3.51-7.52-2.07-1.51.76-2.17,2.74-3.67,3.43-1.66.76-4.98-2.52-6.14-3.53-5.71-5-10.46-11.46-18.93-8.88-1.29.39-.63,2.38.66,1.99,7.95-2.42,12.61,4.89,17.94,9.37,1.89,1.59,4.51,3.63,7.13,3.04,1.03-.23,1.84-1.38,2.48-2.12,1.89-2.18,4.52-2.77,6.31-.06.74,1.13,2.48-.04,1.74-1.17Z"/>
    <path class="cls-6" d="M243.38,125.19c-1.59-1.19-3.42-1.97-5.03-3.13-1.76-1.27-2.16-3.58-3.1-5.42-.42-.82-.88-1.31-1.36-1.54-.01-.14-.06-.29-.13-.43-1.44-2.65-.72-6.51.31-9.19,1.07-2.79,3.54-4.55,6.03-5.99,1.17-.68,0-2.41-1.17-1.74-3.14,1.82-5.96,4.17-7.09,7.75-.99,3.14-1.47,6.91,0,9.97-.29.22-.57.51-.83.83-3.79-5.85-9.01-11.11-9.46-18.41-.08-1.35-2.17-1.22-2.09.13.52,8.35,6.67,14.06,10.7,20.88.4.67,1.51.58,1.81-.13.17-.4.6-2.32,1.28-1.39.4.54.62,1.2.87,1.81.5,1.24.94,2.36,1.79,3.42,1.54,1.93,4.17,2.74,6.11,4.18,1.07.8,2.45-.78,1.37-1.59Z"/>
  </g>
  <g>
    <path class="cls-3" d="M129.52,320.95c4.18,13.78-3.61,28.34-17.4,32.52s-28.34-3.61-32.52-17.39,3.61-28.34,17.4-32.52c13.78-4.18,28.34,3.61,32.52,17.39Z"/>
    <path class="cls-5" d="M118.52,324.29c4.18,13.78,1.31,26.85-6.4,29.19s-17.35-6.94-21.52-20.73c-4.18-13.78-1.31-26.85,6.4-29.19,7.71-2.34,17.35,6.94,21.52,20.72Z"/>
    <line class="cls-5" x1="96.99" y1="303.52" x2="112.18" y2="353.68"/>
    <line class="cls-5" x1="129.52" y1="320.95" x2="79.48" y2="336.12"/>
    <g>
      <path class="cls-5" d="M101.48,318.35c8.08-2.45,14.65-6.61,18.23-11.06-6.36-4.53-14.66-6.17-22.71-3.73s-14.04,8.41-16.82,15.7c5.44,1.71,13.22,1.53,21.3-.92Z"/>
      <path class="cls-5" d="M107.64,338.69c-8.08,2.45-14.65,6.61-18.23,11.06,6.35,4.53,14.66,6.17,22.7,3.73,8.05-2.44,14.04-8.41,16.82-15.7-5.44-1.71-13.22-1.53-21.3.92Z"/>
    </g>
  </g>
  <g>
    <path class="cls-4" d="M432.21,670.34c1.35,3.09-.06,6.69-3.15,8.04h0c-3.09,1.35-6.69-.06-8.04-3.15l-18.73-35.55c-1.35-3.09,2.73-7.86,5.82-9.21h0c3.09-1.35,6.69.06,8.04,3.15l16.05,36.72Z"/>
    <path class="cls-4" d="M461.33,588.85h9.14c4.05,0,7.34,3.29,7.34,7.34v9.13c0,4.05-3.29,7.34-7.34,7.34h-9.14c-4.05,0-7.34-3.29-7.34-7.34v-9.14c0-4.05,3.29-7.34,7.34-7.34Z" transform="translate(-201.63 236.92) rotate(-23.61)"/>
    <rect class="cls-4" x="383.07" y="619.85" width="23.82" height="23.81" rx="7.34" ry="7.34" transform="translate(-219.98 211.11) rotate(-23.61)"/>
    <path class="cls-4" d="M448.31,562.26c-2.72,19.38-19.35,30.13-23.08,32.31l-18.51,8.09,17.52,40.08,17.73-7.75.03.08s22.08-7.86,40.21,4.74c.27.19-14.43-33.09-16.95-38.78-2.47-5.71-16.9-39.1-16.95-38.77Z"/>
    <path class="cls-4" d="M411.78,600.49l-8.73,3.82c-11.09,4.85-16.15,17.77-11.3,28.86,4.85,11.09,17.77,16.15,28.86,11.3l8.73-3.82-17.56-40.16Z"/>
    <path class="cls-4" d="M486.79,638.65c.66,1.51-.03,3.26-1.53,3.92h0c-1.51.66-3.26-.03-3.92-1.53l-34.52-78.97c-.66-1.51.03-3.26,1.54-3.92h0c1.51-.66,3.26.03,3.92,1.53l34.52,78.97Z"/>
  </g>
</svg>