<?xml version="1.0" encoding="UTF-8"?>
<svg id="Layer_1" xmlns="http://www.w3.org/2000/svg" viewBox="0 0 155.29 153.88">
  <defs>
    <style>
      .cls-1 {
        fill: #fafafa;
      }

      .cls-2 {
        fill: #0088ce;
      }

      .cls-3 {
        fill: #fcd878;
      }
    </style>
  </defs>
  <g>
    <path class="cls-3" d="M128.89,88.54c-.35-.13-.52-.53-.39-.91.13-.38.51-.59.86-.48.35.11.53.52.39.91-.13.39-.52.6-.87.48Z"/>
    <path class="cls-3" d="M131.68,73.75c-.37-.01-.66-.34-.65-.74,0-.4.31-.72.68-.72.37,0,.66.33.65.74,0,.41-.32.73-.68.72Z"/>
    <path class="cls-3" d="M121.63,101.73c-.29-.23-.33-.66-.08-.98.24-.32.66-.41.96-.19.3.21.35.66.1.99-.25.32-.69.4-.98.18Z"/>
    <path class="cls-3" d="M110.68,112.05c-.21-.3-.11-.74.21-.97.32-.23.76-.18.98.12s.12.73-.21.97c-.34.24-.78.18-.98-.12Z"/>
    <path class="cls-3" d="M97.06,118.47c-.1-.35.13-.73.51-.84.38-.11.78.06.89.41.11.35-.11.74-.5.86-.4.11-.8-.08-.9-.43Z"/>
    <path class="cls-3" d="M82.14,120.36c.01-.37.34-.66.74-.65s.72.31.72.68c0,.37-.33.66-.74.65-.41,0-.73-.32-.72-.68Z"/>
    <path class="cls-3" d="M67.34,117.57c.13-.35.53-.52.91-.39.38.13.59.51.48.86-.11.35-.52.53-.91.39-.39-.13-.6-.52-.48-.87Z"/>
    <path class="cls-3" d="M54.15,110.32c.23-.29.66-.33.98-.08.32.24.41.66.19.96-.21.3-.66.35-.99.1-.32-.25-.4-.69-.18-.98Z"/>
    <path class="cls-3" d="M43.83,99.37c.3-.21.74-.11.97.21s.18.76-.12.98c-.3.22-.73.12-.97-.21-.24-.34-.18-.77.12-.98Z"/>
    <path class="cls-3" d="M37.41,85.75c.35-.1.73.13.84.51.11.38-.06.78-.41.89-.35.11-.74-.11-.86-.5-.11-.4.08-.8.43-.9Z"/>
    <path class="cls-3" d="M125.43,72.28h-5.08s-.01-.45-.03-1.3c0-.21,0-.45-.02-.71-.02-.26-.04-.54-.07-.85-.03-.31-.04-.64-.08-.99-.04-.35-.09-.72-.14-1.11-.39-3.12-1.45-7.58-3.99-12.37-1.26-2.39-2.95-4.82-5-7.14-1.04-1.15-2.16-2.29-3.41-3.34-.6-.55-1.27-1.04-1.92-1.56-.33-.25-.68-.48-1.02-.73l-.51-.37-.53-.34c-2.83-1.86-6.02-3.35-9.42-4.38-1.7-.52-3.45-.88-5.22-1.17-1.78-.26-3.58-.37-5.39-.4-1.81.03-3.62.14-5.39.4-1.77.28-3.53.64-5.22,1.17-3.39,1.03-6.59,2.53-9.42,4.38l-.53.34-.51.37c-.34.25-.69.48-1.02.73-.65.52-1.31,1.01-1.92,1.56-1.25,1.05-2.36,2.2-3.41,3.34-2.05,2.33-3.74,4.75-5,7.14-2.54,4.79-3.6,9.25-3.99,12.37-.05.39-.1.76-.14,1.11-.03.35-.05.68-.08.99-.02.31-.05.59-.07.85-.02.26-.01.5-.02.71-.02.85-.03,1.3-.03,1.3,0,0,.01.45.03,1.3,0,.21,0,.45.02.71.02.26.04.54.07.85.03.31.04.64.08.99.04.35.09.72.14,1.11.39,3.12,1.45,7.58,3.99,12.37,1.26,2.39,2.95,4.82,5,7.14,1.04,1.15,2.16,2.29,3.41,3.34.6.55,1.27,1.04,1.92,1.56.33.25.68.48,1.02.73l.51.37.53.34c2.83,1.86,6.02,3.35,9.42,4.38,1.7.52,3.45.88,5.22,1.17,1.78.26,3.58.37,5.39.4,1.81-.03,3.62-.14,5.39-.4,1.77-.28,3.53-.64,5.22-1.17,3.39-1.03,6.59-2.53,9.42-4.38l.53-.34.51-.37c.34-.25.69-.48,1.02-.73.65-.52,1.31-1.01,1.92-1.56,1.25-1.05,2.36-2.2,3.41-3.34,2.05-2.33,3.74-4.75,5-7.14,2.54-4.79,3.6-9.25,3.99-12.37.05-.39.1-.76.14-1.11.03-.35.05-.68.08-.99.02-.31.05-.59.07-.85.02-.26.01-.5.02-.71.02-.85.03-1.3.03-1.3h5.08c1.4.97,3.36,1.57,4.88,2.73.75.58,1.4,1.31,1.83,2.31.37.99.57,2.26.26,3.86-.07.37-.15.73-.25,1.07-.12.34-.25.66-.4.96-.31.6-.65,1.11-1.09,1.5-.87.78-1.91,1.07-3.06.73-1.11-.33-1.75-1-2.08-1.69-.32-.69-.39-1.42-.27-1.93.25-.94.93-2.25,2.44-2,1.31.21.99,1.74.69,1.67-.22-.21-1.23-.64-1.48.45-.18.77.47,1.14,1.11,1.3.24.06.64.11,1.05-.14.2-.12.41-.32.6-.63.19-.31.36-.72.45-1.28.1-.54.09-1.05-.02-1.51-.1-.46-.33-.88-.62-1.23-.58-.7-1.48-1.14-2.56-1.26-1.27-.14-2.27.23-2.98.93-.35.35-.68.78-.92,1.28-.12.25-.23.52-.32.81-.09.29-.19.59-.26.9-.1.44-.14.85-.13,1.23,0,.38.04.73.13,1.06.18.67.54,1.26.97,1.82,1.05,1.36,2.73,2.54,3.8,4.11.54.79.96,1.69,1.02,2.76.03.53,0,1.12-.14,1.75-.16.62-.42,1.29-.79,2.01-.36.66-.8,1.24-1.26,1.72-.46.48-.99.84-1.51,1.08-1.04.49-2.14.43-3.13-.26-1.87-1.33-1.65-3.28-1.11-4.16.24-.42.64-.88,1.15-1.14.51-.26,1.11-.36,1.79,0,.59.31.7.8.61,1.19-.09.39-.36.68-.49.6-.13-.27-.98-.99-1.53-.03-.39.69.08,1.22.65,1.58.42.26,1.51.7,2.64-1.29.53-.96.58-1.97.26-2.8-.34-.86-1.06-1.55-2.05-2-1.17-.53-2.2-.47-3.12-.04-.46.22-.89.53-1.27.94-.39.4-.77.88-1.09,1.44-.46.78-.69,1.48-.71,2.18-.05.68.1,1.35.35,2.03.31.82.74,1.63,1.18,2.46.44.84.88,1.7,1.16,2.63.27.92.36,1.88.11,2.93-.12.53-.36,1.05-.69,1.6-.17.28-.36.56-.58.84-.23.27-.49.55-.79.83-.27.26-.55.5-.84.71-.29.21-.59.38-.88.54-.6.3-1.18.51-1.76.57-1.16.12-2.18-.26-2.9-1.21-.7-.92-.83-1.84-.7-2.59.14-.74.51-1.38.91-1.72.18-.16.41-.31.66-.44.25-.13.51-.24.79-.29.56-.1,1.17,0,1.71.55.93.94-.23,1.98-.43,1.75-.02-.15-.18-.46-.43-.64-.25-.18-.6-.23-1.03.13-.6.52-.29,1.2.13,1.7.16.19.46.47.93.51.24.02.52-.02.85-.15.17-.07.34-.16.53-.28.18-.13.38-.29.58-.49.4-.38.69-.8.88-1.23.18-.45.25-.91.22-1.36-.05-.91-.52-1.79-1.32-2.52-.94-.86-1.97-1.15-2.97-1.01-.49.08-1,.24-1.5.5-.5.26-.98.63-1.48,1.04-.34.3-.61.6-.83.92-.23.3-.4.61-.52.94-.24.65-.3,1.34-.29,2.04.06,1.72.72,3.65.66,5.56-.02.96-.22,1.93-.8,2.83-.29.45-.65.91-1.14,1.33-.49.41-1.09.81-1.82,1.17-.68.31-1.37.53-2.03.65-.66.12-1.3.1-1.86-.01-1.13-.21-1.99-.91-2.38-2.05-.38-1.1-.21-1.98.14-2.67.35-.69.92-1.14,1.4-1.35.44-.2,1.03-.34,1.6-.25.57.09,1.11.36,1.45,1.05.29.59.1,1.07-.2,1.32-.3.26-.69.34-.75.2.05-.29-.21-1.38-1.23-.92-.72.33-.65,1.04-.4,1.65.18.45.81,1.46,2.89.5,1-.46,1.62-1.26,1.85-2.12.23-.89.05-1.88-.49-2.83-.64-1.12-1.5-1.67-2.51-1.87-.5-.1-1.03-.09-1.57.02-.56.09-1.14.26-1.73.53-.84.35-1.43.8-1.85,1.35-.44.52-.71,1.15-.91,1.84-.23.85-.35,1.75-.49,2.69-.13.94-.28,1.9-.6,2.81-.32.9-.82,1.73-1.64,2.44-.41.36-.91.64-1.5.89-.59.25-1.28.45-2.09.54-1.49.22-2.89-.03-3.89-.58-1-.57-1.61-1.5-1.63-2.7-.02-1.16.41-1.97.96-2.49.55-.53,1.23-.82,1.75-.86.49-.02,1.09.01,1.6.26.51.25.94.7,1.06,1.45.2,1.31-1.35,1.46-1.38,1.15.14-.27.23-1.37-.88-1.26-.79.06-.94.79-.89,1.44.02.25.1.65.46.96.36.31,1.01.57,2.13.41.54-.07,1.03-.22,1.44-.48.41-.26.74-.59.98-.97.49-.77.64-1.75.42-2.82-.26-1.25-.92-2.09-1.8-2.57-.22-.12-.46-.21-.71-.29-.25-.08-.52-.15-.79-.19-.28-.04-.57-.06-.87-.06-.3,0-.61.02-.94.04-1.8.17-2.82.98-3.62,2.2-.97,1.4-1.57,3.36-2.73,4.88-.58.75-1.31,1.4-2.31,1.83-.99.37-2.26.57-3.86.26-.37-.07-.73-.15-1.07-.25-.34-.12-.66-.25-.96-.4-.6-.31-1.11-.65-1.5-1.09-.78-.87-1.07-1.91-.73-3.06.33-1.11,1-1.75,1.69-2.08.69-.32,1.42-.39,1.93-.27.94.25,2.25.93,2,2.44-.21,1.31-1.74.99-1.67.69.21-.22.64-1.23-.45-1.48-.77-.18-1.14.47-1.3,1.11-.06.24-.11.64.14,1.05.12.2.32.41.63.6.31.19.72.36,1.28.45.54.1,1.05.09,1.51-.02.46-.1.88-.33,1.23-.62.7-.58,1.14-1.48,1.26-2.56.14-1.27-.23-2.27-.93-2.98-.35-.35-.78-.68-1.28-.92-.25-.12-.52-.23-.81-.32-.29-.09-.59-.19-.9-.26-.44-.1-.85-.14-1.23-.13-.38,0-.73.04-1.06.13-.67.18-1.26.54-1.82.97-1.36,1.05-2.54,2.73-4.11,3.8-.79.54-1.69.96-2.76,1.02-.53.03-1.12,0-1.75-.14-.62-.16-1.29-.42-2.01-.79-.66-.36-1.24-.8-1.72-1.26-.48-.46-.84-.99-1.08-1.51-.49-1.04-.43-2.14.26-3.13,1.33-1.87,3.28-1.65,4.16-1.11.42.24.88.64,1.14,1.15.26.51.36,1.11,0,1.79-.31.59-.8.7-1.19.61-.39-.09-.68-.36-.6-.49.27-.13.99-.98.03-1.53-.69-.39-1.22.08-1.58.65-.26.42-.7,1.51,1.29,2.64.96.53,1.97.58,2.8.26.86-.34,1.55-1.06,2-2.05.53-1.17.47-2.2.04-3.12-.22-.46-.53-.89-.94-1.27-.4-.39-.88-.77-1.44-1.09-.78-.46-1.48-.69-2.18-.71-.68-.05-1.35.1-2.03.35-.82.31-1.63.74-2.46,1.18-.84.44-1.7.88-2.63,1.16-.92.27-1.88.36-2.94.11-.53-.12-1.05-.36-1.6-.69-.28-.17-.56-.36-.84-.58-.27-.23-.55-.49-.83-.79-.26-.27-.5-.55-.71-.84-.21-.29-.38-.59-.54-.88-.3-.6-.51-1.18-.57-1.76-.12-1.16.26-2.18,1.21-2.9.92-.7,1.84-.83,2.59-.7.74.14,1.38.52,1.72.91.16.18.31.41.44.66.13.25.24.51.29.79.1.56,0,1.17-.55,1.71-.94.93-1.98-.23-1.75-.43.15-.02.46-.18.64-.43.18-.25.23-.6-.13-1.03-.52-.6-1.2-.29-1.7.13-.19.16-.47.46-.51.93-.02.24.02.52.15.85.07.17.16.34.28.53.13.18.29.38.49.58.38.4.8.69,1.23.88.45.18.91.25,1.36.22.91-.05,1.79-.52,2.52-1.32.86-.94,1.15-1.97,1.01-2.97-.08-.49-.24-1-.5-1.5-.26-.5-.63-.98-1.04-1.48-.3-.34-.6-.61-.92-.83-.3-.23-.61-.4-.94-.52-.65-.24-1.34-.3-2.04-.29-1.72.06-3.65.72-5.56.66-.96-.02-1.93-.22-2.83-.8-.45-.29-.91-.65-1.33-1.14-.41-.49-.81-1.09-1.17-1.82-.31-.68-.53-1.37-.65-2.03-.12-.66-.1-1.3.01-1.86.21-1.13.91-1.99,2.05-2.38,1.1-.38,1.98-.21,2.67.14.69.35,1.14.92,1.35,1.4.2.44.34,1.03.25,1.6-.09.57-.36,1.11-1.05,1.45-.59.29-1.07.1-1.32-.2-.26-.3-.34-.69-.2-.75.29.05,1.38-.21.92-1.23-.33-.72-1.04-.65-1.65-.4-.45.18-1.46.81-.5,2.89.46,1,1.26,1.62,2.12,1.85.89.23,1.88.05,2.83-.49,1.12-.64,1.67-1.5,1.87-2.51.1-.5.09-1.03-.02-1.57-.09-.56-.26-1.14-.53-1.73-.35-.84-.8-1.43-1.35-1.85-.52-.44-1.15-.71-1.84-.91-.85-.23-1.75-.35-2.69-.49-.94-.13-1.9-.28-2.81-.6-.9-.32-1.73-.82-2.44-1.64-.36-.41-.64-.91-.89-1.5-.25-.59-.45-1.28-.54-2.09-.22-1.49.03-2.89.58-3.89.57-1,1.5-1.61,2.7-1.63,1.16-.02,1.97.41,2.49.96.53.55.82,1.23.86,1.75.02.49-.01,1.09-.26,1.6-.25.51-.7.94-1.46,1.06-1.31.2-1.46-1.35-1.15-1.38.27.14,1.37.23,1.26-.88-.06-.79-.79-.94-1.44-.89-.25.02-.65.1-.96.46-.31.36-.57,1.01-.41,2.13.07.54.22,1.03.48,1.44.26.41.59.74.97.98.77.49,1.75.64,2.82.42,1.25-.26,2.09-.92,2.57-1.8.12-.22.21-.46.29-.71.08-.25.15-.52.19-.79.04-.28.06-.57.06-.87,0-.3-.02-.61-.04-.94-.17-1.8-.98-2.82-2.2-3.62-1.4-.97-3.36-1.57-4.88-2.73-.75-.58-1.4-1.31-1.83-2.31-.37-.99-.57-2.26-.26-3.86.07-.37.15-.73.25-1.07.12-.34.25-.66.4-.96.31-.6.65-1.11,1.09-1.5.87-.78,1.91-1.07,3.06-.73,1.11.33,1.75,1,2.08,1.69.32.69.39,1.42.27,1.93-.25.94-.93,2.25-2.44,2-1.31-.21-.99-1.74-.69-1.67.22.21,1.23.64,1.48-.45.18-.77-.47-1.14-1.11-1.3-.24-.06-.64-.11-1.05.14-.2.12-.41.32-.6.63-.19.31-.36.72-.45,1.28-.1.54-.09,1.05.02,1.51.1.46.33.88.62,1.23.58.7,1.48,1.14,2.56,1.26,1.27.14,2.27-.23,2.98-.93.35-.35.68-.78.92-1.28.12-.25.23-.52.32-.81.09-.29.19-.59.26-.9.1-.44.14-.85.13-1.23,0-.38-.04-.73-.13-1.06-.18-.67-.54-1.26-.97-1.82-1.05-1.36-2.73-2.54-3.8-4.11-.54-.79-.96-1.69-1.02-2.76-.03-.53,0-1.12.14-1.75.16-.62.42-1.29.79-2.01.36-.66.8-1.24,1.26-1.72.46-.48.99-.84,1.51-1.08,1.04-.49,2.14-.43,3.13.26,1.87,1.33,1.65,3.28,1.11,4.16-.24.42-.64.88-1.15,1.14-.51.26-1.11.36-1.79,0-.59-.31-.7-.8-.61-1.19.09-.39.36-.68.49-.6.13.27.98.99,1.53.03.39-.69-.08-1.22-.65-1.58-.42-.26-1.51-.7-2.64,1.29-.53.96-.58,1.97-.26,2.8.34.86,1.06,1.55,2.05,2,1.17.53,2.2.47,3.12.04.46-.22.89-.53,1.27-.94.39-.4.77-.88,1.09-1.44.46-.78.69-1.48.71-2.18.05-.68-.1-1.35-.35-2.03-.31-.82-.74-1.63-1.18-2.46-.44-.84-.88-1.7-1.16-2.63-.27-.92-.36-1.88-.11-2.94.12-.53.36-1.05.69-1.6.17-.28.36-.56.58-.84.23-.27.49-.55.79-.83.27-.26.55-.5.84-.71.29-.21.59-.38.88-.54.6-.3,1.18-.51,1.76-.57,1.16-.12,2.18.26,2.9,1.21.7.92.83,1.84.7,2.59-.14.74-.52,1.38-.91,1.72-.18.16-.41.31-.66.44-.25.13-.51.24-.79.29-.56.1-1.17,0-1.71-.55-.93-.94.23-1.98.43-1.75.02.15.18.46.43.64.25.18.6.23,1.03-.13.6-.52.29-1.2-.13-1.7-.16-.19-.46-.47-.93-.51-.24-.02-.52.02-.85.15-.17.07-.34.16-.53.28-.18.13-.38.29-.58.49-.4.38-.69.8-.88,1.23-.18.45-.25.91-.22,1.36.05.91.52,1.79,1.32,2.52.94.86,1.97,1.15,2.97,1.01.49-.08,1-.24,1.5-.5.5-.26.98-.63,1.48-1.04.34-.3.61-.6.83-.92.23-.3.4-.61.52-.94.24-.65.3-1.34.29-2.04-.06-1.72-.72-3.65-.66-5.56.02-.96.22-1.93.8-2.83.29-.45.65-.91,1.14-1.33.49-.41,1.09-.81,1.82-1.17.68-.31,1.37-.53,2.03-.65.66-.12,1.3-.1,1.86.01,1.13.21,1.99.91,2.38,2.05.38,1.1.21,1.98-.14,2.67-.35.69-.92,1.14-1.4,1.35-.44.2-1.03.34-1.6.25-.57-.09-1.11-.36-1.45-1.05-.29-.59-.1-1.07.2-1.32.3-.26.69-.34.75-.2-.05.29.21,1.38,1.23.92.72-.33.65-1.04.4-1.65-.18-.45-.81-1.46-2.89-.5-1,.46-1.62,1.26-1.85,2.12-.23.89-.05,1.88.49,2.83.64,1.12,1.5,1.67,2.51,1.87.5.1,1.03.09,1.57-.02.56-.09,1.14-.26,1.73-.53.84-.35,1.43-.8,1.85-1.35.44-.52.71-1.15.91-1.84.23-.85.35-1.75.49-2.69.13-.94.28-1.9.6-2.81.32-.9.82-1.73,1.64-2.44.41-.36.91-.64,1.5-.89.59-.25,1.28-.45,2.09-.54,1.49-.22,2.89.03,3.89.58,1,.57,1.61,1.5,1.63,2.7.02,1.16-.41,1.97-.96,2.49-.55.53-1.23.82-1.75.86-.49.02-1.09-.01-1.6-.26-.51-.25-.94-.7-1.06-1.45-.2-1.31,1.35-1.46,1.38-1.15-.14.27-.23,1.37.88,1.26.79-.06.94-.79.89-1.44-.02-.25-.1-.65-.46-.96-.36-.31-1.01-.57-2.13-.41-.54.07-1.03.22-1.44.48-.41.26-.74.59-.98.97-.49.77-.64,1.75-.42,2.82.26,1.25.92,2.09,1.8,2.57.22.12.46.21.71.29.25.08.52.15.79.19.28.04.57.06.87.06.3,0,.61-.02.94-.04,1.8-.17,2.82-.98,3.62-2.2.97-1.4,1.57-3.36,2.73-4.88.58-.75,1.31-1.4,2.31-1.83.99-.37,2.26-.57,3.86-.26.37.07.73.15,1.07.25.34.12.66.25.96.4.6.31,1.11.65,1.5,1.09.78.87,1.07,1.91.73,3.06-.33,1.11-1,1.75-1.69,2.08-.69.32-1.42.39-1.93.27-.94-.25-2.25-.93-2-2.44.21-1.31,1.74-.99,1.67-.69-.21.22-.64,1.23.45,1.48.77.18,1.14-.47,1.3-1.11.06-.24.11-.64-.14-1.05-.12-.2-.32-.41-.63-.6-.31-.19-.72-.36-1.28-.45-.54-.1-1.05-.09-1.51.02-.46.1-.88.33-1.23.62-.7.58-1.14,1.48-1.26,2.56-.14,1.27.23,2.27.93,2.98.35.35.78.68,1.28.92.25.12.52.23.81.32.29.09.59.19.9.26.44.1.85.14,1.23.13.38,0,.73-.04,1.06-.13.67-.18,1.26-.54,1.82-.97,1.36-1.05,2.54-2.73,4.11-3.8.79-.54,1.69-.96,2.76-1.02.53-.03,1.12,0,1.75.14.62.16,1.29.42,2.01.79.66.36,1.24.8,1.72,1.26.48.46.84.99,1.08,1.51.49,1.04.43,2.14-.26,3.13-1.33,1.87-3.28,1.65-4.16,1.11-.42-.24-.88-.64-1.14-1.15-.26-.51-.36-1.11,0-1.79.31-.59.8-.7,1.19-.61.39.09.68.36.6.49-.27.13-.99.98-.03,1.53.69.39,1.22-.08,1.58-.65.26-.42.7-1.51-1.29-2.64-.96-.53-1.97-.58-2.8-.26-.86.34-1.55,1.06-2,2.05-.53,1.17-.47,2.2-.04,3.12.22.46.53.89.94,1.27.4.39.88.77,1.44,1.09.78.46,1.48.69,2.18.71.68.05,1.35-.1,2.03-.35.82-.31,1.63-.74,2.46-1.18.84-.44,1.7-.88,2.63-1.16.92-.27,1.88-.36,2.93-.11.53.12,1.05.36,1.6.69.28.17.56.36.84.58.27.23.55.49.83.79.26.27.5.55.71.84.21.29.38.59.54.88.3.6.51,1.18.57,1.76.12,1.16-.26,2.18-1.21,2.9-.92.7-1.84.83-2.59.7-.74-.14-1.38-.52-1.72-.91-.16-.18-.31-.41-.44-.66-.13-.25-.24-.51-.29-.79-.1-.56,0-1.17.55-1.71.94-.93,1.98.23,1.75.43-.15.02-.46.18-.64.43-.18.25-.23.6.13,1.03.52.6,1.2.29,1.7-.13.19-.16.47-.46.51-.93.02-.24-.02-.52-.15-.85-.07-.17-.16-.34-.28-.53-.13-.18-.29-.38-.49-.58-.38-.4-.8-.69-1.23-.88-.45-.18-.91-.25-1.36-.22-.91.05-1.79.52-2.52,1.32-.86.94-1.15,1.97-1.01,2.97.08.49.24,1,.5,1.5.26.5.63.98,1.04,1.48.3.34.6.61.92.83.3.23.61.4.94.52.65.24,1.34.3,2.04.29,1.72-.06,3.65-.72,5.56-.66.96.02,1.93.22,2.83.8.45.29.91.65,1.33,1.14.41.49.81,1.09,1.17,1.82.31.68.53,1.37.65,2.03.12.66.1,1.3-.01,1.86-.21,1.13-.91,1.99-2.05,2.38-1.1.38-1.98.21-2.67-.14-.69-.35-1.14-.92-1.35-1.4-.2-.44-.34-1.03-.25-1.6.09-.57.36-1.11,1.05-1.45.59-.29,1.07-.1,1.32.2.26.3.34.69.2.75-.29-.05-1.38.21-.92,1.23.33.72,1.04.65,1.65.4.45-.18,1.46-.81.5-2.89-.46-1-1.26-1.62-2.12-1.85-.89-.23-1.88-.05-2.83.49-1.12.64-1.67,1.5-1.87,2.51-.1.5-.09,1.03.02,1.57.09.56.26,1.14.53,1.73.35.84.8,1.43,1.35,1.85.52.44,1.15.71,1.84.91.85.23,1.75.35,2.69.49.94.13,1.9.28,2.81.6.9.32,1.73.82,2.44,1.64.36.41.64.91.89,1.5.25.59.45,1.28.54,2.09.22,1.49-.03,2.89-.58,3.89-.57,1-1.5,1.61-2.7,1.63-1.16.02-1.97-.41-2.49-.96-.53-.55-.82-1.23-.86-1.75-.02-.49.01-1.09.26-1.6.25-.51.7-.94,1.45-1.06,1.31-.2,1.46,1.35,1.15,1.38-.27-.14-1.37-.23-1.26.88.06.79.79.94,1.44.89.25-.02.65-.1.96-.46.31-.36.57-1.01.41-2.13-.07-.54-.22-1.03-.48-1.44-.26-.41-.59-.74-.97-.98-.77-.49-1.75-.64-2.82-.42-1.25.26-2.09.92-2.57,1.8-.12.22-.21.46-.29.71-.08.25-.15.52-.19.79-.04.28-.06.57-.06.87,0,.3.02.61.04.94.17,1.8.98,2.82,2.2,3.62ZM122.06,75.69c.37.03.68-.21.71-.54.03-.33-.25-.62-.62-.64-.37-.02-.68.22-.71.54s.25.6.62.64ZM119.16,87.37c.34.15.71.01.83-.3.12-.31-.06-.67-.4-.8-.34-.13-.72,0-.83.3-.12.3.07.65.4.8ZM112.76,97.59c.28.24.68.23.89-.02.22-.25.16-.65-.13-.88-.28-.23-.67-.21-.89.02-.21.24-.15.63.12.87ZM103.54,105.36c.19.32.57.43.85.25.28-.18.34-.57.14-.88-.2-.31-.58-.42-.85-.25-.27.17-.33.57-.14.88ZM92.38,109.89c.08.36.41.59.73.51.32-.07.5-.44.41-.79-.1-.36-.42-.56-.73-.5-.31.07-.49.42-.41.78ZM80.35,110.75c-.03.37.21.68.54.71.33.03.61-.25.63-.62.02-.37-.22-.68-.54-.71-.32-.02-.6.25-.63.62ZM68.65,107.9c-.14.34,0,.71.3.83s.66-.06.8-.4c.13-.34,0-.72-.3-.83-.3-.12-.65.06-.8.4ZM58.42,101.55c-.24.28-.23.68.02.9.25.22.66.14.88-.14.23-.29.21-.67-.03-.88-.24-.21-.63-.15-.87.12ZM50.6,92.36c-.31.19-.42.57-.24.85.18.28.57.34.88.14.31-.2.42-.58.24-.85-.17-.27-.57-.33-.88-.14ZM46.03,81.22c-.36.08-.59.41-.51.74.08.32.45.5.8.4.36-.1.56-.42.49-.73-.07-.31-.42-.49-.78-.41ZM45.14,68.88c-.37-.03-.68.21-.71.54-.03.33.25.62.62.64.37.02.68-.22.71-.54.02-.32-.25-.6-.62-.64ZM48.04,57.19c-.34-.15-.71-.01-.83.3-.12.31.06.67.4.8.34.13.72,0,.83-.3.12-.3-.07-.65-.4-.8ZM54.44,46.98c-.28-.24-.68-.23-.89.02-.22.25-.16.65.13.88.28.23.67.21.89-.02.21-.24.15-.63-.12-.87ZM63.66,39.21c-.19-.32-.57-.43-.85-.25-.28.18-.34.57-.14.88.2.31.58.42.85.25.27-.17.33-.57.14-.88ZM74.82,34.68c-.08-.36-.41-.59-.73-.51-.32.07-.5.44-.41.79.1.36.42.56.73.5.31-.07.49-.42.41-.78ZM86.84,33.81c.03-.37-.21-.68-.54-.71-.33-.03-.61.25-.63.62s.22.68.54.71c.32.02.6-.25.63-.62ZM98.54,36.66c.14-.34,0-.71-.3-.83-.31-.12-.66.06-.8.4s0,.72.3.83c.3.12.65-.06.8-.4ZM108.78,43.02c.24-.28.23-.68-.02-.9-.25-.22-.66-.14-.88.14-.23.29-.21.67.03.88.24.21.63.15.87-.12ZM116.59,52.21c.31-.19.42-.57.24-.85-.18-.28-.57-.34-.88-.14s-.42.58-.24.85c.17.27.57.33.88.14ZM121.17,63.35c.36-.08.59-.41.51-.74-.08-.32-.45-.5-.8-.4-.36.1-.56.42-.49.73.07.31.42.49.78.41Z"/>
    <path class="cls-3" d="M38.31,56.03c.35.13.52.53.39.91-.13.38-.51.59-.86.48-.35-.11-.53-.52-.39-.91.13-.39.52-.6.87-.48Z"/>
    <path class="cls-3" d="M35.52,70.82c.37.01.66.34.65.74,0,.4-.31.72-.68.72s-.66-.33-.65-.74c0-.41.32-.73.68-.72Z"/>
    <path class="cls-3" d="M45.57,42.83c.29.23.33.66.08.98-.24.32-.66.41-.96.19-.3-.21-.35-.66-.1-.99.25-.32.69-.4.98-.18Z"/>
    <path class="cls-3" d="M56.52,32.52c.21.3.11.74-.21.97-.32.23-.76.18-.98-.12s-.12-.73.21-.97c.34-.24.78-.18.98.12Z"/>
    <path class="cls-3" d="M70.14,26.1c.1.35-.13.73-.51.84-.38.11-.78-.06-.89-.41-.11-.35.11-.74.5-.86.4-.11.8.08.9.43Z"/>
    <path class="cls-3" d="M85.06,24.21c-.01.37-.34.66-.74.65-.4,0-.72-.32-.72-.68,0-.37.33-.66.74-.65.41,0,.73.32.72.68Z"/>
    <path class="cls-3" d="M99.86,27c-.13.35-.53.52-.91.39-.38-.13-.59-.51-.48-.86.11-.35.52-.53.91-.39.39.13.6.52.48.87Z"/>
    <path class="cls-3" d="M113.05,34.25c-.23.29-.66.33-.98.08-.32-.24-.41-.66-.19-.96.21-.3.66-.35.99-.1.32.25.4.69.18.98Z"/>
    <path class="cls-3" d="M123.36,45.2c-.3.21-.74.11-.97-.21-.23-.32-.18-.76.12-.98.3-.22.73-.12.97.21.24.34.18.77-.12.98Z"/>
    <path class="cls-3" d="M129.79,58.82c-.35.1-.73-.13-.84-.51-.11-.38.06-.78.41-.89.35-.11.74.11.86.5.11.4-.08.8-.43.9Z"/>
  </g>
  <g>
    <path class="cls-1" d="M68.02,63.73c-.55.03-1.03.18-1.5.33-.66.21-1.22.39-1.79.16-.69-.28-1.26-.76-1.57-1.32-.98-1.75-2.3-2.86-3.93-3.3-1.51-.4-3.29-.17-4.85.62l-2.81-7.88-.3-.86c-.82-2.35-1.74-5.01-3.44-6.66-1.95-1.89-5.17-2.13-7.5-.54-1.2.81-2.03,2.2-2.36,3.91-.16.86-.19,1.71-.16,2.58-.3-.73-.6-1.49-.9-2.24-.66-1.65-1.32-3.29-1.92-4.76-1.69-4.13-5.21-11.5-7.73-15.86-1.91-3.3-4.3-3.7-5.95-2.99-1.93.85-3.39,3.64-2.31,7.13.13,1.69,1.93,6.61,3.13,9.87.38,1.05.7,1.9.86,2.4,5.3,14.45,6.2,22.66,7.16,31.35.4,3.67.82,7.47,1.6,11.72.1,1.23-.7,1.89-1.14,1.95-.44.07-.93-.07-1.6-.44-1.36-.75-3.01-2.65-3.88-4.05-.04-.06-.09-.11-.14-.14-.14-2.84-.75-5.57-1.85-8.45-1.6-4.18-4.28-7.6-6.84-8.72-1.08-.47-2.08-.51-3.1-.13-2.65,1.6-3.36,4.46-2.3,9.3.46,2.11.46,4.22.47,6.26,0,3.81.01,7.4,2.73,10.87,4.2,5.36,9.34,10.47,15.28,15.22,2.61,2.09,5.78,4.4,9.41,5.74.71.26,1.44.49,2.18.72,1.99.62,3.88,1.21,5.37,2.48,1.28,1.08,2.15,2.6,2.87,3.94,2.32,4.32,3.22,6.85,4.1,9.29.97,2.71,1.88,5.27,4.6,9.93.73,1.25,2.25,1.32,3.59,1.37.18,0,.36.02.54.03,6.29.38,11.84-.62,19.14-3.45.15-.06.29-.11.44-.17,1.83-.72,3.48-1.44,4.96-2.53,1.46-1.08,3.69-3.26,4.39-5.22.2-.08.32-.28.28-.5-.25-1.41-1.9-4.23-3.65-7.21-1.02-1.74-2.07-3.54-2.83-5.04-.83-1.63-1.64-3.05-2.42-4.43-1.78-3.11-3.18-5.57-3.67-8.55-.37-2.25-.1-4.58.18-7.04.26-2.25.53-4.58.27-6.85-.3-2.59-1.11-5.1-1.9-7.52-.66-2.03-1.34-4.12-1.7-6.23-.17-.99-.28-2.02-.39-3.02-.2-1.91-.41-3.88-1.07-5.73-1.3-3.67-3.32-5.46-6-5.32Z"/>
    <g>
      <path class="cls-2" d="M68.02,63.73c-.55.03-1.03.18-1.5.33-.66.21-1.22.39-1.79.16-.69-.28-1.26-.76-1.57-1.32-.98-1.75-2.3-2.86-3.93-3.3-1.51-.4-3.29-.17-4.85.62l-2.81-7.88-.3-.86c-.82-2.35-1.74-5.01-3.44-6.66-1.95-1.89-5.17-2.13-7.5-.54-1.2.81-2.03,2.2-2.36,3.91-.16.86-.19,1.71-.16,2.58-.3-.73-.6-1.49-.9-2.24-.66-1.65-1.32-3.29-1.92-4.76-1.69-4.13-5.21-11.5-7.73-15.86-1.91-3.3-4.3-3.7-5.95-2.99-1.93.85-3.39,3.64-2.31,7.13.13,1.69,1.93,6.61,3.13,9.87.38,1.05.7,1.9.86,2.4,5.3,14.45,6.2,22.66,7.16,31.35.4,3.67.82,7.47,1.6,11.72.1,1.23-.7,1.89-1.14,1.95-.44.07-.93-.07-1.6-.44-1.36-.75-3.01-2.65-3.88-4.05-.04-.06-.09-.11-.14-.14-.14-2.84-.75-5.57-1.85-8.45-1.6-4.18-4.28-7.6-6.84-8.72-1.08-.47-2.08-.51-3.1-.13-2.65,1.6-3.36,4.46-2.3,9.3.46,2.11.46,4.22.47,6.26,0,3.81.01,7.4,2.73,10.87,4.2,5.36,9.34,10.47,15.28,15.22,2.61,2.09,5.78,4.4,9.41,5.74.71.26,1.44.49,2.18.72,1.99.62,3.88,1.21,5.37,2.48,1.28,1.08,2.15,2.6,2.87,3.94,2.32,4.32,3.22,6.85,4.1,9.29.97,2.71,1.88,5.27,4.6,9.93.73,1.25,2.25,1.32,3.59,1.37.18,0,.36.02.54.03,6.29.38,11.84-.62,19.14-3.45.15-.06.29-.11.44-.17,1.83-.72,3.48-1.44,4.96-2.53,1.46-1.08,3.69-3.26,4.39-5.22.2-.08.32-.28.28-.5-.25-1.41-1.9-4.23-3.65-7.21-1.02-1.74-2.07-3.54-2.83-5.04-.83-1.63-1.64-3.05-2.42-4.43-1.78-3.11-3.18-5.57-3.67-8.55-.37-2.25-.1-4.58.18-7.04.26-2.25.53-4.58.27-6.85-.3-2.59-1.11-5.1-1.9-7.52-.66-2.03-1.34-4.12-1.7-6.23-.17-.99-.28-2.02-.39-3.02-.2-1.91-.41-3.88-1.07-5.73-1.3-3.67-3.32-5.46-6-5.32ZM73.17,69.35c.62,1.75.82,3.67,1.02,5.52.11,1.01.22,2.06.39,3.08.38,2.18,1.07,4.3,1.74,6.36.77,2.38,1.57,4.84,1.86,7.35.25,2.17-.01,4.44-.27,6.65-.28,2.42-.57,4.92-.18,7.29.52,3.14,2.03,5.79,3.77,8.85.78,1.36,1.58,2.77,2.4,4.39.77,1.53,1.83,3.34,2.86,5.09,1.47,2.52,2.99,5.1,3.43,6.51-.37,1.83-2.77,4.19-4.21,5.24-1.51,1.11-3.25,1.82-5.19,2.58-7.17,2.78-12.6,3.76-18.76,3.4-.18-.01-.37-.02-.55-.03-1.16-.05-2.37-.1-2.85-.92-2.68-4.59-3.58-7.11-4.53-9.78-.88-2.47-1.8-5.03-4.15-9.42-.76-1.41-1.68-3.02-3.08-4.21-1.63-1.39-3.7-2.03-5.69-2.65-.72-.22-1.43-.45-2.13-.7-3.51-1.3-6.6-3.56-9.16-5.6-5.89-4.7-10.98-9.77-15.13-15.07-2.53-3.23-2.53-6.67-2.54-10.32,0-2.09,0-4.25-.49-6.45-1.23-5.64.36-7.41,1.82-8.3.72-.27,1.48-.23,2.33.15,2.31,1.01,4.87,4.32,6.36,8.22,1.69,4.43,2.18,8.5,1.58,13.2-.03.25.14.47.39.51.25.03.47-.14.51-.39.16-1.24.24-2.43.25-3.61.98,1.32,2.35,2.73,3.55,3.4.58.32,1.34.67,2.17.54.11-.02.23-.05.34-.09.82-.32,1.69-1.34,1.56-2.87-.77-4.26-1.19-8.05-1.59-11.7-.92-8.36-1.87-17.01-7.2-31.55-.16-.49-.48-1.35-.87-2.41-1.12-3.06-3-8.17-3.08-9.67,0-.04,0-.08-.02-.11-.95-3.02.22-5.39,1.8-6.08,1.6-.71,3.46.29,4.81,2.61,2.51,4.34,6,11.65,7.68,15.75.6,1.47,1.26,3.11,1.92,4.75.66,1.65,1.32,3.29,1.92,4.76.01.03.03.06.05.09.09,1.08.18,2.15.26,3.22.26,3.53.53,7.19,1.39,10.8.12.51.21,1.03.3,1.56.36,2.09.73,4.26,3.02,5.45,1.49.56,2.79.63,3.87.21.39-.15.74-.37,1.07-.64,4.33-3.65,2.1-17.16,1.31-21.21-.05-.25-.28-.4-.53-.36-.25.04-.41.28-.36.53,1.5,7.73,2.14,17.7-1.01,20.35-1,.84-2.32.93-3.99.3-1.84-.96-2.16-2.81-2.49-4.78-.09-.55-.19-1.09-.31-1.62-.85-3.54-1.1-7-1.37-10.66-.11-1.43-.21-2.87-.36-4.32-.14-1.44-.25-2.84,0-4.19.28-1.45,1-2.67,1.98-3.34,1.99-1.35,4.72-1.16,6.36.44,1.54,1.5,2.43,4.05,3.21,6.31l3.22,9.04c-1.62,1.15-2.22,3.7-1.84,5.76.35,1.92.68,3.75,1.01,5.53.91,5.07,1.77,9.86,2.96,15.07.06.25.11.52.17.8.28,1.31.59,2.79,1.19,3.84.65,1.13,1.53,2.32,3.19,2.59,1.11.19,1.88-.05,2.88-.44.04-.02.09-.03.13-.05,1.04-.41,2.21-1.84,2.34-2.01.37-.46.58-.98.69-1.53.68,1.25,1.77,2.23,3.35,2.32.61.04,1.17-.04,1.66-.23.14-.05.27-.12.4-.19.12-.07.24-.13.37-.19.71-.36,1.58-.81,2.12-2.3.21-.85.19-1.7.15-2.65-.14-3.33-.42-6.7-.82-10-.03-.25-.26-.42-.5-.39-.25.03-.42.25-.39.5.4,3.28.67,6.63.82,9.93.04.88.05,1.67-.11,2.35-.4,1.11-1.01,1.42-1.66,1.76-.14.07-.28.14-.41.22-.41.24-.94.34-1.55.31-1.98-.12-3-2.11-3.3-3.93-.01-.08-.05-.15-.1-.21,0,0,0-.02,0-.03-.4-3.68-.77-7.23-1.13-10.78-.36-3.56-.73-7.13-1.13-10.83-.03-.25-.25-.43-.5-.4-.25.03-.43.25-.4.5.41,3.7.77,7.26,1.13,10.82.36,3.55.73,7.1,1.13,10.79.15,1.33.23,2.7-.51,3.62-.56.69-1.41,1.51-1.97,1.73-.95.38-1.57.6-2.52.44-1.04-.17-1.78-.8-2.55-2.15-.53-.93-.83-2.34-1.09-3.58-.06-.29-.12-.56-.18-.82-1.18-5.19-2.04-9.97-2.95-15.03-.32-1.79-.65-3.62-1.01-5.54-.35-1.92.28-4.42,1.93-5.12.14-.06.23-.18.26-.31,1.34-.66,2.84-.85,4.12-.51,1.38.37,2.52,1.33,3.38,2.87.41.73,1.15,1.36,2.02,1.71.87.35,1.65.11,2.41-.13.43-.14.84-.27,1.27-.29,2.27-.12,3.94,1.43,5.11,4.72Z"/>
      <path class="cls-2" d="M70.08,82.75c-.84-.2-1.69.12-2.3.36h0c-.23.09-.35.35-.26.59.09.23.35.35.58.26.65-.25,1.24-.46,1.76-.33.96.23,1.4,1.48,1.68,2.55.06.24.31.39.55.32.02,0,.03-.01.05-.02.21-.08.33-.31.27-.54-.34-1.31-.92-2.85-2.34-3.19Z"/>
      <path class="cls-2" d="M57.86,82.89c-.22.11-.31.38-.2.61.11.22.39.32.61.2,1.19-.6,2.78-.95,3.67-.12.82.76.97,2.71,1.08,4.13.03.41.06.79.1,1.11.03.25.26.42.5.39.04,0,.07-.01.11-.03.19-.07.31-.27.28-.48-.04-.31-.07-.68-.1-1.07-.13-1.66-.29-3.73-1.37-4.73-1.24-1.14-3.24-.77-4.7-.02Z"/>
      <path class="cls-2" d="M43.86,63.81c-1.42-.17-2.73,1.4-3.05,2.6-.06.24.08.49.32.55.24.06.49-.08.55-.32.25-.95,1.26-2.04,2.07-1.94,1.04.12,2.22.26,2.67,1.16.11.21.35.3.57.22.01,0,.02-.01.04-.02.22-.11.31-.38.2-.61-.67-1.33-2.23-1.52-3.37-1.65Z"/>
      <path class="cls-2" d="M44.59,94.52c-.24-.07-.49.07-.56.31-.07.24.07.49.31.56,6.99,1.98,13.01,6.77,16.51,13.14.11.2.35.28.56.2.02,0,.04-.02.05-.02.22-.12.3-.4.18-.61-3.62-6.58-9.84-11.53-17.06-13.58Z"/>
    </g>
  </g>
</svg>