<?xml version="1.0" encoding="UTF-8"?>
<svg id="Layer_1" xmlns="http://www.w3.org/2000/svg" viewBox="0 0 200.47 150.69">
  <defs>
    <style>
      .cls-1 {
        fill: #fafafa;
      }

      .cls-2 {
        fill: #fff;
      }

      .cls-2, .cls-3 {
        stroke: #0088ce;
        stroke-miterlimit: 10;
        stroke-width: .34px;
      }

      .cls-3 {
        fill: none;
      }

      .cls-4 {
        fill: #0088ce;
      }

      .cls-5 {
        fill: #fcd878;
      }
    </style>
  </defs>
  <g>
    <g>
      <polygon class="cls-4" points="24.17 65.63 73.25 26.82 133.21 48.43 140.15 92.38 31.76 109.48 24.17 65.63"/>
      <rect class="cls-2" x="40.04" y="34.45" width="81.63" height="72.59" transform="translate(-10.04 13.47) rotate(-8.97)"/>
      <polygon class="cls-5" points="142.76 108.9 33.71 126.11 24.17 65.63 84.53 94.04 133.21 48.43 142.76 108.9"/>
      <line class="cls-3" x1="33.71" y1="126.11" x2="68.06" y2="86.27"/>
      <line class="cls-3" x1="142.58" y1="108.93" x2="97.92" y2="81.51"/>
    </g>
    <path class="cls-4" d="M95.75,56.76c.36,2.29.37,4.38.03,6.26-.34,1.89-.95,3.54-1.84,4.95-.89,1.41-2.03,2.56-3.43,3.46-1.4.89-2.98,1.47-4.73,1.75-1.18.19-2.15.02-2.92-.49-.77-.51-1.28-1.28-1.52-2.28-1.24,2.51-3.14,3.97-5.72,4.38-1.06.17-2.07.13-3.03-.12-.96-.25-1.83-.68-2.6-1.3-.77-.62-1.41-1.41-1.94-2.38-.53-.97-.89-2.09-1.09-3.35-.28-1.78-.24-3.54.12-5.28.36-1.74.94-3.33,1.74-4.76.8-1.43,1.76-2.62,2.89-3.59,1.13-.97,2.34-1.55,3.63-1.76,2.91-.46,5.18.07,6.8,1.6l.15-2.09,3.63-.57-.99,14.12c-.08.79-.11,1.46-.09,2.02.01.56.06,1.06.12,1.49.15.95.59,1.37,1.32,1.26,1.14-.18,2.17-.62,3.09-1.32.92-.7,1.68-1.62,2.27-2.75.59-1.13.99-2.44,1.2-3.94.21-1.49.17-3.14-.12-4.95-.29-1.84-.91-3.49-1.87-4.95-.95-1.46-2.15-2.67-3.6-3.63-1.45-.96-3.1-1.63-4.98-2.01-1.87-.37-3.89-.39-6.05-.05-2.5.39-4.72,1.23-6.67,2.52-1.95,1.29-3.54,2.86-4.79,4.73-1.25,1.87-2.11,3.97-2.59,6.29-.48,2.32-.53,4.7-.15,7.15.39,2.46,1.13,4.57,2.22,6.35,1.09,1.78,2.49,3.21,4.2,4.29,1.71,1.08,3.7,1.79,5.97,2.13,2.27.34,4.78.29,7.52-.14,3.44-.54,6.2-1.51,8.3-2.92l1.88,2.25c-2.75,1.76-5.99,2.93-9.71,3.52-3.19.5-6.12.53-8.79.09-2.67-.44-5.01-1.31-7.02-2.61-2.01-1.3-3.67-3-4.97-5.1-1.3-2.11-2.17-4.57-2.61-7.39-.94-5.95.17-11.22,3.33-15.82,3.21-4.54,7.7-7.26,13.48-8.18,2.65-.42,5.12-.4,7.39.07,2.27.47,4.27,1.29,6.01,2.47,1.73,1.18,3.16,2.67,4.28,4.48,1.12,1.81,1.86,3.84,2.22,6.1ZM81.9,56.91c-1.38-1.51-3.31-2.07-5.81-1.68-.93.15-1.77.6-2.52,1.36-.75.76-1.37,1.69-1.87,2.8-.5,1.1-.84,2.32-1.03,3.64-.19,1.32-.19,2.62.01,3.89.58,3.65,2.31,5.24,5.2,4.79.72-.11,1.4-.38,2.03-.81.64-.43,1.2-.97,1.7-1.63.5-.66.91-1.43,1.23-2.3.32-.88.52-1.83.58-2.86l.47-7.19Z"/>
  </g>
  <g>
    <path class="cls-1" d="M178.54,72.71c-.44-.32-.91-.51-1.37-.69-.64-.25-1.19-.47-1.49-1.01-.36-.65-.5-1.39-.39-2.02.35-1.98.02-3.68-.97-5.04-.92-1.27-2.45-2.21-4.15-2.58l2.8-7.89.31-.86c.85-2.34,1.81-4.99,1.54-7.33-.31-2.7-2.67-4.92-5.48-5.16-1.44-.12-2.97.42-4.3,1.55-.67.56-1.23,1.21-1.75,1.9.23-.76.47-1.53.72-2.3.53-1.69,1.05-3.38,1.51-4.9,1.3-4.28,3.22-12.2,4.02-17.19.6-3.76-1-5.59-2.73-6.08-2.03-.56-4.92.68-6.29,4.07-.97,1.39-2.68,6.34-3.81,9.63-.36,1.05-.66,1.91-.85,2.4-5.02,14.55-9.5,21.49-14.24,28.83-2.01,3.1-4.08,6.32-6.16,10.1-.7,1.02-1.74,1.02-2.11.79-.38-.23-.68-.64-.96-1.35-.58-1.44-.67-3.96-.46-5.59,0-.07,0-.14-.02-.2,1.68-2.29,2.93-4.79,3.9-7.72,1.4-4.25,1.48-8.6.2-11.09-.54-1.05-1.29-1.71-2.32-2.05-3.06-.44-5.42,1.34-7.66,5.76-.97,1.92-2.3,3.56-3.59,5.15-2.4,2.96-4.66,5.75-4.75,10.16-.13,6.8.63,14.02,2.24,21.45.71,3.27,1.7,7.06,3.67,10.39.39.65.81,1.29,1.23,1.93,1.15,1.74,2.25,3.39,2.6,5.32.3,1.65.02,3.38-.27,4.87-.93,4.82-1.83,7.35-2.69,9.79-.96,2.71-1.87,5.27-2.7,10.6-.22,1.43.91,2.44,1.92,3.33.14.12.27.24.4.36,4.64,4.27,9.57,6.99,17.02,9.4.15.05.3.1.45.14,1.88.6,3.61,1.08,5.44,1.17,1.81.09,4.92-.2,6.7-1.28.2.06.42-.02.53-.21.7-1.26,1.2-4.48,1.72-7.9.31-1.99.63-4.05.98-5.7.39-1.79.66-3.4.92-4.96.59-3.54,1.05-6.33,2.55-8.95,1.13-1.98,2.81-3.61,4.59-5.34,1.62-1.58,3.3-3.22,4.53-5.15,1.4-2.2,2.35-4.66,3.27-7.03.77-1.99,1.56-4.04,2.61-5.91.49-.88,1.06-1.75,1.61-2.59,1.05-1.6,2.13-3.26,2.79-5.12,1.31-3.67.87-6.34-1.29-7.92Z"/>
    <g>
      <path class="cls-4" d="M178.54,72.71c-.44-.32-.91-.51-1.37-.69-.64-.25-1.19-.47-1.49-1.01-.36-.65-.5-1.39-.39-2.02.35-1.98.02-3.68-.97-5.04-.92-1.27-2.45-2.21-4.15-2.58l2.8-7.89.31-.86c.85-2.34,1.81-4.99,1.54-7.33-.31-2.7-2.67-4.92-5.48-5.16-1.44-.12-2.97.42-4.3,1.55-.67.56-1.23,1.21-1.75,1.9.23-.76.47-1.53.72-2.3.53-1.69,1.05-3.38,1.51-4.9,1.3-4.28,3.22-12.2,4.02-17.19.6-3.76-1-5.59-2.73-6.08-2.03-.56-4.92.68-6.29,4.07-.97,1.39-2.68,6.34-3.81,9.63-.36,1.05-.66,1.91-.85,2.4-5.02,14.55-9.5,21.49-14.24,28.83-2.01,3.1-4.08,6.32-6.16,10.1-.7,1.02-1.74,1.02-2.11.79-.38-.23-.68-.64-.96-1.35-.58-1.44-.67-3.96-.46-5.59,0-.07,0-.14-.02-.2,1.68-2.29,2.93-4.79,3.9-7.72,1.4-4.25,1.48-8.6.2-11.09-.54-1.05-1.29-1.71-2.32-2.05-3.06-.44-5.42,1.34-7.66,5.76-.97,1.92-2.3,3.56-3.59,5.15-2.4,2.96-4.66,5.75-4.75,10.16-.13,6.8.63,14.02,2.24,21.45.71,3.27,1.7,7.06,3.67,10.39.39.65.81,1.29,1.23,1.93,1.15,1.74,2.25,3.39,2.6,5.32.3,1.65.02,3.38-.27,4.87-.93,4.82-1.83,7.35-2.69,9.79-.96,2.71-1.87,5.27-2.7,10.6-.22,1.43.91,2.44,1.92,3.33.14.12.27.24.4.36,4.64,4.27,9.57,6.99,17.02,9.4.15.05.3.1.45.14,1.88.6,3.61,1.08,5.44,1.17,1.81.09,4.92-.2,6.7-1.28.2.06.42-.02.53-.21.7-1.26,1.2-4.48,1.72-7.9.31-1.99.63-4.05.98-5.7.39-1.79.66-3.4.92-4.96.59-3.54,1.05-6.33,2.55-8.95,1.13-1.98,2.81-3.61,4.59-5.34,1.62-1.58,3.3-3.22,4.53-5.15,1.4-2.2,2.35-4.66,3.27-7.03.77-1.99,1.56-4.04,2.61-5.91.49-.88,1.06-1.75,1.61-2.59,1.05-1.6,2.13-3.26,2.79-5.12,1.31-3.67.87-6.34-1.29-7.92ZM178.98,80.32c-.62,1.75-1.68,3.37-2.7,4.93-.56.85-1.13,1.73-1.64,2.64-1.08,1.92-1.89,4.01-2.67,6.03-.9,2.34-1.84,4.75-3.19,6.87-1.17,1.84-2.82,3.44-4.4,4.99-1.74,1.7-3.55,3.46-4.74,5.54-1.58,2.76-2.08,5.77-2.66,9.25-.26,1.55-.52,3.15-.91,4.92-.36,1.67-.68,3.75-.99,5.75-.45,2.88-.9,5.84-1.44,7.21-1.44,1.19-4.79,1.5-6.58,1.41-1.87-.09-3.67-.63-5.66-1.27-7.32-2.37-12.15-5.04-16.69-9.21-.13-.12-.27-.25-.41-.37-.87-.77-1.77-1.57-1.62-2.51.82-5.25,1.71-7.77,2.66-10.44.88-2.48,1.78-5.04,2.73-9.92.3-1.57.6-3.4.27-5.21-.39-2.11-1.58-3.91-2.74-5.65-.41-.63-.83-1.25-1.21-1.89-1.9-3.22-2.87-6.93-3.57-10.13-1.6-7.36-2.35-14.5-2.22-21.24.08-4.1,2.25-6.77,4.54-9.61,1.32-1.62,2.68-3.3,3.69-5.31,2.6-5.15,4.96-5.52,6.65-5.29.73.24,1.29.76,1.72,1.59,1.15,2.25,1.05,6.42-.25,10.39-1.48,4.51-3.68,7.97-7.11,11.23-.18.17-.19.46-.02.64.17.18.46.19.64.02.9-.86,1.73-1.73,2.47-2.64-.07,1.65.1,3.6.61,4.88.24.61.62,1.37,1.34,1.79.1.06.2.11.32.14.83.27,2.16.02,3.02-1.24,2.09-3.79,4.16-6.99,6.15-10.08,4.56-7.07,9.28-14.37,14.33-29.01.18-.48.48-1.35.85-2.42,1.06-3.08,2.84-8.23,3.72-9.44.02-.03.04-.06.05-.1,1.17-2.94,3.57-4.04,5.24-3.58,1.69.46,2.5,2.41,2.08,5.06-.79,4.95-2.7,12.82-3.99,17.07-.46,1.52-.99,3.21-1.51,4.9-.53,1.69-1.05,3.38-1.51,4.9-.01.03-.02.07-.02.1-.61.9-1.22,1.78-1.83,2.66-2.03,2.91-4.13,5.91-5.74,9.26-.23.47-.49.94-.75,1.4-1.04,1.85-2.12,3.76-1.1,6.13.8,1.38,1.76,2.25,2.87,2.61.4.13.81.19,1.24.18,5.67-.1,12.46-11.98,14.41-15.62.12-.22.03-.49-.19-.61-.22-.12-.49-.04-.61.18-3.72,6.94-9.52,15.07-13.63,15.14-1.3.02-2.38-.74-3.29-2.29-.82-1.91.1-3.54,1.08-5.28.27-.48.54-.96.78-1.45,1.58-3.28,3.56-6.12,5.66-9.13.82-1.17,1.65-2.36,2.45-3.57.8-1.21,1.6-2.36,2.65-3.24,1.13-.95,2.46-1.44,3.64-1.34,2.39.21,4.39,2.08,4.66,4.36.25,2.13-.68,4.68-1.49,6.92l-3.21,9.04c-1.98-.13-4.06,1.47-5.06,3.31-.94,1.71-1.84,3.34-2.71,4.93-2.5,4.51-4.85,8.77-7.22,13.56-.11.23-.24.48-.37.73-.61,1.19-1.3,2.54-1.5,3.73-.21,1.28-.28,2.76.84,4.03.75.85,1.49,1.15,2.51,1.48.04.01.09.03.13.04,1.07.34,2.88-.04,3.08-.08.58-.12,1.07-.39,1.5-.75-.26,1.4-.04,2.84,1.13,3.92.45.41.94.71,1.43.86.14.05.29.08.43.1.13.02.27.05.41.08.77.17,1.74.37,3.09-.45.7-.53,1.22-1.2,1.79-1.96,1.99-2.67,3.9-5.46,5.68-8.28.13-.21.07-.49-.14-.62-.21-.14-.49-.07-.62.14-1.76,2.8-3.66,5.57-5.64,8.22-.53.7-1.01,1.33-1.57,1.75-1.01.61-1.68.46-2.4.31-.16-.03-.31-.07-.46-.09-.47-.07-.95-.33-1.39-.74-1.46-1.34-1-3.53-.08-5.13.04-.07.06-.15.06-.23,0,0,.01-.02.02-.02,2.01-3.11,3.97-6.09,5.93-9.07,1.97-2.99,3.94-5.99,5.96-9.12.14-.21.08-.49-.13-.62-.21-.14-.49-.08-.62.13-2.02,3.12-3.99,6.12-5.95,9.11-1.96,2.98-3.92,5.97-5.93,9.08-.73,1.12-1.53,2.24-2.67,2.48-.87.19-2.05.28-2.62.1-.98-.31-1.6-.53-2.23-1.25-.7-.79-.88-1.74-.62-3.28.17-1.06.83-2.34,1.41-3.47.13-.26.26-.51.38-.75,2.36-4.77,4.71-9.02,7.2-13.52.88-1.59,1.78-3.22,2.72-4.93.94-1.71,3.01-3.25,4.73-2.75.14.04.29,0,.4-.08,1.46.34,2.74,1.13,3.52,2.2.84,1.16,1.11,2.63.81,4.36-.15.83.03,1.78.49,2.61.45.83,1.21,1.13,1.95,1.42.42.17.82.33,1.17.58,1.83,1.34,2.15,3.59.98,6.89Z"/>
      <path class="cls-4" d="M168.12,88.76c-.52-.69-1.39-.97-2.02-1.17h0c-.24-.08-.49.05-.57.29-.08.24.05.49.29.57.67.22,1.25.43,1.57.86.6.79.15,2.04-.3,3.04-.1.23,0,.49.22.6.02,0,.03.01.05.02.22.07.45-.03.55-.24.56-1.23,1.09-2.79.2-3.96Z"/>
      <path class="cls-4" d="M158.56,81.15c-.24-.05-.48.1-.54.35-.05.24.1.49.35.54,1.3.29,2.75,1.02,2.92,2.23.16,1.11-.96,2.71-1.77,3.89-.23.34-.45.65-.62.93-.13.21-.07.49.14.62.03.02.07.04.1.05.19.06.41-.01.52-.19.17-.26.37-.57.6-.89.95-1.37,2.13-3.07,1.92-4.53-.24-1.67-2.03-2.64-3.63-2.98Z"/>
      <path class="cls-4" d="M159.75,57.52c-.99-1.02-3-.64-4.01.09-.2.15-.25.43-.1.63.15.2.43.25.63.1.8-.58,2.26-.78,2.83-.2.73.75,1.56,1.6,1.34,2.58-.05.23.08.46.3.53.01,0,.03,0,.04.01.24.05.49-.1.54-.34.32-1.45-.77-2.58-1.57-3.41Z"/>
      <path class="cls-4" d="M140.92,81.79c-.14-.2-.42-.25-.63-.11-.2.14-.25.42-.11.63,4.17,5.95,5.81,13.47,4.51,20.62-.04.23.09.44.31.51.02,0,.04.01.06.01.25.04.48-.12.53-.36,1.35-7.39-.35-15.15-4.66-21.3Z"/>
    </g>
  </g>
</svg>