<?xml version="1.0" encoding="UTF-8"?>
<svg id="Layer_1" xmlns="http://www.w3.org/2000/svg" viewBox="0 0 1948.06 60">
  <defs>
    <style>
      .cls-1 {
        fill: #fcd878;
      }
    </style>
  </defs>
  <g>
    <g>
      <polygon class="cls-1" points="615.57 25.46 603.94 25.46 603.94 33.86 607.83 33.86 607.83 29.36 611.68 29.36 611.68 37.46 600.09 37.46 600.09 21.99 619.42 21.99 619.42 41.35 646.55 41.35 646.55 18.1 627.17 18.1 627.17 33.99 638.81 33.99 638.81 25.59 634.91 25.59 634.91 30.09 631.06 30.09 631.06 21.99 642.65 21.99 642.65 37.46 623.32 37.46 623.32 18.1 596.2 18.1 596.2 41.35 615.57 41.35 615.57 25.46"/>
      <polygon class="cls-1" points="561.38 25.46 549.74 25.46 549.74 33.86 553.63 33.86 553.63 29.36 557.48 29.36 557.48 37.46 545.89 37.46 545.89 21.99 565.22 21.99 565.22 41.35 592.35 41.35 592.35 18.1 572.97 18.1 572.97 33.99 584.61 33.99 584.61 25.59 580.71 25.59 580.71 30.09 576.86 30.09 576.86 21.99 588.45 21.99 588.45 37.46 569.12 37.46 569.12 18.1 542 18.1 542 41.35 561.38 41.35 561.38 25.46"/>
      <polygon class="cls-1" points="507.18 25.46 495.54 25.46 495.54 33.86 499.43 33.86 499.43 29.36 503.28 29.36 503.28 37.46 491.69 37.46 491.69 21.99 511.02 21.99 511.02 41.35 538.15 41.35 538.15 18.1 518.77 18.1 518.77 33.99 530.41 33.99 530.41 25.59 526.51 25.59 526.51 30.09 522.66 30.09 522.66 21.99 534.25 21.99 534.25 37.46 514.92 37.46 514.92 18.1 487.8 18.1 487.8 41.35 507.18 41.35 507.18 25.46"/>
      <polygon class="cls-1" points="452.98 25.46 441.34 25.46 441.34 33.86 445.23 33.86 445.23 29.36 449.08 29.36 449.08 37.46 437.49 37.46 437.49 21.99 456.82 21.99 456.82 41.35 483.95 41.35 483.95 18.1 464.57 18.1 464.57 33.99 476.21 33.99 476.21 25.59 472.31 25.59 472.31 30.09 468.46 30.09 468.46 21.99 480.05 21.99 480.05 37.46 460.72 37.46 460.72 18.1 433.6 18.1 433.6 41.35 452.98 41.35 452.98 25.46"/>
      <polygon class="cls-1" points="398.78 25.46 387.14 25.46 387.14 33.86 391.04 33.86 391.04 29.36 394.88 29.36 394.88 37.46 383.29 37.46 383.29 21.99 402.62 21.99 402.62 41.35 429.75 41.35 429.75 18.1 410.37 18.1 410.37 33.99 422.01 33.99 422.01 25.59 418.11 25.59 418.11 30.09 414.26 30.09 414.26 21.99 425.85 21.99 425.85 37.46 406.52 37.46 406.52 18.1 379.4 18.1 379.4 41.35 398.78 41.35 398.78 25.46"/>
      <polygon class="cls-1" points="344.58 25.46 332.94 25.46 332.94 33.86 336.84 33.86 336.84 29.36 340.68 29.36 340.68 37.46 329.09 37.46 329.09 21.99 348.42 21.99 348.42 41.35 375.55 41.35 375.55 18.1 356.17 18.1 356.17 33.99 367.81 33.99 367.81 25.59 363.91 25.59 363.91 30.09 360.06 30.09 360.06 21.99 371.65 21.99 371.65 37.46 352.32 37.46 352.32 18.1 325.2 18.1 325.2 41.35 344.58 41.35 344.58 25.46"/>
      <polygon class="cls-1" points="290.38 25.46 278.74 25.46 278.74 33.86 282.64 33.86 282.64 29.36 286.48 29.36 286.48 37.46 274.89 37.46 274.89 21.99 294.23 21.99 294.23 41.35 321.35 41.35 321.35 18.1 301.97 18.1 301.97 33.99 313.61 33.99 313.61 25.59 309.71 25.59 309.71 30.09 305.86 30.09 305.86 21.99 317.45 21.99 317.45 37.46 298.12 37.46 298.12 18.1 271 18.1 271 41.35 290.38 41.35 290.38 25.46"/>
      <polygon class="cls-1" points="236.18 25.46 224.54 25.46 224.54 33.86 228.44 33.86 228.44 29.36 232.28 29.36 232.28 37.46 220.69 37.46 220.69 21.99 240.03 21.99 240.03 41.35 267.15 41.35 267.15 18.1 247.77 18.1 247.77 33.99 259.41 33.99 259.41 25.59 255.51 25.59 255.51 30.09 251.66 30.09 251.66 21.99 263.25 21.99 263.25 37.46 243.92 37.46 243.92 18.1 216.8 18.1 216.8 41.35 236.18 41.35 236.18 25.46"/>
      <polygon class="cls-1" points="181.98 25.46 170.34 25.46 170.34 33.86 174.24 33.86 174.24 29.36 178.08 29.36 178.08 37.46 166.49 37.46 166.49 21.99 185.83 21.99 185.83 41.35 212.95 41.35 212.95 18.1 193.57 18.1 193.57 33.99 205.21 33.99 205.21 25.59 201.31 25.59 201.31 30.09 197.46 30.09 197.46 21.99 209.06 21.99 209.06 37.46 189.72 37.46 189.72 18.1 162.6 18.1 162.6 41.35 181.98 41.35 181.98 25.46"/>
      <polygon class="cls-1" points="127.78 25.46 116.14 25.46 116.14 33.86 120.04 33.86 120.04 29.36 123.88 29.36 123.88 37.46 112.29 37.46 112.29 21.99 131.63 21.99 131.63 41.35 158.75 41.35 158.75 18.1 139.37 18.1 139.37 33.99 151.01 33.99 151.01 25.59 147.11 25.59 147.11 30.09 143.26 30.09 143.26 21.99 154.86 21.99 154.86 37.46 135.52 37.46 135.52 18.1 108.4 18.1 108.4 41.35 127.78 41.35 127.78 25.46"/>
      <polygon class="cls-1" points="73.58 25.46 61.94 25.46 61.94 33.86 65.84 33.86 65.84 29.36 69.68 29.36 69.68 37.46 58.09 37.46 58.09 21.99 77.43 21.99 77.43 41.35 104.55 41.35 104.55 18.1 85.17 18.1 85.17 33.99 96.81 33.99 96.81 25.59 92.91 25.59 92.91 30.09 89.06 30.09 89.06 21.99 100.66 21.99 100.66 37.46 81.32 37.46 81.32 18.1 54.2 18.1 54.2 41.35 73.58 41.35 73.58 25.46"/>
      <polygon class="cls-1" points="19.38 25.46 7.74 25.46 7.74 33.86 11.64 33.86 11.64 29.36 15.48 29.36 15.48 37.46 3.9 37.46 3.9 21.99 23.23 21.99 23.23 41.35 50.35 41.35 50.35 18.1 30.97 18.1 30.97 33.99 42.61 33.99 42.61 25.59 38.71 25.59 38.71 30.09 34.87 30.09 34.87 21.99 46.46 21.99 46.46 37.46 27.12 37.46 27.12 18.1 0 18.1 0 41.35 19.38 41.35 19.38 25.46"/>
    </g>
    <rect class="cls-1" x="0" y="46.16" width="646.55" height="3.9"/>
    <rect class="cls-1" x="0" y="9.39" width="646.55" height="3.9"/>
  </g>
  <g>
    <g>
      <polygon class="cls-1" points="1267.09 25.46 1255.46 25.46 1255.46 33.86 1259.35 33.86 1259.35 29.36 1263.2 29.36 1263.2 37.46 1251.61 37.46 1251.61 21.99 1270.94 21.99 1270.94 41.35 1298.07 41.35 1298.07 18.1 1278.69 18.1 1278.69 33.99 1290.33 33.99 1290.33 25.59 1286.43 25.59 1286.43 30.09 1282.58 30.09 1282.58 21.99 1294.17 21.99 1294.17 37.46 1274.84 37.46 1274.84 18.1 1247.72 18.1 1247.72 41.35 1267.09 41.35 1267.09 25.46"/>
      <polygon class="cls-1" points="1212.9 25.46 1201.26 25.46 1201.26 33.86 1205.15 33.86 1205.15 29.36 1209 29.36 1209 37.46 1197.41 37.46 1197.41 21.99 1216.74 21.99 1216.74 41.35 1243.87 41.35 1243.87 18.1 1224.49 18.1 1224.49 33.99 1236.13 33.99 1236.13 25.59 1232.23 25.59 1232.23 30.09 1228.38 30.09 1228.38 21.99 1239.97 21.99 1239.97 37.46 1220.64 37.46 1220.64 18.1 1193.52 18.1 1193.52 41.35 1212.9 41.35 1212.9 25.46"/>
      <polygon class="cls-1" points="1158.7 25.46 1147.06 25.46 1147.06 33.86 1150.95 33.86 1150.95 29.36 1154.8 29.36 1154.8 37.46 1143.21 37.46 1143.21 21.99 1162.54 21.99 1162.54 41.35 1189.67 41.35 1189.67 18.1 1170.29 18.1 1170.29 33.99 1181.93 33.99 1181.93 25.59 1178.03 25.59 1178.03 30.09 1174.18 30.09 1174.18 21.99 1185.77 21.99 1185.77 37.46 1166.44 37.46 1166.44 18.1 1139.32 18.1 1139.32 41.35 1158.7 41.35 1158.7 25.46"/>
      <polygon class="cls-1" points="1104.5 25.46 1092.86 25.46 1092.86 33.86 1096.75 33.86 1096.75 29.36 1100.6 29.36 1100.6 37.46 1089.01 37.46 1089.01 21.99 1108.34 21.99 1108.34 41.35 1135.47 41.35 1135.47 18.1 1116.09 18.1 1116.09 33.99 1127.73 33.99 1127.73 25.59 1123.83 25.59 1123.83 30.09 1119.98 30.09 1119.98 21.99 1131.57 21.99 1131.57 37.46 1112.24 37.46 1112.24 18.1 1085.12 18.1 1085.12 41.35 1104.5 41.35 1104.5 25.46"/>
      <polygon class="cls-1" points="1050.3 25.46 1038.66 25.46 1038.66 33.86 1042.56 33.86 1042.56 29.36 1046.4 29.36 1046.4 37.46 1034.81 37.46 1034.81 21.99 1054.14 21.99 1054.14 41.35 1081.27 41.35 1081.27 18.1 1061.89 18.1 1061.89 33.99 1073.53 33.99 1073.53 25.59 1069.63 25.59 1069.63 30.09 1065.78 30.09 1065.78 21.99 1077.37 21.99 1077.37 37.46 1058.04 37.46 1058.04 18.1 1030.92 18.1 1030.92 41.35 1050.3 41.35 1050.3 25.46"/>
      <polygon class="cls-1" points="996.1 25.46 984.46 25.46 984.46 33.86 988.36 33.86 988.36 29.36 992.2 29.36 992.2 37.46 980.61 37.46 980.61 21.99 999.94 21.99 999.94 41.35 1027.07 41.35 1027.07 18.1 1007.69 18.1 1007.69 33.99 1019.33 33.99 1019.33 25.59 1015.43 25.59 1015.43 30.09 1011.58 30.09 1011.58 21.99 1023.17 21.99 1023.17 37.46 1003.84 37.46 1003.84 18.1 976.72 18.1 976.72 41.35 996.1 41.35 996.1 25.46"/>
      <polygon class="cls-1" points="941.9 25.46 930.26 25.46 930.26 33.86 934.16 33.86 934.16 29.36 938 29.36 938 37.46 926.41 37.46 926.41 21.99 945.75 21.99 945.75 41.35 972.87 41.35 972.87 18.1 953.49 18.1 953.49 33.99 965.13 33.99 965.13 25.59 961.23 25.59 961.23 30.09 957.38 30.09 957.38 21.99 968.97 21.99 968.97 37.46 949.64 37.46 949.64 18.1 922.52 18.1 922.52 41.35 941.9 41.35 941.9 25.46"/>
      <polygon class="cls-1" points="887.7 25.46 876.06 25.46 876.06 33.86 879.96 33.86 879.96 29.36 883.8 29.36 883.8 37.46 872.21 37.46 872.21 21.99 891.55 21.99 891.55 41.35 918.67 41.35 918.67 18.1 899.29 18.1 899.29 33.99 910.93 33.99 910.93 25.59 907.03 25.59 907.03 30.09 903.18 30.09 903.18 21.99 914.77 21.99 914.77 37.46 895.44 37.46 895.44 18.1 868.32 18.1 868.32 41.35 887.7 41.35 887.7 25.46"/>
      <polygon class="cls-1" points="833.5 25.46 821.86 25.46 821.86 33.86 825.76 33.86 825.76 29.36 829.6 29.36 829.6 37.46 818.01 37.46 818.01 21.99 837.35 21.99 837.35 41.35 864.47 41.35 864.47 18.1 845.09 18.1 845.09 33.99 856.73 33.99 856.73 25.59 852.83 25.59 852.83 30.09 848.98 30.09 848.98 21.99 860.58 21.99 860.58 37.46 841.24 37.46 841.24 18.1 814.12 18.1 814.12 41.35 833.5 41.35 833.5 25.46"/>
      <polygon class="cls-1" points="779.3 25.46 767.66 25.46 767.66 33.86 771.56 33.86 771.56 29.36 775.4 29.36 775.4 37.46 763.81 37.46 763.81 21.99 783.15 21.99 783.15 41.35 810.27 41.35 810.27 18.1 790.89 18.1 790.89 33.99 802.53 33.99 802.53 25.59 798.63 25.59 798.63 30.09 794.78 30.09 794.78 21.99 806.38 21.99 806.38 37.46 787.04 37.46 787.04 18.1 759.92 18.1 759.92 41.35 779.3 41.35 779.3 25.46"/>
      <polygon class="cls-1" points="725.1 25.46 713.46 25.46 713.46 33.86 717.36 33.86 717.36 29.36 721.2 29.36 721.2 37.46 709.61 37.46 709.61 21.99 728.95 21.99 728.95 41.35 756.07 41.35 756.07 18.1 736.69 18.1 736.69 33.99 748.33 33.99 748.33 25.59 744.43 25.59 744.43 30.09 740.58 30.09 740.58 21.99 752.18 21.99 752.18 37.46 732.84 37.46 732.84 18.1 705.72 18.1 705.72 41.35 725.1 41.35 725.1 25.46"/>
      <polygon class="cls-1" points="670.9 25.46 659.26 25.46 659.26 33.86 663.16 33.86 663.16 29.36 667 29.36 667 37.46 655.42 37.46 655.42 21.99 674.75 21.99 674.75 41.35 701.87 41.35 701.87 18.1 682.49 18.1 682.49 33.99 694.13 33.99 694.13 25.59 690.23 25.59 690.23 30.09 686.39 30.09 686.39 21.99 697.98 21.99 697.98 37.46 678.64 37.46 678.64 18.1 651.52 18.1 651.52 41.35 670.9 41.35 670.9 25.46"/>
    </g>
    <rect class="cls-1" x="645.74" y="46.16" width="652.33" height="3.9"/>
    <rect class="cls-1" x="643.97" y="9.39" width="654.1" height="3.9"/>
  </g>
  <g>
    <g>
      <polygon class="cls-1" points="1917.08 25.46 1905.45 25.46 1905.45 33.86 1909.34 33.86 1909.34 29.36 1913.19 29.36 1913.19 37.46 1901.6 37.46 1901.6 21.99 1920.93 21.99 1920.93 41.35 1948.06 41.35 1948.06 18.1 1928.67 18.1 1928.67 33.99 1940.31 33.99 1940.31 25.59 1936.42 25.59 1936.42 30.09 1932.57 30.09 1932.57 21.99 1944.16 21.99 1944.16 37.46 1924.83 37.46 1924.83 18.1 1897.7 18.1 1897.7 41.35 1917.08 41.35 1917.08 25.46"/>
      <polygon class="cls-1" points="1862.88 25.46 1851.25 25.46 1851.25 33.86 1855.14 33.86 1855.14 29.36 1858.99 29.36 1858.99 37.46 1847.4 37.46 1847.4 21.99 1866.73 21.99 1866.73 41.35 1893.86 41.35 1893.86 18.1 1874.47 18.1 1874.47 33.99 1886.11 33.99 1886.11 25.59 1882.22 25.59 1882.22 30.09 1878.37 30.09 1878.37 21.99 1889.96 21.99 1889.96 37.46 1870.63 37.46 1870.63 18.1 1843.5 18.1 1843.5 41.35 1862.88 41.35 1862.88 25.46"/>
      <polygon class="cls-1" points="1808.68 25.46 1797.05 25.46 1797.05 33.86 1800.94 33.86 1800.94 29.36 1804.79 29.36 1804.79 37.46 1793.2 37.46 1793.2 21.99 1812.53 21.99 1812.53 41.35 1839.66 41.35 1839.66 18.1 1820.28 18.1 1820.28 33.99 1831.91 33.99 1831.91 25.59 1828.02 25.59 1828.02 30.09 1824.17 30.09 1824.17 21.99 1835.76 21.99 1835.76 37.46 1816.43 37.46 1816.43 18.1 1789.3 18.1 1789.3 41.35 1808.68 41.35 1808.68 25.46"/>
      <polygon class="cls-1" points="1754.48 25.46 1742.85 25.46 1742.85 33.86 1746.74 33.86 1746.74 29.36 1750.59 29.36 1750.59 37.46 1739 37.46 1739 21.99 1758.33 21.99 1758.33 41.35 1785.46 41.35 1785.46 18.1 1766.08 18.1 1766.08 33.99 1777.71 33.99 1777.71 25.59 1773.82 25.59 1773.82 30.09 1769.97 30.09 1769.97 21.99 1781.56 21.99 1781.56 37.46 1762.23 37.46 1762.23 18.1 1735.1 18.1 1735.1 41.35 1754.48 41.35 1754.48 25.46"/>
      <polygon class="cls-1" points="1700.28 25.46 1688.65 25.46 1688.65 33.86 1692.54 33.86 1692.54 29.36 1696.39 29.36 1696.39 37.46 1684.8 37.46 1684.8 21.99 1704.13 21.99 1704.13 41.35 1731.26 41.35 1731.26 18.1 1711.88 18.1 1711.88 33.99 1723.51 33.99 1723.51 25.59 1719.62 25.59 1719.62 30.09 1715.77 30.09 1715.77 21.99 1727.36 21.99 1727.36 37.46 1708.03 37.46 1708.03 18.1 1680.91 18.1 1680.91 41.35 1700.28 41.35 1700.28 25.46"/>
      <polygon class="cls-1" points="1646.08 25.46 1634.45 25.46 1634.45 33.86 1638.34 33.86 1638.34 29.36 1642.19 29.36 1642.19 37.46 1630.6 37.46 1630.6 21.99 1649.93 21.99 1649.93 41.35 1677.06 41.35 1677.06 18.1 1657.68 18.1 1657.68 33.99 1669.31 33.99 1669.31 25.59 1665.42 25.59 1665.42 30.09 1661.57 30.09 1661.57 21.99 1673.16 21.99 1673.16 37.46 1653.83 37.46 1653.83 18.1 1626.71 18.1 1626.71 41.35 1646.08 41.35 1646.08 25.46"/>
      <polygon class="cls-1" points="1591.89 25.46 1580.25 25.46 1580.25 33.86 1584.14 33.86 1584.14 29.36 1587.99 29.36 1587.99 37.46 1576.4 37.46 1576.4 21.99 1595.73 21.99 1595.73 41.35 1622.86 41.35 1622.86 18.1 1603.48 18.1 1603.48 33.99 1615.12 33.99 1615.12 25.59 1611.22 25.59 1611.22 30.09 1607.37 30.09 1607.37 21.99 1618.96 21.99 1618.96 37.46 1599.63 37.46 1599.63 18.1 1572.51 18.1 1572.51 41.35 1591.89 41.35 1591.89 25.46"/>
      <polygon class="cls-1" points="1537.68 25.46 1526.05 25.46 1526.05 33.86 1529.94 33.86 1529.94 29.36 1533.79 29.36 1533.79 37.46 1522.2 37.46 1522.2 21.99 1541.53 21.99 1541.53 41.35 1568.66 41.35 1568.66 18.1 1549.28 18.1 1549.28 33.99 1560.92 33.99 1560.92 25.59 1557.02 25.59 1557.02 30.09 1553.17 30.09 1553.17 21.99 1564.76 21.99 1564.76 37.46 1545.43 37.46 1545.43 18.1 1518.31 18.1 1518.31 41.35 1537.68 41.35 1537.68 25.46"/>
      <polygon class="cls-1" points="1483.49 25.46 1471.85 25.46 1471.85 33.86 1475.74 33.86 1475.74 29.36 1479.59 29.36 1479.59 37.46 1468 37.46 1468 21.99 1487.33 21.99 1487.33 41.35 1514.46 41.35 1514.46 18.1 1495.08 18.1 1495.08 33.99 1506.72 33.99 1506.72 25.59 1502.82 25.59 1502.82 30.09 1498.97 30.09 1498.97 21.99 1510.56 21.99 1510.56 37.46 1491.23 37.46 1491.23 18.1 1464.11 18.1 1464.11 41.35 1483.49 41.35 1483.49 25.46"/>
      <polygon class="cls-1" points="1429.29 25.46 1417.65 25.46 1417.65 33.86 1421.55 33.86 1421.55 29.36 1425.39 29.36 1425.39 37.46 1413.8 37.46 1413.8 21.99 1433.13 21.99 1433.13 41.35 1460.26 41.35 1460.26 18.1 1440.88 18.1 1440.88 33.99 1452.52 33.99 1452.52 25.59 1448.62 25.59 1448.62 30.09 1444.77 30.09 1444.77 21.99 1456.36 21.99 1456.36 37.46 1437.03 37.46 1437.03 18.1 1409.91 18.1 1409.91 41.35 1429.29 41.35 1429.29 25.46"/>
      <polygon class="cls-1" points="1375.09 25.46 1363.45 25.46 1363.45 33.86 1367.35 33.86 1367.35 29.36 1371.19 29.36 1371.19 37.46 1359.6 37.46 1359.6 21.99 1378.93 21.99 1378.93 41.35 1406.06 41.35 1406.06 18.1 1386.68 18.1 1386.68 33.99 1398.32 33.99 1398.32 25.59 1394.42 25.59 1394.42 30.09 1390.57 30.09 1390.57 21.99 1402.16 21.99 1402.16 37.46 1382.83 37.46 1382.83 18.1 1355.71 18.1 1355.71 41.35 1375.09 41.35 1375.09 25.46"/>
      <polygon class="cls-1" points="1320.89 25.46 1309.25 25.46 1309.25 33.86 1313.15 33.86 1313.15 29.36 1316.99 29.36 1316.99 37.46 1305.4 37.46 1305.4 21.99 1324.73 21.99 1324.73 41.35 1351.86 41.35 1351.86 18.1 1332.48 18.1 1332.48 33.99 1344.12 33.99 1344.12 25.59 1340.22 25.59 1340.22 30.09 1336.37 30.09 1336.37 21.99 1347.96 21.99 1347.96 37.46 1328.63 37.46 1328.63 18.1 1301.51 18.1 1301.51 41.35 1320.89 41.35 1320.89 25.46"/>
    </g>
    <rect class="cls-1" x="1294.91" y="46.16" width="653.14" height="3.9"/>
    <rect class="cls-1" x="1294.91" y="9.39" width="653.14" height="3.9"/>
  </g>
</svg>