<?xml version="1.0" encoding="UTF-8"?>
<svg id="Layer_1" xmlns="http://www.w3.org/2000/svg" viewBox="0 0 174.66 170.85">
  <defs>
    <style>
      .cls-1 {
        fill: #fff;
      }

      .cls-2 {
        fill: #ffe6ac;
      }

      .cls-3 {
        fill: #0088ce;
      }
    </style>
  </defs>
  <circle class="cls-2" cx="83.35" cy="82.95" r="50.26"/>
  <g>
    <path class="cls-1" d="M153.45,67.92c1.36-3.01,1.44-6.07.25-8.86-1.07-2.51-3.1-4.54-5.7-5.71-2.94-1.32-6.21-1.38-9.19-.17-3.03,1.23-5.56,3.7-7.36,7.18l-31.01-13.95c3.25-8.45-.58-14.72-5.74-17.04h0c-2.61-1.17-5.47-1.34-8.05-.48-2.87.96-5.1,3.05-6.46,6.07-2.85,6.34.28,11.74,4.85,13.79.45.2.9.37,1.36.5-3.34,3.97-9.58,11.38-15.49,18.33-8.77,10.31-12.67,16.17-16.67,25.07-2.31,5.13-3.36,11.31-2.98,17.41.45,7.15,2.75,14.07,6.84,20.61l-2.48,5.51c-1.17.09-2.42.69-3.11,2.24l-3.18,7.08-.79,1.75,1.75.79,19.19,8.63,19.19,8.63,1.75.79.79-1.75,3.18-7.08c.7-1.55.32-2.87-.39-3.81l2.48-5.51c7.6-1.27,14.31-4.15,19.96-8.55,4.82-3.76,8.75-8.65,11.05-13.78,4-8.9,5.8-15.7,7.7-29.1,1.28-9.03,2.68-18.62,3.44-23.75.4.26.83.48,1.27.69,4.57,2.05,10.68.82,13.53-5.52Z"/>
    <path class="cls-3" d="M153.45,67.92c1.36-3.01,1.44-6.07.25-8.86-1.07-2.51-3.1-4.54-5.7-5.71-2.94-1.32-6.21-1.38-9.19-.17-3.03,1.23-5.56,3.7-7.36,7.18l-31.01-13.95c3.25-8.45-.58-14.72-5.74-17.04h0c-2.61-1.17-5.47-1.34-8.05-.48-2.87.96-5.1,3.05-6.46,6.07-2.85,6.34.28,11.74,4.85,13.79.45.2.9.37,1.36.5-3.34,3.97-9.58,11.38-15.49,18.33-8.77,10.31-12.67,16.17-16.67,25.07-2.31,5.13-3.36,11.31-2.98,17.41.45,7.15,2.75,14.07,6.84,20.61l-2.48,5.51c-1.17.09-2.42.69-3.11,2.24l-3.18,7.08-.79,1.75,1.75.79,19.19,8.63,19.19,8.63,1.75.79.79-1.75,3.18-7.08c.7-1.55.32-2.87-.39-3.81l2.48-5.51c7.6-1.27,14.31-4.15,19.96-8.55,4.82-3.76,8.75-8.65,11.05-13.78,4-8.9,5.8-15.7,7.7-29.1,1.28-9.03,2.68-18.62,3.44-23.75.4.26.83.48,1.27.69,4.57,2.05,10.68.82,13.53-5.52ZM89.91,162.55l-.45.99-19.19-8.63-19.19-8.63s2.43-5.4,3.18-7.08c.6-1.34,1.87-1.15,2.35-1.02l35.24,15.86c.37.24,1.17.91.94,1.99M91.88,158.17c-.32.7-.67,1.49-1.01,2.24M61.09,125.6,58.06,91.16c3.94-8.76,5.65-12.15,14.32-22.33,6.32-7.43,12.95-15.31,16.08-19.04.21,0,.46-.01.79-.06,1.29-.16,2.65-.4,4-1.24.67-.43,1.33-.94,1.91-1.57.14-.16.3-.31.44-.48.13-.17.27-.35.4-.52.14-.17.25-.36.37-.55l.18-.29.09-.14.04-.07v-.02s.05-.07.05-.07l.02-.03c.09-.18.17-.36.26-.54.09-.2.18-.47.27-.71.15-.48.27-.94.33-1.43.14-.97.1-1.98-.13-2.96-.44-1.97-1.69-3.82-3.47-4.95l-.34-.2-.17-.1h-.02s-.07-.05-.07-.05l-.04-.02-.08-.04-.31-.15c-.09-.05-.26-.1-.39-.15-.56-.22-1.06-.31-1.61-.38-1.08-.1-2.19.06-3.19.48-.99.43-1.9,1.08-2.56,1.93-.16.21-.33.42-.46.66l-.1.17-.05.09-.03.04-.04.08-.15.31c-.09.23-.23.56-.28.8-.08.26-.11.53-.15.8-.11,1.08.12,2.17.63,3.09.52.93,1.27,1.66,2.21,2.13.9.47,2.01.57,2.97.32.96-.24,1.81-.82,2.36-1.58.15-.19.25-.37.37-.6.07-.14.19-.43.25-.65.12-.45.14-.92.08-1.37-.12-.89-.61-1.68-1.25-2.19-.17-.14-.31-.22-.53-.35-.08-.04-.14-.07-.24-.11-.1-.04-.22-.08-.31-.11-.39-.11-.8-.13-1.18-.07-.76.12-1.41.55-1.8,1.1-.19.27-.34.56-.41.89-.29,1.09.24,2.27,1.3,2.75,1.19.53,2.58,0,3.11-1.18.06-.12.09-.25.13-.38,0,.22-.02.45-.09.67-.05.15-.08.23-.19.43-.07.11-.16.27-.27.39-.8,1.03-2.4,1.42-3.63.69-.59-.34-1.13-.89-1.45-1.54-.33-.65-.44-1.4-.34-2.12.03-.18.07-.36.13-.53.05-.19.1-.29.19-.48l.16-.3.14-.2c.1-.16.23-.31.35-.45.49-.59,1.27-1.19,1.98-1.46,2.81-1.08,6.18,1.24,6.87,4.38.15.7.22,1.64.1,2.31-.05.33-.16.67-.26.96-.06.14-.1.26-.17.42-.09.18-.18.36-.27.53-.08.13-.17.25-.25.37-.09.14-.18.28-.29.4-.1.13-.21.25-.31.38-.1.12-.22.23-.33.34-.22.23-.46.44-.71.62.27-.26,2.17-.76,2.37-1.02.25-.33.44-.65.59-.95.16-.29.26-.56.34-.78.08-.22.13-.4.16-.52.03-.12.05-.19.05-.19,0,0-.74-1.37-.82-1.27-.07.1-1.16,1.88-1.3,2.06-.29.35-.72.83-1.28,1.31-.29.23-.6.47-.96.68-.35.21-.73.41-1.15.55-.41.14-.86.27-1.29.33-.2.04-.53.06-.71.08h-.71c-.47,0-.94-.03-1.39-.14-.23-.03-.44-.1-.66-.17l-.32-.1c-.1-.04-.2-.09-.3-.13-.1-.04-.2-.09-.3-.13-.09-.05-.19-.1-.28-.16-.09-.05-.19-.1-.28-.15-.09-.06-.17-.12-.26-.18-.09-.06-.17-.11-.26-.17-.08-.06-.16-.13-.23-.19-.16-.12-.31-.24-.44-.37-.14-.12-.27-.25-.38-.37-.12-.12-.24-.24-.34-.36-.2-.23-.38-.44-.51-.62-.27-.36-1.91-1.34-1.91-1.34,0,0,.03.27.17.72.07.22.16.5.31.79.14.3,1.81,1.39,2.05,1.72.02.03.05.06.07.09-1.95-2.17-2.8-5.46-1.11-9.22,2.41-5.36,7.77-6.52,11.97-4.62,4.6,2.07,7.83,7.79,4.31,15.63-7.42,16.49-24.55,28.44-31.05,42.89-6.5,14.45.37,30,15.84,36.96,15.47,6.96,31.66,1.78,38.16-12.66,6.5-14.45,4.07-35.19,11.49-51.68,3.53-7.84,9.95-9.22,14.55-7.15,4.14,1.86,6.81,6.52,4.58,11.79.12-.44.2-.85.25-1.22.06-.41.08-.77.09-1.07.02-.6-.02-.93-.02-.93,0,0-.09.33-.26.88-.09.28-.21.61-.35.98-.15.37-.33.78-.53,1.22-.21.44-.47.89-.75,1.35-.16.22-.31.45-.48.67-.19.2-.35.44-.56.64-.21.19-.39.42-.63.59l-.34.27c-.11.09-.25.16-.37.23-.13.07-.24.16-.38.23l-.4.18c-.27.15-.54.2-.8.28-.23.11-.62.13-.93.19l-.25.04h-.03s-.04,0-.04,0h-.11s-.45.03-.45.03c-.6.03-1.18-.03-1.74-.14-.28-.04-.54-.16-.8-.22-.26-.09-.5-.2-.74-.31-.46-.25-.9-.51-1.26-.81-.09-.07-.18-.15-.27-.22-.08-.08-.16-.15-.24-.23-.17-.14-.31-.3-.44-.44-.27-.29-.49-.56-.66-.79-.17-.23-.3-.42-.38-.55-.08-.13-.13-.21-.13-.21,0,0,.05.34.26.9.11.28.25.62.46.98.19.33.42.69.72,1.04-.31-.29-.62-.63-.91-1.03-.55-.76-1.03-1.75-1.26-2.9-.1-.58-.17-1.19-.12-1.82.01-.16.01-.32.04-.48.03-.16.05-.32.08-.48.02-.16.07-.32.11-.48.04-.14.08-.29.12-.43.07-.18.14-.37.22-.56.07-.16.14-.27.2-.41.15-.27.33-.57.55-.83.42-.54,1.17-1.11,1.79-1.46,2.81-1.57,6.78-.59,7.84,2.24.26.71.33,1.69.22,2.45-.03.19-.05.38-.11.56l-.06.24-.12.32c-.09.19-.12.29-.23.46-.09.16-.2.3-.31.45-.47.55-1.11.97-1.81,1.16-.69.2-1.47.16-2.11-.06-1.35-.43-2.13-1.89-1.88-3.17.02-.15.07-.33.11-.45.08-.21.12-.29.2-.42.15-.26.36-.48.6-.65.02-.01.04-.02.06-.04-.14.17-.27.35-.36.56-.53,1.19,0,2.58,1.18,3.11s2.58,0,3.11-1.18c.15-.34.21-.69.2-1.04.03-.54-.1-1.13-.43-1.63-.21-.32-.49-.61-.83-.84-.08-.06-.19-.11-.29-.16-.09-.05-.16-.07-.24-.11-.24-.08-.4-.13-.61-.17-.81-.15-1.72.02-2.47.52-.38.25-.71.58-.97.97-.13.19-.26.46-.32.61-.09.24-.16.44-.21.68-.21.91-.08,1.93.38,2.81.44.88,1.26,1.64,2.21,2.01.98.39,2.03.47,3.06.24,1.03-.23,2-.78,2.74-1.58.18-.21.36-.41.5-.64.15-.2.31-.52.42-.74l.14-.32.03-.08.02-.05.03-.1.06-.19c.09-.25.14-.52.19-.78.2-1.06.08-2.17-.26-3.2-.35-1.03-.97-1.96-1.76-2.71-.42-.36-.82-.68-1.36-.95-.12-.06-.28-.15-.37-.19l-.31-.13-.08-.03-.04-.02-.07-.03h-.02s-.19-.07-.19-.07l-.38-.11c-2.02-.57-4.24-.28-6,.69-.89.48-1.67,1.12-2.31,1.87-.33.37-.59.76-.85,1.19-.12.22-.26.47-.35.67-.08.19-.15.37-.23.55v.03s-.04.08-.04.08v.02s-.03.08-.03.08l-.05.16-.1.32c-.07.21-.13.43-.17.64-.04.22-.08.43-.13.65-.04.21-.05.43-.07.64-.09.85-.03,1.69.09,2.47.18,1.06.57,1.93,1.03,2.72-2.82,12.66-2.86,34.77-9.73,50.02-2.86,6.36-7.01,11.78-12.23,15.57-1.96,1.26-4.19,2.41-6.66,3.29-1.4.51-2.88.89-4.4,1.22-1.53.28-3.11.53-4.72.62-3.23.2-6.59-.05-9.93-.71-3.34-.64-6.64-1.77-9.81-3.18-.75-.37-1.62-.73-2.35-1.14l-1.14-.59-1.12-.65c-.38-.21-.74-.43-1.1-.67l-1.09-.69c-.7-.49-1.42-.96-2.08-1.49-2.71-2.06-5.13-4.4-7.12-6.96-1-1.27-1.86-2.61-2.67-3.95-.76-1.36-1.45-2.72-2-4.1-.55-1.38-1.01-2.76-1.34-4.12-.37-1.35-.58-2.69-.75-3.98-.3-2.59-.26-5-.05-7.12.21-2.12.6-3.95,1-5.44.1-.37.2-.72.29-1.05.1-.33.2-.63.29-.92.18-.57.34-1.06.49-1.44.29-.78.44-1.19.44-1.19,0,0-.19.4-.54,1.15-.19.37-.38.84-.61,1.4-.11.28-.24.58-.37.9-.11.33-.23.67-.36,1.04M102.08,52.82l1.83.82-29.28,65.09c-.53-.5-1.02-1.03-1.5-1.56l28.95-64.35ZM72.44,116.38c-.49-.59-.95-1.2-1.38-1.82l28.32-62.95,1.83.82-28.77,63.95ZM104.79,54.04l1.83.82-29.64,65.9c-.55-.43-1.09-.87-1.6-1.33l29.42-65.39ZM107.5,55.26l1.83.82-29.88,66.42c-.58-.37-1.14-.75-1.69-1.15l29.73-66.1ZM110.2,56.48l1.83.82-30,66.69c-.6-.31-1.19-.64-1.76-.98l29.93-66.53ZM112.91,57.69l1.83.82-30.02,66.72c-.31-.13-.62-.25-.92-.39s-.61-.29-.91-.43l30.02-66.72ZM115.62,58.91l1.83.82-29.93,66.53c-.63-.2-1.27-.42-1.9-.67l30-66.69ZM118.32,60.13l1.83.82-29.73,66.1c-.66-.14-1.32-.31-1.98-.5l29.88-66.42ZM121.03,61.35l1.83.82-29.42,65.39c-.68-.08-1.37-.19-2.06-.32l29.64-65.9ZM123.73,62.56l1.83.82-28.95,64.35c-.72,0-1.44-.03-2.16-.09l29.28-65.09ZM126.44,63.78l1.83.82-28.32,62.95c-.75.09-1.51.14-2.28.17l28.77-63.95ZM129.15,65l.18.08.11.05c-2.81,7.8-3.86,16.21-4.89,24.39-1.09,8.69-2.11,16.91-5.14,23.63-3.58,7.97-10.36,12.93-18.34,14.25l28.07-62.4ZM98.32,51.13l.18.08-28.07,62.4c-4.31-6.85-5.09-15.21-1.51-23.17,3.02-6.72,8.49-12.94,14.27-19.52,5.44-6.19,11.04-12.56,15.01-19.83l.11.05ZM130.11,63.36l-.18.39-29.85-13.43c.33-.48.8-1.21,1.13-1.97l29.65,13.34-.18.39M95.71,147.36h0s0,0,0,0ZM59.1,130.89h0s0,0,0,0ZM92.86,151.31l-.4.89-34.88-15.69,1.92-4.27c5.52,3.22,11.22,6.15,17.06,8.77s11.77,4.93,17.82,6.92l-.56,1.24"/>
  </g>
</svg>