<?xml version="1.0" encoding="UTF-8"?>
<svg xmlns="http://www.w3.org/2000/svg" viewBox="0 0 221.8 139.76">
  <defs>
    <style>
      .cls-1 {
        fill: #f0eff4;
        mix-blend-mode: multiply;
      }

      .cls-2 {
        fill: #6cc5e7;
      }

      .cls-3 {
        fill: #fff;
      }

      .cls-4 {
        isolation: isolate;
      }

      .cls-5 {
        fill: none;
        stroke: #0088ce;
        stroke-linecap: round;
        stroke-linejoin: round;
        stroke-width: .97px;
      }
    </style>
  </defs>
  <g class="cls-4">
    <g id="Layer_1">
      <circle class="cls-2" cx="141.34" cy="61.88" r="44.51"/>
      <g>
        <g>
          <path class="cls-3" d="M171.34,74.73c-.92,1.72-6.88,3.21-8.76,4.15-2.83,1.4-5.59,2.93-8.27,4.58-4.15,2.57-8.69,6.87-13.73,7.33-9.07.85-17.65,3.26-26.58,4.74-7.77,1.3-15.54,2.59-22.6,6.41-1.01.54-1.99,1.13-3.07,1.52-6.47,2.32-13.8-.15-20.47,2.23-2.62.93-5.18,2.59-7.96,3.01-2.65.41-5.44.53-8.15.95-6.17.94-12.34,1.89-18.5,2.83-2.2.34-9.36,2.53-10.65.8-1.53-2.07.33-5.08,1.45-6.88,1.09-1.72,2.1-2.04,3.93-2.2.38-.04.97-.14,1.66-.25h.06c1.45-.25,3.3-.55,4.41-.41h.02c.27.03.49.09.65.17-.14-.08-.25-.15-.4-.22,0,0,0,0-.02,0-2-1.07-4.22-1.74-6.39-2.33-1.38-.38-4.46-.37-4.98-2.09-.44-1.45,1.53-3.84,2.53-4.65,3.64-2.92,9.77-1.28,13.09,1.38.33.26.67.55,1.08.62.45.06.88-.15,1.29-.37,1.35-.71,2.71-1.41,4.06-2.13.06-.03.11-.06.16-.09-3.02-3.48-6.04-6.94-9.07-10.42-.26-.31-.55-.67-.52-1.07.03-.46.44-.79.84-1.01,2.15-1.12,4.81-.35,6.91.86,2.36,1.36,4.43,3.21,6,5.43.35.49.7,1.02,1.22,1.32.41.23.88.3,1.34.4,1.45.3,2.86.89,4.1,1.72,2.93,1.99,5.31-.25,8.12-1.65-1.68-2.9-3.23-5.88-4.61-8.94-.32-.72-3.13-7.69-3.45-7.69,1.03-.94,2.44-1.43,3.82-1.31,3.51.3,5.92,4.68,7.37,7.46.86,1.63,1.7,4.5,4.02,4.41.08,0,.15,0,.22-.02.57-.08,1.11-.36,1.64-.63,3-1.57,6.07-3.2,8.37-5.68,1.69-1.82,3.52-5.27,3.23-8.06-.15-1.34-.77-2.53-2.16-3.3-1.24-.7-2.67-.94-4.07-1.17-2.56-.43-5.11-.84-7.66-1.26-.97-.16-1.95-.32-2.92-.28-2.08.08-3.67.54-5.68.05-1.85-.46-3.82-.93-5.66-1.54-3.08-1.01-9.46-3.57-9.86-7.44-.56-5.47,11.55-3.76,14.49-3.29,15.02,2.38,30.41,2.5,45.46.36,4.61-.66,9.35-1.55,14.01-.83,4.32.68,8.54,2.6,12.31,4.75.05.03.1.06.15.09.4.23.8.46,1.23.63.3.13.62.21.95.23.58.03,1.15-.15,1.7-.32,7.46-2.42,14.53-6.03,20.87-10.66,1.64,1.91,3.82,3.25,5.46,5.26.8.99,1.56,2.01,2.25,3.08.87,1.34,1.65,2.74,2.32,4.18,1.36,2.89,2.31,5.96,2.82,9.11.28,1.73,1.45,6.49.59,8.11Z"/>
          <g>
            <path class="cls-5" d="M85.13,100.29c-1.78-.48-3.56-.92-5.35-1.34-1.44-.34-2.9-.66-4.2-1.36-.67-.36-1.29-.81-1.9-1.25-3.27-2.38-6.54-4.77-9.8-7.15"/>
            <path class="cls-5" d="M75.09,97.39c1.4-.59,2.51-1.81,2.99-3.25"/>
            <path class="cls-5" d="M77.12,89.05c-1.79-2.73-4.6-4.6-7.33-6.4-.5-.33-1.02-.66-1.6-.77-.59-.11-1.27.06-1.59.56"/>
            <path class="cls-5" d="M84.57,84.91c1.6-3.02,4.4-5.16,7.28-6.99,9.63-6.12,18.46-4.95,21.83-5.48"/>
            <path class="cls-5" d="M122.44,70.15c.96-.78,2.11-1.34,3.32-1.62,2.61-.6,5.32.1,7.9.8"/>
            <path class="cls-5" d="M91.06,86.97c-2.29-1.34-5.04-1.76-7.69-1.61-2.65.15-5.24.84-7.79,1.6,1.35-2.01,3.2-3.67,5.34-4.8"/>
            <path class="cls-5" d="M86.33,68.22c-2.75-2.35-6.28-3.77-9.9-3.97"/>
            <path class="cls-5" d="M65.76,60.46c-.69-1.72-.42-3.78.67-5.27"/>
            <path class="cls-5" d="M63.84,89.7c-2.36-5.73-4.92-11.38-7.67-16.93.48-.32.95-.64,1.43-.97"/>
            <path class="cls-5" d="M66.95,93.68c-1.66.51-3.31,1.02-4.97,1.54-.35.11-.71.22-1.07.14-.49-.1-.83-.52-1.16-.9-2.17-2.51-5.1-4.34-8.3-5.2-.42-.11-.85-.21-1.2-.45-.38-.26-.64-.66-.9-1.04-2.14-3.1-5.3-5.49-8.87-6.69"/>
            <path class="cls-5" d="M71.25,104.82c-2.38.97-4.77,1.94-7.15,2.91-.39.16-.8.32-1.22.27-.39-.05-.73-.27-1.06-.49-4.44-2.95-8.62-5.62-12.23-9.15"/>
            <path class="cls-5" d="M47.26,96.1c-1.3-1.56-2.6-3.13-3.9-4.69-2.25-2.7-4.5-5.41-7.01-7.87"/>
            <path class="cls-5" d="M49.02,101.37c-3.29.08-6.61.16-9.82.87-2.18.48-4.3,1.24-6.52,1.47-1.5.16-3.02.07-4.5.32-1.48.25-2.99.91-3.81,2.17"/>
            <path class="cls-5" d="M41.23,97.81c-2.16-1.9-4.66-3.47-7.44-4.21s-5.85-.58-8.39.77c-.21.11-.4.45-.18.53"/>
            <path class="cls-5" d="M53.55,109.41c-9.97,1.53-19.94,3.05-29.91,4.58"/>
            <path class="cls-5" d="M34.78,103.67c-3.12-1.09-6.23-2.19-9.35-3.28"/>
            <path class="cls-5" d="M39.57,96.49c2.01-.59,3.9-1.59,5.52-2.92"/>
            <path class="cls-5" d="M31.66,102.06c-1.93-2.58-5.68-3.59-8.64-2.33.9.36,1.79.72,2.69,1.08"/>
            <path class="cls-5" d="M32.72,112.82c-2.83-2.1-7.2-1.71-9.62.84.08.26.4.4.64.29"/>
            <path class="cls-5" d="M78.63,104.12c3.93.78,8.09.4,11.82-1.08,2.27-.9,4.37-2.19,6.6-3.2,5.53-2.52,11.68-3.27,17.71-3.99"/>
            <path class="cls-5" d="M139.62,90.83c3.29.2,6.24-1.84,8.92-3.75,5.2-3.71,10.64-7.34,16.82-8.99"/>
            <path class="cls-5" d="M96.63,70.82c-4.02.32-8.13-.63-11.6-2.68"/>
            <path class="cls-5" d="M138.87,60.27c-6.94-7.54-17.73-11.32-27.85-9.77"/>
            <path class="cls-5" d="M66.59,63.64c-6.12-.36-12.13-2.46-17.15-5.97-.82-.57-1.65-1.23-2.03-2.16-.73-1.77.56-3.86,2.3-4.68,1.73-.82,3.74-.72,5.66-.58,15.24,1.12,30.52,3.37,45.74,2.02"/>
          </g>
          <g>
            <path class="cls-1" d="M165.6,53.32c-1.67,1.14-3.52,2.04-5.37,2.85-5.12,2.23-10.46,3.96-15.91,5.18-4.78,1.07-6.66-2.95-9.94-5.62.3.13.62.21.95.23.58.03,1.15-.15,1.7-.32,7.46-2.42,14.53-6.03,20.87-10.66,1.64,1.91,3.82,3.25,5.46,5.26.8.99,1.56,2.01,2.25,3.08Z"/>
            <path class="cls-1" d="M110.7,72.35c-3.93,1.38-8.17,1.6-12.11,3.26-4.51,1.9-8.68,4.6-12.23,7.97-.5.48-1,.98-1.61,1.33-.71.4-1.53.57-2.32.74-1.81.37-3.61.74-5.42,1.09-.54.12-1.1.22-1.65.12-.78-.16-1.4-.76-1.98-1.32-.67-.66-1.37-1.39-1.88-2.2.57-.08,1.11-.36,1.64-.63,3-1.57,6.07-3.2,8.37-5.68,1.69-1.82,3.52-5.27,3.23-8.06,1.68.02,3.38.23,5.04.46,6.83.93,14.29,1.19,20.93,2.92Z"/>
            <path class="cls-1" d="M34.08,103.56c-1.46.24-2.92.41-4.41.41,1.45-.25,3.3-.55,4.41-.41Z"/>
            <path class="cls-1" d="M50.74,100.71c-5.54-.21-10.93,1.86-16.38,2.8,0,0,0,0-.02,0-2-1.07-4.22-1.74-6.39-2.33-1.38-.38-4.46-.37-4.98-2.09-.44-1.45,1.53-3.84,2.53-4.65,3.64-2.92,9.77-1.28,13.09,1.38.33.26.67.55,1.08.62.45.06.88-.15,1.29-.37,1.35-.71,2.71-1.41,4.06-2.13,1.83,2.31,3.62,4.74,5.72,6.78Z"/>
          </g>
        </g>
        <path class="cls-5" d="M157.9,44.99s-15.2,9.57-23.21,11.22"/>
        <path class="cls-5" d="M84.29,67.26s3.31,8.97-11.49,15.75"/>
        <path class="cls-5" d="M25.39,94.47s-3.02,2.34-2.59,4.99"/>
      </g>
    </g>
  </g>
</svg>