<?xml version="1.0" encoding="UTF-8"?>
<svg id="Layer_1" xmlns="http://www.w3.org/2000/svg" viewBox="0 0 210.4 222.48">
  <defs>
    <style>
      .cls-1, .cls-2, .cls-3 {
        stroke: #0088ce;
        stroke-linecap: round;
        stroke-linejoin: round;
        stroke-width: 1.48px;
      }

      .cls-1, .cls-4 {
        fill: #0088ce;
      }

      .cls-5 {
        fill: #6cc5e7;
      }

      .cls-2 {
        fill: #fff;
      }

      .cls-3 {
        fill: #f0eff4;
      }

      .cls-6 {
        fill: #fcd878;
      }
    </style>
  </defs>
  <circle class="cls-5" cx="76.92" cy="145.28" r="60.37"/>
  <g>
    <g>
      <path class="cls-6" d="M117,113.78c.37-1.92.4-3.75.17-5.43-.33-2.5-1.15-4.65-2.25-6.37-1.11-1.74-2.5-3.06-4.28-3.97-.83,2.02-1.74,4.95-1.21,8.12.48,2.75,1.93,4.71,3.49,5.86,1.56,1.2,3.18,1.64,4.09,1.8Z"/>
      <path class="cls-6" d="M117.1,116.38c-.49,1.57-1.23,2.99-2.27,4.22-2.2,2.61-5.44,3.82-8.53,4.09-3.1.31-5.95-.36-7.48-.82.1-.36.31-.92.65-1.6.5-1,1.32-2.22,2.53-3.34,1.21-1.12,2.78-2.11,4.79-2.8,1.23-.39,2.4-.65,3.48-.71,1.08-.1,2.08-.05,2.98.05,1.79.2,3.2.66,3.86.91Z"/>
      <path class="cls-6" d="M103.43,93.17c1.45,1.32,2.42,2.92,3.01,4.84.3.95.48,2,.57,3.09.08,1.11.04,2.27-.12,3.47-.23,1.64-.74,3.35-1.59,5.04-.4-.2-.95-.51-1.55-.95-.58-.47-1.23-1.05-1.8-1.81-1.13-1.53-2.02-3.67-1.73-6.41.32-3.1,1.93-5.61,3.21-7.27Z"/>
      <path class="cls-6" d="M104.96,112.3c-.86,1.34-1.92,2.5-3.2,3.36-2.72,1.87-6.06,2.18-9.02,1.66-2.96-.52-5.49-1.82-6.8-2.65.19-.31.52-.78,1-1.31,1.44-1.64,4.31-3.69,8.43-3.91,1.27-.09,2.39.03,3.44.2.52.09,1,.22,1.46.36.47.13.91.28,1.31.44.8.34,1.52.68,2.09,1.02.57.34,1.01.64,1.29.83Z"/>
      <path class="cls-6" d="M98.28,87.42c1.07,1.62,1.65,3.37,1.77,5.32.03.49.03.99,0,1.51-.02.5-.08,1.02-.16,1.55-.19,1.07-.48,2.15-.92,3.24-.61,1.48-1.49,2.97-2.68,4.36-.33-.29-.77-.71-1.24-1.26-.45-.57-.9-1.29-1.27-2.12-.7-1.71-1.04-3.93-.15-6.44.98-2.84,3.08-4.87,4.66-6.15Z"/>
      <path class="cls-6" d="M94.93,105.66c-1.13,1.05-2.4,1.85-3.82,2.36-.75.27-1.52.45-2.29.54-.76.09-1.52.08-2.27.01-1.52-.12-2.95-.58-4.29-1.16-1.31-.6-2.5-1.34-3.47-2.07-.95-.75-1.75-1.45-2.26-2,.25-.24.68-.61,1.24-1,1.74-1.21,4.94-2.47,8.85-1.7,2.41.45,4.19,1.45,5.59,2.44.68.51,1.25,1.02,1.72,1.46.46.45.79.85,1.01,1.1Z"/>
      <path class="cls-6" d="M94.37,80.02c.61,1.78.74,3.58.38,5.45-.09.47-.21.94-.37,1.42-.15.47-.32.94-.53,1.42-.42.95-.99,1.92-1.66,2.83-.93,1.24-2.12,2.41-3.59,3.42-.24-.36-.56-.85-.85-1.5-.27-.65-.53-1.43-.67-2.31-.25-1.77-.02-3.94,1.42-6.08,1.61-2.42,4.07-3.83,5.86-4.66Z"/>
      <path class="cls-6" d="M86.9,96.71c-1.31.7-2.69,1.15-4.14,1.28-1.55.15-3.04-.06-4.41-.55-1.39-.47-2.64-1.22-3.74-2.08-1.12-.85-2.01-1.84-2.78-2.74-.72-.92-1.28-1.78-1.66-2.4.61-.35,1.98-1,3.79-1.22,1.82-.24,3.99-.03,6.33,1.04,1.07.49,1.96,1.08,2.74,1.69.38.31.73.63,1.04.95.33.31.62.64.89.95.26.32.49.63.7.94.22.3.41.58.57.85.33.53.55.99.68,1.29Z"/>
      <path class="cls-6" d="M92.46,72.38c.19,1.84-.14,3.58-.89,5.26-.41.85-.88,1.67-1.51,2.47-.64.8-1.35,1.57-2.21,2.27-1.16.95-2.55,1.78-4.16,2.38-.14-.39-.31-.94-.44-1.61-.12-.67-.15-1.47-.09-2.32.09-.86.32-1.79.74-2.71.46-.93,1.07-1.84,2-2.69,2.09-1.92,4.67-2.68,6.57-3.07Z"/>
      <path class="cls-6" d="M81.35,86.03c-1.4.35-2.8.43-4.19.21-1.48-.23-2.84-.79-3.99-1.58-1.19-.78-2.18-1.78-3.01-2.84-.85-1.06-1.45-2.19-1.96-3.22-.46-1.03-.78-1.96-.99-2.64.32-.09.83-.21,1.46-.27.99-.11,2.29-.09,3.7.27,1.43.35,2.88,1.05,4.38,2.22.89.72,1.58,1.48,2.16,2.24.29.38.53.76.75,1.14.23.37.43.74.6,1.1.33.72.57,1.4.76,1.98.18.58.27,1.06.33,1.37Z"/>
      <path class="cls-6" d="M92.38,64.41c-.23,1.8-.96,3.38-2.04,4.81-1.12,1.42-2.66,2.68-4.59,3.61-1.32.62-2.81,1.08-4.46,1.26-.08-.8-.13-2.23.43-3.81.27-.79.72-1.6,1.31-2.37.64-.77,1.44-1.49,2.48-2.07,2.41-1.33,4.98-1.49,6.87-1.42Z"/>
      <path class="cls-6" d="M78.65,74.29c-1.38-.02-2.72-.29-3.97-.82-2.68-1.14-4.45-3.41-5.51-5.79-.52-1.18-.85-2.38-1.07-3.46-.19-1.07-.28-2.01-.32-2.7.68-.01,2.1.07,3.68.68,1.6.61,3.31,1.74,4.74,3.64,1.32,1.75,1.92,3.51,2.22,5.03.27,1.51.28,2.78.22,3.41Z"/>
      <path class="cls-6" d="M94.19,56.54c-.62,1.65-1.68,2.99-3.02,4.1-1.37,1.09-3.12,1.93-5.14,2.36-1.37.27-2.88.35-4.46.15.06-.39.16-.92.34-1.53.19-.61.52-1.28.94-1.96.43-.68,1.05-1.34,1.78-1.92.77-.58,1.7-1.06,2.8-1.39,2.57-.71,5.01-.29,6.77.19Z"/>
      <path class="cls-6" d="M78.99,62.26c-1.29-.36-2.48-.93-3.52-1.72-2.21-1.7-3.34-4.24-3.78-6.7-.41-2.45-.13-4.77.14-6.06.3.07.75.2,1.28.41,1.73.68,4.25,2.37,5.58,5.6.83,1.95.98,3.73.89,5.22-.03.74-.15,1.41-.27,1.96-.1.56-.23,1-.33,1.29Z"/>
      <path class="cls-6" d="M97.48,49.7c-.98,1.41-2.18,2.51-3.75,3.24-.75.38-1.59.67-2.5.86-.88.2-1.84.3-2.85.28-1.36-.03-2.78-.29-4.22-.81.12-.36.35-.83.66-1.36.3-.53.74-1.1,1.3-1.64.55-.55,1.25-1.05,2.09-1.43.82-.39,1.81-.65,2.93-.71,2.52-.15,4.8.79,6.33,1.58Z"/>
      <path class="cls-6" d="M82.01,51.41c-1.13-.62-2.11-1.42-2.9-2.4-1.7-2.09-2.21-4.71-2.07-7.1.06-1.2.31-2.31.57-3.3.29-.96.62-1.77.88-2.36.58.28,1.72.96,2.76,2.14,1.06,1.18,1.98,2.82,2.37,5,.34,2,.09,3.71-.31,5.09-.42,1.37-.98,2.42-1.29,2.92Z"/>
      <path class="cls-6" d="M101.8,44.08c-1.18,1.18-2.59,1.94-4.19,2.35-1.59.4-3.41.43-5.28,0-1.26-.3-2.55-.82-3.8-1.62.2-.31.5-.72.89-1.16.41-.43.94-.87,1.56-1.27,1.27-.79,3.02-1.34,5.15-1.02,2.42.36,4.37,1.67,5.66,2.72Z"/>
      <path class="cls-6" d="M87.01,42.22c-.93-.83-1.69-1.78-2.22-2.86-1.16-2.32-1.1-4.89-.48-7.1.61-2.22,1.77-4.03,2.5-5.01.5.39,1.43,1.27,2.17,2.58.74,1.31,1.32,3.09,1.2,5.18-.03.99-.2,1.86-.45,2.64-.24.79-.54,1.49-.89,2.08-.65,1.22-1.43,2.06-1.83,2.49Z"/>
      <path class="cls-6" d="M107.27,39.39c-.67.47-1.42.76-2.14,1.02-.37.12-.75.21-1.14.27-.38.07-.77.12-1.17.14-.4.02-.81,0-1.22-.04-.4-.03-.82-.08-1.23-.17-.83-.17-1.7-.46-2.54-.86-1.12-.52-2.22-1.27-3.23-2.27.49-.53,1.47-1.29,2.81-1.8.69-.23,1.46-.39,2.31-.42.86,0,1.79.14,2.75.48,2.22.82,3.8,2.4,4.82,3.65Z"/>
      <path class="cls-6" d="M93.32,34.88c-.72-.96-1.23-1.99-1.53-3.11-.64-2.4-.1-4.8.89-6.76.98-1.97,2.4-3.44,3.25-4.24.18.21.43.54.69.96.89,1.42,1.82,3.98,1.05,6.98-.21.92-.54,1.72-.92,2.4-.37.7-.79,1.3-1.23,1.79-.86,1.01-1.73,1.68-2.21,1.99Z"/>
    </g>
    <g>
      <path class="cls-6" d="M136.97,113.47c-.43-1.91-.51-3.74-.34-5.43.26-2.51,1.01-4.69,2.06-6.44,1.06-1.77,2.4-3.14,4.16-4.1.89,2,1.89,4.89,1.47,8.07-.39,2.77-1.78,4.77-3.31,5.97-1.52,1.24-3.13,1.74-4.03,1.93Z"/>
      <path class="cls-6" d="M136.95,116.07c.54,1.55,1.32,2.95,2.4,4.14,2.28,2.54,5.56,3.65,8.66,3.82,3.11.21,5.93-.55,7.45-1.05-.11-.36-.34-.91-.7-1.58-.53-.98-1.39-2.18-2.63-3.26-1.24-1.08-2.84-2.02-4.88-2.65-1.24-.35-2.42-.57-3.5-.6-1.09-.07-2.08.01-2.98.15-1.79.26-3.18.76-3.83,1.03Z"/>
      <path class="cls-6" d="M149.89,92.45c-1.4,1.37-2.33,2.99-2.85,4.93-.27.96-.42,2.02-.47,3.1-.04,1.11.03,2.27.23,3.46.29,1.63.84,3.32,1.75,4.98.4-.21.93-.54,1.52-1,.57-.49,1.19-1.09,1.74-1.86,1.08-1.56,1.91-3.73,1.53-6.46-.42-3.09-2.1-5.54-3.44-7.17Z"/>
      <path class="cls-6" d="M148.96,111.62c.9,1.31,2,2.44,3.3,3.26,2.78,1.79,6.13,1.99,9.07,1.37,2.94-.61,5.43-1.99,6.71-2.87-.2-.3-.55-.76-1.04-1.28-1.49-1.6-4.43-3.56-8.55-3.65-1.28-.05-2.39.1-3.43.31-.51.11-1,.25-1.45.41-.46.14-.9.31-1.3.48-.79.37-1.5.73-2.06,1.08-.56.36-.99.67-1.26.87Z"/>
      <path class="cls-6" d="M154.86,86.54c-1.02,1.65-1.54,3.41-1.6,5.37-.02.49,0,.99.06,1.5.04.5.11,1.02.21,1.54.22,1.06.55,2.14,1.02,3.21.66,1.46,1.58,2.93,2.81,4.28.32-.3.75-.73,1.2-1.3.43-.59.86-1.32,1.21-2.16.65-1.73.92-3.96-.05-6.44-1.07-2.81-3.23-4.77-4.85-6.01Z"/>
      <path class="cls-6" d="M158.77,104.67c1.17,1.02,2.45,1.77,3.89,2.24.76.25,1.53.4,2.3.47.76.06,1.52.03,2.27-.06,1.52-.17,2.94-.67,4.26-1.29,1.29-.64,2.46-1.41,3.41-2.18.93-.78,1.7-1.5,2.2-2.07-.26-.24-.69-.59-1.27-.96-1.78-1.15-5.01-2.32-8.9-1.43-2.39.52-4.15,1.58-5.51,2.61-.66.53-1.22,1.06-1.67,1.52-.45.46-.77.87-.97,1.13Z"/>
      <path class="cls-6" d="M158.54,79.02c-.56,1.8-.62,3.6-.21,5.46.1.46.24.93.41,1.41.16.47.35.93.57,1.4.45.94,1.05,1.88,1.75,2.77.97,1.21,2.19,2.34,3.69,3.31.23-.36.54-.87.8-1.52.25-.66.49-1.44.6-2.33.19-1.78-.1-3.94-1.61-6.04-1.68-2.37-4.18-3.7-6-4.47Z"/>
      <path class="cls-6" d="M166.52,95.47c1.33.66,2.73,1.06,4.18,1.15,1.55.1,3.04-.16,4.39-.69,1.38-.51,2.6-1.31,3.68-2.2,1.09-.88,1.95-1.9,2.69-2.82.69-.94,1.22-1.82,1.58-2.45-.62-.33-2.01-.93-3.83-1.1-1.83-.18-3.99.1-6.3,1.23-1.06.53-1.92,1.14-2.69,1.78-.37.32-.71.65-1.01.99-.32.33-.6.65-.85.98-.25.33-.47.65-.67.96-.21.3-.39.59-.54.86-.31.54-.52,1.01-.64,1.31Z"/>
      <path class="cls-6" d="M160.21,71.33c-.14,1.84.25,3.57,1.06,5.23.43.84.93,1.64,1.58,2.42.66.78,1.4,1.52,2.28,2.2,1.19.91,2.61,1.7,4.23,2.25.13-.39.28-.95.39-1.62.1-.67.11-1.47.02-2.32-.11-.86-.38-1.78-.82-2.68-.49-.91-1.13-1.81-2.08-2.62-2.14-1.85-4.75-2.54-6.66-2.86Z"/>
      <path class="cls-6" d="M171.74,84.62c1.41.3,2.81.34,4.19.08,1.47-.28,2.81-.88,3.94-1.7,1.17-.81,2.13-1.84,2.92-2.93.81-1.08,1.38-2.24,1.86-3.28.43-1.05.72-1.99.91-2.67-.32-.08-.83-.18-1.47-.23-.99-.07-2.29-.01-3.69.39-1.42.4-2.85,1.14-4.3,2.36-.86.74-1.53,1.53-2.09,2.3-.27.39-.51.78-.71,1.16-.22.38-.41.76-.57,1.12-.3.73-.53,1.42-.7,2-.16.58-.24,1.07-.29,1.38Z"/>
      <path class="cls-6" d="M160.03,63.35c.28,1.79,1.06,3.35,2.19,4.74,1.16,1.38,2.74,2.6,4.7,3.47,1.33.58,2.84.99,4.49,1.12.06-.8.06-2.24-.55-3.8-.29-.78-.77-1.58-1.39-2.33-.66-.75-1.49-1.44-2.55-2-2.45-1.26-5.03-1.33-6.91-1.21Z"/>
      <path class="cls-6" d="M174.07,72.81c1.38-.07,2.71-.37,3.94-.95,2.64-1.22,4.35-3.55,5.32-5.95.48-1.2.77-2.41.96-3.49.16-1.08.22-2.02.23-2.7-.68,0-2.09.13-3.65.8-1.58.66-3.25,1.84-4.63,3.79-1.27,1.8-1.81,3.57-2.06,5.09-.22,1.52-.2,2.79-.11,3.42Z"/>
      <path class="cls-6" d="M157.98,55.54c.67,1.63,1.77,2.94,3.15,4,1.41,1.05,3.18,1.83,5.21,2.2,1.38.23,2.89.26,4.46,0-.07-.39-.19-.91-.39-1.51-.21-.6-.56-1.26-1-1.93-.46-.66-1.09-1.3-1.84-1.87-.78-.55-1.73-1.01-2.84-1.3-2.59-.63-5.02-.13-6.76.4Z"/>
      <path class="cls-6" d="M173.35,60.79c1.28-.4,2.45-1,3.46-1.83,2.16-1.77,3.21-4.34,3.57-6.81.33-2.46-.02-4.78-.33-6.05-.3.08-.75.22-1.27.45-1.71.73-4.17,2.5-5.4,5.77-.77,1.97-.86,3.76-.73,5.24.05.74.19,1.4.33,1.95.12.55.27.99.37,1.28Z"/>
      <path class="cls-6" d="M154.48,48.81c1.02,1.38,2.26,2.44,3.85,3.12.76.36,1.61.62,2.52.78.89.17,1.85.24,2.85.19,1.35-.08,2.76-.37,4.19-.94-.13-.36-.38-.82-.7-1.34-.32-.52-.77-1.08-1.35-1.6-.56-.53-1.28-1.01-2.13-1.36-.83-.37-1.83-.59-2.95-.62-2.53-.08-4.77.94-6.28,1.78Z"/>
      <path class="cls-6" d="M170,50.04c1.11-.65,2.07-1.48,2.83-2.49,1.64-2.14,2.06-4.78,1.85-7.16-.1-1.19-.38-2.3-.67-3.28-.32-.95-.68-1.75-.95-2.33-.57.3-1.69,1.01-2.69,2.22-1.03,1.22-1.89,2.88-2.21,5.07-.28,2.01.02,3.71.47,5.08.46,1.35,1.05,2.38,1.38,2.88Z"/>
      <path class="cls-6" d="M149.98,43.33c1.22,1.14,2.65,1.86,4.26,2.22,1.6.35,3.42.32,5.28-.17,1.25-.34,2.52-.9,3.74-1.73-.21-.3-.52-.7-.93-1.13-.42-.42-.97-.84-1.6-1.22-1.3-.75-3.06-1.24-5.18-.86-2.41.44-4.32,1.8-5.57,2.9Z"/>
      <path class="cls-6" d="M164.71,41.01c.91-.86,1.64-1.83,2.13-2.92,1.08-2.35.95-4.92.26-7.11-.68-2.2-1.89-3.97-2.65-4.93-.49.41-1.39,1.31-2.09,2.65-.7,1.33-1.22,3.13-1.04,5.22.06.99.26,1.86.53,2.62.26.78.59,1.47.95,2.05.69,1.19,1.49,2.02,1.9,2.43Z"/>
      <path class="cls-6" d="M144.38,38.81c.69.45,1.44.72,2.17.95.37.11.76.18,1.15.23.38.06.77.1,1.17.1.4,0,.81-.02,1.22-.07.4-.04.81-.11,1.23-.21.83-.19,1.68-.52,2.51-.94,1.1-.56,2.17-1.34,3.16-2.37-.5-.51-1.5-1.24-2.86-1.71-.7-.21-1.48-.35-2.32-.35-.86.02-1.78.2-2.74.57-2.19.89-3.72,2.52-4.7,3.79Z"/>
      <path class="cls-6" d="M158.17,33.87c.69-.98,1.17-2.03,1.43-3.16.57-2.42-.05-4.8-1.1-6.73-1.04-1.94-2.51-3.37-3.39-4.14-.18.21-.41.55-.66.98-.84,1.44-1.69,4.03-.83,7.01.24.92.59,1.7,1,2.37.39.68.83,1.27,1.28,1.76.89.98,1.78,1.63,2.27,1.92Z"/>
    </g>
  </g>
  <g>
    <path class="cls-1" d="M190.4,154.26L31.61,188.81l.68,3.11c.15.72,2.42.94,6.54.05l146.29-31.8c4.12-.9,6.23-1.82,5.97-2.82l-.69-3.1Z"/>
    <path class="cls-3" d="M39.3,76.35h120.13c3.38,0,6.13,2.75,6.13,6.13v70.88c0,3.38-2.75,6.13-6.13,6.13H39.3c-3.38,0-6.13-2.75-6.13-6.13v-70.88c0-3.38,2.75-6.13,6.13-6.13Z" transform="translate(-22.78 23.8) rotate(-12.26)"/>
    <g>
      <path class="cls-3" d="M190.29,154.1c.87.58-1.76,1.78-5.88,2.68-48.76,10.6-97.53,21.2-146.29,31.8-4.12.9-7.02.9-6.46,0,3.7-5.97,7.41-11.94,11.11-17.92.55-.89,3.64-2.19,6.9-2.9,38.53-8.38,77.07-16.75,115.6-25.13,3.26-.71,6.61-.81,7.48-.23,5.85,3.9,11.7,7.79,17.54,11.69Z"/>
      <g>
        <path class="cls-4" d="M56.09,174.17c-3.83.83-5.74,1.25-9.56,2.08.29-.53.43-.8.72-1.34,3.77-.82,5.65-1.23,9.42-2.05-.23.52-.34.78-.57,1.3Z"/>
        <path class="cls-4" d="M53.71,173.25c-2.52.55-3.78.82-6.3,1.37.29-.53.43-.8.72-1.34,2.48-.54,3.72-.81,6.2-1.35-.25.52-.37.79-.62,1.31Z"/>
        <path class="cls-4" d="M54.57,170.17c-2.16.47-3.24.71-5.41,1.18.18-.33.27-.5.44-.83l5.35-1.16c-.16.33-.23.49-.39.82Z"/>
        <path class="cls-4" d="M61.66,168.63c-1.38.3-2.07.45-3.45.75.14-.32.21-.48.35-.81,1.37-.3,2.05-.45,3.42-.74-.13.32-.19.48-.32.8Z"/>
        <path class="cls-4" d="M66.03,167.68c-1.38.3-2.07.45-3.45.75.12-.32.19-.48.31-.8,1.37-.3,2.05-.45,3.41-.74-.11.32-.16.47-.27.79Z"/>
        <path class="cls-4" d="M70.29,166.75l-3.45.75c.11-.32.16-.47.27-.79,1.37-.3,2.05-.45,3.41-.74-.09.31-.14.47-.23.78Z"/>
        <path class="cls-4" d="M74.56,165.82l-3.45.75c.09-.31.13-.47.22-.78,1.37-.3,2.05-.45,3.42-.74-.08.31-.11.46-.19.77Z"/>
        <path class="cls-4" d="M79.89,164.66l-3.45.75c.07-.31.1-.46.17-.77l3.42-.74c-.05.31-.08.46-.13.76Z"/>
        <path class="cls-4" d="M84.27,163.71c-1.38.3-2.07.45-3.45.75.05-.3.07-.45.12-.76,1.37-.3,2.05-.45,3.42-.74-.04.3-.05.45-.09.75Z"/>
        <path class="cls-4" d="M88.53,162.79c-1.38.3-2.07.45-3.45.75.03-.3.05-.45.08-.75,1.37-.3,2.05-.45,3.41-.74-.02.3-.03.45-.05.74Z"/>
        <path class="cls-4" d="M92.79,161.86c-1.38.3-2.07.45-3.45.75.02-.3.02-.44.04-.74,1.37-.3,2.05-.45,3.41-.74,0,.29,0,.44,0,.73Z"/>
        <path class="cls-4" d="M98.31,160.66c-1.38.3-2.07.45-3.45.75,0-.29-.01-.44-.02-.73l3.41-.74c.02.29.03.43.05.72Z"/>
        <path class="cls-4" d="M102.68,159.71c-1.38.3-2.07.45-3.45.75-.02-.29-.04-.43-.06-.72,1.37-.3,2.05-.45,3.41-.74.04.29.06.43.1.71Z"/>
        <path class="cls-4" d="M106.94,158.78c-1.38.3-2.07.45-3.45.75-.04-.28-.06-.42-.1-.71,1.37-.3,2.05-.45,3.41-.74.06.28.08.42.14.7Z"/>
        <path class="cls-4" d="M111.21,157.86c-1.38.3-2.07.45-3.45.75-.06-.28-.09-.42-.15-.7,1.37-.3,2.05-.45,3.42-.74.07.28.11.42.18.69Z"/>
        <path class="cls-4" d="M120.6,155.81l-3.45.75c-.1-.27-.15-.41-.24-.68l3.42-.74c.11.27.17.4.28.67Z"/>
        <path class="cls-4" d="M124.86,154.89c-1.38.3-2.07.45-3.45.75-.11-.27-.17-.4-.29-.67,1.37-.3,2.05-.45,3.42-.74.13.27.19.4.32.66Z"/>
        <path class="cls-4" d="M129.13,153.96c-1.38.3-2.07.45-3.45.75-.13-.26-.2-.4-.33-.66,1.37-.3,2.05-.45,3.41-.74.15.26.22.39.36.65Z"/>
        <path class="cls-4" d="M52.97,171.98c-1.88.41-2.81.61-4.69,1.02.29-.53.43-.8.72-1.34,1.85-.4,2.77-.6,4.62-1-.26.53-.38.79-.64,1.32Z"/>
        <path class="cls-4" d="M58.51,170.78c-1.88.41-2.82.61-4.69,1.02.25-.53.38-.79.63-1.32,1.85-.4,2.77-.6,4.62-1-.22.52-.33.78-.55,1.3Z"/>
        <path class="cls-4" d="M59.35,172.03l-4.78,1.04c.24-.53.36-.79.61-1.31,1.88-.41,2.82-.61,4.71-1.02-.21.52-.32.78-.53,1.29Z"/>
        <path class="cls-4" d="M64.02,169.58c-1.88.41-2.82.61-4.69,1.02.22-.52.32-.78.54-1.3,1.85-.4,2.77-.6,4.62-1-.19.51-.28.77-.47,1.28Z"/>
        <path class="cls-4" d="M69.49,168.39c-1.88.41-2.82.61-4.69,1.02.18-.51.27-.77.45-1.28,1.85-.4,2.77-.6,4.62-1-.15.51-.23.76-.38,1.26Z"/>
        <path class="cls-4" d="M75.01,167.19c-1.88.41-2.82.61-4.69,1.02.15-.5.22-.76.36-1.26,1.85-.4,2.77-.6,4.62-1-.12.5-.17.75-.29,1.24Z"/>
        <path class="cls-4" d="M80.55,165.98c-1.88.41-2.81.61-4.69,1.02.11-.5.16-.74.27-1.24,1.85-.4,2.77-.6,4.62-1-.08.49-.12.73-.2,1.22Z"/>
        <path class="cls-4" d="M86.07,164.79c-1.88.41-2.82.61-4.69,1.02.08-.49.11-.73.19-1.22,1.85-.4,2.77-.6,4.62-1-.04.48-.07.72-.11,1.2Z"/>
        <path class="cls-4" d="M91.54,163.6c-1.88.41-2.82.61-4.69,1.02.04-.48.06-.72.1-1.2l4.62-1c-.01.47-.02.71-.03,1.19Z"/>
        <path class="cls-4" d="M97.06,162.4c-1.88.41-2.82.61-4.69,1.02,0-.47,0-.71.01-1.18,1.85-.4,2.77-.6,4.62-1,.03.47.04.7.06,1.17Z"/>
        <path class="cls-4" d="M102.57,161.2c-1.88.41-2.82.61-4.69,1.02-.03-.47-.05-.7-.08-1.16,1.85-.4,2.77-.6,4.62-1,.06.46.09.69.15,1.15Z"/>
        <path class="cls-4" d="M108.05,160.01c-1.88.41-2.82.61-4.69,1.02-.07-.46-.1-.69-.16-1.14,1.85-.4,2.77-.6,4.62-1,.1.45.14.68.24,1.13Z"/>
        <path class="cls-4" d="M113.56,158.81c-1.88.41-2.81.61-4.69,1.02-.1-.45-.15-.68-.25-1.13,1.85-.4,2.77-.6,4.62-1,.13.44.2.67.33,1.11Z"/>
        <path class="cls-4" d="M119.1,157.61c-1.88.41-2.82.61-4.69,1.02-.14-.44-.2-.66-.34-1.11,1.85-.4,2.77-.6,4.62-1,.17.44.25.65.41,1.09Z"/>
        <path class="cls-4" d="M124.62,156.41l-4.69,1.02c-.17-.43-.26-.65-.43-1.09,1.85-.4,2.77-.6,4.62-1,.2.43.3.64.5,1.07Z"/>
        <path class="cls-4" d="M130.09,155.22c-1.88.41-2.81.61-4.69,1.02-.21-.43-.31-.64-.52-1.07,1.85-.4,2.77-.6,4.62-1,.24.42.35.63.59,1.05Z"/>
        <path class="cls-4" d="M136.79,152.88c-2.06.45-3.09.67-5.14,1.12-.28-.46-.41-.7-.69-1.16,2.02-.44,3.03-.66,5.05-1.1.31.46.47.68.78,1.14Z"/>
        <path class="cls-4" d="M142.79,151.57c-2.06.45-3.09.67-5.15,1.12-.32-.45-.48-.68-.8-1.14,2.02-.44,3.03-.66,5.05-1.1.36.45.53.67.89,1.12Z"/>
        <path class="cls-4" d="M137.83,154.4c-2.11.46-3.16.69-5.27,1.14-.28-.46-.41-.7-.69-1.16l5.18-1.12c.31.46.47.68.78,1.14Z"/>
        <path class="cls-4" d="M143.97,153.06c-2.11.46-3.16.69-5.27,1.15-.32-.45-.48-.68-.8-1.14l5.18-1.13c.36.45.53.67.89,1.12Z"/>
        <path class="cls-4" d="M138.88,155.92c-2.16.47-3.23.7-5.39,1.17-.28-.46-.41-.7-.69-1.16l5.3-1.15c.31.46.47.68.78,1.14Z"/>
        <path class="cls-4" d="M145.16,154.55c-2.16.47-3.24.7-5.39,1.17-.32-.46-.48-.68-.8-1.14,2.12-.46,3.18-.69,5.3-1.15.36.45.53.67.89,1.12Z"/>
        <path class="cls-4" d="M141.72,157.04c-2.21.48-3.31.72-5.51,1.2-.29-.46-.43-.69-.72-1.15,2.17-.47,3.25-.71,5.42-1.18.33.45.49.68.81,1.13Z"/>
        <path class="cls-4" d="M142.81,158.55c-2.25.49-3.38.74-5.64,1.23-.29-.46-.43-.69-.72-1.15,2.22-.48,3.33-.72,5.54-1.21.33.45.49.68.81,1.13Z"/>
        <path class="cls-4" d="M136.25,160.01l-5.64,1.23c-.25-.47-.37-.71-.61-1.18,2.22-.48,3.33-.72,5.55-1.21.28.46.42.69.7,1.16Z"/>
        <path class="cls-4" d="M149.4,157.15c-2.26.49-3.38.74-5.64,1.23-.33-.45-.5-.68-.83-1.13,2.22-.48,3.33-.72,5.55-1.21.37.44.55.66.92,1.11Z"/>
        <path class="cls-4" d="M64.92,170.82c-1.91.42-2.87.62-4.78,1.04.21-.52.31-.77.52-1.29,1.88-.41,2.82-.61,4.71-1.02-.18.51-.27.76-.44,1.28Z"/>
        <path class="cls-4" d="M70.55,169.59l-4.78,1.04c.17-.51.26-.76.43-1.27,1.88-.41,2.82-.61,4.71-1.02-.14.5-.21.75-.35,1.26Z"/>
        <path class="cls-4" d="M76.2,168.37c-1.91.42-2.87.62-4.78,1.04.14-.5.2-.75.34-1.25,1.88-.41,2.83-.61,4.71-1.02-.11.5-.16.74-.27,1.24Z"/>
        <path class="cls-4" d="M81.82,167.14c-1.91.42-2.87.62-4.78,1.04.1-.49.15-.74.25-1.23,1.88-.41,2.83-.61,4.71-1.02-.07.49-.11.73-.18,1.22Z"/>
        <path class="cls-4" d="M87.4,165.93c-1.91.42-2.87.62-4.78,1.04.07-.49.1-.73.16-1.22,1.88-.41,2.83-.61,4.71-1.02-.04.48-.05.72-.09,1.2Z"/>
        <path class="cls-4" d="M93.02,164.71c-1.91.42-2.87.62-4.78,1.04.03-.48.05-.72.08-1.2,1.88-.41,2.82-.61,4.71-1.02,0,.47,0,.71,0,1.18Z"/>
        <path class="cls-4" d="M98.65,163.49c-1.91.42-2.87.62-4.78,1.04,0-.47,0-.71-.01-1.18,1.88-.41,2.83-.61,4.71-1.02.03.46.05.7.09,1.16Z"/>
        <path class="cls-4" d="M104.22,162.27c-1.91.42-2.87.62-4.78,1.04-.04-.46-.06-.69-.1-1.16,1.88-.41,2.83-.61,4.71-1.02.07.46.1.68.17,1.14Z"/>
        <path class="cls-4" d="M109.85,161.05c-1.91.42-2.87.62-4.78,1.04-.07-.46-.11-.68-.19-1.14,1.88-.41,2.83-.61,4.71-1.02.1.45.16.67.26,1.12Z"/>
        <path class="cls-4" d="M115.5,159.82c-1.91.42-2.87.62-4.78,1.04-.11-.45-.17-.67-.28-1.12,1.88-.41,2.83-.61,4.71-1.02.14.44.21.66.35,1.1Z"/>
        <path class="cls-4" d="M121.12,158.6c-1.91.42-2.87.62-4.78,1.04-.15-.44-.22-.66-.36-1.1,1.88-.41,2.83-.61,4.71-1.02.18.43.26.65.44,1.08Z"/>
        <path class="cls-4" d="M61.82,172.92c-1.95.42-2.92.64-4.87,1.06.22-.52.33-.78.56-1.3,1.92-.42,2.88-.63,4.8-1.04-.19.51-.29.77-.48,1.29Z"/>
        <path class="cls-4" d="M67.58,171.67c-1.95.42-2.92.64-4.87,1.06.19-.51.28-.77.47-1.28,1.92-.42,2.88-.63,4.8-1.04-.16.51-.24.76-.39,1.27Z"/>
        <path class="cls-4" d="M73.31,170.43c-1.95.42-2.92.64-4.88,1.06.15-.51.23-.76.38-1.26,1.92-.42,2.88-.63,4.8-1.04-.12.5-.18.75-.3,1.25Z"/>
        <path class="cls-4" d="M78.99,169.19c-1.95.42-2.92.64-4.87,1.06.12-.5.18-.75.29-1.24,1.92-.42,2.88-.63,4.8-1.04-.09.49-.13.74-.22,1.23Z"/>
        <path class="cls-4" d="M84.73,167.95c-1.95.42-2.93.64-4.87,1.06.08-.49.12-.74.2-1.22,1.92-.42,2.88-.63,4.8-1.04-.05.48-.08.72-.13,1.21Z"/>
        <path class="cls-4" d="M90.46,166.7c-1.95.42-2.92.64-4.87,1.06.05-.48.07-.72.12-1.21,1.92-.42,2.88-.63,4.8-1.04-.02.48-.02.71-.04,1.19Z"/>
        <path class="cls-4" d="M96.14,165.47l-4.87,1.06c.01-.47.02-.71.03-1.19,1.92-.42,2.88-.63,4.8-1.04.02.47.03.7.05,1.17Z"/>
        <path class="cls-4" d="M101.87,164.22c-1.95.42-2.93.64-4.88,1.06-.02-.47-.04-.7-.06-1.17,1.92-.42,2.88-.63,4.8-1.04.05.46.08.69.13,1.15Z"/>
        <path class="cls-4" d="M107.63,162.97c-1.95.42-2.92.64-4.87,1.06-.06-.46-.09-.69-.15-1.15,1.92-.42,2.88-.63,4.8-1.04.09.45.13.68.22,1.13Z"/>
        <path class="cls-4" d="M113.36,161.72c-1.95.42-2.92.64-4.87,1.06-.09-.45-.14-.68-.24-1.13,1.92-.42,2.88-.63,4.8-1.04.12.44.19.67.31,1.11Z"/>
        <path class="cls-4" d="M119.04,160.49l-4.87,1.06c-.13-.44-.19-.67-.32-1.11,1.92-.42,2.88-.63,4.8-1.04.16.44.24.66.4,1.09Z"/>
        <path class="cls-4" d="M126.17,156.32l-.66.14c-1.62.35-2.43.53-4.05.88.07.16.1.24.17.4.11.27.17.41.28.68.04.09.06.14.1.23-1.03.22-1.54.34-2.57.56.16.44.25.65.41,1.09,1.92-.42,2.88-.63,4.8-1.04l.07-.02,1.37-.3.56-.12c1.15-.25,1.72-.37,2.87-.62l1.44-.31.56-.12c-.2-.35-.3-.53-.5-.88-.04-.07-.06-.1-.09-.17-.05-.09-.08-.14-.13-.23-.15-.26-.22-.4-.37-.66-.09-.16-.13-.24-.22-.39-1.62.35-2.43.53-4.05.88Z"/>
        <path class="cls-4" d="M50.68,176.78c-1.99.43-2.98.65-4.97,1.08.29-.53.43-.8.72-1.34,1.96-.43,2.94-.64,4.89-1.06-.26.53-.38.79-.64,1.32Z"/>
        <path class="cls-4" d="M56.54,175.51c-1.99.43-2.98.65-4.97,1.08.25-.53.38-.79.63-1.32l4.89-1.06c-.22.52-.33.78-.55,1.3Z"/>
        <path class="cls-4" d="M62.38,174.24c-1.99.43-2.98.65-4.97,1.08.22-.52.32-.78.54-1.3,1.96-.43,2.93-.64,4.89-1.06-.19.51-.28.77-.46,1.28Z"/>
        <path class="cls-4" d="M68.17,172.98c-1.99.43-2.98.65-4.97,1.08.18-.51.27-.77.45-1.28,1.96-.43,2.93-.64,4.89-1.06-.15.51-.23.76-.38,1.26Z"/>
        <path class="cls-4" d="M50.82,178.18c-2.39.52-3.59.78-5.98,1.3.29-.53.43-.8.72-1.34,2.36-.51,3.54-.77,5.89-1.28-.25.53-.38.79-.63,1.32Z"/>
        <path class="cls-4" d="M57.85,176.66c-2.39.52-3.59.78-5.98,1.3.25-.53.37-.79.61-1.31,2.36-.51,3.54-.77,5.89-1.28-.21.52-.31.78-.52,1.29Z"/>
        <path class="cls-4" d="M64.82,175.14c-2.39.52-3.59.78-5.98,1.3.2-.52.31-.77.51-1.29l5.89-1.28c-.17.51-.25.76-.42,1.27Z"/>
        <path class="cls-4" d="M74,171.71l-4.97,1.08c.15-.5.22-.76.36-1.26,1.96-.43,2.93-.64,4.89-1.06-.12.5-.17.75-.29,1.24Z"/>
        <path class="cls-4" d="M99.97,166.32c-1.84.4-2.77.6-4.61,1l-.19.04-.18.04c-1.8.39-2.7.59-4.49.98-.05.01-.07.01-.12.02-.03,0-.04,0-.07.02-1.92.42-2.88.63-4.8,1.04h-.07s-.07.03-.12.04c-1.68.37-2.52.55-4.21.91l-.66.14c-1.68.37-2.52.55-4.21.91-.05.01-.07.02-.12.03h-.07c-1.92.43-2.88.64-4.8,1.06h-.07s-.07.03-.12.04c-1.95.42-2.92.63-4.87,1.06-.16.51-.24.76-.4,1.27l4.94-1.07.12-.03h.07c1.95-.44,2.92-.65,4.87-1.07l.07-.02.12-.03c1.71-.37,2.56-.56,4.27-.93l.67-.14c1.71-.37,2.56-.56,4.27-.93l.12-.03h.07c1.95-.44,2.92-.65,4.87-1.07h.07s.07-.03.12-.04c1.82-.4,2.74-.59,4.56-.99l.19-.04.19-.04,4.68-1.02.19-.04c-.04-.46-.06-.69-.11-1.16-.07.02-.11.02-.18.04Z"/>
        <path class="cls-4" d="M79.84,170.44c-1.99.43-2.98.65-4.97,1.08.11-.5.17-.74.28-1.24,1.96-.43,2.93-.64,4.89-1.06-.08.49-.12.73-.2,1.22Z"/>
        <path class="cls-4" d="M85.63,169.18c-1.99.43-2.98.65-4.97,1.08.08-.49.11-.73.19-1.22,1.96-.43,2.93-.64,4.89-1.06-.05.48-.07.72-.11,1.21Z"/>
        <path class="cls-4" d="M91.47,167.92c-1.99.43-2.98.65-4.97,1.08.04-.48.06-.72.1-1.2,1.96-.43,2.93-.64,4.89-1.06,0,.47-.02.71-.03,1.19Z"/>
        <path class="cls-4" d="M97.34,166.64c-1.99.43-2.98.65-4.96,1.08,0-.47,0-.71.01-1.18,1.96-.43,2.93-.64,4.89-1.06.03.47.04.7.06,1.17Z"/>
        <path class="cls-4" d="M103.17,165.37c-1.99.43-2.98.65-4.97,1.08-.03-.47-.05-.7-.08-1.16,1.96-.43,2.93-.64,4.89-1.06.06.46.09.69.15,1.15Z"/>
        <path class="cls-4" d="M108.96,164.11c-1.99.43-2.98.65-4.97,1.08-.07-.46-.1-.69-.16-1.15,1.96-.43,2.93-.64,4.89-1.06.1.45.14.68.24,1.13Z"/>
        <path class="cls-4" d="M114.75,162.85c-1.99.43-2.98.65-4.97,1.08-.1-.45-.15-.68-.25-1.13,1.96-.43,2.93-.64,4.89-1.06.13.44.2.67.33,1.11Z"/>
        <path class="cls-4" d="M120.49,161.61l-4.97,1.08c-.14-.44-.2-.66-.34-1.11,1.96-.43,2.93-.64,4.89-1.06.17.44.25.65.41,1.09Z"/>
        <path class="cls-4" d="M129.32,158.51c-1.02.22-1.54.33-2.56.56l-.98.21c-.54.12-.81.18-1.35.29-1.42.31-2.13.46-3.54.77.17.44.26.65.43,1.09,1.44-.31,2.16-.47,3.6-.78l1.37-.3,1-.22c1.04-.23,1.56-.34,2.6-.57l2.37-.51c-.24-.42-.35-.63-.59-1.05-.93.2-1.4.3-2.33.51Z"/>
        <path class="cls-4" d="M106.2,166.15c-2.02.44-3.03.66-5.06,1.1-.05-.46-.07-.69-.12-1.15,1.99-.43,2.99-.65,4.98-1.08.08.46.12.68.19,1.14Z"/>
        <path class="cls-4" d="M112.1,164.87c-2.02.44-3.03.66-5.06,1.1-.08-.45-.12-.68-.21-1.14,1.99-.43,2.99-.65,4.98-1.08.11.45.17.67.28,1.12Z"/>
        <path class="cls-4" d="M117.99,163.58c-2.02.44-3.03.66-5.06,1.1-.12-.45-.18-.67-.29-1.12,1.99-.43,2.99-.65,4.98-1.08.15.44.22.66.37,1.1Z"/>
        <g>
          <path class="cls-4" d="M157.87,153.74c-.64.14-.96.21-1.6.35-2.37.52-3.56.77-5.93,1.29.34.4.52.6.86.99,2.41-.52,3.61-.79,6.02-1.31.65-.14.98-.21,1.63-.35,1.37-.3,2.06-.45,3.43-.74-.41-.38-.61-.57-1.02-.96-1.35.29-2.03.44-3.38.73Z"/>
          <path class="cls-4" d="M151.7,150.52c-1.88.41-2.82.61-4.69,1.02-.34-.4-.52-.6-.86-.99,1.85-.4,2.77-.6,4.62-1,.37.39.56.59.94.98Z"/>
          <path class="cls-4" d="M157.29,149.3c-1.88.41-2.82.61-4.69,1.02-.38-.39-.57-.58-.95-.97l4.62-1c.41.38.62.57,1.02.96Z"/>
          <path class="cls-4" d="M152.84,151.71c-1.91.42-2.87.62-4.78,1.04-.34-.4-.52-.6-.86-.99,1.88-.41,2.82-.61,4.71-1.02.37.39.56.58.94.98Z"/>
          <path class="cls-4" d="M158.54,150.47c-1.91.42-2.87.62-4.78,1.04-.38-.39-.57-.58-.95-.97,1.88-.41,2.82-.61,4.71-1.02.41.38.61.57,1.02.96Z"/>
          <path class="cls-4" d="M153.98,152.89c-1.95.42-2.92.64-4.87,1.06-.34-.4-.52-.6-.86-.99,1.92-.42,2.88-.63,4.8-1.04.37.39.56.59.94.98Z"/>
          <path class="cls-4" d="M159.78,151.63c-1.95.42-2.92.64-4.87,1.06-.38-.39-.57-.58-.95-.97,1.92-.42,2.88-.63,4.8-1.04.41.38.61.57,1.02.96Z"/>
          <path class="cls-4" d="M155.11,154.08c-1.99.43-2.98.65-4.97,1.08-.34-.4-.52-.6-.86-.99,1.96-.43,2.93-.64,4.89-1.06.37.39.56.59.94.98Z"/>
          <path class="cls-4" d="M161.03,152.8c-1.99.43-2.98.65-4.97,1.08-.38-.39-.57-.58-.95-.97,1.96-.43,2.93-.64,4.89-1.06.41.38.61.58,1.02.96Z"/>
          <path class="cls-4" d="M162.88,148.09c-1.88.41-2.82.61-4.69,1.02-.42-.38-.62-.57-1.04-.95l4.62-1c.45.38.67.56,1.11.94Z"/>
          <path class="cls-4" d="M164.23,149.23l-4.78,1.04c-.42-.38-.62-.57-1.04-.95,1.88-.41,2.82-.61,4.71-1.02.45.38.67.56,1.11.94Z"/>
          <path class="cls-4" d="M165.59,150.37l-4.87,1.06c-.42-.38-.62-.57-1.04-.95,1.92-.42,2.88-.63,4.8-1.04.45.37.67.56,1.11.94Z"/>
          <path class="cls-4" d="M166.94,151.51c-1.99.43-2.98.65-4.97,1.08-.42-.38-.62-.57-1.04-.96,1.96-.43,2.93-.64,4.89-1.06.45.38.67.56,1.11.94Z"/>
          <path class="cls-4" d="M168.29,152.65l-5.06,1.1c-.42-.38-.62-.57-1.04-.95,1.99-.43,2.99-.65,4.98-1.08.45.38.67.56,1.11.94Z"/>
          <path class="cls-4" d="M168.47,146.88c-1.88.41-2.82.61-4.69,1.02-.45-.37-.68-.56-1.13-.93,1.85-.4,2.77-.6,4.62-1,.48.37.72.55,1.2.92Z"/>
          <path class="cls-4" d="M164.02,148.1c.55.46.82.68,1.37,1.14.41.34.61.51,1.01.84.05.04.07.06.11.09,1.95-.42,2.93-.64,4.88-1.06-.05-.04-.07-.06-.12-.09-.43-.33-.65-.5-1.08-.83-.58-.45-.88-.67-1.46-1.12-1.88.41-2.82.61-4.71,1.02Z"/>
          <path class="cls-4" d="M166.69,150.31c.55.46.82.68,1.37,1.14.41.34.61.5,1.01.84.05.04.07.06.11.09,2.02-.44,3.03-.66,5.05-1.1-.05-.04-.07-.05-.12-.09-.43-.33-.65-.5-1.08-.83-.58-.45-.88-.67-1.46-1.12-1.95.42-2.93.64-4.89,1.06Z"/>
        </g>
      </g>
      <path class="cls-4" d="M134.6,163.9c.35.55-2.64,1.7-6.68,2.57-11.46,2.49-22.92,4.98-34.39,7.47-4.04.88-7.24,1.07-7.14.43.05-.33.07-.5.12-.83.09-.64,3.3-1.84,7.15-2.68,10.95-2.38,21.9-4.76,32.86-7.14,3.86-.84,7.27-1.08,7.62-.53.18.28.27.42.45.7Z"/>
    </g>
    <rect class="cls-2" x="37.56" y="84.49" width="123.74" height="67.5" transform="translate(-22.85 23.82) rotate(-12.26)"/>
    <path class="cls-2" d="M93.07,81.15c.19.89-.37,1.78-1.27,1.97s-1.78-.37-1.97-1.27.37-1.78,1.27-1.97,1.78.37,1.97,1.27Z"/>
  </g>
</svg>