<?xml version="1.0" encoding="UTF-8"?>
<svg id="Layer_1" xmlns="http://www.w3.org/2000/svg" viewBox="0 0 166.76 225.88">
  <defs>
    <style>
      .cls-1 {
        fill: #fff;
      }

      .cls-2 {
        fill: #ffe6ac;
      }

      .cls-3 {
        fill: #0088ce;
      }
    </style>
  </defs>
  <g>
    <path class="cls-2" d="M111.91,91.84c-.32-.11-.48-.49-.36-.83.12-.35.47-.54.79-.44.32.1.48.48.36.83-.12.36-.48.55-.79.44Z"/>
    <path class="cls-2" d="M114.46,78.28c-.34-.01-.6-.32-.59-.68,0-.36.29-.66.63-.66.34,0,.6.3.59.68,0,.38-.29.67-.63.66Z"/>
    <path class="cls-2" d="M105.26,103.93c-.27-.21-.3-.61-.07-.89.22-.29.61-.38.88-.18.27.2.32.61.09.91-.23.3-.64.37-.9.16Z"/>
    <path class="cls-2" d="M95.22,113.38c-.19-.28-.1-.68.2-.89.3-.21.7-.16.9.11s.11.67-.2.89c-.31.22-.71.17-.9-.11Z"/>
    <path class="cls-2" d="M82.74,119.27c-.09-.32.12-.67.47-.77.35-.11.71.05.82.37.1.32-.1.68-.46.79-.36.1-.73-.07-.83-.4Z"/>
    <path class="cls-2" d="M69.06,121c.01-.34.32-.6.68-.59s.66.29.66.63c0,.34-.3.6-.68.59-.38,0-.67-.29-.66-.63Z"/>
    <path class="cls-2" d="M55.51,118.44c.11-.32.49-.48.83-.36.35.12.54.47.44.79-.1.32-.48.48-.83.36-.36-.12-.55-.48-.44-.79Z"/>
    <path class="cls-2" d="M43.42,111.79c.21-.27.61-.3.89-.07.29.22.38.61.18.88-.2.27-.61.32-.91.09-.3-.23-.37-.64-.16-.9Z"/>
    <path class="cls-2" d="M33.96,101.76c.28-.19.68-.1.89.2s.16.7-.11.9c-.27.2-.67.11-.89-.2-.22-.31-.17-.71.11-.9Z"/>
    <path class="cls-2" d="M28.08,89.28c.32-.09.67.12.77.47.11.35-.05.71-.37.82-.32.1-.68-.1-.79-.46-.1-.36.07-.73.4-.83Z"/>
    <path class="cls-2" d="M108.74,76.94h-4.66s-.01-.41-.03-1.19c0-.19,0-.41-.02-.65-.02-.24-.04-.5-.06-.78-.02-.28-.04-.58-.07-.9-.04-.32-.08-.66-.13-1.02-.36-2.86-1.33-6.95-3.66-11.33-1.16-2.19-2.7-4.42-4.58-6.55-.96-1.05-1.98-2.1-3.12-3.06-.55-.5-1.16-.95-1.76-1.43-.3-.23-.62-.44-.93-.67l-.47-.34-.49-.31c-2.59-1.7-5.52-3.07-8.63-4.02-1.55-.48-3.16-.81-4.79-1.07-1.63-.24-3.29-.34-4.94-.36-1.66.02-3.31.12-4.94.36-1.62.26-3.23.59-4.79,1.07-3.11.94-6.04,2.32-8.63,4.02l-.49.31-.47.34c-.31.23-.63.44-.93.67-.6.48-1.2.92-1.76,1.43-1.14.96-2.16,2.01-3.12,3.06-1.88,2.13-3.42,4.36-4.58,6.55-2.33,4.39-3.3,8.47-3.66,11.33-.05.36-.09.7-.13,1.02-.03.32-.05.62-.07.9-.02.28-.04.54-.06.78-.02.24-.01.46-.02.65-.02.78-.03,1.19-.03,1.19,0,0,.01.41.03,1.19,0,.19,0,.41.02.65.02.24.04.5.06.78.02.28.04.58.07.9.04.32.08.66.13,1.02.36,2.86,1.33,6.95,3.66,11.33,1.16,2.19,2.7,4.42,4.58,6.55.96,1.05,1.98,2.1,3.12,3.06.55.5,1.16.95,1.76,1.43.3.23.62.44.93.67l.47.34.49.31c2.59,1.7,5.52,3.07,8.63,4.02,1.55.48,3.16.81,4.79,1.07,1.63.24,3.29.34,4.94.36,1.66-.02,3.31-.12,4.94-.36,1.62-.26,3.23-.59,4.79-1.07,3.11-.94,6.04-2.32,8.63-4.02l.49-.31.47-.34c.31-.23.63-.44.93-.67.6-.48,1.2-.92,1.76-1.43,1.14-.96,2.16-2.01,3.12-3.06,1.88-2.13,3.42-4.36,4.58-6.55,2.33-4.39,3.3-8.47,3.66-11.33.05-.36.09-.7.13-1.02.03-.32.05-.62.07-.9.02-.28.04-.54.06-.78.02-.24.01-.46.02-.65.02-.78.03-1.19.03-1.19h4.66c1.29.89,3.08,1.44,4.47,2.5.69.53,1.29,1.2,1.67,2.11.34.91.53,2.07.24,3.53-.06.34-.14.67-.23.98-.11.31-.23.6-.37.88-.28.55-.6,1.02-1,1.37-.79.71-1.75.98-2.81.67-1.02-.31-1.6-.92-1.91-1.54-.29-.63-.36-1.3-.25-1.77.22-.86.85-2.06,2.24-1.84,1.2.2.9,1.59.63,1.53-.2-.2-1.13-.58-1.36.41-.16.71.43,1.04,1.01,1.19.22.05.59.1.97-.13.19-.11.38-.29.55-.57.17-.28.33-.66.41-1.17.09-.5.08-.96-.01-1.39-.09-.42-.3-.81-.57-1.13-.53-.65-1.35-1.05-2.35-1.16-1.16-.13-2.08.21-2.74.85-.32.32-.62.72-.84,1.18-.11.23-.21.48-.29.74-.08.26-.18.54-.24.83-.09.4-.13.78-.12,1.13,0,.34.04.67.12.97.17.61.5,1.16.89,1.67.96,1.24,2.5,2.33,3.48,3.76.49.72.88,1.55.93,2.53.03.49,0,1.02-.13,1.6-.15.57-.38,1.18-.72,1.84-.33.6-.73,1.13-1.15,1.57-.42.44-.91.77-1.38.99-.95.45-1.96.39-2.87-.24-1.71-1.22-1.51-3-1.02-3.81.22-.39.59-.8,1.06-1.05.47-.24,1.01-.33,1.64,0,.54.28.64.73.56,1.09-.08.36-.33.62-.45.55-.12-.24-.9-.91-1.41-.02-.36.63.08,1.12.59,1.44.38.24,1.38.64,2.42-1.18.48-.88.53-1.8.24-2.57-.32-.78-.97-1.42-1.88-1.84-1.07-.49-2.02-.43-2.86-.04-.42.2-.81.49-1.16.86-.36.37-.7.8-1,1.32-.43.71-.63,1.36-.65,2-.04.63.09,1.24.32,1.86.28.75.68,1.49,1.09,2.26.4.77.81,1.56,1.07,2.41.25.84.33,1.72.1,2.69-.11.48-.33.96-.63,1.47-.15.25-.33.51-.53.77-.21.25-.45.5-.72.76-.25.24-.51.46-.77.65-.26.19-.54.35-.81.49-.55.28-1.08.47-1.61.52-1.06.11-1.99-.24-2.66-1.11-.64-.84-.76-1.68-.64-2.37.13-.68.47-1.26.84-1.58.17-.15.37-.29.6-.4.23-.12.47-.22.72-.27.51-.09,1.07,0,1.56.51.85.87-.21,1.81-.4,1.6-.02-.13-.17-.42-.4-.59-.23-.16-.55-.21-.94.12-.55.48-.27,1.1.12,1.56.15.17.42.43.86.47.22.02.48-.01.78-.14.15-.06.31-.15.49-.26.17-.12.35-.27.54-.45.36-.35.63-.73.81-1.13.16-.41.23-.83.2-1.25-.05-.83-.47-1.64-1.21-2.31-.86-.79-1.81-1.05-2.72-.93-.45.07-.91.22-1.37.46-.46.24-.9.57-1.35.96-.31.27-.56.55-.76.84-.21.28-.36.56-.47.86-.22.6-.28,1.23-.26,1.87.05,1.58.66,3.35.61,5.09-.02.88-.2,1.77-.73,2.59-.26.41-.6.84-1.05,1.22-.45.38-1,.74-1.66,1.07-.63.29-1.26.49-1.86.6-.6.11-1.19.09-1.7-.01-1.03-.2-1.82-.84-2.18-1.88-.35-1.01-.19-1.81.13-2.45.33-.63.84-1.04,1.29-1.23.41-.18.95-.31,1.47-.23.52.08,1.02.33,1.33.96.27.54.09.98-.19,1.21-.28.24-.63.31-.69.18.05-.27-.19-1.26-1.12-.84-.66.3-.6.95-.37,1.52.17.41.74,1.34,2.65.46.91-.42,1.48-1.15,1.7-1.94.21-.81.05-1.72-.45-2.59-.58-1.02-1.38-1.53-2.3-1.71-.46-.09-.94-.08-1.44.02-.51.08-1.04.24-1.58.49-.77.32-1.31.73-1.7,1.24-.4.48-.65,1.06-.83,1.69-.21.77-.32,1.6-.45,2.46-.12.86-.26,1.74-.55,2.57-.29.83-.75,1.59-1.5,2.24-.37.33-.83.58-1.37.82-.54.23-1.18.42-1.91.5-1.37.2-2.65-.03-3.56-.53-.92-.53-1.47-1.37-1.49-2.47-.02-1.06.38-1.8.88-2.28.51-.49,1.12-.75,1.6-.78.45-.02,1,.01,1.47.24.47.23.87.64.97,1.33.18,1.2-1.24,1.34-1.27,1.06.13-.25.21-1.25-.81-1.15-.73.06-.86.72-.82,1.32.02.23.09.59.42.88.33.29.92.52,1.96.38.5-.07.94-.2,1.32-.44.37-.24.68-.54.9-.89.45-.7.58-1.6.38-2.58-.24-1.14-.84-1.92-1.65-2.35-.2-.11-.42-.2-.65-.26-.23-.07-.47-.14-.73-.17-.25-.04-.52-.06-.8-.06-.28,0-.56.02-.86.03-1.65.15-2.58.89-3.32,2.01-.89,1.29-1.44,3.08-2.5,4.47-.53.69-1.2,1.29-2.11,1.67-.91.34-2.07.53-3.53.24-.34-.06-.67-.14-.98-.23-.31-.11-.6-.23-.88-.37-.55-.28-1.02-.6-1.37-1-.71-.79-.98-1.75-.67-2.81.31-1.02.92-1.6,1.54-1.91.63-.29,1.3-.36,1.77-.25.86.22,2.06.85,1.84,2.24-.2,1.2-1.59.9-1.53.63.2-.2.58-1.13-.41-1.36-.71-.16-1.04.43-1.19,1.01-.05.22-.1.59.13.97.11.19.29.38.57.55.28.17.66.33,1.17.41.5.09.96.08,1.39-.01.42-.09.81-.3,1.13-.57.65-.53,1.05-1.35,1.16-2.35.13-1.16-.21-2.08-.85-2.74-.32-.32-.72-.62-1.18-.84-.23-.11-.48-.21-.74-.29-.26-.08-.54-.18-.83-.24-.4-.09-.78-.13-1.13-.12-.35,0-.67.04-.97.12-.61.17-1.16.5-1.67.89-1.24.96-2.33,2.5-3.76,3.48-.72.49-1.55.88-2.53.93-.49.03-1.02,0-1.6-.13-.57-.15-1.18-.38-1.84-.72-.6-.33-1.13-.73-1.57-1.15-.44-.42-.77-.91-.99-1.38-.45-.95-.39-1.96.24-2.87,1.22-1.71,3-1.51,3.81-1.02.39.22.8.59,1.05,1.06.24.47.33,1.01,0,1.64-.28.54-.73.64-1.09.56-.36-.08-.62-.33-.55-.45.24-.12.91-.9.02-1.41-.63-.36-1.12.08-1.44.59-.24.38-.64,1.38,1.18,2.42.88.48,1.8.53,2.57.24.78-.32,1.42-.97,1.84-1.88.49-1.07.43-2.02.04-2.86-.2-.42-.49-.81-.86-1.16-.37-.36-.8-.7-1.32-1-.71-.43-1.36-.63-2-.65-.63-.04-1.24.09-1.86.32-.75.28-1.49.68-2.26,1.09-.77.4-1.56.81-2.41,1.07-.84.25-1.72.33-2.69.1-.48-.11-.96-.33-1.47-.63-.25-.15-.51-.33-.77-.53-.25-.21-.5-.45-.76-.72-.24-.25-.46-.51-.65-.77-.19-.26-.35-.54-.49-.81-.28-.55-.47-1.08-.52-1.61-.11-1.06.24-1.99,1.11-2.66.84-.64,1.68-.76,2.37-.64.68.13,1.26.47,1.58.84.15.17.29.37.4.6.12.23.22.47.27.72.09.51,0,1.07-.51,1.56-.87.85-1.81-.21-1.6-.4.13-.02.42-.17.59-.4.16-.23.21-.55-.12-.94-.48-.55-1.1-.27-1.56.12-.17.15-.43.42-.47.86-.02.22.01.48.14.78.06.15.15.31.26.49.12.17.27.35.45.54.35.36.73.63,1.13.81.41.16.83.23,1.25.2.83-.05,1.64-.47,2.31-1.21.79-.86,1.05-1.81.93-2.72-.07-.45-.22-.91-.46-1.37-.24-.46-.57-.9-.96-1.35-.27-.31-.55-.56-.84-.76-.28-.21-.56-.36-.86-.47-.6-.22-1.23-.28-1.87-.26-1.58.05-3.35.66-5.09.61-.88-.02-1.77-.2-2.59-.73-.41-.26-.84-.6-1.22-1.05-.38-.45-.74-1-1.07-1.66-.29-.63-.49-1.26-.6-1.86-.11-.6-.09-1.19.01-1.7.2-1.03.84-1.82,1.88-2.18,1.01-.35,1.81-.19,2.45.13.63.33,1.04.84,1.23,1.29.18.41.31.95.23,1.47-.08.52-.33,1.02-.96,1.33-.54.27-.98.09-1.21-.19-.24-.28-.31-.63-.18-.69.27.05,1.26-.19.84-1.12-.3-.66-.95-.6-1.52-.37-.41.17-1.34.74-.46,2.65.42.91,1.15,1.48,1.94,1.7.81.21,1.72.05,2.59-.45,1.02-.58,1.53-1.38,1.71-2.3.09-.46.08-.94-.02-1.44-.08-.51-.24-1.04-.49-1.58-.32-.77-.73-1.31-1.24-1.7-.48-.4-1.06-.65-1.69-.83-.77-.21-1.6-.32-2.46-.45-.86-.12-1.74-.26-2.57-.55-.83-.29-1.59-.75-2.24-1.5-.33-.37-.58-.83-.82-1.37-.23-.54-.42-1.18-.5-1.91-.2-1.37.03-2.65.53-3.56.53-.92,1.37-1.47,2.47-1.49,1.06-.02,1.8.38,2.28.88.49.51.75,1.12.78,1.6.02.45-.01,1-.24,1.47-.23.47-.64.87-1.33.97-1.2.18-1.34-1.24-1.06-1.27.25.13,1.25.21,1.15-.81-.06-.72-.72-.86-1.32-.82-.23.02-.59.09-.88.42-.29.33-.52.92-.38,1.96.07.5.2.94.44,1.32.24.37.54.68.89.9.7.45,1.6.58,2.58.38,1.14-.24,1.92-.84,2.35-1.65.11-.2.2-.42.26-.65.07-.23.14-.47.17-.73.04-.25.06-.52.06-.8,0-.28-.02-.56-.03-.86-.15-1.65-.89-2.58-2.01-3.32-1.29-.89-3.08-1.44-4.47-2.5-.69-.53-1.29-1.2-1.67-2.11-.34-.91-.53-2.07-.24-3.53.06-.34.14-.67.23-.98.11-.31.23-.6.37-.88.28-.55.6-1.02,1-1.37.79-.71,1.75-.98,2.81-.67,1.02.31,1.6.92,1.91,1.54.29.63.36,1.3.25,1.77-.22.86-.85,2.06-2.24,1.84-1.2-.2-.9-1.59-.63-1.53.2.2,1.13.58,1.36-.41.16-.71-.43-1.04-1.01-1.19-.22-.05-.59-.1-.97.13-.19.11-.38.29-.55.57-.17.28-.33.66-.41,1.17-.09.5-.08.96.01,1.39.09.42.3.81.57,1.13.53.65,1.35,1.05,2.35,1.16,1.16.13,2.08-.21,2.74-.85.32-.32.62-.72.84-1.18.11-.23.21-.48.29-.74.08-.26.18-.54.24-.83.09-.4.13-.78.12-1.13,0-.35-.04-.67-.12-.97-.17-.61-.5-1.16-.89-1.67-.96-1.24-2.5-2.33-3.48-3.76-.49-.72-.88-1.55-.93-2.53-.03-.49,0-1.02.13-1.6.15-.57.38-1.18.72-1.84.33-.6.73-1.13,1.15-1.57.42-.44.91-.77,1.38-.99.95-.45,1.96-.39,2.87.24,1.71,1.22,1.51,3,1.02,3.81-.22.39-.59.8-1.06,1.05-.47.24-1.01.33-1.64,0-.54-.28-.64-.73-.56-1.09.08-.36.33-.62.45-.55.12.24.9.91,1.41.02.36-.63-.08-1.12-.59-1.44-.38-.24-1.38-.64-2.42,1.18-.48.88-.53,1.8-.24,2.57.32.78.97,1.42,1.88,1.84,1.07.49,2.02.43,2.86.04.42-.2.81-.49,1.16-.86.36-.37.7-.8,1-1.32.43-.71.63-1.36.65-2,.04-.63-.09-1.24-.32-1.86-.28-.75-.68-1.49-1.09-2.26-.4-.77-.81-1.56-1.07-2.41-.25-.84-.33-1.72-.1-2.69.11-.48.33-.96.63-1.47.15-.25.33-.51.53-.77.21-.25.45-.5.72-.76.25-.24.51-.46.77-.65.26-.19.54-.35.81-.49.55-.28,1.08-.47,1.61-.52,1.06-.11,1.99.24,2.66,1.11.64.84.76,1.68.64,2.37-.13.68-.47,1.26-.84,1.58-.17.15-.37.29-.6.4-.23.12-.47.22-.72.27-.51.09-1.07,0-1.56-.51-.85-.87.21-1.81.4-1.6.02.13.17.42.4.59.23.16.55.21.94-.12.55-.48.27-1.1-.12-1.56-.15-.17-.42-.43-.86-.47-.22-.02-.48.01-.78.14-.15.06-.31.15-.49.26-.17.12-.35.27-.54.45-.36.35-.63.73-.81,1.13-.16.41-.23.83-.2,1.25.05.83.47,1.64,1.21,2.31.86.79,1.81,1.05,2.72.93.45-.07.91-.22,1.37-.46.46-.24.9-.57,1.35-.96.31-.27.56-.55.76-.84.21-.28.36-.56.47-.86.22-.6.28-1.23.26-1.87-.05-1.58-.66-3.35-.61-5.09.02-.88.2-1.77.73-2.59.26-.41.6-.84,1.05-1.22.45-.38,1-.74,1.66-1.07.63-.29,1.26-.49,1.86-.6.6-.11,1.19-.09,1.7.01,1.03.2,1.82.84,2.18,1.88.35,1.01.19,1.81-.13,2.45-.33.63-.84,1.04-1.29,1.23-.41.18-.95.31-1.47.23-.52-.08-1.02-.33-1.33-.96-.27-.54-.09-.98.19-1.21.28-.24.63-.31.69-.18-.05.27.19,1.26,1.12.84.66-.3.6-.95.37-1.52-.17-.41-.74-1.34-2.65-.46-.91.42-1.48,1.15-1.7,1.94-.21.81-.05,1.72.45,2.59.58,1.02,1.38,1.53,2.3,1.71.46.09.94.08,1.44-.02.51-.08,1.04-.24,1.58-.49.77-.32,1.31-.73,1.7-1.24.4-.48.65-1.06.83-1.69.21-.77.32-1.6.45-2.46.12-.86.26-1.74.55-2.57.29-.83.75-1.59,1.5-2.24.37-.33.83-.58,1.37-.82.54-.23,1.18-.42,1.91-.5,1.37-.2,2.65.03,3.56.53.92.53,1.47,1.37,1.49,2.47.02,1.06-.38,1.8-.88,2.28-.51.49-1.12.75-1.6.78-.45.02-1-.01-1.47-.24-.47-.23-.87-.64-.97-1.33-.18-1.2,1.24-1.34,1.27-1.06-.13.25-.21,1.25.81,1.15.72-.06.86-.72.82-1.32-.02-.23-.09-.59-.42-.88-.33-.29-.92-.52-1.96-.38-.5.07-.94.2-1.32.44-.37.24-.68.54-.9.89-.45.7-.58,1.6-.38,2.58.24,1.14.84,1.92,1.65,2.35.2.11.42.2.65.26.23.07.47.14.73.17.25.04.52.06.8.06.28,0,.56-.02.86-.03,1.65-.15,2.58-.89,3.32-2.01.89-1.29,1.44-3.08,2.5-4.47.53-.69,1.2-1.29,2.11-1.67.91-.34,2.07-.53,3.53-.24.34.06.67.14.98.23.31.11.6.23.88.37.55.28,1.02.6,1.37,1,.71.79.98,1.75.67,2.81-.31,1.02-.92,1.6-1.54,1.91-.63.29-1.3.36-1.77.25-.86-.22-2.06-.85-1.84-2.24.2-1.2,1.59-.9,1.53-.63-.2.2-.58,1.13.41,1.36.71.16,1.04-.43,1.19-1.01.05-.22.1-.59-.13-.97-.11-.19-.29-.38-.57-.55-.28-.17-.66-.33-1.17-.41-.5-.09-.96-.08-1.39.01-.42.09-.81.3-1.13.57-.65.53-1.05,1.35-1.16,2.35-.13,1.16.21,2.08.85,2.74.32.32.72.62,1.18.84.23.11.48.21.74.29.26.08.54.18.83.24.4.09.78.13,1.13.12.34,0,.67-.04.97-.12.61-.17,1.16-.5,1.67-.89,1.24-.96,2.33-2.5,3.76-3.48.72-.49,1.55-.88,2.53-.93.49-.03,1.02,0,1.6.13.57.15,1.18.38,1.84.72.6.33,1.13.73,1.57,1.15.44.42.77.91.99,1.38.45.95.39,1.96-.24,2.87-1.22,1.71-3,1.51-3.81,1.02-.39-.22-.8-.59-1.05-1.06-.24-.47-.33-1.01,0-1.64.28-.54.73-.64,1.09-.56.36.08.62.33.55.45-.24.12-.91.9-.02,1.41.63.36,1.12-.08,1.44-.59.24-.38.64-1.38-1.18-2.42-.88-.48-1.8-.53-2.57-.24-.78.32-1.42.97-1.84,1.88-.49,1.07-.43,2.02-.04,2.86.2.42.49.81.86,1.16.37.36.8.7,1.32,1,.71.43,1.36.63,2,.65.63.04,1.24-.09,1.86-.32.75-.28,1.49-.68,2.26-1.09.77-.4,1.56-.81,2.41-1.07.84-.25,1.72-.33,2.69-.1.48.11.96.33,1.47.63.25.15.51.33.77.53.25.21.5.45.76.72.24.25.46.51.65.77.19.26.35.54.49.81.28.55.47,1.08.52,1.61.11,1.06-.24,1.99-1.11,2.66-.84.64-1.68.76-2.37.64-.68-.13-1.26-.47-1.58-.84-.15-.17-.29-.37-.4-.6-.12-.23-.22-.47-.27-.72-.09-.51,0-1.07.51-1.56.87-.85,1.81.21,1.6.4-.13.02-.42.17-.59.4-.16.23-.21.55.12.94.48.55,1.1.27,1.56-.12.17-.15.43-.42.47-.86.02-.22-.01-.48-.14-.78-.06-.15-.15-.31-.26-.49-.12-.17-.27-.35-.45-.54-.35-.36-.73-.63-1.13-.81-.41-.16-.83-.23-1.25-.2-.83.05-1.64.47-2.31,1.21-.79.86-1.05,1.81-.93,2.72.07.45.22.91.46,1.37.24.46.57.9.96,1.35.27.31.55.56.84.76.28.21.56.36.86.47.6.22,1.23.28,1.87.26,1.58-.05,3.35-.66,5.09-.61.88.02,1.77.2,2.59.73.41.26.84.6,1.22,1.05.38.45.74,1,1.07,1.66.29.63.49,1.26.6,1.86.11.6.09,1.19-.01,1.7-.2,1.03-.84,1.82-1.88,2.18-1.01.35-1.81.19-2.45-.13-.63-.33-1.04-.84-1.23-1.29-.18-.41-.31-.95-.23-1.47.08-.52.33-1.02.96-1.33.54-.27.98-.09,1.21.19.24.28.31.63.18.69-.27-.05-1.26.19-.84,1.12.3.66.95.6,1.52.37.41-.17,1.34-.74.46-2.65-.42-.91-1.15-1.48-1.94-1.7-.81-.21-1.72-.05-2.59.45-1.02.58-1.53,1.38-1.71,2.3-.09.46-.08.94.02,1.44.08.51.24,1.04.49,1.58.32.77.73,1.31,1.24,1.7.48.4,1.06.65,1.69.83.77.21,1.6.32,2.46.45.86.12,1.74.26,2.57.55.83.29,1.59.75,2.24,1.5.33.37.58.83.82,1.37.23.54.42,1.18.5,1.91.2,1.37-.03,2.65-.53,3.56-.53.92-1.37,1.47-2.47,1.49-1.06.02-1.8-.38-2.28-.88-.49-.51-.75-1.12-.78-1.6-.02-.45.01-1,.24-1.47.23-.47.64-.87,1.33-.97,1.2-.18,1.34,1.24,1.06,1.27-.25-.13-1.25-.21-1.15.81.06.73.72.86,1.32.82.23-.02.59-.09.88-.42.29-.33.52-.92.38-1.96-.07-.5-.2-.94-.44-1.32-.24-.37-.54-.68-.89-.9-.7-.45-1.6-.58-2.58-.38-1.14.24-1.92.84-2.35,1.65-.11.2-.2.42-.26.65-.07.23-.14.47-.17.73-.04.25-.06.52-.06.8,0,.28.02.56.03.86.15,1.65.89,2.58,2.01,3.32ZM105.65,80.06c.34.03.63-.19.65-.49.02-.3-.23-.56-.57-.58-.34-.02-.63.2-.65.49s.23.55.57.58ZM102.99,90.77c.31.13.65.01.76-.27.11-.28-.05-.61-.37-.73-.31-.12-.66,0-.76.27-.11.27.06.6.36.73ZM97.13,100.13c.25.22.62.21.82-.01.2-.23.14-.59-.12-.81-.26-.21-.62-.2-.81.02-.19.22-.14.58.11.8ZM88.68,107.25c.18.29.52.39.78.23.26-.16.31-.53.13-.81-.18-.28-.53-.38-.78-.23-.24.16-.3.52-.13.81ZM78.45,111.4c.08.33.38.54.67.47.3-.06.46-.4.37-.73-.09-.33-.38-.52-.67-.46-.28.06-.45.38-.38.71ZM67.43,112.19c-.03.34.19.63.5.65.3.02.56-.23.58-.57.02-.34-.21-.63-.5-.65-.29-.02-.55.23-.58.57ZM56.71,109.58c-.13.31,0,.65.27.76s.61-.05.73-.37c.12-.31,0-.66-.27-.76-.27-.11-.6.06-.73.37ZM47.33,103.76c-.22.25-.21.62.02.82.23.2.6.13.81-.13.21-.27.19-.61-.03-.81-.22-.19-.58-.14-.8.11ZM40.17,95.34c-.29.17-.39.52-.22.78.16.26.53.31.81.13.28-.18.38-.53.22-.78-.16-.25-.52-.3-.81-.13ZM35.98,85.13c-.33.08-.54.38-.47.67.07.3.41.46.73.37.33-.09.52-.39.45-.67-.06-.28-.38-.45-.71-.38ZM35.16,73.82c-.34-.03-.63.19-.65.49-.02.3.23.56.57.58.34.02.63-.2.65-.49.02-.29-.23-.55-.57-.58ZM37.82,63.11c-.31-.13-.65-.01-.76.27-.11.28.05.61.37.73.31.12.66,0,.76-.27.11-.27-.06-.6-.37-.73ZM43.68,53.75c-.25-.22-.62-.21-.82.02-.2.23-.14.59.12.81.26.21.62.2.81-.02.19-.22.14-.58-.11-.8ZM52.13,46.63c-.18-.29-.52-.39-.78-.23-.26.16-.31.53-.13.81.18.28.53.38.78.23.24-.16.3-.52.13-.81ZM62.36,42.48c-.08-.33-.38-.54-.67-.47-.3.06-.46.4-.37.73.09.33.38.52.67.46.28-.06.45-.38.38-.71ZM73.38,41.68c.03-.34-.19-.63-.5-.65-.3-.02-.56.23-.58.57s.21.63.5.65c.29.02.55-.23.58-.57ZM84.1,44.3c.13-.31,0-.65-.27-.76-.28-.11-.61.05-.73.37s0,.66.27.76c.27.11.6-.06.73-.37ZM93.48,50.12c.22-.25.21-.62-.02-.82-.23-.2-.6-.13-.81.13-.21.27-.19.61.03.81.22.19.58.14.8-.11ZM100.64,58.54c.29-.17.39-.52.22-.78-.16-.26-.53-.31-.81-.13s-.38.53-.22.78c.16.25.52.3.81.13ZM104.83,68.75c.33-.08.54-.38.47-.67-.07-.3-.41-.46-.73-.37-.33.09-.52.39-.45.67.06.28.38.45.71.38Z"/>
    <path class="cls-2" d="M28.9,62.04c.32.11.48.49.36.83-.12.35-.47.54-.79.44-.32-.1-.48-.48-.36-.83.12-.36.48-.55.79-.44Z"/>
    <path class="cls-2" d="M26.35,75.6c.34.01.6.32.59.68,0,.36-.29.66-.63.66s-.6-.3-.59-.68c0-.38.29-.67.63-.66Z"/>
    <path class="cls-2" d="M35.55,49.95c.27.21.3.61.07.89-.22.29-.61.38-.88.18-.27-.2-.32-.61-.09-.91.23-.3.64-.37.9-.16Z"/>
    <path class="cls-2" d="M45.59,40.5c.19.28.1.68-.2.89-.3.21-.7.16-.9-.11s-.11-.67.2-.89c.31-.22.71-.17.9.11Z"/>
    <path class="cls-2" d="M58.07,34.61c.09.32-.12.67-.47.77-.35.11-.71-.05-.82-.37-.1-.32.1-.68.46-.79.36-.1.73.07.83.4Z"/>
    <path class="cls-2" d="M71.75,32.88c-.01.34-.32.6-.68.59-.36,0-.66-.29-.66-.63,0-.34.3-.6.68-.59.38,0,.67.29.66.63Z"/>
    <path class="cls-2" d="M85.3,35.44c-.11.32-.49.48-.83.36-.35-.12-.54-.47-.44-.79.1-.32.48-.48.83-.36.36.12.55.48.44.79Z"/>
    <path class="cls-2" d="M97.39,42.08c-.21.27-.61.3-.89.07-.29-.22-.38-.61-.18-.88.2-.27.61-.32.91-.09.3.23.37.64.16.9Z"/>
    <path class="cls-2" d="M106.85,52.12c-.28.19-.68.1-.89-.2-.21-.3-.16-.7.11-.9.27-.2.67-.11.89.2.22.31.17.71-.11.9Z"/>
    <path class="cls-2" d="M112.73,64.6c-.32.09-.67-.12-.77-.47-.11-.35.05-.71.37-.82.32-.1.68.1.79.46.1.36-.07.73-.4.83Z"/>
  </g>
  <g>
    <g>
      <path class="cls-1" d="M102.42,211.11c-4.83,0-9.5-.49-11.5-.7l-.43-.05c-15.02-1.55-24.82-5.33-24.56-7.88.16-1.54,1.19-3.71,2.47-4.49.33-.2.71-.35,1.09-.49.63-.24,1.29-.49,1.76-1.02.13-.14.24-.3.34-.46.12-.18.24-.36.39-.5.51-.49,1.26-.5,2.06-.52.69-.02,1.41-.03,2.03-.35.58-.3.98-.82,1.27-1.24.64-.95,1.1-2.04,1.34-3.17.06-.3.11-.62.03-.93-.09-.36-.33-.64-.54-.88-1.17-1.4-1.92-3.54-.93-5.08.19-.29.43-.55.71-.77l.27-.21-.28-.19c-.34-.23-.4-.32-.4-.33.07-1.57.36-3.17.88-4.71l.08-.24-.24-.07c-.27-.08-.57-.12-.93-.12-.26,0-.52.02-.79.04-.24.02-.47.04-.7.04-1.86,0-3.32-1.23-4.73-2.42-.28-.24-.56-.47-.84-.69-2.06-1.65-3.65-3.12-5-4.64-1.35-1.51-2.99-3.56-3.74-6-1.01-3.26-.35-6.79.29-10.2l.07-.4c.63-3.35,1.27-7.31,1.31-11.26,0-.99-.02-1.99-.05-2.98-.06-2.28-.13-4.65.29-6.91.26-1.4.75-2.73,1.57-4.21.11-.2.21-.4.31-.59.47-.92.87-1.72,1.89-2.08l.09-.03c.15-.05.31-.11.46-.21.36-.26.48-.68.59-1.05.09-.31.17-.6.37-.77.14-.12.35-.18.66-.19h.13c.46,0,.89.09,1.31.18.42.09.86.18,1.32.18.34,0,.65-.05.97-.15.58-.18,2.01-.72,2.72-1.7.2-.27.35-.55.5-.82.23-.42.45-.83.85-1.19.79-.72,1.76-1.34,2.99-1.89l.21-.09-.08-.22c-.2-.54-.4-1.09-.58-1.64l-.05-.16h-.17c-2.24-.08-3.81-.45-5.11-1.21-1.85-1.08-3.26-3.53-2.3-5.61.11-.24.25-.48.39-.72.44-.78.95-1.66.52-2.53-.43-.88-1.4-.98-2.33-1.09-.42-.05-.85-.1-1.22-.22-1.24-.4-1.89-1.76-1.99-2.92-.11-1.31.33-2.66.71-3.85l.11-.35-.37.03c-.32.02-.66.04-.99.04-1.6,0-2.61-.4-3.11-1.21-.43-.7-.45-1.96-.46-3.08,0-.56-.02-1.08-.07-1.52-.05-.36-.11-.86-.4-1.24-.15-.19-.33-.33-.51-.46-.06-.05-.13-.1-.19-.15-.62-.51-1.03-1.35-1.11-2.32-.13-1.46.27-3.79,1.88-4.22.15-.04.31-.06.48-.06.28,0,.58.05.88.1.31.05.64.1.97.1.21,0,.4-.02.58-.07l-.12-.48.2.05c-.28-.37-1.53-5.57-1.46-6.12.2-1.11,1.03-2.01,1.84-2.88l.4-.44c1.61-1.79,2.87-3.93,3.63-6.21.25-.75.46-1.52.66-2.27.49-1.85,1-3.76,2.19-5.24,1.39-1.73,3.5-2.64,5.39-3.29l.22-.08-.06-.22c-.37-1.4-.75-3.24-.36-5.03.26-1.19.84-2.31,1.37-3.25.92-1.66,2.23-3.6,4.22-3.86.2-.03.4-.03.6-.03.17,0,.33,0,.5,0,.17,0,.34.01.51.01.2,0,.39,0,.58-.03,1.69-.18,2.95-1.36,4.17-2.49.9-.84,1.83-1.7,2.92-2.16.58-.25,1.22-.37,1.88-.37,1.26,0,2.55.46,3.53,1.26,1.5,1.23,2.05,2.92,2.4,5.07l.06.38.32-.22c1.12-.76,2.44-1.54,3.73-1.54.47,0,.93.11,1.35.32.25.12.5.28.74.44.58.37,1.18.75,1.85.75.13,0,.27-.02.4-.05.33-.08.6-.25.87-.41.18-.11.36-.23.56-.3.16-.06.34-.09.53-.09.54,0,1.06.27,1.34.69l.15.23.21-.17c1.14-.91,2.68-1.21,4.03-1.47.75-.14,1.61-.31,2.43-.31.29,0,.56.02.83.06,1.29.2,2.47.96,3.45,1.67.66.48,1.19.91,1.61,1.44,1.13,1.44,1.29,3.66.41,5.53-.08.17-.16.33-.25.49-.26.49-.52,1-.61,1.57-.1.67.06,1.31.22,1.94.04.16.08.32.11.47.54,2.46-.14,4.45-1.33,6.69l-.05.09s.14.49.18.64c.75,2.48,1.89,4.9,3,7.24l.5,1.06c.97,2.07.52,5.25-.97,6.8-.43.45-.97.83-1.5,1.19-.79.55-1.6,1.11-2.11,1.96-.72,1.2-.63,2.61-.55,3.97.06.97.12,1.98-.12,2.9-.45,1.72-2.14,3.09-3.92,3.18h-.41s-.03.22-.03.22c-.42,3.39-1.57,6.64-2.69,9.78-.76,2.14-1.62,4.56-3.08,6.5l-.06.08v.1c.13,1.1.18,2.21.17,3.31v.2s.43.1.43.1c1.65.45,3.43.61,5.16.76.7.06,1.39.12,2.06.2,1.69.2,3.39,1.03,4.64,2.27.45.45.77,1.02,1.08,1.57.54.96,1.09,1.95,2.36,2.28.23.06.46.09.69.13.2.03.39.06.58.1.84.2,1.54.72,2.29,1.26.32.23.63.46.96.67,2.39,1.52,5.33,1.73,7.92,1.92l.95.09c1.79.63,3.49,1.7,4.87,3.09.45.45.93,1,1.08,1.67.17.74-.09,1.53-.31,2.06-1.09,2.71-3.2,4.68-5.43,6.78-1.58,1.48-3.21,3.01-4.43,4.81-1.2,1.77-1.99,3.78-2.75,5.72-.38.96-.77,1.95-1.2,2.89-2.52,5.53-6.93,9.18-11.6,13.04l-.87.72c-3.34,2.78-5.56,5.79-6.61,8.95-.34,1.02-.6,2.07-.85,3.09-.2.82-.41,1.67-.66,2.49-.17.57-.39,1.22-.82,1.69l-.13.14c-.13.13-.26.26-.36.44-.17.29-.2.62-.22.89l-.29,3.01c0,.1-.02.26-.09.32-.03.02-.07.04-.14.05l-.39.06.23.33c.49.7.63,1.67.37,2.53-.29.98-1.04,1.89-2.11,2.55-.14.09-.27.17-.38.3-.13.16-.19.34-.24.51-.12.36-.27.6-.43.84-.23.36-.47.74-.51,1.26-.06.77.14,1.7.52,2.42.8,1.51,2.38,2.28,3.91,3.02.29.14.57.28.85.42,1.75.89,3.98,2.47,4.68,4.91.47,1.66.23,3-.74,4.1-1.94,2.19-6.67,3.31-14.08,3.31h0Z"/>
      <path class="cls-3" d="M95.13,37.44v.49c1.21,0,2.44.44,3.37,1.21,1.44,1.18,1.97,2.82,2.31,4.92l.13.76.64-.44c1.09-.74,2.36-1.49,3.59-1.49.44,0,.85.09,1.24.29.23.12.47.27.72.43.61.39,1.24.79,1.99.79.15,0,.31-.02.46-.05.37-.09.67-.28.94-.44.18-.11.35-.22.52-.28.14-.05.28-.08.44-.08.46,0,.9.23,1.14.58l.3.45.42-.34c1.09-.88,2.6-1.16,3.93-1.42.78-.15,1.59-.3,2.38-.3.28,0,.54.02.79.06,1.24.19,2.39.93,3.35,1.63.65.47,1.16.89,1.56,1.4,1.07,1.37,1.23,3.49.38,5.27-.08.16-.16.32-.25.49-.27.51-.54,1.03-.63,1.65-.11.71.06,1.39.22,2.04.04.16.08.31.11.47.53,2.39-.14,4.33-1.31,6.52l-.09.17.05.19.02.07c.04.16.09.32.14.48.75,2.49,1.9,4.92,3.01,7.27l.5,1.06c.93,1.99.5,5.04-.92,6.53-.42.43-.92.79-1.46,1.16-.81.56-1.64,1.14-2.18,2.04-.76,1.27-.67,2.71-.59,4.11.06,1,.12,1.94-.11,2.82-.43,1.62-2.01,2.91-3.69,3-.05,0-.1,0-.19,0h-.43s-.05.43-.05.43c-.41,3.36-1.57,6.6-2.68,9.73-.75,2.12-1.61,4.52-3.05,6.43l-.12.16.02.19c.12,1.09.17,2.19.16,3.28l.04.41.39.09c.06.01.12.03.19.05,1.67.46,3.47.61,5.2.77.69.06,1.38.12,2.06.2,1.64.19,3.28.99,4.5,2.2.43.43.72.95,1.04,1.51.56,1,1.14,2.04,2.51,2.4.24.06.48.1.71.13.19.03.38.06.56.1.79.19,1.48.69,2.2,1.23.31.23.64.47.97.68,2.44,1.55,5.41,1.77,8.02,1.96l.89.09c1.79.63,3.44,1.68,4.78,3.03.42.43.88.94,1.01,1.55.12.51.02,1.12-.3,1.91-1.07,2.65-3.16,4.61-5.37,6.69-1.59,1.49-3.23,3.03-4.46,4.86-1.21,1.79-2.01,3.82-2.78,5.77-.37.95-.76,1.94-1.19,2.88-2.5,5.48-6.89,9.11-11.53,12.96l-.87.72c-3.37,2.81-5.62,5.85-6.69,9.06-.34,1.03-.6,2.09-.86,3.12-.2.82-.41,1.66-.65,2.47-.17.55-.37,1.17-.77,1.59-.04.04-.08.09-.12.13-.13.13-.28.29-.4.49-.19.34-.23.7-.26,1l-.28,2.87v.13s-.03.15-.04.15h0l-.79.12.45.65c.44.64.57,1.53.33,2.32-.27.92-.99,1.78-2.03,2.43-.13.08-.28.18-.42.33-.17.2-.23.42-.29.59l-.02.08c-.08.25-.22.47-.37.71-.24.37-.5.79-.55,1.37-.07.82.14,1.78.55,2.56.84,1.59,2.46,2.37,4.03,3.13.28.14.56.27.84.41,1.71.87,3.88,2.41,4.56,4.76.45,1.57.23,2.83-.68,3.87-1.86,2.11-6.67,3.22-13.9,3.22-4.81,0-9.48-.49-11.47-.7l-.43-.05c-14.65-1.51-24.58-5.22-24.34-7.61.15-1.48,1.13-3.56,2.35-4.3.31-.19.67-.32,1.04-.47.66-.25,1.35-.51,1.86-1.09.14-.16.26-.33.37-.49.12-.17.23-.34.36-.46.44-.42,1.11-.44,1.9-.45.72-.02,1.46-.03,2.14-.38.63-.33,1.06-.88,1.36-1.32.66-.98,1.14-2.1,1.38-3.26.07-.33.12-.68.03-1.04-.1-.41-.36-.71-.58-.98l-.06-.07c-1.06-1.26-1.77-3.28-.85-4.72.17-.27.39-.5.66-.71l.54-.42-.57-.38c-.15-.1-.23-.17-.28-.21.07-1.55.36-3.08.86-4.55l.16-.48-.49-.15c-.3-.09-.62-.13-1-.13-.27,0-.54.02-.81.04-.23.02-.46.04-.73.04-1.73,0-3.15-1.2-4.53-2.36-.28-.24-.56-.47-.84-.7-2.05-1.64-3.63-3.1-4.97-4.61-1.33-1.49-2.95-3.52-3.69-5.91-.99-3.2-.34-6.7.29-10.08l.07-.4c.63-3.36,1.27-7.34,1.31-11.3,0-1-.02-2.01-.05-2.99-.06-2.27-.13-4.62.28-6.86.25-1.37.74-2.68,1.54-4.13.11-.2.21-.4.31-.6.44-.88.83-1.63,1.75-1.96l.09-.03c.16-.05.35-.12.52-.24.44-.31.57-.8.68-1.19.08-.27.15-.53.29-.65.1-.08.27-.12.51-.13h.12c.43,0,.84.08,1.26.17.43.09.88.19,1.37.19.36,0,.7-.05,1.04-.16.6-.19,2.09-.75,2.85-1.79.21-.29.36-.57.51-.84.23-.42.44-.79.8-1.13.77-.71,1.72-1.31,2.92-1.85l.42-.19-.16-.43c-.22-.6-.41-1.14-.57-1.63l-.11-.33h-.35c-2.19-.08-3.73-.44-5-1.18-1.76-1.03-3.07-3.4-2.2-5.29.1-.23.24-.46.38-.7.48-.83,1.01-1.78.53-2.76-.49-1-1.57-1.12-2.53-1.22-.43-.05-.83-.09-1.17-.2-1.13-.37-1.73-1.62-1.82-2.71-.1-1.26.3-2.53.7-3.75l.22-.7-.73.05c-.37.03-.69.04-.98.04-1.5,0-2.45-.36-2.9-1.09-.39-.64-.41-1.87-.43-2.95,0-.56-.02-1.09-.07-1.54-.05-.39-.12-.93-.45-1.36-.17-.22-.37-.37-.55-.5-.06-.05-.12-.09-.18-.14-.57-.47-.94-1.25-1.02-2.15-.12-1.38.23-3.57,1.7-3.96.13-.03.26-.05.42-.05.26,0,.55.05.84.09.32.05.66.11,1.01.11.23,0,.44-.02.64-.07l-.12-.48v-.02s0-.47,0-.47c.2,0,.33.13.35.17-.33-.53-1.44-5.41-1.42-5.93.19-1.05,1-1.92,1.78-2.76.14-.15.27-.29.4-.44,1.63-1.81,2.91-3.99,3.68-6.3.25-.75.46-1.53.66-2.29.51-1.91.99-3.71,2.14-5.15,1.35-1.68,3.43-2.57,5.28-3.21l.43-.15-.12-.44c-.37-1.37-.74-3.17-.36-4.92.25-1.16.82-2.25,1.34-3.19.89-1.61,2.16-3.49,4.03-3.73.16-.02.34-.03.57-.03.16,0,.33,0,.49.01.17,0,.35.01.52.01.2,0,.41,0,.61-.03,1.77-.19,3.06-1.4,4.31-2.56.88-.82,1.8-1.67,2.85-2.12.55-.23,1.15-.35,1.79-.35v-.49M95.13,37.44c-.68,0-1.35.12-1.98.39-2.62,1.1-4.19,4.33-7.02,4.64-.18.02-.37.03-.56.03-.34,0-.67-.02-1.01-.02-.21,0-.42,0-.63.04-2.04.27-3.41,2.19-4.4,3.98-.58,1.05-1.14,2.14-1.39,3.32-.37,1.7-.09,3.44.37,5.15-2.1.73-4.13,1.67-5.5,3.37-1.71,2.13-2.02,5.01-2.89,7.59-.76,2.26-1.99,4.35-3.58,6.12-.94,1.04-2.05,2.07-2.3,3.44-.09.49,1.26,6.35,1.56,6.35,0,0,0,0,0,0-.17.04-.35.06-.52.06-.61,0-1.24-.2-1.85-.2-.18,0-.37.02-.55.07-1.79.48-2.2,2.94-2.06,4.48.08.94.47,1.89,1.2,2.49.22.18.48.33.66.56.24.31.3.73.35,1.12.17,1.31-.11,3.58.57,4.69.66,1.08,2,1.33,3.32,1.33.34,0,.69-.02,1.01-.04-.41,1.28-.83,2.6-.72,3.94s.88,2.72,2.16,3.14c1.19.39,2.85.06,3.41,1.18.49.99-.45,2.04-.91,3.04-.98,2.12.39,4.74,2.4,5.92,1.57.92,3.4,1.18,5.23,1.23.18.55.38,1.1.58,1.65-1.11.5-2.16,1.12-3.05,1.94-.69.63-.87,1.34-1.38,2.05-.57.79-1.7,1.33-2.6,1.61-.31.1-.61.14-.89.14-.89,0-1.68-.36-2.63-.36-.05,0-.09,0-.14,0-.29.01-.58.06-.8.24-.53.44-.37,1.41-.94,1.81-.15.1-.33.15-.5.21-1.34.48-1.71,1.67-2.33,2.79-.75,1.36-1.31,2.75-1.59,4.28-.6,3.27-.21,6.62-.24,9.94-.04,3.77-.61,7.51-1.3,11.22-.66,3.55-1.42,7.26-.36,10.71.71,2.3,2.19,4.29,3.8,6.09,1.53,1.71,3.24,3.24,5.03,4.67,1.68,1.34,3.39,3.17,5.67,3.17.02,0,.03,0,.05,0,.49,0,1-.08,1.49-.08.29,0,.58.03.86.11-.53,1.56-.83,3.19-.89,4.84,0,.11.21.3.5.49-.3.23-.56.5-.77.83-1.04,1.62-.35,3.83.88,5.3.22.26.46.53.55.86.07.27.02.55-.03.82-.23,1.1-.68,2.15-1.3,3.08-.31.46-.68.9-1.17,1.16-1.28.66-3.1-.08-4.15.92-.3.28-.48.67-.75.98-.71.79-1.89.92-2.79,1.47-1.38.84-2.42,3.1-2.59,4.68-.31,3.05,10.78,6.7,24.78,8.15,1.77.18,6.74.75,11.95.75,5.79,0,11.89-.7,14.27-3.39.96-1.09,1.31-2.5.79-4.33-.66-2.3-2.68-3.97-4.81-5.06-1.73-.88-3.75-1.62-4.65-3.33-.35-.66-.56-1.53-.5-2.29.06-.79.66-1.22.9-1.97.06-.18.1-.37.22-.51.09-.1.21-.17.32-.25,1.01-.63,1.88-1.55,2.22-2.69.27-.92.14-1.97-.4-2.75.1-.01.19-.04.27-.11.13-.12.16-.31.18-.48.1-1,.19-2,.29-3.01.03-.27.06-.56.19-.8.12-.2.3-.36.46-.53.45-.49.68-1.15.88-1.79.56-1.84.9-3.75,1.51-5.57,1.18-3.55,3.71-6.48,6.53-8.83,4.88-4.06,9.83-7.93,12.53-13.86,1.31-2.87,2.16-5.97,3.93-8.58,2.87-4.24,7.96-6.89,9.88-11.64.28-.7.49-1.47.32-2.21-.16-.7-.64-1.28-1.15-1.78-1.41-1.42-3.14-2.51-5.03-3.16l-.95-.09c-2.7-.2-5.52-.43-7.8-1.88-1.09-.69-2.06-1.66-3.32-1.97-.42-.1-.85-.12-1.27-.23-1.86-.48-2.05-2.51-3.33-3.78-1.28-1.27-2.99-2.13-4.79-2.34-2.36-.28-4.9-.33-7.19-.95-.08-.02-.16-.04-.24-.06.01-1.11-.04-2.23-.16-3.33,1.45-1.92,2.3-4.27,3.12-6.56,1.14-3.21,2.29-6.47,2.71-9.84.07,0,.14,0,.21,0,1.9-.1,3.66-1.53,4.14-3.37.59-2.23-.53-4.82.65-6.8.81-1.36,2.47-1.96,3.57-3.11,1.61-1.69,2-4.97,1.01-7.08-1.24-2.65-2.63-5.42-3.48-8.26-.05-.18-.1-.36-.15-.54,1.16-2.18,1.92-4.27,1.35-6.86-.17-.77-.44-1.54-.33-2.32.11-.72.53-1.34.84-1.99.88-1.84.82-4.19-.44-5.79-.46-.59-1.05-1.05-1.66-1.49-1.08-.78-2.25-1.51-3.56-1.72-.29-.05-.58-.06-.87-.06-.83,0-1.66.16-2.48.31-1.46.28-2.98.59-4.14,1.52-.34-.51-.94-.8-1.55-.8-.21,0-.42.04-.62.11-.49.19-.89.59-1.4.71-.12.03-.23.04-.34.04-.87,0-1.66-.75-2.49-1.16-.48-.24-.97-.34-1.46-.34-1.38,0-2.75.82-3.87,1.58-.33-2-.85-3.88-2.49-5.22-1.03-.84-2.36-1.32-3.69-1.32h0Z"/>
    </g>
    <path class="cls-3" d="M105.99,80.11c-.78-.75-1.89-1.01-2.93-1.17-1.29-.2-2.6-.25-3.89-.17-1.52.09-3.06.31-4.53.69-1.47.37-2.53,1.27-3.87,1.9-.32.15-.11.66.21.51,1.14-.53,2.1-1.36,3.31-1.75,1.43-.45,2.98-.63,4.47-.77,1.23-.12,2.45-.07,3.67.06,1.12.12,2.39.33,3.23,1.14.25.24.58-.2.33-.44Z"/>
    <path class="cls-3" d="M103.05,83.38c-.39-.77-1.39-1.28-2.18-1.47-2.58-.61-5.18.23-7.53,1.23-.33.14-.12.65.21.51,1.82-.77,3.64-1.41,5.64-1.36,1,.02,2,.12,2.8.76.11.09.83.73.4.72-.26-.01-.46.05-.65.22-.26.23.07.67.34.43.26-.23.65.02.91-.24.21-.21.19-.54.06-.79Z"/>
    <path class="cls-3" d="M101.1,84.77c-1.71.88-3.92.67-5.16-.9-.22-.28-.65.06-.43.34,1.39,1.74,3.87,2.06,5.81,1.07.31-.16.11-.67-.21-.51Z"/>
    <path class="cls-3" d="M118.2,85.48c-.06-.56-.52-1.08-.88-1.48-1.34-1.48-3.56-.95-5.27-.54-.34.08-.27.63.07.54,1.27-.31,3.15-.87,4.34-.05.3.2.54.51.76.79.14.17.26.36.35.55.13.26.02.21-.21.16-.35-.07-.41.47-.07.54.38.08.96.03.9-.51Z"/>
    <path class="cls-3" d="M116.01,86.7c-1.24.76-2.97-.29-3.75-1.28-.22-.28-.65.06-.43.34,1,1.25,3,2.3,4.52,1.37.3-.18-.04-.62-.34-.43Z"/>
    <path class="cls-3" d="M119.7,80.9c-2.13-1.52-5.1-1.63-7.28-.16-.29.2.04.63.34.43,1.97-1.33,4.7-1.21,6.62.17.29.21.62-.23.33-.44Z"/>
    <path class="cls-3" d="M112.66,92.4c-.24-1.61-.61-3.2-.84-4.81-.22-1.61-.14-3.25-.25-4.87-.02-.35-.57-.28-.54.07.09,1.37.06,2.74.17,4.11.1,1.37.45,2.71.68,4.06.24,1.43,1.09,4.73-1.11,5.06-.35.05-.28.6.07.54,2.01-.3,2.06-2.56,1.82-4.16Z"/>
    <path class="cls-3" d="M108.15,94.61c-1.04-.97-2.52-.37-3.27.65-.21.29.23.61.44.33.59-.8,1.68-1.31,2.51-.54.26.24.58-.2.33-.44Z"/>
    <path class="cls-3" d="M103.52,96.52c-.64-.66-1.11-1.38-1.18-2.31-.06-.9.39-1.81.82-2.57.17-.3-.26-.64-.44-.33-.49.85-.95,1.8-.93,2.8.02,1.09.55,1.98,1.29,2.74.24.25.68-.08.43-.34Z"/>
    <path class="cls-3" d="M113.07,102.33c-.75.03-1.42-.07-2.12-.37-.48-.21-.86-.51-1.37-.63-.47-.11-1.04.07-1.5.17-.68.15-1.24.12-1.87-.17-.38-.18-.73-.37-1.15-.44-.44-.07-.9.12-1.31.26-1.4.49-2.64.33-3.97-.26-.32-.14-.53.37-.2.51,1.05.47,2.09.73,3.23.56.6-.09,1.16-.34,1.74-.49.6-.15,1.14.22,1.66.46,1.13.52,2.16-.14,3.31-.05.35.03.71.31,1,.47.29.16.59.27.91.37.56.17,1.15.18,1.73.16.35-.01.28-.56-.07-.54Z"/>
    <path class="cls-3" d="M108.87,97.48c.12-.33-.39-.54-.51-.2-.15.41-.07.75.12,1.13.17.34.67,1.09.02,1.21-.8.15-1.71-.43-2.46-.64-.34-.09-.55.41-.2.51.9.25,1.86.84,2.83.66.4-.08.62-.38.7-.76.15-.7-.74-1.25-.5-1.91Z"/>
    <path class="cls-3" d="M108.76,104.7c-1.36-.03-2.63-.49-3.99-.13-.34.09-.27.63.07.54,1.31-.35,2.54.1,3.85.13.35,0,.42-.54.07-.54Z"/>
    <path class="cls-3" d="M107.81,111.99c-2.09,1.49-4.5,1.42-6.82.54-.33-.13-.54.38-.2.51,1.17.44,2.36.69,3.52.66-.17.12-.35.24-.53.36-1.39.94-2.91,1.65-4.58,1.86-.35.04-.28.59.07.54,1.37-.17,2.63-.66,3.83-1.34,1.15-.65,2.17-1.82,3.58-1.68.22.02.33-.18.29-.35.4-.18.8-.41,1.18-.68.29-.21-.05-.64-.34-.43Z"/>
    <path class="cls-3" d="M77.41,82.92c-.78-1.1-1.35-2.41-2.76-2.8-1.16-.32-2.05.45-2.21,1.57-.05.35.5.42.54.07.17-1.25,1.3-1.4,2.24-.78.8.52,1.21,1.53,1.75,2.28.21.29.64-.05.43-.34Z"/>
    <path class="cls-3" d="M78.85,87.68c-.18-.65-.58-1.18-1.06-1.64-.73-.7-1.29-1.23-1.21-2.32.03-.35-.52-.42-.54-.07-.09,1.23.47,1.92,1.32,2.73.42.39.78.85.95,1.4.06.2.28,1.42-.04,1.29-.62-.25-1.01-1.09-1.6-1.45-.62-.38-1.45.04-1.97-.51-.71-.74-1.04-2.63-.41-3.5.21-.29-.23-.62-.44-.33-.74,1.02-.42,2.76.16,3.78.33.58.8.89,1.47.9.69,0,1.12.18,1.59.7.28.3.54.65.91.86,1.19.67,1.06-1.22.89-1.84Z"/>
    <path class="cls-3" d="M87.74,111.19c-2.41-1.69-3.91-4.44-5.02-7.1-1.25-3.01-1.65-6.29-2.98-9.27-.06-.14-.22-.21-.36-.15-3.01,1.25-5.64-2.16-6.85-4.5-1.2-2.33-1.7-4.99-1.78-7.59-.01-.35-.55-.28-.54.07.09,2.94.73,5.97,2.25,8.52,1.38,2.3,3.95,5.1,6.87,4.1,1.27,2.97,1.71,6.23,2.95,9.22,1.12,2.69,2.69,5.44,5.12,7.14.29.2.62-.24.33-.44Z"/>
    <path class="cls-3" d="M89.55,75.2c-.97.77-2.2,1.03-3.19,1.74-.79.57-1.19,1.53-1.57,2.39-.8,1.83-2.21,3.86-4.46,3.6-.35-.04-.42.5-.07.54,1,.11,1.85-.16,2.58-.66-.2.71-.56,1.37-.75,2.09-.17.65-.1,1.29.09,1.93.47,1.59,2.53,3.52.95,5.08-.25.25.09.68.34.43,1.31-1.3.72-2.74-.06-4.17-.5-.92-.98-1.85-.84-2.92.13-.93.7-1.76.89-2.69.02-.09,0-.16-.05-.21.54-.51,1-1.14,1.38-1.8.53-.93.83-1.99,1.52-2.83.48-.58,1.25-.85,1.92-1.14.6-.26,1.15-.55,1.66-.95.28-.22-.06-.65-.34-.43Z"/>
    <path class="cls-3" d="M100.86,68.37c-1.59.19-3.08.81-4.65,1.11-1.24.23-2.2.6-3.12,1.48-2.03,1.93-4.37,3.36-7.27,2.82-.35-.06-.41.48-.07.54,2.58.48,4.81-.49,6.77-2.12.52-.43.98-.93,1.52-1.35.54-.42,1.18-.62,1.84-.75,1.69-.35,3.34-.97,5.06-1.18.35-.04.28-.59-.07-.54Z"/>
    <path class="cls-3" d="M109.09,64.24c-.65,1.19-1.09,2.31-2.17,3.18-.96.78-2.17,1.19-3.39,1.22-.35,0-.28.55.07.54,1.35-.03,2.59-.52,3.66-1.33,1.18-.89,1.66-2.16,2.34-3.41.17-.31-.34-.51-.51-.2Z"/>
    <path class="cls-3" d="M118.67,75.18c-.46-.95-.82-1.93-1.38-2.83-.7-1.12-1.81-1.98-2.71-2.93-1.59-1.66-3.21-3.66-3.56-6-.05-.35-.6-.28-.54.07.33,2.25,1.74,4.11,3.21,5.77.89,1,1.91,1.87,2.77,2.88.8.94,1.18,2.16,1.71,3.25.15.32.66.11.51-.21Z"/>
    <path class="cls-3" d="M119.57,77.14c-.1-.34-.61-.13-.51.21.64,2.05,1.15,4.42.54,6.54-.1.34.41.55.51.2.65-2.28.14-4.74-.54-6.95Z"/>
    <path class="cls-3" d="M118.44,86.38c-.25,1.02-.54,2-.45,3.06.03.35.58.28.54-.07-.09-1.01.21-1.95.45-2.92.08-.34-.46-.41-.54-.07Z"/>
    <path class="cls-3" d="M125.25,73.98c-.52,1.61-1.95,3.61-3.77,3.76-.35.03-.28.57.07.54,2.02-.17,3.63-2.31,4.21-4.1.11-.33-.4-.54-.51-.2Z"/>
    <path class="cls-3" d="M125,68.95c-.2-.29-.63.04-.43.34.81,1.21.1,2.89-.95,3.7-1.04.82-2.57.77-3.75.32-.33-.13-.54.38-.2.51,1.52.58,3.31.48,4.57-.63,1.14-1.01,1.63-2.93.76-4.24Z"/>
    <path class="cls-3" d="M127.66,71.9c0-1.61-.6-3.12-1.11-4.62-.61-1.77-1.22-3.54-2.04-5.22-.15-.32-.66-.11-.51.21.71,1.45,1.26,2.97,1.79,4.5.53,1.55,1.18,3.11,1.31,4.75.13,1.55-.33,3.26-1.32,4.47-.83,1.02-1.88,1.79-2.36,3.05-.13.33.38.54.51.2.53-1.39,1.82-2.22,2.65-3.4.78-1.1,1.08-2.61,1.08-3.94Z"/>
    <path class="cls-3" d="M123.03,82.04c.03-.35-.51-.42-.54-.07-.18,1.89-.07,3.78-.77,5.57-.13.33.38.53.51.2.72-1.84.62-3.77.81-5.71Z"/>
    <path class="cls-3" d="M67.07,81.36c-.61-1.1-3.1-4.21-.73-4.71.34-.07.27-.62-.07-.54-3.05.64-.54,3.97.29,5.46.17.31.68.1.51-.21Z"/>
    <path class="cls-3" d="M65.52,82.03c-.7-.28-1.42-.54-2.18-.51-.81.03-1.42.64-1.86,1.25-.21.29.23.62.44.33.39-.53.81-.96,1.49-1.03.64-.07,1.33.25,1.91.47.33.13.53-.38.2-.51Z"/>
    <path class="cls-3" d="M63.02,89.15c-.28-.82-.89-1.45-1.27-2.22-.51-1.01-.26-2.13.06-3.15.1-.34-.41-.54-.51-.2-.29.93-.54,1.92-.28,2.89.29,1.09,1.14,1.84,1.5,2.89.11.34.62.12.51-.21Z"/>
    <path class="cls-3" d="M68.11,87.55c-.21-.28-.65.05-.43.34.41.55.72,1.42.68,2.2-.06-.73-.34-1.41-1-1.96-.86-.73-2.15-.47-3.13-.23-.34.08-.27.63.07.54.84-.21,1.79-.44,2.59.02,1.1.63,1.02,2,.81,3.06-.04.23.27.41.44.25,1.18-1.06.83-3.07-.03-4.22Z"/>
    <path class="cls-3" d="M70.39,93.02c-1.34.86-2.98,1.31-4.39.34-.29-.2-.62.24-.33.44,1.63,1.12,3.49.66,5.06-.34.3-.19-.04-.62-.34-.43Z"/>
    <path class="cls-3" d="M77.63,104.97c-1-.72-2.46-1.31-2.99-2.49-.35-.77.92-1.25,1.41-1.6.57-.41,1-.94,1.32-1.56.16-.31-.35-.51-.51-.2-.48.92-1.28,1.45-2.13,1.99-.53.34-.87.8-.65,1.46.48,1.38,2.11,2.05,3.22,2.85.29.21.62-.23.33-.44Z"/>
    <path class="cls-3" d="M80.31,109.62c-.25-1.87-.83-3.67-1.08-5.54-.26-1.91-.36-3.85-.37-5.78,0-.35-.55-.28-.54.07.01,1.93.13,3.86.37,5.78.23,1.87.83,3.67,1.08,5.54.05.35.59.28.54-.07Z"/>
    <path class="cls-3" d="M85.07,128.92c-1.09-3.33-2.58-6.52-3.62-9.87-.11-.34-.61-.13-.51.21.96,3.09,2.3,6.06,3.37,9.11,1.01,2.9,2.15,5.96,1.82,9.08-.04.35.51.42.54.07.32-2.99-.69-5.81-1.6-8.6Z"/>
    <path class="cls-3" d="M92.77,136.91c-.93-2.03-1.57-4.16-2.01-6.35-.07-.35-.61-.27-.54.07.45,2.23,1.1,4.41,2.04,6.48.15.32.65.11.51-.21Z"/>
    <path class="cls-3" d="M101.66,128.72c-.72,2.05-1.67,3.99-2.91,5.77-.2.29.24.62.44.33,1.27-1.82,2.25-3.8,2.98-5.9.12-.33-.39-.54-.51-.2Z"/>
    <path class="cls-3" d="M112.43,109.08c-.01-.35-.56-.28-.54.07.08,2.12.43,4.24.23,6.37-.03.35.51.42.54.07.2-2.17-.15-4.34-.23-6.51Z"/>
    <path class="cls-3" d="M120.36,118.49c.06-.58.04-1.17-.24-1.69-.36-.66-1.18-.92-1.82-1.19-1.19-.49-2.47-.78-3.74-.93-.35-.04-.42.5-.07.54,1.07.13,2.11.36,3.13.72.9.31,2.04.63,2.2,1.7.11.75-.07,1.62-.1,2.38-.05,1.02-.25,1.8-.86,2.63-.5.68-1.08,1.28-1.57,1.97-.64.89-1.27,1.8-1.9,2.7-1.2,1.71-2.45,3.35-3.79,4.95-.63.75-1.27,1.48-2,2.12-.8.69-1.73,1.23-2.62,1.8-1.74,1.11-3.41,2.27-5.3,3.12-.92.41-1.89.77-2.88.94-1.01.17-2.05.16-3.05.37-1.31.27-2.87.79-3.74,1.86-.22.27.22.6.44.33,1.05-1.29,3.23-1.69,4.79-1.84.89-.09,1.77-.15,2.64-.39,1-.28,1.96-.7,2.89-1.16,1.76-.86,3.34-2.01,4.98-3.06.82-.52,1.64-1.04,2.37-1.68.71-.62,1.33-1.36,1.94-2.08,1.34-1.6,2.59-3.25,3.79-4.95.59-.83,1.17-1.67,1.75-2.5.54-.76,1.16-1.44,1.72-2.17,1.05-1.37.9-2.86,1.06-4.49Z"/>
    <path class="cls-3" d="M78.56,138.65c-.75-.49-.98-1.49-1.43-2.21-.64-1.02-1.34-1.98-1.78-3.11-.13-.33-.63-.12-.51.21.46,1.22,1.25,2.19,1.89,3.31.44.77.72,1.74,1.5,2.25.3.19.63-.25.33-.44Z"/>
    <path class="cls-3" d="M88.92,141.14c-2.52.3-4.99-.07-7.46-.57-.35-.07-.41.47-.07.54,2.51.51,5.04.87,7.6.57.35-.04.28-.59-.07-.54Z"/>
    <path class="cls-3" d="M67.15,133.61c-1.75-1.72-1.1-4.61.67-6.05.28-.22-.06-.66-.34-.43-2.09,1.68-2.68,4.95-.67,6.92.25.25.58-.2.33-.44Z"/>
    <path class="cls-3" d="M76.67,126.16c-.19-.3-.62.04-.43.34.94,1.44,1,3.85-.31,5.09-.25.24.08.68.34.43,1.55-1.46,1.52-4.15.41-5.86Z"/>
    <path class="cls-3" d="M72.93,126.24c-1.22-1.1-2.87-.46-4.07.34-.3.2.04.63.34.43,1.14-.76,2.6-1.29,3.63-.08.85,1,.69,2.38.25,3.51-.43,1.1-1.28,1.95-2.45,2.19-1.02.21-2.27.07-3.11-.58-.28-.22-.61.22-.33.44,1.05.82,2.6.92,3.85.61,1.43-.36,2.32-1.68,2.73-3.01.41-1.33.23-2.88-.85-3.85Z"/>
    <path class="cls-3" d="M79.84,119.61c-.95-.68-2.07-.3-3,.24-.56.33-1.11.69-1.61,1.1-.64.51-1.2,1.27-2.04,1.44-.32.06-.67.02-.98.16-.45.2-.77.62-1.32.42-.58-.21-1-.52-1.66-.42-1.03.16-1.15,1.48-1.1,2.29.02.35.57.28.54-.07-.03-.49-.02-1.01.27-1.43.41-.6,1.27-.07,1.74.15.36.17.75.13,1.1-.04.29-.14.46-.33.8-.42.32-.08.66-.03.98-.14,1.01-.37,1.7-1.29,2.56-1.9.89-.63,2.31-1.7,3.4-.93.29.2.62-.23.33-.44Z"/>
    <path class="cls-3" d="M80.18,123.33c-.61,1-1.41,1.86-2.08,2.82-.2.29.23.62.44.33.68-.95,1.47-1.82,2.08-2.82.18-.3-.25-.63-.44-.33Z"/>
    <path class="cls-3" d="M130.92,119.14c-1.31-.6-3.13-.59-4.13-1.72-.56-.63-.82-1.51-1.21-2.25-.33-.62-.79-1.13-1.36-1.53-1.22-.87-2.83-1.16-4.25-1.51-.95-.23-1.93-.4-2.91-.39-1.07.01-2.12.25-3.19.25-.35,0-.42.54-.07.54.86,0,1.7-.14,2.56-.22,1.1-.11,2.2.06,3.28.3,1.6.35,3.42.72,4.7,1.82,1.16,1,1.25,2.74,2.43,3.73,1.08.9,2.7.92,3.95,1.49.32.15.53-.36.2-.51Z"/>
    <path class="cls-3" d="M131.12,122.57c-.67-.42-1.3-.89-2.05-1.18-.75-.29-1.56-.22-2.34-.12-.64.08-2.45.5-2.38-.54.06-1.03.08-2.06.17-3.08.03-.35-.51-.42-.54-.07-.1,1.07-.12,2.15-.18,3.23-.04.6.29.91.85,1.05.92.24,1.92-.04,2.84-.12,1.31-.12,2.26.61,3.31,1.27.3.19.63-.25.33-.44Z"/>
    <path class="cls-3" d="M79.47,151.23c-1.94-1.89-3.6-4.02-5.14-6.25-1.53-2.22-2.78-4.52-3.42-7.15-.08-.34-.63-.27-.54.07.65,2.66,1.86,4.97,3.39,7.21,1.59,2.34,3.35,4.58,5.38,6.55.25.25.58-.2.33-.44Z"/>
    <path class="cls-3" d="M83,161.11c-1.94-1.26-4.06-2.25-5.87-3.72-1.9-1.55-2.91-3.62-3.94-5.79-.25-.53-.46-1.08-.55-1.67-.12-.71.14-1.46.31-2.14.23-.92.13-1.55-.41-2.32-1.41-2.01-2.08-4.35-2.4-6.76-.05-.35-.59-.28-.54.07.29,2.21.88,4.39,2.03,6.31.28.47.67.88.87,1.39.23.58-.13,1.4-.27,1.96-.3,1.2-.04,2.25.46,3.36.98,2.14,2.02,4.11,3.77,5.71,1.83,1.67,4.16,2.68,6.22,4.02.29.19.63-.25.33-.44Z"/>
    <path class="cls-3" d="M105.09,149.9c-3.08,3.15-7.06,6.18-11.56,6.75-.35.04-.28.59.07.54,4.65-.58,8.74-3.71,11.93-6.96.25-.25-.2-.58-.44-.33Z"/>
    <path class="cls-3" d="M106.17,158.32c-.89.09-1.78.69-2.51,1.17-.98.65-1.86,1.44-2.72,2.23-1.82,1.66-3.71,3.25-5.39,5.05-.24.26.2.58.44.33,1.42-1.51,2.99-2.87,4.53-4.25,1.37-1.23,2.7-2.55,4.34-3.44.36-.2.74-.35,1.13-.48.4-.13.49-.15.33.22-.23.51-.65.95-1.02,1.36-1.38,1.5-3.01,2.79-4.7,3.91-.3.2.04.63.34.43,1.89-1.25,3.68-2.72,5.17-4.43.44-.5,1.57-2.26.07-2.1Z"/>
    <path class="cls-3" d="M128.82,129.11c-3.73,4.18-6.48,9.17-10.34,13.22-1.85,1.94-4.25,3.17-6.24,4.94-.98.87-1.77,1.91-2.55,2.95-.88,1.16-1.67,2.39-2.28,3.71-.15.32.36.52.51.2.6-1.28,1.37-2.45,2.21-3.58.84-1.13,1.71-2.21,2.79-3.14,1.95-1.67,4.2-2.89,6.01-4.75,1.9-1.95,3.49-4.24,5.09-6.43,1.69-2.31,3.35-4.65,5.25-6.79.24-.26-.21-.59-.44-.33Z"/>
    <path class="cls-3" d="M124.41,144.71c-.03-.16-.22-.31-.38-.22-1.12.64-1.74,1.9-2.47,2.92-1.05,1.47-1.92,3.06-2.73,4.67-.16.32.35.52.51.2.75-1.5,1.57-2.96,2.52-4.34.58-.85,1.17-2.02,2.01-2.69-.1.86-.82,1.68-1.39,2.26-.25.25.09.68.34.43.81-.81,1.8-2,1.59-3.23Z"/>
    <path class="cls-3" d="M122.46,156.59c-1.03,1.13-1.92,2.39-3.13,3.35-1.2.95-2.63,1.61-4.07,2.11-2.67.93-5.63.92-8.13,2.37-.3.17-.1.68.21.51,2.55-1.47,5.61-1.49,8.35-2.45,1.42-.5,2.77-1.21,3.97-2.11,1.27-.95,2.18-2.29,3.23-3.46.24-.26-.2-.59-.44-.33Z"/>
    <path class="cls-3" d="M138.38,137.41c-1.31,1.56-2.91,2.84-4.28,4.34-1.33,1.45-2.42,3.12-3.55,4.73-.52.74-1.08,1.44-1.51,2.24-.54.99-1.02,2-1.64,2.95-1.19,1.81-2.43,3.57-3.85,5.21-2.83,3.27-5.88,6.41-9.03,9.37-1.45,1.36-2.88,2.74-4.4,4.01-.72.6-1.47,1.16-2.26,1.66-.86.54-1.79.89-2.72,1.28-1.65.7-2.8,2.07-4.1,3.25-1.4,1.28-2.93,2.34-4.75,2.92-.34.11-.12.61.21.51,1.66-.53,3.09-1.45,4.41-2.58,1.39-1.19,2.57-2.72,4.25-3.51.78-.36,1.6-.63,2.37-1.04.85-.45,1.63-1.02,2.39-1.61,1.55-1.21,2.94-2.61,4.38-3.93,3.11-2.85,6.01-5.93,8.85-9.04,1.46-1.6,2.75-3.28,3.97-5.06.55-.8,1.09-1.6,1.56-2.45.53-.98.99-1.98,1.65-2.88,1.26-1.71,2.4-3.52,3.76-5.15,1.46-1.74,3.28-3.13,4.74-4.87.23-.27-.21-.6-.44-.33Z"/>
    <path class="cls-3" d="M135.26,144.19c-1.93,2.17-3.36,4.69-4.76,7.21-1.47,2.64-3,5.16-5.01,7.42-2.14,2.41-4.64,4.55-7.02,6.72-2.24,2.05-4.53,4.14-7.32,5.43-.32.15-.11.66.21.51,2.75-1.27,5.03-3.3,7.25-5.32,2.37-2.16,4.82-4.3,7-6.66,2.03-2.19,3.6-4.67,5.05-7.27,1.5-2.69,2.99-5.4,5.04-7.71.23-.26-.21-.59-.44-.33Z"/>
    <path class="cls-3" d="M89.1,178.8c-2.55-.16-5.06-.58-7.52-1.26-2.29-.63-4.57-1.02-6.95-.92-.35.01-.28.56.07.54,2.58-.1,4.97.45,7.45,1.1,2.25.58,4.56.94,6.88,1.08.35.02.42-.52.07-.54Z"/>
    <path class="cls-3" d="M71.25,163.25c-.84-1.07-1.75-2.09-2.53-3.21-.81-1.17-1.35-2.51-1.81-3.85-.93-2.73-1.4-5.59-1.57-8.46-.02-.35-.57-.28-.54.07.18,2.93.68,5.81,1.61,8.6.44,1.32,1,2.6,1.75,3.77.78,1.22,1.77,2.28,2.66,3.41.22.28.65-.06.43-.34Z"/>
    <path class="cls-3" d="M77.9,177.78c-.34,1.18-.34,2.4-.45,3.61-.03.35.51.42.54.07.11-1.16.09-2.34.42-3.47.1-.34-.41-.54-.51-.2Z"/>
    <path class="cls-3" d="M93.58,184.86c-1.61-.44-3.26-.7-4.89-1.08-1.83-.43-3.63-.9-5.5-1.11-.35-.04-.42.51-.07.54,1.69.19,3.35.56,5,.98,1.74.45,3.52.7,5.26,1.17.34.09.55-.42.2-.51Z"/>
    <path class="cls-3" d="M96.42,181.97c-.17.67-.21,1.36-.28,2.04-.04.35.51.42.54.07.07-.68.11-1.37.28-2.04.09-.34-.46-.41-.54-.07Z"/>
    <path class="cls-3" d="M97.82,181.78c0-.35-.55-.42-.54-.07,0,.89-.04,1.79-.07,2.68-.01.35.53.42.54.07.03-.89.07-1.79.07-2.68Z"/>
    <path class="cls-3" d="M109,184.38c-3.39.06-6.74.57-10.13.61-.35,0-.28.55.07.54,3.39-.04,6.75-.55,10.13-.61.35,0,.28-.55-.07-.54Z"/>
    <path class="cls-3" d="M109.8,179.36c-2.44-.23-4.9-.14-7.34-.35-.35-.03-.42.52-.07.54,2.44.2,4.9.12,7.34.35.35.03.42-.51.07-.54Z"/>
    <path class="cls-3" d="M113.36,171.93c-1.06,1.36-1.64,2.97-2.16,4.6-.11.33.4.54.51.2.51-1.58,1.06-3.15,2.09-4.48.22-.28-.22-.61-.44-.33Z"/>
    <path class="cls-3" d="M78.78,182.46c.34-.1.13-.61-.21-.51-2.05.63-1.81,2.99-.66,4.37.23.27.66-.06.43-.34-.93-1.11-1.27-3,.43-3.52Z"/>
    <path class="cls-3" d="M99.84,191.64c-2.2-.18-4.41-.26-6.61-.49-1.65-.17-3.42-.33-5.02-.86,3.72.88,7.77.3,11.56.59.35.03.42-.52.07-.54-4.87-.37-10.18.72-14.64-1.78-.31-.17-.51.34-.2.51.61.34,1.23.61,1.86.83-.12.12-.14.37.07.47,1.83.88,3.98,1.06,5.97,1.3,2.28.27,4.58.33,6.87.52.35.03.42-.52.07-.54Z"/>
    <path class="cls-3" d="M110.51,185.78c.02-.35-.52-.42-.54-.07-.09,1.56-.9,2.86-2.3,3.59-.27.14-.15.54.09.54-.13.27-.28.52-.47.76-.22.28.22.61.44.33.3-.4.55-.83.71-1.3.02-.06.02-.12,0-.17,1.22-.85,1.97-2.15,2.06-3.69Z"/>
    <path class="cls-3" d="M80.1,202.49c-.56-.14-1.11-.29-1.66-.45.09-.13.08-.34-.11-.41-2.43-.99-5.25-1.74-6.69-4.13-.18-.3-.61.04-.43.34.77,1.28,1.92,2.12,3.21,2.77-.53-.24-1.04-.49-1.55-.78-.31-.17-.51.34-.2.51,2.31,1.29,4.82,2.05,7.38,2.7.34.09.41-.46.07-.54Z"/>
    <path class="cls-3" d="M102.81,204.3c-1.19.28-2.42.18-3.63.15-1.46-.03-2.9-.23-4.33-.5-.35-.07-.41.48-.07.54,1.43.27,2.87.47,4.33.5,1.26.03,2.54.14,3.77-.16.34-.08.27-.63-.07-.54Z"/>
    <path class="cls-3" d="M102.68,203.52c-1.9-.19-3.8-.21-5.71-.17-.35,0-.28.55.07.54,1.86-.04,3.72-.01,5.57.17.35.03.42-.51.07-.54Z"/>
    <path class="cls-3" d="M97.96,209.17c-1.96.22-3.9-.05-5.82-.4-.35-.06-.42.48-.07.54,1.97.36,3.96.63,5.96.4.35-.04.28-.58-.07-.54Z"/>
    <path class="cls-3" d="M105.06,53.12c-2.67-1.8-3.38-5.44-2.26-8.33.13-.33-.38-.54-.51-.2-1.21,3.11-.43,7.05,2.44,8.98.29.2.62-.24.33-.44Z"/>
    <path class="cls-3" d="M106.4,51.15c-.18-.45-.44-.86-.62-1.31-.28-.71-.11-1.55-.01-2.28.05-.35-.5-.42-.54-.07-.09.68-.17,1.34-.08,2.03.09.67.5,1.22.75,1.84.13.33.64.12.51-.21Z"/>
    <path class="cls-3" d="M109.83,51.99c-.77-1.57-1.6-3.3-1.17-5.09.08-.34-.46-.41-.54-.07-.45,1.87.39,3.72,1.2,5.36.16.32.66.11.51-.21Z"/>
    <path class="cls-3" d="M109.8,54.61c-1.69-.79-3.7-.85-5.48-.34-.34.1-.13.6.21.51,1.64-.47,3.51-.39,5.07.34.32.15.52-.36.2-.51Z"/>
    <path class="cls-3" d="M109.56,56.11c-.23-.27-.67.07-.43.34,1.12,1.29,1.52,2.95,1.38,4.63-.03.35.51.42.54.07.16-1.82-.27-3.64-1.49-5.04Z"/>
    <path class="cls-3" d="M107.05,59.98c-2.45,1.57-5.55-1.46-7-3.2-.23-.27-.66.06-.43.34,1.68,2.02,4.99,5.07,7.77,3.29.3-.19-.04-.62-.34-.43Z"/>
    <path class="cls-3" d="M103.05,64.46c-.11-.68-.28-1.31-.64-1.9-.43-.71-1.19-1.06-1.82-1.56-.31-.25-.55-.58-.82-.87-.35-.38-.82-.56-1.08-1.02-.43-.78-.39-2.01-.11-2.83.11-.33-.39-.54-.51-.2-.26.75-.27,1.56-.15,2.34.14.95.61,1.39,1.32,1.96.33.26.58.65.89.95.33.32.75.53,1.11.8.81.59,1.1,1.46,1.26,2.41.06.35.6.28.54-.07Z"/>
    <path class="cls-3" d="M93.1,64.92c-.09-.85-.62-1.44-1-2.17-.45-.88.37-1.94.46-2.86.08-.81-.24-1.58-.56-2.3-.14-.32-.65-.11-.51.21.36.82.61,1.56.46,2.47-.12.74-.58,1.32-.55,2.1.03.64.59,1.25.89,1.78.44.78.38,1.92.03,2.71-.14.32.37.53.51.2.3-.68.34-1.41.26-2.14Z"/>
    <path class="cls-3" d="M89.09,56.46c-.54.72-1.16,1.35-1.87,1.9-.55.42-1.23.56-1.67,1.13-.75.96-.6,2.69-.4,3.8.11.62.31,1.26.1,1.88-.22.64-.96,1.08-1.47,1.46-1.12.84-1.99,1.76-2.18,3.2-.05.35.5.42.54.07.22-1.69,1.55-2.44,2.75-3.43.82-.68,1.09-1.45.94-2.5-.17-1.27-.76-3.3.32-4.34.48-.47,1.23-.68,1.76-1.11.62-.49,1.15-1.09,1.62-1.72.21-.28-.23-.61-.44-.33Z"/>
    <path class="cls-3" d="M90.52,69.64c-3.11-.05-2.92-3.74-2.1-5.87.13-.33-.38-.54-.51-.2-.95,2.44-.96,6.56,2.54,6.61.35,0,.42-.54.07-.54Z"/>
    <path class="cls-3" d="M93.33,69.32c-.67.55-1.56-.12-1.73-.83-.15-.62.12-1.3.33-1.87.12-.33-.39-.54-.51-.2-.31.85-.68,1.99-.1,2.81.52.74,1.58,1.16,2.35.53.27-.23-.06-.66-.34-.43Z"/>
    <path class="cls-3" d="M122.55,64.83c-.21-2.07-3.24-2.98-2.93-5.21.05-.35-.49-.42-.54-.07-.27,1.91,1.64,3.11,2.58,4.5.71,1.06.09,1.98-.54,2.92-.41.6-.85,1.16-1.5,1.51-.68.37-1.5.42-2.26.42-.35,0-.28.55.07.54,1.47,0,2.73-.38,3.67-1.54.67-.82,1.56-1.96,1.45-3.08Z"/>
    <path class="cls-3" d="M115.5,51c-.49-.98-1.62-1.54-2.6-1.9-.73-.28-1.51-.43-2.29-.5.55-.33,1.03-.79,1.45-1.29.58-.71,1.13-1.76.91-2.7-.36-1.62-2.81-1.03-3.81-.52-.31.16-.11.67.21.51.72-.37,2.56-.99,3.04.04.34.74-.38,1.79-.79,2.34-.58.76-1.43,1.41-2.39,1.58-.35.06-.28.55.07.54,1.68-.04,3.42.28,4.84,1.23.78.52,1.33,1.41,1.03,2.36-.24.76-1.42,1.42-2.18,1.15-.33-.12-.54.39-.2.51.89.32,1.82-.16,2.45-.79.71-.7.69-1.71.27-2.56Z"/>
    <path class="cls-3" d="M113.4,51.68c-.57-.86-1.31-1.35-2.31-1.56-.35-.08-.41.47-.07.54.86.19,1.46.63,1.94,1.36.2.3.63-.04.43-.34Z"/>
    <path class="cls-3" d="M101.53,43.76c-1.49-2.39-3.44-4.54-6.17-5.48-1.17-.4-2.4-.44-3.54.06-.49.22-1.04.61-1.3,1.09-.35.67-.32,1.43-.55,2.14-.11.33.4.54.51.2.16-.47.21-.97.3-1.46.15-.78.73-1.24,1.42-1.55,1.15-.51,2.43-.21,3.54.23,2.35.94,4.05,2.99,5.35,5.09.19.3.62-.04.43-.34Z"/>
    <path class="cls-3" d="M93.89,44.75c-.66.92-2.78-.13-3,1.34-.22,1.42,1.26,1.56,2.01,2.35-.68.28-1.44.33-2.06-.15-.25-.19-.45-.38-.72-.52-.48-.26-1.11-.11-1.28-.82-.17-.68.52-1.53.97-1.94.55-.51,1.3-.71,2.03-.82.35-.05.28-.6-.07-.54-.91.14-1.82.43-2.48,1.1-.6.61-1.18,1.54-.96,2.43.08.32.33.62.61.78.21.11.41.17.64.22.46.1.74.41,1.1.68.77.59,1.96.35,2.75-.07.17-.09.21-.26.11-.42-.48-.8-2.42-1.12-2.09-2.27.14-.49,1.18-.37,1.56-.4.52-.04,1-.2,1.32-.63.21-.29-.23-.62-.44-.33Z"/>
    <path class="cls-3" d="M100.97,53.38c-1.74.59-3.31-1.37-5.07-.35-.6.35-1.07.87-1.56,1.35-.68.67-1.44,1.08-2.4,1.24-2.14.35-3.15-1.5-4.07-3.06-.79-1.34-1.71-2.4-3.29-2.71-.35-.07-.41.48-.07.54,1.82.35,2.58,1.92,3.44,3.37.88,1.48,2.06,2.52,3.87,2.41,1.77-.1,2.67-1.33,3.91-2.37,1.72-1.45,3.55.72,5.46.07.34-.11.12-.62-.21-.51Z"/>
    <path class="cls-3" d="M123.41,60.7c-.39-1.41-.67-3.21-1.93-4.14-.71-.53-1.53-.21-2.31-.06-1.2.24-2.29-1.11-3.19-1.71-.29-.19-.62.24-.33.44.77.51,1.43,1.17,2.26,1.6.35.18.73.24,1.12.24.62,0,1.18-.4,1.81-.22.76.22,1.14,1.18,1.4,1.84.28.72.44,1.48.65,2.22.1.34.6.13.51-.21Z"/>
    <path class="cls-3" d="M124.59,53.83c-1.2-2-4-.65-5.79-.78-.35-.03-.42.52-.07.54,1.49.11,3.02-.61,4.49-.19.37.11.65.34.87.65.15.21.52,1.09.01,1.02-.41-.06-.81-.28-1.2-.5-.23-.2-.48-.34-.81-.41-.31-.07-.42.41-.14.53.21.09.42.2.64.32.05.05.09.1.13.15.09.1.2.12.3.08.41.22.83.4,1.28.39.94,0,.56-1.35.29-1.8Z"/>
    <path class="cls-3" d="M125.54,49c-.51-.66-1.29-.83-2.01-.4-.38.23-.52.76-.9.96-.42.23-1.35-.57-1.67-.81-1.59-1.2-2.95-2.81-5.11-1.98-.33.13-.12.63.21.51,2.04-.78,3.39,1.05,4.86,2.12.52.38,1.25.87,1.92.66.27-.08.46-.4.61-.6.46-.6,1.13-.81,1.65-.13.21.28.65-.06.43-.34Z"/>
    <path class="cls-3" d="M85.34,58.39c-.44-.28-.93-.45-1.37-.73-.48-.3-.63-.9-.91-1.36-.12-.21-.25-.33-.38-.38,0-.04-.02-.07-.04-.11-.42-.67-.31-1.69-.09-2.41.23-.75.84-1.26,1.47-1.68.29-.2-.05-.63-.34-.43-.79.53-1.48,1.2-1.71,2.16-.2.84-.26,1.83.18,2.61-.07.06-.14.14-.2.23-1.1-1.46-2.56-2.74-2.81-4.64-.05-.35-.59-.28-.54.07.29,2.17,2,3.55,3.18,5.27.12.17.4.12.47-.07.04-.11.11-.62.31-.39.11.13.18.3.26.46.15.32.29.6.53.86.44.48,1.14.64,1.67.98.3.19.63-.25.33-.44Z"/>
  </g>
</svg>