<?xml version="1.0" encoding="UTF-8"?>
<svg id="Layer_1" xmlns="http://www.w3.org/2000/svg" viewBox="0 0 194.29 183.29">
  <defs>
    <style>
      .cls-1 {
        fill: #6cc5e7;
      }

      .cls-2 {
        fill: #fff;
        stroke: #0088ce;
        stroke-linecap: round;
        stroke-linejoin: round;
        stroke-width: 2.15px;
      }
    </style>
  </defs>
  <g>
    <path class="cls-1" d="M118.69,79.2c-.36-.13-.54-.55-.41-.94.13-.39.53-.61.9-.5.36.12.55.54.41.94-.14.4-.54.63-.9.5Z"/>
    <path class="cls-1" d="M121.58,63.88c-.38-.01-.68-.36-.67-.77.01-.41.33-.75.71-.75.38,0,.68.34.67.77-.01.43-.33.76-.71.75Z"/>
    <path class="cls-1" d="M111.18,92.86c-.3-.23-.34-.69-.08-1.01.25-.33.69-.43,1-.2.31.22.36.69.11,1.03-.26.34-.72.42-1.02.18Z"/>
    <path class="cls-1" d="M99.84,103.54c-.21-.31-.11-.76.22-1,.34-.24.79-.18,1.02.12s.13.76-.22,1c-.35.25-.8.19-1.02-.12Z"/>
    <path class="cls-1" d="M85.73,110.19c-.11-.37.13-.75.53-.87.4-.12.81.06.93.42.12.36-.11.77-.52.89-.41.12-.83-.08-.93-.45Z"/>
    <path class="cls-1" d="M70.27,112.15c.01-.38.36-.68.77-.67s.75.33.75.71c0,.38-.34.68-.77.67-.43-.01-.76-.33-.75-.71Z"/>
    <path class="cls-1" d="M54.96,109.26c.13-.36.55-.54.94-.41.39.13.61.53.5.9-.12.36-.54.55-.94.41-.4-.14-.63-.54-.5-.9Z"/>
    <path class="cls-1" d="M41.29,101.75c.23-.3.69-.34,1.01-.08.33.25.43.69.2,1-.22.31-.69.36-1.03.11-.34-.26-.42-.72-.18-1.02Z"/>
    <path class="cls-1" d="M30.61,90.41c.31-.21.76-.11,1,.22s.18.79-.12,1.02c-.31.22-.76.13-1-.22-.25-.35-.19-.8.12-1.02Z"/>
    <path class="cls-1" d="M23.96,76.3c.37-.11.75.13.87.53.12.4-.06.81-.42.93-.36.12-.77-.11-.89-.52-.12-.41.08-.83.45-.93Z"/>
    <path class="cls-1" d="M115.11,62.36h-5.26s-.01-.47-.04-1.35c0-.22,0-.47-.02-.73-.02-.27-.04-.56-.07-.88-.03-.32-.04-.66-.08-1.02-.05-.36-.1-.74-.15-1.15-.41-3.23-1.5-7.85-4.13-12.81-1.31-2.48-3.05-4.99-5.18-7.4-1.08-1.19-2.24-2.37-3.53-3.46-.62-.57-1.31-1.08-1.98-1.61-.34-.26-.7-.5-1.05-.76l-.53-.38-.55-.35c-2.93-1.92-6.24-3.47-9.75-4.54-1.76-.54-3.57-.91-5.41-1.21-1.84-.27-3.71-.38-5.59-.41-1.87.03-3.74.14-5.59.41-1.84.29-3.65.66-5.41,1.21-3.51,1.07-6.82,2.62-9.75,4.54l-.55.35-.53.38c-.35.26-.71.5-1.05.76-.67.54-1.36,1.04-1.98,1.61-1.29,1.09-2.45,2.27-3.53,3.46-2.13,2.41-3.87,4.92-5.18,7.4-2.63,4.96-3.73,9.58-4.13,12.81-.05.41-.1.79-.15,1.15-.04.36-.05.7-.08,1.02-.02.32-.05.61-.07.88-.02.27-.01.51-.02.73-.02.88-.04,1.35-.04,1.35,0,0,.01.47.04,1.35,0,.22,0,.47.02.73.02.27.04.56.07.88.03.32.04.66.08,1.02.05.36.1.74.15,1.15.41,3.23,1.5,7.85,4.13,12.81,1.31,2.48,3.05,4.99,5.18,7.4,1.08,1.19,2.24,2.37,3.53,3.46.62.57,1.31,1.08,1.98,1.61.34.26.7.5,1.05.76l.53.38.55.35c2.93,1.92,6.24,3.47,9.75,4.54,1.76.54,3.57.91,5.41,1.21,1.84.27,3.71.38,5.59.41,1.87-.03,3.74-.14,5.59-.41,1.84-.29,3.65-.66,5.41-1.21,3.51-1.07,6.82-2.62,9.75-4.54l.55-.35.53-.38c.35-.26.71-.5,1.05-.76.67-.54,1.36-1.04,1.98-1.61,1.29-1.09,2.45-2.27,3.53-3.46,2.13-2.41,3.87-4.92,5.18-7.4,2.63-4.96,3.73-9.58,4.13-12.81.05-.41.1-.79.15-1.15.04-.36.05-.7.08-1.02.02-.32.05-.61.07-.88.02-.27.01-.51.02-.73.02-.88.04-1.35.04-1.35h5.26c1.45,1,3.48,1.63,5.05,2.83.78.6,1.45,1.36,1.89,2.39.39,1.02.59,2.34.27,3.99-.07.38-.16.75-.26,1.11-.12.35-.26.68-.42.99-.32.62-.67,1.15-1.12,1.55-.9.81-1.98,1.11-3.17.75-1.15-.35-1.81-1.03-2.16-1.75-.33-.71-.41-1.47-.28-2,.25-.97.96-2.33,2.53-2.07,1.36.22,1.02,1.8.71,1.73-.23-.22-1.27-.66-1.53.47-.18.8.49,1.18,1.15,1.34.25.06.67.11,1.09-.14.21-.13.43-.33.62-.65.19-.32.37-.75.47-1.33.1-.56.09-1.09-.02-1.57-.11-.48-.34-.91-.64-1.28-.6-.73-1.53-1.18-2.65-1.31-1.31-.14-2.35.24-3.09.96-.36.36-.7.81-.95,1.33-.13.26-.24.54-.33.84-.1.3-.2.61-.27.93-.11.46-.14.88-.14,1.27,0,.39.04.75.14,1.1.19.69.56,1.31,1.01,1.89,1.09,1.41,2.83,2.63,3.93,4.25.56.82.99,1.75,1.05,2.86.03.55,0,1.16-.15,1.81-.16.64-.43,1.34-.82,2.08-.38.68-.83,1.28-1.3,1.78-.47.5-1.03.87-1.56,1.12-1.08.5-2.22.44-3.24-.27-1.94-1.37-1.71-3.39-1.15-4.31.25-.44.67-.91,1.19-1.18.53-.27,1.15-.37,1.85,0,.61.32.73.83.64,1.23-.09.4-.37.7-.51.62-.13-.27-1.01-1.03-1.59-.03-.4.72.09,1.27.67,1.63.43.27,1.56.73,2.73-1.33.55-1,.6-2.04.27-2.9-.36-.89-1.1-1.61-2.13-2.07-1.21-.55-2.28-.49-3.23-.04-.48.22-.92.55-1.31.97-.4.42-.79.91-1.13,1.5-.48.81-.72,1.53-.73,2.26-.05.71.1,1.4.36,2.1.32.85.77,1.68,1.23,2.55.46.87.92,1.76,1.21,2.72.28.95.37,1.95.12,3.04-.13.55-.37,1.09-.71,1.66-.17.28-.37.58-.6.87-.24.28-.51.57-.81.86-.28.27-.57.51-.86.74-.3.22-.61.4-.92.56-.62.31-1.22.53-1.82.59-1.2.12-2.25-.27-3.01-1.26-.73-.95-.86-1.9-.72-2.68.15-.77.53-1.43.95-1.78.19-.16.42-.32.68-.46.25-.14.53-.25.82-.3.58-.11,1.21,0,1.77.57.97.98-.24,2.05-.45,1.81-.02-.15-.19-.48-.45-.66-.26-.18-.62-.24-1.06.14-.62.54-.3,1.24.14,1.76.17.2.47.48.97.53.25.02.54-.02.88-.16.17-.07.35-.17.55-.29.19-.13.39-.3.6-.5.41-.39.72-.82.91-1.27.18-.46.26-.94.23-1.41-.06-.94-.53-1.85-1.37-2.61-.98-.89-2.04-1.19-3.07-1.05-.51.08-1.03.25-1.55.52-.51.27-1.01.65-1.53,1.08-.36.31-.64.63-.86.95-.24.31-.41.64-.54.97-.25.67-.32,1.39-.3,2.12.06,1.78.74,3.78.69,5.75-.03.99-.23,2-.82,2.93-.3.47-.67.94-1.18,1.37-.51.42-1.13.83-1.88,1.21-.71.32-1.42.55-2.1.68-.68.12-1.34.1-1.92-.01-1.17-.22-2.06-.95-2.47-2.12-.4-1.14-.22-2.05.15-2.77.37-.72.95-1.18,1.45-1.39.46-.21,1.07-.35,1.66-.26.59.1,1.15.37,1.5,1.09.3.61.11,1.1-.21,1.37-.31.27-.72.35-.78.21.05-.3-.22-1.43-1.27-.95-.75.34-.67,1.07-.42,1.71.19.47.84,1.51,2.99.52,1.03-.48,1.68-1.3,1.92-2.2.23-.92.05-1.95-.51-2.93-.66-1.16-1.56-1.73-2.59-1.93-.52-.1-1.06-.09-1.63.02-.58.09-1.18.27-1.79.55-.86.36-1.48.82-1.92,1.4-.45.54-.74,1.19-.94,1.91-.24.88-.37,1.81-.51,2.78-.14.97-.29,1.96-.62,2.91-.33.93-.85,1.79-1.7,2.53-.42.38-.94.66-1.55.92-.61.26-1.33.47-2.16.56-1.54.22-2.99-.03-4.02-.6-1.04-.59-1.66-1.55-1.69-2.79-.03-1.2.43-2.04,1-2.58.57-.55,1.27-.85,1.81-.89.5-.03,1.13.01,1.66.27.53.26.98.72,1.09,1.51.2,1.36-1.4,1.51-1.43,1.19.14-.28.24-1.41-.91-1.3-.82.06-.97.82-.93,1.49.02.25.1.67.47,1,.37.33,1.04.59,2.21.42.56-.08,1.07-.23,1.49-.49.42-.27.76-.61,1.02-1,.51-.79.66-1.81.43-2.92-.27-1.29-.95-2.16-1.87-2.66-.23-.12-.48-.22-.73-.3-.26-.08-.54-.15-.82-.2-.29-.04-.59-.07-.9-.07-.31,0-.64.02-.97.04-1.86.17-2.92,1.01-3.75,2.27-1,1.45-1.63,3.48-2.83,5.05-.6.78-1.36,1.45-2.39,1.89-1.02.39-2.34.59-3.99.27-.38-.07-.75-.16-1.11-.26-.35-.12-.68-.26-.99-.42-.62-.32-1.15-.67-1.55-1.12-.81-.9-1.11-1.98-.75-3.17.35-1.15,1.03-1.81,1.75-2.16.71-.33,1.47-.41,2-.28.97.25,2.33.96,2.07,2.53-.22,1.36-1.8,1.02-1.73.71.22-.23.66-1.27-.47-1.53-.8-.18-1.18.49-1.34,1.15-.06.25-.11.67.14,1.09.13.21.33.42.65.62.32.19.75.37,1.33.47.56.1,1.09.09,1.57-.02.48-.11.91-.34,1.28-.64.73-.6,1.18-1.53,1.31-2.65.14-1.31-.24-2.35-.96-3.09-.36-.36-.81-.7-1.33-.95-.26-.13-.54-.24-.84-.33-.3-.1-.61-.2-.93-.27-.46-.11-.88-.14-1.27-.14-.39,0-.75.04-1.1.14-.69.19-1.31.56-1.89,1.01-1.41,1.09-2.63,2.83-4.25,3.93-.82.56-1.75.99-2.86,1.05-.55.03-1.16,0-1.81-.15-.64-.16-1.34-.43-2.08-.82-.68-.38-1.28-.83-1.78-1.3-.5-.47-.87-1.03-1.12-1.56-.5-1.08-.44-2.22.27-3.24,1.37-1.94,3.39-1.71,4.31-1.15.44.25.91.67,1.18,1.19.27.53.37,1.15,0,1.85-.32.61-.83.73-1.23.64-.4-.09-.7-.37-.62-.51.27-.13,1.03-1.01.03-1.59-.72-.4-1.27.09-1.63.67-.27.43-.73,1.56,1.33,2.73,1,.55,2.04.6,2.9.27.89-.36,1.61-1.1,2.07-2.13.55-1.21.49-2.28.04-3.23-.22-.48-.55-.92-.97-1.31-.42-.4-.91-.79-1.5-1.13-.81-.48-1.53-.72-2.26-.73-.71-.05-1.4.1-2.1.36-.85.32-1.68.77-2.55,1.23-.87.46-1.76.92-2.72,1.21-.95.28-1.95.37-3.04.12-.55-.13-1.09-.37-1.66-.71-.28-.17-.57-.37-.87-.6-.28-.24-.57-.51-.86-.81-.27-.28-.51-.57-.74-.86-.22-.3-.4-.61-.56-.92-.31-.62-.53-1.22-.59-1.82-.12-1.2.27-2.25,1.26-3.01.95-.73,1.9-.86,2.68-.72.77.15,1.43.53,1.78.95.16.19.32.42.46.68.14.25.25.53.3.82.11.58,0,1.21-.57,1.77-.98.97-2.05-.24-1.81-.45.15-.02.48-.19.66-.45.18-.26.24-.62-.14-1.06-.54-.62-1.24-.3-1.76.14-.2.17-.48.47-.53.97-.02.25.02.54.16.88.07.17.17.35.29.55.13.19.3.39.5.6.39.41.82.72,1.27.91.46.18.94.26,1.41.23.94-.06,1.85-.53,2.61-1.37.89-.98,1.19-2.04,1.05-3.07-.08-.51-.25-1.03-.52-1.55-.27-.51-.65-1.01-1.08-1.53-.31-.36-.63-.64-.95-.86-.31-.24-.64-.41-.97-.54-.67-.25-1.39-.32-2.12-.3-1.78.06-3.78.74-5.75.69-.99-.03-2-.23-2.93-.82-.47-.3-.94-.67-1.37-1.18-.42-.51-.83-1.13-1.21-1.88-.32-.71-.55-1.42-.68-2.1-.12-.68-.1-1.34.01-1.92.22-1.17.95-2.06,2.12-2.47,1.14-.4,2.05-.22,2.77.15.72.37,1.18.95,1.39,1.45.21.46.35,1.07.26,1.66-.1.59-.37,1.15-1.09,1.5-.61.3-1.1.11-1.37-.21-.27-.31-.35-.72-.21-.78.3.05,1.43-.22.95-1.27-.34-.75-1.07-.67-1.71-.42-.47.19-1.51.84-.52,2.99.48,1.03,1.3,1.68,2.2,1.92.92.23,1.95.05,2.93-.51,1.16-.66,1.73-1.56,1.93-2.59.1-.52.09-1.06-.02-1.63-.09-.58-.27-1.18-.55-1.79-.36-.86-.82-1.48-1.4-1.92-.54-.45-1.19-.74-1.91-.94-.88-.24-1.81-.37-2.78-.51-.97-.14-1.96-.29-2.91-.62-.93-.33-1.79-.85-2.53-1.7-.38-.42-.66-.94-.92-1.55-.26-.61-.47-1.33-.56-2.16-.22-1.54.03-2.99.6-4.02.59-1.04,1.55-1.66,2.79-1.69,1.2-.03,2.04.43,2.58,1,.55.57.85,1.27.89,1.81.03.5-.01,1.13-.27,1.66-.26.53-.72.98-1.51,1.09-1.36.2-1.51-1.4-1.19-1.43.28.14,1.41.24,1.3-.91-.06-.82-.82-.97-1.49-.93-.25.02-.67.1-1,.47-.33.37-.59,1.04-.43,2.21.08.56.23,1.07.49,1.49.27.42.61.76,1,1.02.79.51,1.81.66,2.92.43,1.29-.27,2.16-.95,2.66-1.87.12-.23.22-.48.3-.73.08-.26.15-.54.2-.82.04-.29.07-.59.07-.9,0-.31-.02-.64-.04-.97-.17-1.86-1.01-2.92-2.27-3.75-1.45-1-3.48-1.63-5.05-2.83-.78-.6-1.45-1.36-1.89-2.39-.39-1.02-.59-2.34-.27-3.99.07-.38.16-.75.26-1.11.12-.35.26-.68.42-.99.32-.62.67-1.15,1.12-1.55.9-.81,1.98-1.11,3.17-.75,1.15.35,1.81,1.03,2.16,1.75.33.71.41,1.47.28,2-.25.97-.96,2.33-2.53,2.07-1.36-.22-1.02-1.8-.71-1.73.23.22,1.27.66,1.53-.46.18-.8-.49-1.18-1.15-1.34-.25-.06-.67-.11-1.09.14-.21.13-.42.33-.62.65-.19.32-.37.75-.47,1.33-.1.56-.09,1.09.02,1.57.11.48.34.91.64,1.28.6.73,1.53,1.18,2.65,1.31,1.31.14,2.35-.24,3.09-.96.36-.36.7-.81.95-1.33.13-.26.24-.54.33-.84.1-.3.2-.61.27-.93.11-.46.14-.88.14-1.27,0-.39-.04-.75-.14-1.1-.19-.69-.56-1.31-1.01-1.89-1.09-1.41-2.83-2.63-3.93-4.25-.56-.82-.99-1.75-1.05-2.86-.03-.55,0-1.16.15-1.81.16-.64.43-1.34.82-2.08.38-.68.83-1.28,1.3-1.78.47-.5,1.03-.87,1.56-1.12,1.08-.5,2.22-.44,3.24.27,1.94,1.37,1.71,3.39,1.15,4.31-.25.44-.67.91-1.19,1.18-.53.27-1.15.37-1.85,0-.61-.32-.73-.83-.64-1.23.09-.4.37-.7.51-.62.13.27,1.01,1.03,1.59.03.4-.72-.09-1.27-.67-1.63-.43-.27-1.56-.73-2.73,1.33-.55,1-.6,2.04-.27,2.9.36.89,1.1,1.61,2.13,2.07,1.21.55,2.28.49,3.23.04.48-.22.92-.55,1.31-.97.4-.42.79-.91,1.13-1.5.48-.81.72-1.53.73-2.26.05-.71-.1-1.4-.36-2.1-.32-.85-.77-1.68-1.23-2.55-.46-.87-.92-1.76-1.21-2.72-.28-.95-.37-1.95-.12-3.04.13-.55.37-1.09.71-1.66.17-.28.37-.57.6-.87.24-.28.51-.57.81-.86.28-.27.57-.51.86-.74.3-.22.61-.4.92-.56.62-.31,1.22-.53,1.82-.59,1.2-.12,2.25.27,3.01,1.26.73.95.86,1.9.72,2.68-.15.77-.53,1.43-.95,1.78-.19.16-.42.32-.68.46-.25.14-.53.25-.82.3-.58.11-1.21,0-1.77-.57-.97-.98.24-2.05.45-1.81.02.15.19.48.45.66.26.18.62.24,1.06-.14.62-.54.3-1.24-.14-1.76-.17-.2-.47-.48-.97-.53-.25-.02-.54.02-.88.16-.17.07-.35.17-.55.29-.19.13-.39.3-.6.5-.41.39-.72.82-.91,1.27-.18.46-.26.94-.23,1.41.06.94.53,1.85,1.37,2.61.98.89,2.04,1.19,3.07,1.05.51-.08,1.03-.25,1.55-.52.51-.27,1.01-.65,1.53-1.08.36-.31.64-.63.86-.95.24-.31.41-.64.54-.97.25-.67.32-1.39.3-2.12-.06-1.78-.74-3.78-.69-5.75.03-.99.23-2,.82-2.93.3-.47.67-.94,1.18-1.37.51-.42,1.13-.83,1.88-1.21.71-.32,1.42-.55,2.1-.68.68-.12,1.34-.1,1.92.01,1.17.22,2.06.95,2.47,2.12.4,1.14.22,2.05-.15,2.77-.37.72-.95,1.18-1.45,1.39-.46.21-1.07.35-1.66.26-.59-.1-1.15-.37-1.5-1.09-.3-.61-.11-1.1.21-1.37.31-.27.72-.35.78-.21-.05.3.22,1.43,1.27.95.75-.34.67-1.07.42-1.71-.19-.47-.84-1.51-2.99-.52-1.03.48-1.68,1.3-1.92,2.2-.23.92-.05,1.95.51,2.93.66,1.16,1.56,1.73,2.59,1.93.52.1,1.06.09,1.63-.02.58-.09,1.18-.27,1.79-.55.86-.36,1.48-.82,1.92-1.4.45-.54.74-1.19.94-1.91.24-.88.37-1.81.51-2.78.14-.97.29-1.96.62-2.91.33-.93.85-1.79,1.7-2.53.42-.38.94-.66,1.55-.92.61-.26,1.33-.47,2.16-.56,1.54-.22,2.99.03,4.02.6,1.04.59,1.66,1.55,1.69,2.79.03,1.2-.43,2.04-1,2.58-.57.55-1.27.85-1.81.89-.5.03-1.13-.01-1.66-.27-.53-.26-.98-.72-1.09-1.51-.2-1.36,1.4-1.51,1.43-1.19-.14.28-.24,1.41.91,1.3.82-.06.97-.82.93-1.49-.02-.25-.1-.67-.47-1-.37-.33-1.04-.59-2.21-.43-.56.08-1.07.23-1.49.49-.42.27-.76.61-1.02,1-.51.79-.66,1.81-.43,2.92.27,1.29.95,2.16,1.87,2.66.23.12.48.22.73.3.26.08.54.15.82.2.29.04.59.07.9.07.31,0,.64-.02.97-.04,1.86-.17,2.92-1.01,3.75-2.27,1-1.45,1.63-3.48,2.83-5.05.6-.78,1.36-1.45,2.39-1.89,1.02-.39,2.34-.59,3.99-.27.38.07.75.16,1.11.26.35.12.68.26.99.42.62.32,1.15.67,1.55,1.12.81.9,1.11,1.98.75,3.17-.35,1.15-1.03,1.81-1.75,2.16-.71.33-1.47.41-2,.28-.97-.25-2.33-.96-2.07-2.53.22-1.36,1.8-1.02,1.73-.71-.22.23-.66,1.27.47,1.53.8.18,1.18-.49,1.34-1.15.06-.25.11-.67-.14-1.09-.13-.21-.33-.42-.65-.62-.32-.19-.75-.37-1.33-.47-.56-.1-1.09-.09-1.57.02-.48.11-.91.34-1.28.64-.73.6-1.18,1.53-1.31,2.65-.14,1.31.24,2.35.96,3.09.36.36.81.7,1.33.95.26.13.54.24.84.33.3.1.61.2.93.27.46.11.88.14,1.27.14.39,0,.75-.04,1.1-.14.69-.19,1.31-.56,1.89-1.01,1.41-1.09,2.63-2.83,4.25-3.93.82-.56,1.75-.99,2.86-1.05.55-.03,1.16,0,1.81.15.64.16,1.34.43,2.08.82.68.38,1.28.83,1.78,1.3.5.47.87,1.03,1.12,1.56.5,1.08.44,2.22-.27,3.24-1.37,1.94-3.39,1.71-4.31,1.15-.44-.25-.91-.67-1.18-1.19-.27-.53-.37-1.15,0-1.85.32-.61.83-.73,1.23-.64.4.09.7.37.62.51-.27.13-1.03,1.01-.03,1.59.72.4,1.27-.09,1.63-.67.27-.43.73-1.56-1.33-2.73-1-.55-2.04-.6-2.9-.27-.89.36-1.61,1.1-2.07,2.13-.55,1.21-.49,2.28-.04,3.23.22.48.55.92.97,1.31.42.4.91.79,1.5,1.13.81.48,1.53.72,2.26.73.71.05,1.4-.1,2.1-.36.85-.32,1.68-.77,2.55-1.23.87-.46,1.76-.92,2.72-1.21.95-.28,1.95-.37,3.04-.12.55.13,1.09.37,1.66.71.28.17.58.37.87.6.28.24.57.51.86.81.27.28.51.57.74.86.22.3.4.61.56.92.31.62.53,1.22.59,1.82.12,1.2-.27,2.25-1.26,3.01-.95.73-1.9.86-2.68.72-.77-.15-1.43-.53-1.78-.95-.16-.19-.32-.42-.46-.68-.14-.25-.25-.53-.3-.82-.11-.58,0-1.21.57-1.77.98-.97,2.05.24,1.81.45-.15.02-.48.19-.66.45-.18.26-.24.62.14,1.06.54.62,1.24.3,1.76-.14.2-.17.48-.47.53-.97.02-.25-.02-.54-.16-.88-.07-.17-.17-.35-.29-.55-.13-.19-.3-.39-.5-.6-.39-.41-.82-.72-1.27-.91-.46-.18-.94-.26-1.41-.23-.94.06-1.85.53-2.61,1.37-.89.98-1.19,2.04-1.05,3.07.08.51.25,1.03.52,1.55.27.51.65,1.01,1.08,1.53.31.36.63.64.95.86.31.24.64.41.97.54.67.25,1.39.32,2.12.3,1.78-.06,3.78-.74,5.75-.69.99.03,2,.23,2.93.82.47.3.94.67,1.37,1.18.42.51.83,1.13,1.21,1.88.32.71.55,1.42.68,2.1.12.68.1,1.34-.01,1.92-.22,1.17-.95,2.06-2.12,2.47-1.14.4-2.05.22-2.77-.15-.72-.37-1.18-.95-1.39-1.45-.21-.46-.35-1.07-.26-1.66.1-.59.37-1.15,1.09-1.5.61-.3,1.1-.11,1.37.21.27.31.35.72.21.78-.3-.05-1.43.22-.95,1.27.34.75,1.07.67,1.71.42.47-.19,1.51-.84.52-2.99-.48-1.03-1.3-1.68-2.2-1.92-.92-.23-1.95-.05-2.93.51-1.16.66-1.73,1.56-1.93,2.59-.1.52-.09,1.06.02,1.63.09.58.27,1.18.55,1.79.36.86.82,1.48,1.4,1.92.54.45,1.19.74,1.91.94.88.24,1.81.37,2.78.51.97.14,1.96.29,2.91.62.93.33,1.79.85,2.53,1.7.38.42.66.94.92,1.55.26.61.47,1.33.56,2.16.22,1.54-.03,2.99-.6,4.02-.59,1.04-1.55,1.66-2.79,1.69-1.2.03-2.04-.43-2.58-1-.55-.57-.85-1.27-.89-1.81-.03-.5.01-1.13.27-1.66.26-.53.72-.98,1.51-1.09,1.36-.2,1.51,1.4,1.19,1.43-.28-.14-1.41-.24-1.3.91.06.82.82.97,1.49.93.25-.02.67-.1,1-.47.33-.37.59-1.04.43-2.21-.08-.56-.23-1.07-.49-1.49-.27-.42-.61-.76-1-1.02-.79-.51-1.81-.66-2.92-.43-1.29.27-2.16.95-2.66,1.87-.12.23-.22.48-.3.73-.08.26-.15.54-.2.82-.04.29-.07.59-.07.9,0,.31.02.64.04.97.17,1.86,1.01,2.92,2.27,3.75ZM111.62,65.88c.38.03.71-.22.73-.56.03-.34-.26-.64-.64-.66-.38-.02-.71.23-.73.56s.26.62.64.66ZM108.61,77.99c.35.15.74.01.86-.31.13-.32-.06-.69-.41-.83-.35-.14-.74,0-.86.31-.12.31.07.68.41.83ZM101.99,88.56c.29.25.7.24.93-.02.23-.26.16-.67-.13-.91-.29-.24-.7-.22-.92.02-.22.25-.16.65.13.9ZM92.44,96.61c.2.33.59.45.88.26.29-.19.36-.59.15-.91-.21-.32-.6-.43-.88-.25-.28.18-.34.59-.15.91ZM80.89,101.3c.09.37.43.61.76.53.34-.07.52-.45.42-.82-.1-.37-.43-.58-.76-.52-.32.07-.51.43-.43.8ZM68.43,102.2c-.03.38.22.71.56.73.34.03.64-.26.65-.64.02-.38-.23-.71-.56-.73-.33-.03-.62.26-.65.64ZM56.31,99.25c-.15.35,0,.74.31.86s.69-.06.82-.42c.14-.36,0-.74-.31-.86-.31-.12-.68.07-.82.42ZM45.71,92.66c-.25.29-.24.7.02.93.25.23.68.15.91-.14.24-.3.21-.69-.03-.91-.25-.22-.65-.16-.9.13ZM37.62,83.15c-.33.2-.44.59-.25.88.19.29.59.35.91.15.32-.21.43-.6.25-.88-.18-.28-.59-.34-.91-.14ZM32.89,71.61c-.37.09-.61.43-.53.76.08.33.46.52.83.42.37-.1.58-.44.51-.76-.07-.32-.43-.51-.8-.42ZM31.96,58.84c-.38-.03-.71.22-.73.56-.03.34.26.64.64.66.38.02.71-.23.73-.56.03-.33-.26-.62-.64-.66ZM34.97,46.73c-.35-.15-.74-.01-.86.31-.13.32.06.69.41.83.35.14.74,0,.86-.31.12-.31-.07-.68-.41-.83ZM41.59,36.16c-.29-.25-.7-.24-.93.02-.23.26-.16.67.13.91.29.24.7.22.92-.02.22-.25.16-.65-.13-.9ZM51.14,28.11c-.2-.33-.59-.45-.88-.26-.29.19-.36.59-.15.91.21.32.6.43.88.25.28-.18.34-.59.15-.91ZM62.7,23.42c-.09-.37-.43-.61-.76-.53-.34.07-.52.45-.42.82.1.37.43.58.76.52.32-.07.51-.43.43-.8ZM75.15,22.52c.03-.38-.22-.71-.56-.73-.34-.03-.64.26-.65.64-.02.38.23.71.56.73.33.03.62-.26.66-.64ZM87.27,25.47c.15-.35,0-.74-.31-.86-.32-.13-.69.06-.82.42s0,.74.31.86c.31.12.68-.07.82-.42ZM97.87,32.06c.25-.29.24-.7-.02-.93-.25-.23-.68-.15-.91.14-.24.3-.21.69.03.91.25.22.65.16.9-.13ZM105.96,41.57c.33-.2.44-.59.25-.88-.19-.29-.59-.35-.91-.15s-.43.6-.25.88c.18.28.59.34.91.14ZM110.69,53.11c.37-.09.61-.43.53-.76-.08-.33-.46-.52-.83-.42-.37.1-.58.44-.51.76.07.32.43.51.8.42Z"/>
    <path class="cls-1" d="M24.89,45.52c.36.13.54.55.41.94-.13.39-.53.61-.9.5-.36-.12-.55-.54-.41-.94.14-.4.54-.63.9-.5Z"/>
    <path class="cls-1" d="M22,60.84c.38.01.68.36.67.77-.01.41-.33.75-.71.75s-.68-.34-.67-.77c.01-.43.33-.76.71-.75Z"/>
    <path class="cls-1" d="M32.4,31.86c.3.23.34.69.08,1.01-.25.33-.69.43-1,.2-.31-.22-.36-.69-.11-1.03.26-.34.72-.42,1.02-.18Z"/>
    <path class="cls-1" d="M43.74,21.18c.21.31.11.76-.22,1-.34.24-.79.18-1.02-.12s-.13-.76.22-1c.35-.25.8-.19,1.02.12Z"/>
    <path class="cls-1" d="M57.85,14.53c.11.37-.13.75-.53.87-.4.12-.81-.06-.92-.42-.12-.36.11-.77.52-.89.41-.12.83.08.93.45Z"/>
    <path class="cls-1" d="M73.31,12.57c-.01.38-.36.68-.77.67-.41-.01-.75-.33-.75-.71,0-.38.34-.68.77-.67.43.01.76.33.75.71Z"/>
    <path class="cls-1" d="M88.63,15.46c-.13.36-.55.54-.94.41-.39-.13-.61-.53-.5-.9.12-.36.54-.55.94-.41.4.14.63.54.5.9Z"/>
    <path class="cls-1" d="M102.29,22.97c-.23.3-.69.34-1.01.08-.33-.25-.43-.69-.2-1,.22-.31.69-.36,1.03-.11.34.26.42.72.18,1.02Z"/>
    <path class="cls-1" d="M112.97,34.31c-.31.21-.76.11-1-.22-.24-.34-.18-.79.12-1.02.31-.22.76-.13,1,.22.25.35.19.8-.12,1.02Z"/>
    <path class="cls-1" d="M119.62,48.42c-.37.11-.75-.13-.87-.53-.12-.4.06-.81.42-.92.36-.12.77.11.89.52.12.41-.08.83-.45.93Z"/>
  </g>
  <g>
    <path class="cls-2" d="M70.08,148.54c-1.5,3.73-5.75,5.55-9.48,4.05h0c-3.74-1.5-5.55-5.75-4.05-9.48l14.61-45.72c1.5-3.74,8.98-4.25,12.72-2.75h0c3.73,1.5,5.55,5.74,4.05,9.48l-17.84,44.42Z"/>
    <path class="cls-2" d="M152.11,104.76h10.91c4.84,0,8.76,3.93,8.76,8.76v10.92c0,4.84-3.93,8.76-8.76,8.76h-10.91c-4.84,0-8.76-3.93-8.76-8.76v-10.91c0-4.84,3.93-8.76,8.76-8.76Z" transform="translate(-11.58 220.85) rotate(-68.11)"/>
    <path class="cls-2" d="M66.33,70.3h10.91c4.84,0,8.76,3.93,8.76,8.76v10.92c0,4.84-3.93,8.76-8.76,8.76h-10.91c-4.84,0-8.76-3.93-8.76-8.76v-10.92c0-4.84,3.93-8.76,8.76-8.76Z" transform="translate(-33.41 119.64) rotate(-68.11)"/>
    <path class="cls-2" d="M175.65,71.78c-18.79,13.92-41.86,8.74-46.85,7.39l-22.39-9-19.48,48.48,21.45,8.62-.04.09s25.18,12.23,29.63,38.22c.07.39,16.1-40,18.84-46.9,2.8-6.88,19.16-47.14,18.84-46.9Z"/>
    <path class="cls-2" d="M112.48,72.66l-10.57-4.24c-13.42-5.39-28.66,1.12-34.05,14.53-5.39,13.41,1.12,28.66,14.53,34.05l10.57,4.24,19.52-48.58Z"/>
    <path class="cls-2" d="M142.78,168.52c-.73,1.82-2.8,2.71-4.62,1.97h0c-1.82-.73-2.71-2.8-1.98-4.63l38.38-95.53c.73-1.82,2.8-2.7,4.63-1.97h0c1.82.73,2.71,2.8,1.97,4.62l-38.38,95.53Z"/>
  </g>
</svg>