<?xml version="1.0" encoding="UTF-8"?>
<svg id="Layer_1" xmlns="http://www.w3.org/2000/svg" viewBox="0 0 214.59 191.74">
  <defs>
    <style>
      .cls-1 {
        fill: #6cc5e7;
      }
    </style>
  </defs>
  <path class="cls-1" d="M110.58,186.06c48.85-.53,88.92-40.13,88.97-90,.05-49.92-40.3-90.29-90.38-90.15-49.6.13-89.73,40.34-89.79,90.03,0,49.81,40.41,90.68,91.2,90.12ZM109.48,8.96c47.78.02,86.57,38.45,87.02,86.18.46,48.48-38.6,87.8-86.89,87.87-47.91.07-86.64-38.43-87.16-86.05C21.93,48.42,61.04,8.99,109.48,8.96Z"/>
  <path class="cls-1" d="M50.83,142.82c.83-.67,1.67-1.31,2.51-1.96.8-.62,1.61-1.25,2.45-1.89,3.4,4.29,7.19,7.96,11.38,11.25-.86,1.13-1.65,2.16-2.6,3.41-2.65-2.47-5.18-4.82-7.68-7.19-.89-.84-1.75-.92-2.64-.1-1.6,1.48-3.17,3-4.76,4.49-.98.92-1.09,1.63-.17,2.6,1.66,1.75,3.34,3.49,5.13,5.1,1.54,1.37,3.22,2.59,4.89,3.81,1.97,1.44,3.99,2.82,6,4.21.76.52,1.52,1.05,2.32,1.5,1.06.6,2.02.29,2.61-.74.54-.95,1.12-1.88,1.65-2.84.9-1.64,1.76-3.3,2.65-4.94.58-1.08,1.18-2.15,1.79-3.26,4.74,2.55,9.63,4.68,14.92,6.03-.37,1.28-.73,2.55-1.12,3.93-1.69-.49-3.28-.86-4.82-1.41-1.76-.63-3.46-1.43-5.2-2.12-1.01-.4-1.7-.15-2.16.8-1.03,2.15-2.04,4.32-3.03,6.49-.3.66-.26,1.36.45,1.74,1.4.73,2.78,1.57,4.27,2.03,4.56,1.42,9.15,2.75,13.77,3.98,1.63.44,3.36.53,5.05.72,1.25.14,2.07-.38,2.17-1.31.27-2.7.53-5.4.79-8.09.15-1.54.32-3.07.48-4.66,5.42.59,10.71.55,16.09-.12.18,1.36.35,2.66.52,4.01-.42.04-.73.09-1.04.11-3.14.13-6.28.26-9.43.39-1.16.05-1.79.69-1.85,1.85-.1,2.22-.2,4.44-.3,6.66-.04.91.33,1.49,1.19,1.76.38.12.79.14,1.19.14,4.6.1,9.18-.2,13.72-.97,3-.51,5.99-1.15,8.96-1.84,1.32-.3,1.69-1.15,1.33-2.4-1.1-3.79-2.2-7.58-3.3-11.37-.05-.18-.09-.37-.13-.54,5.08-1.7,10.01-3.59,14.63-6.35.7,1.19,1.38,2.34,2.11,3.58-1.63.86-3.18,1.74-4.79,2.51-1.61.77-3.28,1.41-4.89,2.16-.95.44-1.2,1.17-.85,2.15.74,2.09,1.48,4.18,2.23,6.26.44,1.22,1.43,1.67,2.6,1.14,2.8-1.27,5.59-2.57,8.37-3.89.7-.33,1.34-.78,2.01-1.18,2.07-1.24,4.16-2.43,6.19-3.74,1.35-.87,2.6-1.9,3.89-2.87.72-.54.87-1.58.31-2.3-.75-.98-1.52-1.95-2.3-2.9-1.55-1.89-3.11-3.77-4.66-5.66-.29-.36-.6-.71-.8-1.12-.09-.18-.02-.58.13-.72,1.13-1.06,2.34-2.04,3.45-3.13,1.9-1.88,3.75-3.8,5.58-5.74.63-.66,1.15-1.42,1.76-2.18,1.11.84,2.16,1.63,3.26,2.46-.64.81-1.18,1.59-1.82,2.29-1.77,1.94-3.58,3.84-5.36,5.76-.75.82-.76,1.49-.02,2.29,1.55,1.66,3.11,3.31,4.69,4.94.91.94,1.61.96,2.61.06.87-.79,1.69-1.63,2.49-2.49,1.54-1.66,3.16-3.27,4.55-5.06,1.88-2.43,3.6-4.99,5.36-7.51.69-.99,1.35-2.01,1.96-3.05.73-1.25.42-2.25-.82-2.94-2.89-1.61-5.77-3.24-8.67-4.83-.69-.38-1.44-.67-2.21-1.02,2.54-4.85,4.71-9.73,5.99-15.04,1.34.39,2.63.75,3.98,1.14-.55,1.83-1.02,3.58-1.62,5.29-.55,1.58-1.26,3.1-1.87,4.65-.44,1.11-.18,1.79.85,2.27,2.03.95,4.1,1.83,6.11,2.84,1.15.58,2.01.16,2.57-1.02.58-1.22,1.18-2.46,1.57-3.74,1.26-4.07,2.52-8.15,3.59-12.27.53-2.05.7-4.21.95-6.32.18-1.54-.4-2.19-1.9-2.32-2.16-.18-4.32-.34-6.47-.55-1.88-.18-3.76-.42-5.57-.62.09-2.69.27-5.25.25-7.81-.02-2.58-.23-5.16-.35-7.82,1.25-.16,2.52-.31,3.86-.48.05.32.12.57.13.82.13,3,.26,5.99.37,8.99.04,1.17.61,1.9,1.63,1.95,2.28.11,4.56.22,6.84.3,1.15.04,1.82-.57,1.94-1.73.03-.26.02-.52.03-.78.1-6.08-.64-12.09-1.71-18.07-.25-1.38-.65-2.75-1.08-4.09-.33-1.04-1.06-1.51-1.86-1.29-3.14.87-6.27,1.77-9.4,2.66-1.04.29-2.07.6-3.04.88-1.62-5.19-3.59-10.09-6.27-14.7,1.2-.7,2.33-1.36,3.54-2.06.64,1.14,1.34,2.24,1.9,3.4.92,1.95,1.76,3.94,2.62,5.92.56,1.28,1.21,1.59,2.51,1.13,2.01-.7,4.02-1.41,6.03-2.12,1.25-.44,1.71-1.35,1.21-2.58-.8-1.97-1.59-3.96-2.51-5.87-.99-2.04-2.01-4.09-3.23-6-1.89-2.96-3.94-5.8-5.95-8.68-.52-.75-1.48-.86-2.21-.32-.73.55-1.45,1.12-2.16,1.69-2.19,1.78-4.37,3.57-6.56,5.34-.42.34-.9.6-1.38.93-3.37-4.19-7.12-7.89-11.34-11.18.85-1.12,1.64-2.16,2.44-3.23.69.5,1.32.87,1.84,1.35,2.05,1.9,4.08,3.83,6.1,5.75.74.71,1.71.76,2.45.06,1.6-1.49,3.19-2.98,4.77-4.49,1.1-1.05,1.13-1.77.09-2.87-.97-1.02-1.99-1.98-2.99-2.97-.65-.65-1.26-1.36-1.97-1.94-1.58-1.29-3.19-2.54-4.83-3.75-2.02-1.48-4.09-2.89-6.14-4.31-.71-.49-1.42-.98-2.18-1.41-1.16-.66-2.08-.38-2.73.78-1.2,2.16-2.4,4.33-3.59,6.49-.82,1.48-1.63,2.95-2.46,4.45-4.76-2.53-9.63-4.7-14.93-6.01.39-1.32.76-2.6,1.15-3.92,1.66.47,3.24.83,4.75,1.37,1.71.61,3.36,1.37,5.04,2.07,1.27.53,1.93.28,2.51-.96.9-1.9,1.78-3.81,2.66-5.71.68-1.47.42-2.2-1.07-2.88-1.23-.56-2.46-1.18-3.74-1.57-4.07-1.26-8.15-2.52-12.27-3.6-2.02-.53-4.15-.69-6.24-.95-1.21-.15-2.04.37-2.13,1.24-.26,2.38-.51,4.76-.74,7.14-.18,1.86-.33,3.72-.5,5.67-5.44-.59-10.75-.55-16.14.11-.18-1.36-.34-2.66-.52-3.99.3-.04.47-.08.64-.09,3.2-.15,6.4-.3,9.6-.42,1.39-.05,2.02-.62,2.08-1.97.1-2.22.19-4.44.31-6.66.04-.78-.34-1.29-1-1.54-.47-.18-1.01-.24-1.52-.24-4.6-.08-9.18.21-13.71.99-2.95.51-5.88,1.12-8.79,1.79-1.36.31-1.74,1.15-1.36,2.46,1.09,3.73,2.17,7.47,3.25,11.2.07.24.11.49.15.68-5.09,1.71-10.02,3.61-14.63,6.36-.7-1.19-1.38-2.34-2.11-3.6,1.66-.86,3.26-1.72,4.89-2.51,1.61-.77,3.27-1.43,4.88-2.2.9-.43,1.12-1.14.77-2.11-.75-2.09-1.49-4.17-2.25-6.26-.43-1.18-1.4-1.66-2.52-1.16-2.55,1.13-5.09,2.29-7.61,3.49-.99.47-1.92,1.06-2.86,1.62-2.05,1.22-4.12,2.41-6.11,3.7-1.37.89-2.65,1.93-3.96,2.91-.71.53-.85,1.58-.3,2.31.62.82,1.27,1.63,1.92,2.42,1.8,2.2,3.62,4.4,5.42,6.6.16.2.37.4.43.64.05.23,0,.58-.14.72-1.13,1.06-2.34,2.04-3.45,3.13-1.9,1.87-3.75,3.79-5.58,5.73-.63.66-1.15,1.42-1.76,2.19-1.1-.83-2.15-1.62-3.25-2.45.59-.77,1.09-1.52,1.68-2.17,1.79-1.96,3.63-3.87,5.44-5.81.82-.88.83-1.53,0-2.41-1.53-1.64-3.07-3.26-4.63-4.88-.9-.93-1.58-.98-2.54-.12-.92.82-1.76,1.73-2.63,2.6-.77.78-1.6,1.51-2.29,2.35-1.29,1.57-2.55,3.18-3.75,4.83-1.46,2-2.85,4.04-4.26,6.07-.52.76-1.04,1.52-1.5,2.32-.56.98-.44,2.2.22,2.6,1.19.71,2.39,1.4,3.6,2.06,1.74.95,3.5,1.88,5.25,2.81.85.45,1.72.89,2.62,1.35-2.53,4.84-4.71,9.73-5.97,15.01-1.37-.4-2.63-.76-3.95-1.14.5-1.73.91-3.41,1.47-5.03.58-1.66,1.33-3.25,1.99-4.88.46-1.14.21-1.79-.9-2.32-1.98-.94-3.96-1.86-5.96-2.76-1.39-.62-2.07-.31-2.73,1.08-2.06,4.38-3.41,9-4.57,13.67-.69,2.79-1.05,5.66-1.49,8.51-.23,1.49.43,2.22,1.88,2.34,2.73.23,5.46.45,8.19.71,1.31.12,2.61.32,3.98.49-.54,5.24-.51,10.38.11,15.6-1.37.16-2.66.32-3.99.48-.03-.28-.05-.42-.06-.56-.14-3.06-.29-6.11-.41-9.17-.05-1.39-.58-1.99-1.98-2.06-2.13-.11-4.27-.2-6.4-.28-1.31-.05-1.97.55-2.03,1.89-.04,1.04-.08,2.08,0,3.12.37,4.25.69,8.51,1.23,12.74.29,2.3.91,4.57,1.51,6.82.34,1.28,1.12,1.6,2.38,1.25,2.72-.76,5.44-1.51,8.16-2.28,1.29-.37,2.56-.78,3.77-1.14,1.65,5.17,3.6,10.08,6.29,14.71-1.18.69-2.31,1.36-3.52,2.06-.54-.94-1.15-1.85-1.61-2.83-1.01-2.13-1.95-4.3-2.9-6.46-.58-1.32-1.23-1.63-2.57-1.15-1.98.7-3.96,1.4-5.95,2.1-1.34.47-1.78,1.4-1.19,2.71,1.17,2.63,2.34,5.25,3.59,7.84.83,1.71,1.69,3.41,2.73,4.99,1.65,2.53,3.45,4.95,5.2,7.42.68.96,1.57,1.09,2.51.36,1.2-.94,2.4-1.88,3.58-2.84.47-.38.89-.82,1.36-1.19ZM44.48,143.17c-3.71-5.21-6.82-10.55-9.12-16.36,1.35-.56,2.68-1.12,4.1-1.71.36.89.65,1.77,1.06,2.59.86,1.73,1.78,3.43,2.68,5.14.36.68.7,1.38,1.1,2.04.7,1.14,1.54,1.26,2.67.53,1.74-1.13,3.52-2.19,5.27-3.29,1.02-.64,1.24-1.52.64-2.58-.81-1.43-1.74-2.81-2.41-4.3-1.29-2.86-2.47-5.77-3.6-8.69-.44-1.12-.63-2.33-.95-3.5-.36-1.31-1.06-1.65-2.41-1.32-4.03.98-8.06,1.92-12.07,2.88-.96-2.12-2.62-15.4-2.16-18.54h4.39c.02.28.04.59.06.89.19,3.2.35,6.39.58,9.59.11,1.54.97,2.09,2.48,1.83,1.99-.35,3.98-.68,5.97-.99,1.18-.18,1.73-.84,1.53-2.05-.63-3.89-.76-7.8-.63-11.73.07-1.9.26-3.8.47-5.69.15-1.42-.33-2.1-1.75-2.3-3.91-.57-7.81-1.14-11.72-1.72-.14-.02-.27-.06-.4-.09.02-3.37,3-14.51,4.87-18.16,1.33.57,2.66,1.15,4.05,1.75-.57,1.51-1.21,2.96-1.68,4.46-.63,2.03-1.17,4.1-1.67,6.17-.23.95.22,1.65,1.19,1.89,2.21.55,4.42,1.07,6.65,1.54,1.04.22,1.63-.26,1.95-1.37.62-2.13,1.12-4.3,1.89-6.37,1.33-3.53,2.79-7.01,4.75-10.25.75-1.24.55-1.88-.68-2.64-2.64-1.63-5.28-3.27-7.93-4.89-.91-.55-1.85-1.05-2.87-1.63,3.37-5.37,7.14-10.33,11.5-14.71,1.16,1.06,2.24,2.04,3.23,2.95-.9,1.04-1.71,1.97-2.52,2.89-.84.95-1.7,1.88-2.51,2.85-.72.86-1.39,1.76-2.05,2.67-.75,1.04-.6,1.74.44,2.49,1.7,1.22,3.4,2.46,5.11,3.67,1.17.83,1.74.64,2.65-.48,1.62-1.98,3.23-3.99,5.02-5.8,2.18-2.2,4.55-4.22,6.84-6.32.34-.31.68-.62,1-.95.59-.6.64-1.27.15-1.95-.99-1.38-1.97-2.77-2.97-4.13-1.16-1.58-2.36-3.13-3.52-4.71-.37-.51-.65-1.08-1.01-1.69,5.09-3.62,10.41-6.76,16.27-9.11.54,1.35,1.07,2.67,1.64,4.07-.44.22-.87.44-1.29.65-2.13,1.07-4.26,2.15-6.39,3.22-.67.34-1.36.63-2,1.02-1.14.71-1.28,1.53-.56,2.65,1.08,1.7,2.13,3.42,3.21,5.12.82,1.29,1.62,1.45,2.97.66,1.42-.83,2.81-1.73,4.3-2.4,2.83-1.27,5.71-2.44,8.61-3.57,1.09-.43,2.28-.59,3.41-.93,1.16-.34,1.51-1.11,1.23-2.26-1-4.06-1.97-8.12-2.95-12.16,1.86-.99,14.88-2.58,18.48-2.26v4.5c-.62,0-1.25-.03-1.87,0-2.76.17-5.53.31-8.29.54-1.92.16-2.41.95-2.04,2.84.36,1.81.67,3.63.98,5.45.27,1.55.77,1.92,2.29,1.7,5.86-.88,11.73-.91,17.6-.14,1.43.19,2.09-.31,2.3-1.74.56-3.76,1.12-7.53,1.69-11.29.04-.28.11-.55.16-.81,3.31.02,14.82,3.14,18.13,4.94-.58,1.34-1.16,2.69-1.76,4.1-1-.41-1.9-.87-2.85-1.17-2.47-.78-4.95-1.51-7.45-2.21-1.23-.35-1.95.09-2.26,1.33-.53,2.13-1.03,4.26-1.52,6.4-.21.92.23,1.63,1.17,1.93,1.04.33,2.08.69,3.15.92,2.96.63,5.67,1.9,8.37,3.21,1.89.91,3.75,1.89,5.62,2.84.92.47,1.61.28,2.19-.67,2.07-3.36,4.12-6.72,6.18-10.09.16-.27.34-.53.57-.9.74.52,1.44,1,2.13,1.51,2.64,1.94,5.31,3.85,7.9,5.86,1.34,1.04,2.55,2.24,3.79,3.39.94.88.9.9-.01,1.79-.76.74-1.48,1.54-2.14,2.23-2.03-1.79-3.95-3.51-5.9-5.19-.81-.69-1.67-1.32-2.54-1.94-1.01-.71-1.71-.58-2.43.41-1.25,1.72-2.5,3.44-3.73,5.17-.78,1.09-.62,1.69.4,2.54,1.97,1.64,3.98,3.24,5.79,5.04,2.18,2.16,4.17,4.52,6.24,6.79.12.13.21.27.33.4,1.43,1.55,1.63,1.65,3.37.44,2.67-1.85,5.25-3.83,7.88-5.73.6-.44,1.24-.82,1.97-1.29,3.68,5.15,6.77,10.53,9.09,16.31-1.36.57-2.68,1.12-4.11,1.71-.34-.85-.6-1.67-.98-2.43-.89-1.78-1.83-3.53-2.76-5.29-.36-.69-.7-1.39-1.11-2.04-.71-1.14-1.54-1.25-2.67-.53-1.74,1.12-3.52,2.19-5.27,3.29-1.02.64-1.23,1.51-.64,2.58.86,1.54,1.83,3.02,2.55,4.62,1.25,2.78,2.39,5.61,3.49,8.46.43,1.12.62,2.33.95,3.5.33,1.21,1.08,1.58,2.3,1.28,4.05-.99,8.11-1.95,12.13-2.92.91,1.65,2.63,15.04,2.2,18.55h-4.48c0-.68.03-1.34,0-1.99-.18-2.88-.35-5.75-.57-8.63-.1-1.33-1.02-1.96-2.34-1.73-2.07.36-4.15.71-6.23,1.04-1.08.18-1.53.86-1.41,2.07.25,2.61.63,5.23.64,7.84.02,3.13-.23,6.27-.46,9.4-.12,1.6.27,2.23,1.87,2.46,3.88.56,7.76,1.14,11.64,1.71.11.02.22.05.39.09-.54,6.34-2.75,12.2-4.8,18.21-1.45-.63-2.79-1.21-4.16-1.81.53-1.4,1.09-2.72,1.52-4.09.65-2.09,1.24-4.19,1.8-6.31.29-1.11-.18-1.88-1.29-2.15-2.13-.53-4.26-1.02-6.41-1.47-1.13-.24-1.73.2-2.05,1.32-.59,2.01-1.09,4.06-1.79,6.03-.66,1.87-1.49,3.69-2.32,5.49-.85,1.82-1.8,3.6-2.71,5.39-.48.94-.32,1.63.6,2.21,1.22.76,2.48,1.46,3.7,2.21,1.47.91,2.91,1.87,4.39,2.77.95.59,1.93,1.12,2.96,1.71-3.4,5.35-7.13,10.32-11.57,14.74-1.13-1.06-2.19-2.06-3.08-2.9,2.39-2.91,4.73-5.71,7.01-8.55.77-.96.57-1.71-.43-2.42-1.7-1.22-3.4-2.45-5.11-3.66-1.18-.84-1.75-.66-2.66.43-1.74,2.11-3.47,4.24-5.38,6.18-2.09,2.12-4.4,4.04-6.61,6.05-.36.33-.81.63-1.01,1.05-.2.42-.32,1.01-.18,1.43.21.64.62,1.23,1.03,1.79,1.53,2.09,3.09,4.17,4.64,6.25.67.89,1.33,1.79,2.05,2.76-5.15,3.72-10.51,6.82-16.36,9.2-.54-1.37-1.08-2.71-1.65-4.15.79-.31,1.56-.55,2.27-.91,1.8-.91,3.57-1.88,5.35-2.82.66-.35,1.34-.66,1.98-1.04,1.25-.75,1.4-1.55.62-2.77-1.1-1.72-2.16-3.47-3.25-5.2-.66-1.06-1.55-1.28-2.65-.66-1.46.82-2.86,1.77-4.37,2.45-2.91,1.31-5.87,2.52-8.84,3.68-1.09.43-2.28.59-3.41.93-1.11.33-1.45,1.08-1.17,2.21.95,3.92,1.89,7.84,2.83,11.77.04.16.05.33.07.49-2.41.99-15.87,2.67-18.47,2.13v-4.37c.32-.02.63-.03.93-.05,3.28-.22,6.56-.4,9.83-.7,1.34-.12,1.8-.92,1.56-2.26-.37-2.1-.76-4.2-1.16-6.3-.2-1.08-.69-1.45-1.83-1.33-1.78.18-3.55.44-5.33.57-4.12.29-8.24.17-12.34-.33-.62-.08-1.32.04-1.89.28-.32.14-.58.7-.65,1.11-.44,2.79-.81,5.59-1.22,8.39-.2,1.33-.44,2.66-.68,4.1-1.6-.25-3.16-.37-4.65-.75-2.98-.78-5.93-1.69-8.88-2.59-1.35-.41-2.67-.91-4.01-1.36-.43-.14-.64-.35-.42-.83.53-1.18,1.04-2.37,1.58-3.6.79.33,1.51.7,2.27.94,2.69.85,5.39,1.67,8.09,2.46,1.09.32,1.88-.15,2.17-1.26.55-2.18,1.07-4.37,1.56-6.56.21-.92-.37-1.63-1.42-1.94-2.07-.6-4.19-1.09-6.2-1.85-3.55-1.35-7.06-2.81-10.32-4.81-1.3-.79-1.93-.62-2.7.65-2.01,3.29-4.02,6.58-6.03,9.87-.16.27-.34.53-.58.9-.68-.48-1.34-.92-1.97-1.39-2.8-2.07-5.62-4.1-8.37-6.24-1.35-1.06-2.54-2.33-3.81-3.49-.49-.45-.36-.76.06-1.19.84-.86,1.62-1.79,2.42-2.67,2.7,2.85,5.5,5.13,8.39,7.3,1.03.77,1.75.63,2.49-.39,1.23-1.7,2.47-3.39,3.69-5.1.83-1.15.7-1.72-.38-2.61-3.08-2.55-6.19-5.07-8.84-8.09-1.36-1.56-2.7-3.14-4.07-4.69-.78-.87-1.39-.91-2.34-.23-2.48,1.77-4.96,3.54-7.44,5.33-.92.67-1.82,1.36-2.83,2.12Z"/>
  <path class="cls-1" d="M109.6,157.7c33.75-.08,62.29-27.56,61.56-63.2-.66-32.45-27.26-60.62-62.72-60.21-32.56.37-62.31,27.52-60.58,64.95,1.44,31.16,27.13,58.33,61.74,58.47ZM106.33,37.43c35.7-1.69,61.78,26.81,61.82,58.26.04,32.92-26.32,59.07-58.9,58.94-32.44-.13-58.28-26.21-58.46-58.7.33-32.87,26.06-57.11,55.54-58.5Z"/>
</svg>