<?xml version="1.0" encoding="UTF-8"?>
<svg id="Layer_1" xmlns="http://www.w3.org/2000/svg" viewBox="0 0 189.35 336">
  <defs>
    <style>
      .cls-1 {
        fill: #6cc5e7;
      }
    </style>
  </defs>
  <path class="cls-1" d="M129.79,37.34c-2.09-1.74-4.49-2.92-7.15-3.53-1.05-.24-2.09-.35-3.15-.4l-.38-5.36c-.1-1.32-.74-2.54-1.77-3.37-1.03-.82-2.37-1.18-3.68-.98l-77.84,11.88c-1.31.2-2.48.94-3.22,2.04-.74,1.09-.99,2.46-.69,3.74l1.23,5.23c-1,.36-1.96.78-2.89,1.32-2.35,1.37-4.29,3.22-5.77,5.51-1.45,2.25-2.29,4.61-2.58,7.23-.29,2.7.08,5.33,1.12,7.84.62,1.49,1.38,2.75,2.4,3.97,1.12,1.33,2.32,2.36,3.79,3.25,2.28,1.38,4.87,2.08,7.47,2.08-.26.96-.34,1.99-.18,3.03.61,4.02,4.38,6.79,8.4,6.17l4.56-.7,1.88,12.3c.16,1.04.53,2,1.06,2.83l-2.01.31c-4.02.61-6.79,4.38-6.17,8.4.61,4.02,4.38,6.79,8.4,6.17l1.4-.21,30.96,202.79,4.45-.68-30.96-202.79,57.38-8.76,30.96,202.79,4.45-.68-30.96-202.79,1.4-.21c4.02-.61,6.79-4.38,6.17-8.4s-4.38-6.79-8.4-6.17l-2.01.31c.25-.96.32-1.98.16-3.02l-1.88-12.3,4.56-.7c4.02-.61,6.79-4.38,6.17-8.4-.16-1.04-.53-2-1.07-2.83,2.5-.77,4.74-2.22,6.5-4.22,1.14-1.29,1.98-2.63,2.66-4.24.6-1.46.95-2.89,1.1-4.5.24-2.7-.19-5.32-1.27-7.81-1.05-2.41-2.56-4.42-4.62-6.14ZM36.34,40.15c.04-.06.09-.09.16-.1l77.84-11.88c.07-.01.13,0,.19.05.05.04.08.1.09.17l.39,5.38c-3.58.57-7.62,2.21-12.3,4.1-6.73,2.72-15.1,6.12-25.53,7.71-10.43,1.59-19.44.85-26.67.26-5.03-.41-9.37-.77-12.96-.24l-1.24-5.25c-.02-.07,0-.13.03-.19ZM49.73,67.83c.42-1.77.45-3.54.09-5.26-.2-.96-.51-1.86-.91-2.71.32.09.64.17.97.26,1.6.43,3.28.88,5.04,1.31l1.36,8.92-8.15,1.24c.73-1.15,1.27-2.41,1.6-3.77ZM110.01,58.64c.71,1.19,1.61,2.22,2.65,3.11l-8.15,1.24-1.36-8.92c1.55-.93,3.02-1.86,4.42-2.75.29-.18.57-.36.85-.54-.13.93-.16,1.88-.06,2.86.17,1.75.73,3.43,1.66,5ZM100.05,63.67l-6.49.99-.8-5.22c2.19-.92,4.25-1.92,6.19-2.97l1.1,7.2ZM89.11,65.34l-6.49.99-.55-3.59c2.24-.44,4.37-1.01,6.39-1.68l.65,4.28ZM78.17,67.01l-6.49.99-.65-4.28c2.13.03,4.32-.06,6.6-.3l.55,3.59ZM67.22,68.68l-6.49.99-1.1-7.2c2.16.42,4.43.77,6.79.99l.8,5.22ZM102.88,90.73c.25,1.61-.87,3.13-2.48,3.37-1.61.25-3.13-.87-3.37-2.48l-1.79-11.75c1.97-.18,3.94-.32,5.92-.44l1.73,11.3ZM66.11,96.35l-1.73-11.3c1.92-.48,3.85-.92,5.79-1.34l1.79,11.75c.25,1.61-.87,3.13-2.48,3.37s-3.13-.87-3.37-2.48ZM76.41,94.77l-1.83-11.98c1.94-.38,3.88-.72,5.83-1.04l1.85,12.13c.25,1.61-.87,3.13-2.48,3.37-1.61.25-3.13-.87-3.37-2.48ZM86.72,93.2l-1.85-12.13c1.95-.28,3.91-.53,5.87-.75l1.83,11.98c.25,1.61-.87,3.13-2.48,3.37s-3.13-.87-3.37-2.48ZM55.8,97.92l-1.54-10.1c1.91-.58,3.82-1.13,5.74-1.65l1.66,10.85c.25,1.61-.87,3.13-2.48,3.37-1.61.25-3.13-.87-3.37-2.48ZM120.17,95.65c1.56-.24,3.03.84,3.27,2.4s-.84,3.03-2.4,3.27l-69.1,10.55c-1.56.24-3.03-.84-3.27-2.4-.24-1.56.84-3.03,2.4-3.26l8.78-1.34,10.31-1.57,10.31-1.57,10.31-1.57,10.31-1.57,10.31-1.57,8.78-1.34ZM107.33,90.05l-1.66-10.85c1.99-.08,3.98-.12,5.97-.14l1.54,10.1c.25,1.61-.87,3.13-2.48,3.37-1.61.25-3.13-.87-3.37-2.48ZM119.64,71.03l-6.79,1.04-10.31,1.57-10.31,1.57-10.31,1.57-10.31,1.57-10.31,1.57-10.31,1.57-6.79,1.04c-1.56.24-3.03-.84-3.27-2.4-.24-1.56.84-3.03,2.4-3.27l15.82-2.42,10.94-1.67,10.94-1.67,10.94-1.67,10.94-1.67,15.82-2.42c1.56-.24,3.03.84,3.27,2.4s-.84,3.03-2.4,3.27ZM131.2,50.88c-.1,1.14-.35,2.16-.78,3.18-.47,1.13-1.07,2.08-1.87,2.98-1.58,1.79-3.63,2.86-5.96,3.24-1.12.16-2.25.12-3.36-.13-1.15-.26-2.18-.74-3.16-1.44-.9-.65-1.62-1.44-2.2-2.39-.59-.99-.94-2.05-1.05-3.13-.12-1.25.05-2.39.52-3.48.52-1.22,1.35-2.19,2.44-2.88.46-.29.94-.49,1.43-.63.15-.04.31-.08.46-.1.43-.08.87-.13,1.32-.11,1.15.06,2.1.45,2.88,1.16l.24.24c.73.77,1.07,1.62,1.04,2.58-.02.52-.13.94-.36,1.33-.17.29-.36.52-.59.69.27-.78.09-1.67-.49-2.28l-.11-.13c-.29-.31-.64-.55-1.09-.73-.9-.35-1.9-.24-2.81.32-.63.42-1.1,1.03-1.35,1.74-.44,1.21-.25,2.57.51,3.71.82,1.24,2.2,2.04,3.75,2.2,1.13.12,2.26-.09,3.35-.65,1.12-.57,2.04-1.45,2.72-2.62.6-1.04.91-2.16.96-3.43.07-2.19-.73-4.22-2.3-5.87l-.43-.42c-1.58-1.44-3.49-2.23-5.69-2.35-.63-.03-1.24,0-1.85.09-.05,0-.1,0-.15,0-.19.03-.38.08-.57.12-.18.04-.37.07-.55.12-3.28.82-6.72,2.98-10.96,5.67-6.67,4.22-14.97,9.48-25.98,11.16-11.01,1.68-20.5-.86-28.13-2.9-4.84-1.29-8.76-2.33-12.13-2.14-.21,0-.41.04-.62.06-.18.02-.36.02-.54.05-.05,0-.09.03-.14.04-.61.1-1.21.25-1.81.47-2.06.77-3.65,2.09-4.74,3.97l-.27.5c-1.01,2.04-1.16,4.21-.44,6.31.42,1.18,1.05,2.15,1.95,2.98.99.9,2.12,1.47,3.37,1.68,1.21.2,2.34.07,3.38-.38,1.45-.62,2.52-1.8,2.94-3.24.38-1.31.15-2.65-.62-3.68-.46-.61-1.09-1.05-1.88-1.28-.97-.25-1.96-.05-2.74.57-.33.27-.59.6-.78.98l-.08.17c-.37.76-.27,1.65.22,2.32-.26-.09-.51-.25-.75-.47-.35-.32-.58-.68-.75-1.15-.32-.93-.25-1.84.21-2.79l.15-.28c.55-.93,1.34-1.59,2.41-1.99.39-.15.77-.23,1.16-.28.21-.03.43-.05.65-.05.49,0,.99.05,1.5.18,1.25.33,2.32,1,3.19,2.02.77.89,1.27,1.93,1.53,3.16.22,1.07.2,2.18-.06,3.29-.27,1.1-.72,2.06-1.39,2.95-.72.96-1.57,1.72-2.58,2.32-.99.57-2.05.95-3.18,1.13-2.34.37-4.61-.08-6.66-1.32-1.03-.62-1.88-1.35-2.66-2.28-.72-.86-1.25-1.75-1.69-2.81-.75-1.82-1.02-3.66-.8-5.63.21-1.91.82-3.63,1.88-5.28,1.09-1.68,2.52-3.05,4.25-4.05.9-.52,1.82-.92,2.81-1.23.78-.24,1.6-.36,2.48-.49l.28-.04c3.09-.47,7.24-.13,12.05.26,7.47.61,16.76,1.38,27.72-.3,10.96-1.67,19.6-5.17,26.54-7.99,4.47-1.81,8.33-3.37,11.42-3.85l.27-.04c.87-.13,1.7-.26,2.51-.27,1.04,0,2.04.11,3.05.33,1.96.45,3.73,1.32,5.27,2.6,1.5,1.26,2.61,2.72,3.37,4.48.79,1.81,1.09,3.65.92,5.6Z"/>
  <path class="cls-1" d="M68.49,122.1c-2.42.37-4.08,2.63-3.71,5.04l29.07,190.39,8.75-1.34-29.07-190.39c-.37-2.42-2.63-4.08-5.04-3.71Z"/>
  <path class="cls-1" d="M81.76,120.07c-2.42.37-4.08,2.63-3.71,5.04l29.07,190.39,8.75-1.34-29.07-190.39c-.37-2.42-2.63-4.08-5.04-3.71Z"/>
  <path class="cls-1" d="M95.02,118.05c-2.42.37-4.08,2.63-3.71,5.04l29.07,190.39,8.75-1.34-29.07-190.39c-.37-2.42-2.63-4.08-5.04-3.71Z"/>
  <path class="cls-1" d="M108.29,116.02c-2.42.37-4.08,2.63-3.71,5.04l29.07,190.39,8.75-1.34-29.07-190.39c-.37-2.42-2.63-4.08-5.04-3.71Z"/>
</svg>