<?xml version="1.0" encoding="UTF-8"?>
<svg xmlns="http://www.w3.org/2000/svg" viewBox="0 0 190.43 219.83">
  <defs>
    <style>
      .cls-1 {
        fill: #f0eff4;
        mix-blend-mode: multiply;
      }

      .cls-2 {
        fill: #6cc5e7;
      }

      .cls-3, .cls-4 {
        fill: #fff;
      }

      .cls-5 {
        isolation: isolate;
      }

      .cls-6 {
        fill: none;
        stroke-linecap: round;
        stroke-linejoin: round;
        stroke-width: .86px;
      }

      .cls-6, .cls-4 {
        stroke: #0088ce;
      }

      .cls-4 {
        stroke-miterlimit: 10;
      }
    </style>
  </defs>
  <g class="cls-5">
    <g id="Layer_1">
      <g>
        <g>
          <path class="cls-3" d="M166.43,170c-.82,1.53-6.12,2.86-7.8,3.7-2.52,1.25-4.97,2.61-7.36,4.08-3.7,2.28-7.73,6.11-12.23,6.53-8.08.76-15.72,2.91-23.67,4.22-6.91,1.16-13.84,2.3-20.12,5.71-.9.48-1.78,1.01-2.73,1.35-5.76,2.07-12.29-.13-18.23,1.98-2.34.83-4.61,2.3-7.09,2.68-2.36.36-4.85.47-7.26.84-5.49.84-10.98,1.68-16.48,2.52-1.96.3-8.34,2.25-9.48.72-1.36-1.85.29-4.53,1.29-6.12.97-1.53,1.87-1.82,3.5-1.96.34-.03.86-.12,1.47-.22h.05c1.29-.22,2.94-.49,3.92-.36h.02c.24.03.44.08.58.16-.12-.07-.22-.14-.35-.2,0,0,0,0-.02,0-1.78-.95-3.76-1.55-5.69-2.08-1.23-.34-3.97-.33-4.43-1.86-.39-1.29,1.36-3.42,2.25-4.14,3.24-2.6,8.7-1.14,11.66,1.22.29.23.59.49.97.55.4.05.78-.14,1.15-.33,1.2-.63,2.41-1.26,3.61-1.9.05-.03.09-.05.15-.08-2.69-3.1-5.38-6.18-8.08-9.28-.23-.28-.49-.59-.47-.96.03-.41.39-.71.75-.9,1.91-1,4.28-.31,6.16.77,2.1,1.21,3.94,2.86,5.35,4.84.31.44.62.91,1.09,1.17.36.21.78.27,1.19.35,1.29.27,2.54.79,3.65,1.53,2.61,1.77,4.72-.22,7.23-1.47-1.5-2.58-2.88-5.23-4.1-7.96-.28-.64-2.78-6.85-3.07-6.85.91-.84,2.17-1.28,3.41-1.16,3.12.27,5.27,4.16,6.56,6.64.77,1.45,1.52,4.01,3.58,3.92.07,0,.14,0,.2-.02.51-.07.99-.32,1.46-.56,2.67-1.4,5.41-2.85,7.45-5.06,1.51-1.62,3.14-4.69,2.88-7.17-.13-1.19-.69-2.25-1.92-2.94-1.1-.62-2.38-.84-3.62-1.04-2.28-.38-4.55-.75-6.82-1.12-.86-.15-1.73-.28-2.6-.25-1.85.07-3.27.48-5.06.04-1.65-.41-3.41-.83-5.04-1.37-2.74-.9-8.42-3.18-8.78-6.62-.5-4.87,10.29-3.35,12.9-2.93,13.37,2.12,27.07,2.22,40.48.32,4.1-.59,8.33-1.38,12.48-.74,3.85.6,7.6,2.32,10.96,4.23.04.03.09.05.14.08.35.21.72.41,1.09.56.27.11.55.19.84.21.52.03,1.03-.13,1.52-.28,6.64-2.16,12.94-5.37,18.58-9.49,1.46,1.7,3.41,2.9,4.86,4.68.72.88,1.39,1.79,2,2.74.78,1.19,1.47,2.44,2.07,3.72,1.21,2.57,2.06,5.31,2.51,8.11.25,1.54,1.29,5.78.53,7.22Z"/>
          <g>
            <path class="cls-6" d="M89.68,192.76c-1.58-.42-3.17-.82-4.76-1.2-1.28-.3-2.58-.59-3.74-1.21-.6-.32-1.15-.72-1.69-1.12-2.91-2.12-5.82-4.25-8.73-6.37"/>
            <path class="cls-6" d="M80.73,190.18c1.24-.53,2.24-1.61,2.66-2.89"/>
            <path class="cls-6" d="M82.54,182.75c-1.6-2.43-4.1-4.1-6.53-5.7-.44-.29-.9-.59-1.43-.69-.52-.1-1.13.05-1.42.5"/>
            <path class="cls-6" d="M89.18,179.06c1.43-2.69,3.92-4.59,6.49-6.22,8.58-5.45,16.44-4.41,19.44-4.88"/>
            <path class="cls-6" d="M122.9,165.92c.86-.7,1.88-1.19,2.95-1.44,2.32-.53,4.73.09,7.03.71"/>
            <path class="cls-6" d="M94.95,180.9c-2.04-1.19-4.48-1.56-6.84-1.43-2.36.13-4.67.75-6.93,1.42,1.2-1.79,2.85-3.27,4.75-4.28"/>
            <path class="cls-6" d="M90.74,164.2c-2.45-2.09-5.6-3.35-8.81-3.53"/>
            <path class="cls-6" d="M72.43,157.3c-.61-1.53-.38-3.37.6-4.69"/>
            <path class="cls-6" d="M70.72,183.33c-2.1-5.1-4.38-10.13-6.83-15.07.42-.29.85-.57,1.27-.86"/>
            <path class="cls-6" d="M73.49,186.87c-1.48.46-2.95.91-4.43,1.37-.31.1-.64.19-.95.13-.43-.09-.74-.46-1.03-.8-1.93-2.23-4.54-3.87-7.39-4.63-.37-.1-.75-.19-1.07-.4-.34-.23-.57-.59-.8-.93-1.91-2.76-4.72-4.88-7.9-5.95"/>
            <path class="cls-6" d="M77.32,196.79c-2.12.86-4.24,1.73-6.37,2.59-.35.14-.71.29-1.09.24-.35-.04-.65-.24-.95-.43-3.95-2.63-7.67-5-10.89-8.15"/>
            <path class="cls-6" d="M55.95,189.03c-1.16-1.39-2.32-2.79-3.48-4.18-2-2.41-4.01-4.82-6.24-7.01"/>
            <path class="cls-6" d="M57.52,193.72c-2.93.07-5.88.15-8.74.77-1.94.42-3.83,1.1-5.8,1.31-1.33.14-2.69.06-4.01.29-1.32.22-2.67.81-3.39,1.93"/>
            <path class="cls-6" d="M50.59,190.55c-1.92-1.69-4.15-3.09-6.62-3.75s-5.21-.52-7.47.69c-.19.1-.36.4-.16.47"/>
            <path class="cls-6" d="M61.56,200.88c-8.88,1.36-17.75,2.72-26.63,4.08"/>
            <path class="cls-6" d="M44.85,195.76c-2.77-.97-5.55-1.95-8.32-2.92"/>
            <path class="cls-6" d="M49.11,189.38c1.79-.53,3.47-1.42,4.92-2.6"/>
            <path class="cls-6" d="M42.07,194.33c-1.72-2.29-5.06-3.2-7.7-2.08.8.32,1.6.64,2.4.96"/>
            <path class="cls-6" d="M43.02,203.92c-2.52-1.87-6.41-1.53-8.57.75.07.23.36.36.57.26"/>
            <path class="cls-6" d="M83.89,196.16c3.5.69,7.2.35,10.52-.96,2.02-.8,3.89-1.95,5.88-2.85,4.93-2.24,10.4-2.91,15.77-3.56"/>
            <path class="cls-6" d="M138.19,184.33c2.93.18,5.55-1.64,7.94-3.34,4.63-3.31,9.47-6.54,14.97-8"/>
            <path class="cls-6" d="M99.91,166.52c-3.58.29-7.24-.56-10.32-2.38"/>
            <path class="cls-6" d="M137.52,157.12c-6.18-6.71-15.79-10.08-24.8-8.7"/>
            <path class="cls-6" d="M73.17,160.13c-5.45-.32-10.8-2.19-15.27-5.31-.73-.51-1.47-1.1-1.81-1.92-.65-1.58.5-3.44,2.04-4.17s3.33-.64,5.04-.51c13.57,1,27.17,3,40.72,1.8"/>
          </g>
          <g>
            <path class="cls-1" d="M161.33,150.94c-1.48,1.02-3.14,1.82-4.79,2.53-4.56,1.98-9.31,3.53-14.17,4.61-4.26.96-5.93-2.63-8.85-5,.27.11.55.19.84.21.52.03,1.03-.13,1.52-.28,6.64-2.16,12.94-5.37,18.58-9.49,1.46,1.7,3.41,2.9,4.86,4.68.72.88,1.39,1.79,2,2.74Z"/>
            <path class="cls-1" d="M112.44,167.88c-3.5,1.22-7.28,1.42-10.79,2.91-4.02,1.69-7.72,4.1-10.89,7.1-.45.43-.89.87-1.43,1.18-.63.35-1.36.51-2.07.66-1.61.33-3.22.66-4.83.97-.48.1-.98.2-1.47.1-.7-.15-1.25-.67-1.76-1.17-.59-.59-1.22-1.24-1.67-1.96.51-.07.99-.32,1.46-.56,2.67-1.4,5.41-2.85,7.45-5.06,1.51-1.62,3.14-4.69,2.88-7.17,1.5.02,3.01.21,4.48.41,6.08.83,12.73,1.06,18.63,2.6Z"/>
            <path class="cls-1" d="M44.23,195.67c-1.3.22-2.6.36-3.92.36,1.29-.22,2.94-.49,3.92-.36Z"/>
            <path class="cls-1" d="M59.06,193.13c-4.93-.19-9.73,1.66-14.59,2.49,0,0,0,0-.02,0-1.78-.95-3.76-1.55-5.69-2.08-1.23-.34-3.97-.33-4.43-1.86-.39-1.29,1.36-3.42,2.25-4.14,3.24-2.6,8.7-1.14,11.66,1.22.29.23.59.49.97.55.4.05.78-.14,1.15-.33,1.2-.63,2.41-1.26,3.61-1.9,1.63,2.06,3.22,4.22,5.1,6.04Z"/>
          </g>
        </g>
        <path class="cls-6" d="M154.46,143.52s-13.53,8.52-20.66,9.99"/>
        <path class="cls-6" d="M88.93,163.35s2.94,7.98-10.23,14.03"/>
        <path class="cls-6" d="M36.49,187.58s-2.69,2.08-2.31,4.45"/>
      </g>
      <circle class="cls-2" cx="63.43" cy="59.29" r="33.99"/>
      <g id="Pentool">
        <path class="cls-4" d="M119.86,81.69l-2.31-.82c5.09-15.54.15-32.61-12.45-43.02l19.13,6.82c-.24,2.67,1.73,5.02,4.39,5.26,2.67.24,5.02-1.73,5.26-4.39.24-2.67-1.73-5.02-4.39-5.26-1.76-.16-3.46.65-4.45,2.11l-27.55-9.82.81-2.28c.22-.63-.1-1.32-.73-1.55l-6.85-2.44c-.63-.22-1.32.1-1.55.73l-.81,2.28-27.55-9.82c.24-2.67-1.73-5.02-4.39-5.26-2.67-.24-5.02,1.73-5.26,4.39-.24,2.67,1.73,5.02,4.39,5.26,1.76.16,3.46-.65,4.45-2.11l19.13,6.82c-16.35.1-30.97,10.2-36.85,25.46l-2.31-.82c-.63-.22-1.32.1-1.55.73l-2.44,6.85c-.22.63.1,1.32.73,1.55l6.85,2.44c.63.22,1.32-.1,1.55-.73l2.44-6.85c.22-.63-.1-1.32-.73-1.55l-2.26-.8c6.66-17.19,24.87-26.95,42.88-22.97l-.71,1.98c-.22.63.1,1.32.73,1.55l6.85,2.44c.63.22,1.32-.1,1.55-.73l.71-1.98c16.47,8.3,24.41,27.37,18.7,44.9l-2.26-.8c-.63-.22-1.32.1-1.55.73l-2.44,6.85c-.22.63.1,1.32.73,1.55l6.85,2.44c.63.22,1.32-.1,1.55-.73l2.44-6.85c.22-.63-.1-1.32-.73-1.55Z"/>
        <path class="cls-4" d="M92.35,43.02c-.08-.66-.68-1.14-1.35-1.06-.46.06-.84.36-.99.8l-13.18,36.99c-.16.45-.04.95.31,1.28,1.95,1.83,2.06,4.9.23,6.85-1.83,1.95-4.9,2.06-6.85.23-1.95-1.83-2.06-4.9-.23-6.85.84-.9,1.99-1.44,3.21-1.52.48-.04.89-.35,1.05-.8l13.18-36.99c.22-.63-.1-1.32-.73-1.55-.43-.15-.91-.05-1.25.27l-37.13,35.64c-.28.26-.41.64-.36,1.02l2.39,19.57,33.37,11.89,14.22-13.65c.28-.26.41-.64.36-1.02l-6.23-51.09Z"/>
        <rect class="cls-4" x="60.03" y="87.88" width="9.69" height="43.61" rx="1.21" ry="1.21" transform="translate(-60.22 133.99) rotate(-70.39)"/>
        <path class="cls-4" d="M42.47,118.42c-.22.63.1,1.32.73,1.55l31.95,11.38c.63.22,1.32-.1,1.55-.73l2.85-7.99-34.24-12.2-2.85,7.99Z"/>
      </g>
    </g>
  </g>
</svg>